<?xml version="1.0" encoding="utf-8"?>
<!-- Generator: Adobe Illustrator 22.0.0, SVG Export Plug-In . SVG Version: 6.00 Build 0)  -->
<svg version="1.1" id="Ebene_1" xmlns="http://www.w3.org/2000/svg" xmlns:xlink="http://www.w3.org/1999/xlink" x="0px" y="0px"
	 viewBox="0 0 1191 1191" style="enable-background:new 0 0 1191 1191;" xml:space="preserve">
<style type="text/css">
	.st0{fill-rule:evenodd;clip-rule:evenodd;fill:#EBF5F2;}
	.st1{fill-rule:evenodd;clip-rule:evenodd;fill:#D7E1DE;}
	.st2{fill-rule:evenodd;clip-rule:evenodd;fill:#FFFFF5;}
	.st3{fill-rule:evenodd;clip-rule:evenodd;}
	.st4{fill-rule:evenodd;clip-rule:evenodd;fill:#193540;}
	.st5{fill-rule:evenodd;clip-rule:evenodd;fill:#A0220A;}
	.st6{fill-rule:evenodd;clip-rule:evenodd;fill:#754D33;}
	.st7{fill-rule:evenodd;clip-rule:evenodd;fill:#EFCAA6;}
	.st8{fill-rule:evenodd;clip-rule:evenodd;fill:#D0A486;}
	.st9{fill-rule:evenodd;clip-rule:evenodd;fill:#FFDEBA;}
	.st10{fill-rule:evenodd;clip-rule:evenodd;fill:#C5997C;}
	.st11{fill-rule:evenodd;clip-rule:evenodd;fill:#F1F5F7;}
	.st12{fill-rule:evenodd;clip-rule:evenodd;fill:#DDE1E3;}
	.st13{fill-rule:evenodd;clip-rule:evenodd;fill:#DBB692;}
	.st14{fill-rule:evenodd;clip-rule:evenodd;fill:#FFFFFF;}
	.st15{fill:#D0A486;}
	.st16{fill:#F1F5F7;}
	.st17{fill:#DDE1E3;}
	.st18{fill:#732706;}
	.st19{fill:#550900;}
	.st20{fill:#BE8077;}
	.st21{fill:#547483;}
	.st22{fill:#A0220A;}
</style>
<g>
	<polygon class="st0" points="747.7,860.3 737.1,967.4 777.8,980.9 769,856.6 698.9,784.3 671.9,814 	"/>
	<polygon class="st1" points="747.7,860.3 742.9,909.1 753,858.5 713.7,839.5 	"/>
	<polygon class="st2" points="760,856.6 777.8,980.9 769,856.6 712.7,798.5 	"/>
	<polygon class="st0" points="355.6,804.1 366.2,911.1 325.6,924.6 334.3,800.3 404.4,728 431.4,757.7 	"/>
	<polygon class="st1" points="381.2,788.4 349.9,801.8 361.4,862.7 355.6,804.1 	"/>
	<polygon class="st2" points="341.2,804 411.8,736.1 404.4,728 334.3,800.3 329.4,870.8 	"/>
	<g>
		<path class="st3" d="M692.4,1092.2c-10.1-3.4-20.2-6.9-30.3-10.3c-5.3,9.5-10.4,21.1-15.8,30.6c26.2,15.6,59.4,28.4,87.9,31.4
			C735.1,1122.3,725,1108.1,692.4,1092.2z"/>
		<path class="st3" d="M436,1092.6c28.2,22.9,34.8,39.1,29,59.9c-27.1-9.4-56.6-29.4-78.5-50.6c7.4-8.1,15-18.2,22.3-26.2
			C417.9,1081.3,426.9,1086.9,436,1092.6z"/>
		<path class="st4" d="M399.7,873.5l48,129l-49.5,82c0,0,8,7,17.7,7c10.3,0.1,16.5-6.8,16.5-6.8l55.8-84.9l-38.6-79.1
			c84.7,36.2,132.9,33.4,208.8-0.8l45.3,77.9l-46.5,88.6c0,0,7.5,5.6,20.5,5.7c11.5,0.1,16.5-5.4,16.5-5.4l46.5-91.4
			c0,0-42.3-92.9-42.1-119.6C698.6,874.2,399.7,873.5,399.7,873.5z"/>
	</g>
	<path class="st0" d="M404.4,728l-4.7,145.5c99.5,24.2,199.1,26.4,298.9,2.1c0.3-37.5,0-56,0.3-101L404.4,728z"/>
	<path class="st2" d="M447.2,746.9c-1.7-0.7-3.4-1.3-5-2c-1.1-0.5-2.3-0.9-3.4-1.4c-2.1-0.8-4.1-1.7-6.2-2.6
		c-0.9-0.4-1.7-0.7-2.6-1.1c-2-0.9-4.1-1.8-6.1-2.7c-0.7-0.3-1.4-0.6-2.1-0.9c-2.5-1.1-5-2.3-7.5-3.5c-0.6-0.3-1.2-0.6-1.7-0.8
		c-2.7-1.3-5.3-2.5-8-3.9l-4.7,145.5c2.9,0.7,5.7,1.4,8.6,2l40.1-128.1l0.1,0C448,747.2,447.6,747.1,447.2,746.9z"/>
	<polygon class="st5" points="575.3,795.3 592.6,765.7 547.4,765.4 568.4,802.3 560.4,900.9 595.3,931.5 618.2,901.3 	"/>
	<polygon class="st6" points="733.6,367.9 759,372.9 793.4,416.1 775.3,480.8 	"/>
	<path class="st7" d="M788.1,512.3c-1.8-7.7-6.7-12.5-12.8-13.7c2.5-87.2-31.5-160.2-148-182.9C505.4,292,449.9,352.3,424.8,447.2
		c0,0,0,0,0,0c-8.3-11-21.3-11-29.1,0c-7.8,11-7.3,28.8,1,39.8c5.1,6.7,12,9.3,18.3,7.8c-11.1,70.6-10.9,153.4-10.6,233.3
		c95.8,47.3,193.9,61.5,293.4,57c24.3-67,59.2-153.9,72.4-235.1c0.7-0.3,1.4-0.7,2.1-1.1C784.1,541.8,791.2,525.4,788.1,512.3z"/>
	<polygon class="st6" points="540.8,400 596.1,394.5 590.1,411.2 518,429.9 	"/>
	<polygon class="st6" points="707.2,433.5 659.8,404.5 657.9,422.1 714.7,470.3 	"/>
	<path class="st8" d="M642.1,567.9c-4.7,9.4-15.2,15-26.1,12.9c-4.3-0.8-8.1-2.7-11.1-5.4c1.5,0.5,3,0.9,4.6,1.2
		C621.5,578.9,633.4,575.4,642.1,567.9z"/>
	<path class="st9" d="M642.1,567.9c0,0-9.5,5.9-19.5,7.5c-10,1.6-17.7,0-17.7,0c1.5,0.5,3,0.9,4.6,1.2
		C621.5,578.9,633.4,575.4,642.1,567.9z"/>
	<path class="st10" d="M532.1,702.4c-0.5,18.5-1,39.4,10.7,55.9c8.3,11.8,21.8,8.1,31.8,1.4c1.4-0.9,2.7-1.9,4-3
		c-0.1-0.5-0.2-0.9-0.3-1.4c-1.4-6.8-2.8-27.5,9.1-27.6c17.1-0.1,2.3,26-3.1,30.9c1,3.6,2.7,7,5.3,9.9c10,10.9,24.8-3.6,30.9-10.3
		c10.1-11.1,15.2-22,19.6-35.6c0.7,16.6-23.2,62.4-48.1,52.6c-3.4-1.3-6.1-3.8-8.2-6.6c-1.5-2-2.7-4.4-3.6-6.7
		c-0.8,0.6-1.6,1.1-2.5,1.7c-6.1,3.9-13.8,7.3-21.6,6.8c-16.7-1.1-23.4-20.1-25.1-32.6C529.4,725.4,529,714.3,532.1,702.4
		L532.1,702.4z M583,752.3c3.2-3.6,5.9-7.9,6.2-12.7c0.5-8.1-3.6-7-5.6-0.6C582.3,743.2,582.5,747.8,583,752.3z"/>
	<path class="st6" d="M759.8,333.2c10.1-11.6,16.5-28.2,17.9-51.6C665.3,344.3,510.1,151,455,363.7l-22.7,16.7l-7.5,66.8l78.4-92.3
		c116.5-29.5,262.3,94.5,335-16.8C815.2,343.8,788.3,340.3,759.8,333.2z"/>
	<path class="st9" d="M571.9,352c-23.5-2.8-46.6-2.7-68.6,2.9l-78.4,92.3c0,0,0,0,0,0l0,0c-8.3-11-21.3-11-29.1,0
		c-7.8,11-7.3,28.8,1,39.8c5.1,6.7,12,9.3,18.3,7.8c-11.1,70.6-10.9,153.4-10.6,233.3c14.6,7.2,29.3,13.7,44,19.4
		C451,574.5,468.8,410.8,571.9,352z"/>
	<path class="st8" d="M424.9,475.2c-0.5-12.4-13.5-21.5-23-9.6c0.2-0.4,0.5-0.9,0.8-1.3c4.6-7,13.8-9.2,19.2-1.8
		c-5-10.6-17.8-16.8-27-6.2C412.4,434.3,429.9,461.7,424.9,475.2z"/>
	<path class="st11" d="M569.3,445c33.7,6.5,51.9,38.4,40.6,71.3c-11.3,32.8-47.8,54.1-81.6,47.6c-33.7-6.5-51.9-38.4-40.6-71.3
		C499,459.8,535.6,438.4,569.3,445z"/>
	<path class="st12" d="M541.6,555.6c-33.7-6.5-51.9-38.4-40.6-71.3c4.6-13.3,13.3-24.7,24.3-33.1c-17.1,8.3-31.2,23-37.5,41.3
		c-11.3,32.8,6.9,64.7,40.6,71.3c20.1,3.9,41.2-2.1,57.3-14.5C572.1,556,556.6,558.5,541.6,555.6z"/>
	<path class="st11" d="M688.2,497.6c-23-4.4-42.6,11.1-43.8,34.7c-1.2,23.6,16.5,46.4,39.5,50.8c23,4.4,42.6-11.1,43.8-34.7
		C728.9,524.8,711.2,502,688.2,497.6z"/>
	<path class="st12" d="M727.7,548.4c0.8-16.1-7.1-31.8-19.5-41.5c8.6,9.6,13.8,22.4,13.1,35.5c-1.2,23.6-20.8,39.2-43.8,34.7
		c-7.3-1.4-14.1-4.7-20-9.3c6.9,7.7,16.1,13.3,26.4,15.3C706.9,587.6,726.5,572.1,727.7,548.4z"/>
	<g>
		<path class="st13" d="M729.9,553.6c0.4-8.2-1.4-16.2-5-23.4c2.1,5.8,3.1,12,2.8,18.2c-1.2,23.6-20.8,39.2-43.8,34.7
			c-15.1-2.9-27.8-13.7-34.5-27.4c5.8,16.1,19.8,29.3,36.7,32.6C709,592.8,728.7,577.3,729.9,553.6z"/>
		<path class="st13" d="M610,516.2c-11.3,32.8-47.8,54.1-81.6,47.6c-33.7-6.5-51.9-38.4-40.6-71.3c6.4-18.4,20.7-33.2,38-41.5
			c-19.8,8.3-36.4,24.6-43.5,45.2c-11.9,34.5,7.2,68,42.7,74.8c35.4,6.9,73.8-15.5,85.7-50c4.1-11.9,4.5-23.6,1.8-34.2
			C614.1,496.1,613.4,506.1,610,516.2z"/>
	</g>
	<path class="st14" d="M525.3,515.4c1.8,0.3,3,2.1,2.6,3.9c-0.3,1.8-2.1,3-3.9,2.6c-1.8-0.3-3-2.1-2.6-3.9
		C521.8,516.2,523.5,515.1,525.3,515.4L525.3,515.4z M515.7,523.1c3.1,0.6,5.1,3.6,4.5,6.7c-0.6,3.1-3.6,5.1-6.7,4.5
		c-3.1-0.6-5.1-3.6-4.5-6.7C509.5,524.5,512.6,522.5,515.7,523.1z"/>
	<path class="st14" d="M664.1,552.9c0.8,0.1,1.3,0.9,1.1,1.7c-0.1,0.8-0.9,1.3-1.7,1.1c-0.8-0.1-1.3-0.9-1.1-1.7
		C662.5,553.2,663.3,552.7,664.1,552.9L664.1,552.9z M659.9,556.2c1.3,0.3,2.2,1.5,1.9,2.9c-0.3,1.3-1.5,2.2-2.9,1.9
		c-1.3-0.3-2.2-1.5-1.9-2.9C657.3,556.8,658.6,555.9,659.9,556.2z"/>
	<g>
		<polygon class="st7" points="781.3,946.5 734.9,934.5 707.3,960.4 796.2,993.3 		"/>
		<polygon class="st9" points="774.2,949.4 749.9,938.4 781.3,946.5 796.2,993.3 787,990 		"/>
		<polygon class="st7" points="740.2,937.6 722.9,933.2 705.6,942 729.6,952.3 		"/>
	</g>
	<g>
		<polygon class="st7" points="318.4,911.8 372.2,898.7 403.6,929 300.5,965.6 		"/>
		<polygon class="st9" points="326.6,915.3 354.7,903 318.4,911.8 300.5,965.6 311.1,961.9 		"/>
		<polygon class="st7" points="366,902.2 386,897.4 405.8,907.8 378,919.3 		"/>
	</g>
	<g>
		<path class="st15" d="M696.8,646.3c-2.3-9.7-14.2-19.8-31.5-28.3c20.8,9.2,35.3,20.4,37.5,30.9c2.6,12.3-10.3,17.9-31.1,21.6
			C689.3,665.2,699.6,658.1,696.8,646.3z"/>
		<path class="st15" d="M470.2,637.9c-15.6,22.6-18.2,49.3-14.1,66.3c3,12.6,10.9,15.1,24.1,12.6c-16.7,4.8-26.4,4.1-30-9.1
			C445.6,690.3,449.2,661.1,470.2,637.9z"/>
		<path class="st16" d="M483.6,622.8c11-9.9,25.7-18,44.8-22.6c32.5-7.8,71.8-4,104.3,5.5c-14.6,8.4-32,14.5-50.8,18.2l-2-10.2
			l-0.4,10.7C549.4,629.7,515.9,629.2,483.6,622.8z"/>
		<path class="st17" d="M483.6,622.8c1.6,0.3,3.2,0.6,4.8,0.9c11.9-8.7,26.8-15.8,45-20.2c24.5-5.9,52.3-6.2,79.2-2.8
			c-27.8-5.6-58.2-6.8-84.2-0.6C509.3,604.7,494.6,612.8,483.6,622.8z"/>
		<path class="st18" d="M632.2,605.4c0.2,0,0.3,0.1,0.5,0.1c0,0,0,0,0,0C632.5,605.5,632.3,605.5,632.2,605.4z M456.1,704.2
			c7.1,29.4,40,3.9,106.4-12.1c66.5-16,141.3-16.4,134.3-45.8c-3.6-15-30.2-30.9-64.1-40.7c-14.6,8.4-32,14.5-50.8,18.2l-2-10.2
			l-0.4,10.7c-30,5.5-63.6,5-95.8-1.5C456.2,647.4,451.1,683.3,456.1,704.2z"/>
		<path class="st19" d="M497,625.1c28.1,4.2,56.6,3.9,82.4-0.9l0.4-10.7l2,10.2c13-2.5,25.3-6.2,36.4-11
			c9.7,9.5,16.9,20.4,19.7,32.1c2.7,11.2,3.1,22.4,1.6,33c-23.3,4.2-50.9,8.1-77.1,14.4c-17.1,4.1-31.9,8.8-44.7,13.1
			c-5.6-8.3-9.9-18-12.5-28.6C501.2,659.3,497.4,641.1,497,625.1z"/>
		<path class="st20" d="M498.1,687.4c6.6-5.7,14-11.1,21.8-16.1c-10.1,12.7-17.5,25.9-20.7,37.9c10.5-18.6,26.7-39.2,46.6-52.1
			c26.9-17.5,81.4-1.1,90.2,7.4c14.2,13.7-36,32.1-72,63.4c-36,31.3-72.5,39-86.7,25.3C463,739.5,462.1,718.7,498.1,687.4z"/>
	</g>
	<g>
		<path class="st21" d="M768.6,72h-24.9V38.5H462.4v147h281.3V152h24.9V72z M728.7,170.5H477.4v-117h251.3V170.5z"/>
		<path class="st22" d="M513.6,159.5h-25v-95h25V159.5z"/>
	</g>
</g>
</svg>
