<?xml version="1.0" encoding="utf-8"?>
<!-- Generator: Adobe Illustrator 22.0.0, SVG Export Plug-In . SVG Version: 6.00 Build 0)  -->
<svg version="1.1" id="Ebene_1" xmlns="http://www.w3.org/2000/svg" xmlns:xlink="http://www.w3.org/1999/xlink" x="0px" y="0px"
	 viewBox="0 0 1191 1191" style="enable-background:new 0 0 1191 1191;" xml:space="preserve">
<style type="text/css">
	.st0{fill-rule:evenodd;clip-rule:evenodd;}
	.st1{fill-rule:evenodd;clip-rule:evenodd;fill:#193540;}
	.st2{fill:#547483;}
	.st3{fill:#97BF0D;}
	.st4{fill-rule:evenodd;clip-rule:evenodd;fill:#EBF5F2;}
	.st5{fill-rule:evenodd;clip-rule:evenodd;fill:#754D33;}
	.st6{fill-rule:evenodd;clip-rule:evenodd;fill:#A0220A;}
	.st7{fill-rule:evenodd;clip-rule:evenodd;fill:#EFCAA6;}
	.st8{fill-rule:evenodd;clip-rule:evenodd;fill:#F1F5F7;}
	.st9{fill-rule:evenodd;clip-rule:evenodd;fill:#DDE1E3;}
	.st10{fill-rule:evenodd;clip-rule:evenodd;fill:#95A6B1;}
	.st11{fill-rule:evenodd;clip-rule:evenodd;fill:#D0A486;}
	.st12{fill-rule:evenodd;clip-rule:evenodd;fill:#FFDEBA;}
	.st13{fill-rule:evenodd;clip-rule:evenodd;fill:#DBB692;}
	.st14{fill-rule:evenodd;clip-rule:evenodd;fill:#C5997C;}
	.st15{fill-rule:evenodd;clip-rule:evenodd;fill:#FFFFFF;}
	.st16{fill:#D0A486;}
	.st17{fill-rule:evenodd;clip-rule:evenodd;fill:#732706;}
	.st18{fill-rule:evenodd;clip-rule:evenodd;fill:#FFFFF5;}
	.st19{fill-rule:evenodd;clip-rule:evenodd;fill:#D7E1DE;}
</style>
<g>
	<path class="st0" d="M686.7,1083.6c-10.1-3.3-20.2-6.7-30.2-10c-5.2,9.5-10.2,21.1-15.5,30.6c26.1,15.3,59.3,27.8,87.7,30.6
		C729.5,1113.2,719.3,1099.1,686.7,1083.6z"/>
	<path class="st0" d="M412.7,1077.6c-32.6,15.6-42.8,29.7-42,51.2c28.4-2.8,61.6-15.3,87.7-30.6c-5.3-9.5-10.2-21.1-15.5-30.6
		C432.8,1070.9,422.8,1074.2,412.7,1077.6z"/>
	<path class="st1" d="M448,871.8l-33.9,205.6c0,0,8.1,6.9,17.7,6.9c10.3,0,16.4-6.9,16.4-6.9l30.7-162.3c82,30.7,146.7,28,214.3,6.8
		l-42.3,162c0,0,7.5,5.5,20.4,5.5c11.4,0,16.4-5.5,16.4-5.5l52.4-212H448z"/>
	<path class="st2" d="M765.1,68h-24.9V34.5H458.9v147h281.3V148h24.9V68z M725.2,166.5H473.9v-117h251.3V166.5z"/>
	<path class="st3" d="M510.1,155.5h-25v-95h25V155.5z"/>
	<path class="st3" d="M550.1,155.5h-25v-95h25V155.5z"/>
	<path class="st3" d="M590.1,155.5h-25v-95h25V155.5z"/>
	<path class="st3" d="M629.2,155.5h-25v-95h25V155.5z"/>
	<path class="st3" d="M669.2,155.5h-25v-95h25V155.5z"/>
	<path class="st3" d="M709.2,155.5h-25v-95h25V155.5z"/>
	<path class="st4" d="M448,589.1v133.8v149c97.4,22.9,194.7,24.4,292.1,0c0-36.6,0-150.7,0-150.7c0-44,0-88,0-132H448z"/>
	<polygon class="st5" points="696.5,298.1 721.9,298.1 762.9,333.1 757.6,398.6 	"/>
	<polygon class="st6" points="604.3,747.6 621,718.5 576.9,718.5 597.7,754.5 590.5,850.8 624.9,880.5 647,850.8 	"/>
	<path class="st7" d="M775.8,426.4c-3.2-7-8.7-10.7-14.8-10.8c-13.9-84.1-60-147.8-176-147.8c-121.4,0-163.3,68.1-169.7,163.8
		c0,0,0,0,0,0c-10-9-22.5-6.6-27.9,5.4c-5.4,12-1.6,29,8.4,38c6.1,5.5,13.2,6.7,19,4.1c2.6,69.8,18.2,149.2,33.3,225.7
		c100.7,27.6,197.5,22.8,292.1,0c10.8-68.7,28.1-158.6,25.6-239c0.6-0.5,1.2-0.9,1.8-1.5C777.4,455.4,781.2,438.4,775.8,426.4z"/>
	<path class="st8" d="M554,402.9c33.5,0,56.8,27.2,52.1,60.7s-35.8,60.7-69.3,60.7c-33.5,0-56.9-27.2-52.1-60.7
		C489.4,430.1,520.5,402.9,554,402.9z"/>
	<path class="st9" d="M548,514c-33.5,0-56.9-27.2-52.1-60.7c1.9-13.6,8.2-26.1,17.1-36.2c-14.8,11.1-25.7,27.8-28.3,46.5
		c-4.7,33.5,18.6,60.7,52.1,60.7c20,0,39-9.6,52.2-24.5C577.2,508.7,562.8,514,548,514z"/>
	<path class="st10" d="M559.2,497.1c-9.8,0-16.7-8-15.3-17.8c1.4-9.8,10.5-17.8,20.3-17.8c7.9,0,13.8,5.1,15.2,12.2
		c0-0.1,0-0.1,0-0.2c2.1-15.1-8.4-27.3-23.4-27.3c-15.1,0-29,12.2-31.1,27.3c-2.1,15.1,8.4,27.3,23.4,27.3c5.3,0,10.4-1.5,14.9-4.1
		C561.9,496.9,560.5,497.1,559.2,497.1z"/>
	<path class="st8" d="M677.5,431.3c-22.8,0-38.7,18.5-35.5,41.4c3.2,22.8,24.4,41.4,47.2,41.4c22.8,0,38.7-18.5,35.5-41.4
		C721.5,449.8,700.4,431.3,677.5,431.3z"/>
	<path class="st9" d="M724.8,472.7c-2.2-15.6-12.7-29.1-26.4-36.2c10,7.6,17.3,18.9,19.1,31.6c3.2,22.8-12.7,41.4-35.5,41.4
		c-7.3,0-14.4-1.9-20.8-5.2c8.1,6.1,17.9,9.8,28.1,9.8C712.1,514,728,495.5,724.8,472.7z"/>
	<path class="st10" d="M680.2,495.2c-4.4,0-8.5-3.6-9.2-8c-0.6-4.4,2.5-8,6.9-8c4.4,0,8.5,3.6,9.2,8c0,0.4,0.1,0.7,0.1,1.1
		c0.3-1.3,0.3-2.6,0.1-4c-1-6.8-7.3-12.3-14.1-12.3c-6.8,0-11.5,5.5-10.6,12.3c1,6.8,7.3,12.3,14.1,12.3c2.4,0,4.5-0.7,6.2-1.8
		C682.1,495,681.2,495.2,680.2,495.2z"/>
	<polygon class="st5" points="517.6,364.8 569.7,349.2 567,366.3 501.4,397.7 	"/>
	<polygon class="st5" points="683.5,365.9 632.6,346.9 634.1,364.1 697.5,399.8 	"/>
	<path class="st11" d="M646.1,506.9c-2.7,9.9-11.8,17.2-22.6,17.2c-4.2,0-8.2-1.1-11.7-3.1c1.5,0.2,3,0.3,4.6,0.3
		C628.4,521.3,639.1,515.7,646.1,506.9z"/>
	<path class="st12" d="M646.1,506.9c0,0-8,7.4-17.3,10.8c-9.3,3.4-17,3.3-17,3.3c1.5,0.2,3,0.3,4.6,0.3
		C628.4,521.3,639.1,515.7,646.1,506.9z"/>
	<g>
		<path class="st13" d="M727.8,477.2c-1.1-7.9-4.4-15.3-9.1-21.5c3.1,5.2,5.2,10.9,6,16.9c3.2,22.8-12.7,41.4-35.5,41.4
			c-15,0-29.2-7.9-38.1-19.8c8.5,14.4,24.4,24.4,41.2,24.4C715.2,518.6,731.1,500.1,727.8,477.2z"/>
		<path class="st13" d="M606.1,463.6c-4.7,33.5-35.8,60.7-69.3,60.7c-33.5,0-56.9-27.2-52.1-60.7c2.7-18.8,13.6-35.6,28.6-46.8
			c-17.4,11.6-30.3,30.3-33.3,51.4c-5,35.2,19.5,63.8,54.7,63.8c35.2,0,67.8-28.6,72.8-63.8c1.7-12.1-0.1-23.5-4.6-33.1
			C606.3,443.6,607.5,453.3,606.1,463.6z"/>
	</g>
	<path class="st14" d="M565.7,656.4c3,17.8,6.4,38,20.6,51.6c10.2,9.7,22.4,3.7,30.8-4.6c1.2-1.2,2.2-2.4,3.3-3.6
		c-0.2-0.4-0.4-0.8-0.5-1.2c-2.6-6.3-7.8-25.9,3.6-28.2c16.4-3.2,7.1,24.5,2.8,30.2c1.7,3.3,3.9,6.2,6.9,8.5
		c11.6,8.6,23.1-8.1,27.7-15.6c7.6-12.5,10.5-23.9,12.2-37.8c3.7,15.8-10.6,64.1-36.3,59.4c-3.5-0.6-6.6-2.5-9.1-4.8
		c-1.8-1.7-3.4-3.7-4.7-5.8c-0.7,0.7-1.4,1.4-2.1,2.1c-5.1,4.9-11.9,9.5-19.4,10.5c-16.2,2.1-26.2-14.9-30.2-26.6
		C567.4,678.9,564.9,668.4,565.7,656.4L565.7,656.4z M623.8,694.7c2.4-4.1,4.2-8.7,3.6-13.4c-1-7.9-4.8-6-5.5,0.4
		C621.4,686.1,622.5,690.6,623.8,694.7z"/>
	<path class="st5" d="M715.2,259.8c7.5-13,10.6-30.1,7.6-52.8c-96.1,81.1-281-75.4-294.2,138.9l-18.7,20.2l5.3,65.4l58-103.2
		c106.2-50,269.2,41.8,318.2-78.5C770.3,259.7,743.9,261.3,715.2,259.8z"/>
	<path class="st15" d="M524.9,478.5c1.8,0,3.2,1.4,3.2,3.2c0,1.8-1.4,3.2-3.2,3.2c-1.8,0-3.2-1.4-3.2-3.2
		C521.7,480,523.1,478.5,524.9,478.5L524.9,478.5z M517.1,487.7c3.1,0,5.6,2.5,5.6,5.6c0,3.1-2.5,5.6-5.6,5.6
		c-3.1,0-5.6-2.5-5.6-5.6C511.5,490.2,514,487.7,517.1,487.7z"/>
	<path class="st15" d="M664.7,488.7c0.8,0,1.4,0.6,1.4,1.4c0,0.8-0.6,1.4-1.4,1.4c-0.8,0-1.4-0.6-1.4-1.4
		C663.3,489.3,663.9,488.7,664.7,488.7L664.7,488.7z M661.3,492.6c1.3,0,2.4,1.1,2.4,2.4c0,1.3-1.1,2.4-2.4,2.4
		c-1.3,0-2.4-1.1-2.4-2.4C659,493.7,660,492.6,661.3,492.6z"/>
	<path class="st12" d="M538.5,312.9c-23,1.7-45.2,6.1-65.3,15.5l-58,103.2c0,0,0,0,0,0l0,0c-10-9-22.5-6.6-27.9,5.4
		c-5.4,12-1.6,29,8.4,38c6.1,5.5,13.2,6.7,19,4.1c2.6,69.8,18.2,149.2,33.3,225.7c15.3,4.2,30.6,7.6,45.8,10.4
		C464.1,548.9,450.6,388.5,538.5,312.9z"/>
	<path class="st11" d="M420.6,458.5c-2.8-11.8-16.9-18.1-23.8-4.9c0.2-0.5,0.3-0.9,0.5-1.4c3.1-7.5,11.5-11.4,18.1-5.3
		c-6.8-9.2-20.2-12.8-27-1C401,421.6,422.8,444.7,420.6,458.5z"/>
	<path class="st8" d="M543.3,609.9l4.6,11l-0.6-11.8c7-1.2,14-2.2,21.1-2.9c-17.9-1.6-34.5-5.4-47.8-11.4l2.6-16.7l-7.2,14.4
		c-25.1-13.1-36.2-35.2-18.2-66c86.8,24.5,166.4,29.9,231.5,2.5c-2.4,25.5-21,44.8-46.7,57.8l-10.9-16.9l5.3,19.6
		c-9.1,4.1-18.9,7.5-29.1,10.2l-3.8-7.8l1,8.5c-9.8,2.4-20,4.2-30.2,5.3c28.8,2.2,54.7,9.4,71.8,21.5c-62,34.6-156.3,36.3-207.7,6.2
		C497.2,622.3,519.7,614.5,543.3,609.9z"/>
	<path class="st9" d="M492.5,537.3c1.4-3.5,3.1-7.1,5.3-10.8c86.8,24.5,166.4,29.9,231.5,2.5C665.3,556,571.8,573,492.5,537.3z"/>
	<g>
		<path class="st16" d="M464.4,516.5c-28.1,41.3-27.3,73.5-9.6,96.3c-23.3-24.1-27.4-59.3,4.2-105l0-0.2c16.2,8.3,32,15.4,47.3,21.2
			c-13.8-3.7-27.7-7.9-41.9-12.5L464.4,516.5z"/>
		<path class="st16" d="M687.6,541.8c21.3-6.5,41.6-16,61-28.2c6.8,42-9.6,74.2-37.8,96.8c25.3-21.7,40.1-51.5,35.3-89.4
			C727.9,530.7,708.3,537.5,687.6,541.8z"/>
	</g>
	<path class="st17" d="M520.7,594.8l2.6-16.7l-7.2,14.4c-25.1-13.1-36.2-35.2-18.2-66l0,0c-11-3.1-22.1-6.5-33.4-10.2l0,0.2
		c-37.9,55.7-23.2,94.7,14.5,116.8c0,0,0,0,0,0c18.3-11,40.7-18.8,64.4-23.4l4.6,11l-0.6-11.8c7-1.2,14-2.2,21.1-2.9
		C550.5,604.6,534,600.8,520.7,594.8z M746.1,521c-5.5,2.9-11.1,5.6-16.8,8c-2.5,25.5-21,44.8-46.7,57.8l-10.9-16.9l5.3,19.6
		c-9.1,4.1-18.9,7.5-29.1,10.2l-3.8-7.8l1,8.5c-9.8,2.4-20,4.2-30.2,5.3c28.8,2.2,54.7,9.4,71.8,21.5c0,0,0,0,0,0
		C726,605.1,752.3,569.8,746.1,521z"/>
	<path class="st18" d="M448,704.8v167c9.1,2.2,18.3,4.1,27.4,5.9l18.3-162.5C478.6,712.4,463.4,709,448,704.8z"/>
	<path class="st4" d="M830.7,714.9l18.6,91.8c6.9-13,19.8-18.2,38.1-17.1c-13.3-27.1-44.7-92.2-44.7-92.2l-102.6,7.4l-5.9,41.6
		L830.7,714.9z"/>
	<path class="st19" d="M771.6,734.2l59-19.3l8.2,40.3l-6.2-44.9L771.6,734.2z"/>
	<path class="st4" d="M357.4,714.9l-18.6,91.8c-6.9-13-19.8-18.2-38.1-17.1c13.3-27.1,46-94.7,46-94.7l101.3,9.9l5.9,41.6
		L357.4,714.9z"/>
	<path class="st19" d="M348.7,758l8.7-43.1l57.2,18.7l-60.5-23.7L348.7,758z"/>
	<path class="st18" d="M842.7,697.4l-84.2,6.1l80.7-1.6c0,0,10.5,15.9,22.7,35.3C851.5,715.8,842.7,697.4,842.7,697.4z"/>
	<path class="st18" d="M348.8,700.1l100.3,12.8l-1.1-8l-101.3-9.9c0,0-13.5,27.9-26.7,55.1C334.2,724.8,348.8,700.1,348.8,700.1z"/>
	<polygon class="st7" points="300.8,767.9 362.7,774.8 384.3,819 261.2,818 	"/>
	<polygon class="st7" points="354.8,776.2 377.8,778.8 394.8,797.4 361,798.9 	"/>
	<polygon class="st12" points="384.3,819 362.7,774.8 300.8,767.9 356.9,783 	"/>
	<polygon class="st7" points="890.2,767.9 828.3,774.8 806.7,819 929.8,818 	"/>
	<polygon class="st7" points="836.2,776.2 813.2,778.8 796.2,797.4 830,798.9 	"/>
	<polygon class="st12" points="806.7,819 828.3,774.8 890.2,767.9 834.1,783 	"/>
</g>
</svg>
