<?xml version="1.0" encoding="utf-8"?>
<!-- Generator: Adobe Illustrator 22.0.0, SVG Export Plug-In . SVG Version: 6.00 Build 0)  -->
<svg version="1.1" id="Ebene_1" xmlns="http://www.w3.org/2000/svg" xmlns:xlink="http://www.w3.org/1999/xlink" x="0px" y="0px"
	 viewBox="0 0 1191 1191" style="enable-background:new 0 0 1191 1191;" xml:space="preserve">
<style type="text/css">
	.st0{fill:#FFFFFF;}
	.st1{fill:url(#SVGID_1_);}
	.st2{fill-rule:evenodd;clip-rule:evenodd;}
	.st3{fill-rule:evenodd;clip-rule:evenodd;fill:#567483;}
	.st4{fill-rule:evenodd;clip-rule:evenodd;fill:#EFCAA6;}
	.st5{fill-rule:evenodd;clip-rule:evenodd;fill:#EBF5F2;}
	.st6{fill-rule:evenodd;clip-rule:evenodd;fill:#7EB5D0;}
	.st7{fill-rule:evenodd;clip-rule:evenodd;fill:#FFDEBA;}
	.st8{opacity:0.4;fill-rule:evenodd;clip-rule:evenodd;fill:#FFFFFF;}
	.st9{fill-rule:evenodd;clip-rule:evenodd;fill:#F1F5F7;}
	.st10{fill-rule:evenodd;clip-rule:evenodd;fill:#DDE1E3;}
	.st11{fill-rule:evenodd;clip-rule:evenodd;fill:#732706;}
	.st12{fill-rule:evenodd;clip-rule:evenodd;fill:#FFFFF5;}
	.st13{opacity:0.5;fill-rule:evenodd;clip-rule:evenodd;fill:#FFFFFF;}
	.st14{fill:#FFFFF5;}
	.st15{fill:#D4EDF9;}
</style>
<rect class="st0" width="1191" height="1191"/>
<radialGradient id="SVGID_1_" cx="602.862" cy="1087.5615" r="38.253" gradientTransform="matrix(5.7723 0 0 1 -2849.0505 0)" gradientUnits="userSpaceOnUse">
	<stop  offset="2.358490e-03" style="stop-color:#B3B3B3"/>
	<stop  offset="0.2048" style="stop-color:#CFCFCF"/>
	<stop  offset="0.4363" style="stop-color:#EAEAEA"/>
	<stop  offset="0.6442" style="stop-color:#F9F9F9"/>
	<stop  offset="0.8066" style="stop-color:#FFFFFF"/>
</radialGradient>
<path class="st1" d="M851.7,1087.6c0,21.1-98.9,38.3-220.8,38.3c-121.9,0-220.8-17.1-220.8-38.3c0-21.1,98.9-38.3,220.8-38.3
	C752.8,1049.3,851.7,1066.4,851.7,1087.6z"/>
<g>
	<path class="st2" d="M735.7,1045.9c-8.6-2.1-17.3-4.2-25.9-6.3c-3.7,8.3-7.1,18.3-10.8,26.5c22.8,11,51.3,19.1,75.2,19.5
		C773.4,1067.6,763.9,1056.6,735.7,1045.9z"/>
	<path class="st2" d="M487.7,1044.8c-27.2,13-35.8,24.8-35.1,42.8c23.8-2.3,51.5-12.8,73.3-25.6c-4.4-8-8.5-17.6-12.9-25.6
		C504.5,1039.2,496.1,1042,487.7,1044.8z"/>
</g>
<path class="st3" d="M489.2,863.8v177.8c0,0,6.7,5.7,14.8,5.7c8.6,0,13.7-5.7,13.7-5.7V902.4c70.7,29.7,124.1,29.7,187.1,0.7v138.5
	c0,0,6.3,4.6,17.1,4.6c9.6,0,13.7-4.6,13.7-4.6s0-128,0-177.8C653.4,884.4,571.3,883.2,489.2,863.8z"/>
<polygon class="st4" points="356,634.1 353,653.8 324.6,648 318.2,643.4 347.5,615.7 "/>
<path class="st5" d="M770.9,771.8L770.9,771.8l-35.4-28c0-38.7,0-77.5,0-116.2H489.2v102l-77.3-31.4l-0.2,0.1L356,634.1
	c-5.8,10.7-16.4,14.9-31.4,14c23.8,20.9,47.6,41.8,71.4,62.7h0l0,0l93.2,51.1v104.3c82.1,19.3,164.2,20.6,246.4,0
	c0-29.1,0-58.2,0-87.4l13.5,8.3l58.1,83.2c11.1-10.8,20-28.1,28-31.8C815.2,814.5,792.5,793.8,770.9,771.8z"/>
<polygon class="st2" points="698.8,382.1 720.2,382.1 754.8,411.7 750.4,466.9 "/>
<polygon class="st6" points="621.1,761.3 635.2,736.8 598,736.8 615.4,767.1 609.4,848.4 638.4,873.4 657.1,848.4 "/>
<path class="st4" d="M765.7,490.4c-2.7-5.9-7.4-9-12.5-9.1c-11.7-70.9-50.6-124.7-148.5-124.7c-102.4,0-137.8,57.5-143.2,138.2
	c0,0,0,0,0,0c-8.4-7.6-19-5.6-23.5,4.5c-4.5,10.1-1.4,24.4,7.1,32c5.2,4.7,11.1,5.7,16,3.5c2.2,58.9,15.3,125.8,28.1,190.4
	c84.9,23.2,166.6,19.3,246.4,0c9.1-58,23.7-133.8,21.6-201.6c0.5-0.4,1-0.8,1.5-1.2C767.1,514.8,770.2,500.5,765.7,490.4z"/>
<path class="st7" d="M565.5,394.7c-19.4,1.4-38.1,5.1-55.1,13.1l-48.9,87c0,0,0,0,0,0c0,0,0,0,0,0c-8.4-7.6-19-5.6-23.5,4.5
	c-4.5,10.1-1.4,24.4,7.1,32c5.2,4.7,11.1,5.7,16,3.5c2.2,58.9,15.3,125.8,28.1,190.4c12.9,3.5,25.8,6.4,38.6,8.8
	C502.8,593.7,491.4,458.4,565.5,394.7z"/>
<polygon class="st4" points="351.8,573 333.4,600.3 312.5,587.6 303.1,671.3 338,654.5 353.3,612.3 371.2,576.8 "/>
<polygon class="st7" points="315.4,594.5 345.3,607.4 312.5,587.6 305.1,653.3 "/>
<path class="st2" d="M714.6,349.9c6.4-10.9,8.9-25.4,6.4-44.5c-81.1,68.4-237-63.6-248.1,117.2l-15.8,17.1l4.4,55.2l48.9-87
	c89.6-42.1,227,35.2,268.4-66.3C761.1,349.8,738.8,351.1,714.6,349.9z"/>
<path class="st8" d="M472.8,422.6l-15.8,17.1l4.4,55.2l4.7-52.5l15.8-17.1c3.8-61.9,24-89.2,52.2-101
	C501.2,331.3,477,355.2,472.8,422.6z"/>
<path class="st9" d="M572.6,644.6l3.8,9.1l-0.5-9.7c5.7-1,11.6-1.8,17.4-2.4c-14.8-1.3-28.4-4.5-39.4-9.4l2.1-13.7l-5.9,11.9
	c-20.7-10.8-29.9-29-15-54.4c71.5,20.2,137.1,24.6,190.8,2c-2,21-17.3,36.9-38.5,47.6l-9-13.9l4.4,16.1c-7.5,3.4-15.6,6.2-24,8.4
	l-3.1-6.4l0.8,7c-8.1,2-16.5,3.5-24.9,4.4c23.7,1.8,45,7.7,59.1,17.7c-51.1,28.5-128.8,29.9-171.2,5.1
	C534.6,654.9,553.1,648.4,572.6,644.6z"/>
<path class="st10" d="M530.8,584.9c1.1-2.9,2.6-5.9,4.4-8.9c71.5,20.2,137.1,24.6,190.8,2C673.1,600.2,596.1,614.2,530.8,584.9z"/>
<g>
	<path d="M507.6,567.7c-23.1,34-22.5,60.5-7.9,79.4c-19.2-19.9-22.6-48.8,3.5-86.5l0-0.2c13.4,6.8,26.4,12.7,38.9,17.5
		c-11.3-3.1-22.9-6.5-34.5-10.3L507.6,567.7z"/>
	<path d="M691.5,588.5c17.5-5.3,34.3-13.2,50.3-23.2c5.6,34.6-7.9,61.1-31.2,79.8c20.9-17.9,33.1-42.4,29.1-73.7
		C724.7,579.4,708.6,585,691.5,588.5z"/>
</g>
<path class="st11" d="M553.9,632.2l2.1-13.7l-5.9,11.9c-20.7-10.8-29.9-29-15-54.4l0,0c-9.1-2.6-18.2-5.4-27.5-8.4l0,0.2
	c-31.2,45.9-19.1,78.1,11.9,96.2c0,0,0,0,0,0c15-9.1,33.6-15.5,53.1-19.3l3.8,9.1l-0.5-9.7c5.7-1,11.6-1.8,17.4-2.4
	C578.5,640.3,564.9,637.2,553.9,632.2z M739.8,571.4c-4.5,2.4-9.1,4.6-13.9,6.6c-2,21-17.3,36.9-38.5,47.6l-9-13.9l4.4,16.1
	c-7.5,3.4-15.6,6.2-24,8.4l-3.1-6.4l0.8,7c-8.1,2-16.5,3.5-24.9,4.4c23.7,1.8,45,7.7,59.1,17.7c0,0,0,0,0,0
	C723.2,640.7,744.8,611.6,739.8,571.4z"/>
<polygon class="st4" points="827.2,829.4 807.2,870.3 826,901 873.7,824.6 "/>
<polygon class="st4" points="873.7,824.6 827.2,829.4 807.2,870.3 808.2,871.9 803.6,881.2 808.5,899 817.1,886.6 826,901 "/>
<g>
	<path class="st12" d="M489.2,729.6l-77.3-31.4l-0.2,0.1l-54.1-62.4l-0.1,0.1l52,68l79.7,28.2v133.9c8.5,2,17.1,3.8,25.6,5.4
		l7.4-138.6c-10.9-2.1-21.9-4.7-32.9-7.7V729.6z"/>
	<path class="st12" d="M770.9,771.8L770.9,771.8l-35.4-28v0.9l34.9,29.6c18,18.3,37,39.4,54.4,59.8l2.4-4.8l0,0
		C809.3,809.1,789.8,790.9,770.9,771.8z"/>
</g>
<polygon class="st7" points="828.6,836.6 813.7,857 827.2,829.4 873.7,824.6 868.8,832.4 "/>
<g>
	<path class="st6" d="M560.6,39.9l-71.4,312.5c26.6,8.2,66.5,10.7,110.3,5.3c43.8-5.4,82-17.4,105.8-31.7l0,0L560.6,39.9z"/>
	<path class="st13" d="M560.6,39.9l-71.4,312.5c7.6,2.3,16.2,4.2,25.8,5.6L560.6,39.9z"/>
	<path class="st14" d="M636,188.9c-39.6,14.3-78.5,23.2-115.6,27.1l-4.3,18.7c40.6-4.2,83.6-14.6,127.1-31.4L636,188.9z
		 M615.2,147.9c-28.4,8.3-56.2,13.8-83.1,16.6l-4.3,18.7c30.6-3.2,62.5-9.9,95-20.2L615.2,147.9z M595.5,108.8
		c-17.9,4-35.4,6.9-52.6,8.8l-4.3,18.7c21.1-2.2,42.8-6.1,64.9-11.7L595.5,108.8z M653.6,223.7c-49.2,20.8-97.9,33.3-143.6,38
		l-4.3,18.7c49.2-5.1,101.8-19.1,154.9-42.8L653.6,223.7z M689.2,294.1c-60.7,33.6-122,54.3-179.4,63.1c18.5,3.1,40.8,4.2,64.9,2.8
		c39.8-12.2,80.5-29.8,120.9-53.2L689.2,294.1z M670.9,258c-58.7,28.4-117.3,45-171.7,50.6l-4.3,18.7c57.8-5.9,120.3-24.2,182.7-56
		L670.9,258z"/>
</g>
<path class="st15" d="M314.7,277.7c4.5-9.7,9.2-18.6,8.4-28.7c-1.4-12.5-7.6-23.9-17.2-31.8c-5.7,1.4-12.1,3-17.8,4.4
	c13.1,7.9,21.1,23.1,15.2,37.5c-4.5,9.7-9.2,18.6-8.4,28.7c1.4,12.5,7.6,23.9,17.2,31.8c5.7-1.4,12.1-3,17.8-4.4
	C316.8,307.2,308.8,292,314.7,277.7z"/>
<path class="st15" d="M374.7,110.6c-4.6,6.4-8.4,12.4-9,20.9c-0.1,10.8-0.5,20.7,0,28.1c6.4,1.5,13.6,3.1,19.9,4.6
	c-4.1-8.9-5.9-23.1-0.6-33.1c4.6-6.4,8.4-12.4,9-20.9c0.1-10.8,0.5-20.7,0-28.1c-6.4-1.5-13.6-3.1-19.9-4.6
	C378.2,86.4,380.1,100.6,374.7,110.6z"/>
<path class="st15" d="M969.2,256.4c6.2-3.9,11.6-7.8,15.1-15c3.9-9.3,7.7-17.8,9.9-24.4c-5-3.5-10.7-7.5-15.6-10.9
	c0.4,9.2-2.9,22.1-11.1,28.9c-6.2,3.9-11.6,7.8-15.1,15c-3.9,9.3-7.7,17.8-9.9,24.4c5,3.5,10.7,7.5,15.6,10.9
	C957.7,276.2,961,263.3,969.2,256.4z"/>
<path class="st15" d="M321.6,864.4c-0.6-7.9-0.6-14.9,3.4-22.5c5.6-9.3,10.5-17.8,14.8-23.9c6.2,2.1,13.2,4.5,19.3,6.6
	c-8.2,5.5-17.2,16.5-17.9,27.8c0.6,7.9,0.6,14.9-3.4,22.5c-5.6,9.3-10.5,17.9-14.8,23.9c-6.2-2.1-13.2-4.5-19.3-6.6
	C311.8,886.7,320.9,875.7,321.6,864.4z"/>
<path class="st15" d="M199.8,658c4.4-6.5,8-12.6,8.4-21.1c-0.2-10.8-0.1-20.7-0.8-28.1c-6.4-1.3-13.7-2.8-20-4
	c4.3,8.8,6.6,22.9,1.5,33.1c-4.4,6.5-8,12.6-8.4,21.1c0.2,10.8,0.1,20.7,0.8,28.1c6.4,1.3,13.7,2.8,20,4
	C197,682.2,194.7,668.1,199.8,658z"/>
<path class="st15" d="M1013.6,510.4c-5.3,5.8-9.8,11.3-11.4,19.7c-1.4,10.7-3,20.5-3.4,27.9c6.2,2.2,13.2,4.8,19.2,6.9
	c-3-9.4-3.1-23.6,3.4-32.9c5.3-5.8,9.8-11.3,11.4-19.7c1.4-10.7,3-20.5,3.4-27.9c-6.2-2.2-13.1-4.8-19.2-6.9
	C1020,486.8,1020.2,501.1,1013.6,510.4z"/>
<path class="st15" d="M224.8,424.2c3.4-7.6,6.8-15.6,6.2-22.8c-0.9-8.9-5.5-14.9-13-21.3c-4.3,0.7-9.2,0.2-12.9-1.4
	c8.9,11.4,15.6,21.4,10.9,31.8c-3.4,6.6-6.8,11.6-6.2,19.2c0.9,9.5,5.5,20.1,13,25.3c4.3-1.3,9.2-4.2,12.9-7.8
	C226.8,447.1,220.1,434.8,224.8,424.2z"/>
<path class="st15" d="M914.9,384.3c-4.9,8.7-10,16.6-10.1,26.1c0.3,11.8,5.2,22.9,13.6,31c5.4-0.8,11.6-1.8,16.9-2.7
	c-11.6-8.4-17.9-23.2-11.2-36.1c4.9-8.7,10-16.6,10.1-26.1c-0.3-11.8-5.2-22.9-13.6-31c-5.4,0.8-11.5,1.8-16.9,2.7
	C915.3,356.6,921.5,371.4,914.9,384.3z"/>
<path class="st15" d="M1035.9,341.1c3.9,6.8,7.8,12.9,7.9,20.3c-0.2,9.2-4,17.8-10.6,24.2c-4.2-0.7-9-1.4-13.2-2.1
	c9-6.6,13.9-18.1,8.7-28.2c-3.9-6.8-7.8-12.9-7.9-20.3c0.2-9.2,4-17.8,10.6-24.2c4.2,0.7,9,1.4,13.2,2.1
	C1035.6,319.5,1030.7,331,1035.9,341.1z"/>
<path class="st15" d="M392.4,500.1c3.9,6.8,7.8,12.9,7.9,20.3c-0.2,9.2-4,17.8-10.6,24.2c-4.2-0.7-9-1.4-13.2-2.1
	c9-6.6,13.9-18.1,8.7-28.2c-3.9-6.8-7.8-12.9-7.9-20.3c0.2-9.2,4-17.8,10.6-24.2c4.2,0.7,9,1.4,13.2,2.1
	C392.1,478.5,387.2,490,392.4,500.1z"/>
<path class="st15" d="M837.4,522.3c5.8-8.2,11.5-15.5,12.5-25c0.8-11.8-3-23.2-10.6-32.2c-5.4,0.3-11.7,0.7-17.1,1
	c10.7,9.5,15.6,24.8,7.7,37c-5.7,8.2-11.5,15.5-12.5,25c-0.8,11.8,3,23.2,10.6,32.2c5.4-0.3,11.7-0.7,17.1-1
	C834.4,549.8,829.6,534.5,837.4,522.3z"/>
<path class="st15" d="M941.3,678.7c-8.3,5.6-16.3,10.4-20.6,18.8c-5,10.7-5.5,22.8-1.7,33.8c5.2,1.6,11.2,3.5,16.4,5.2
	c-6.6-12.7-5.7-28.8,6-37.3c8.3-5.6,16.3-10.4,20.6-18.8c5-10.7,5.5-22.8,1.7-33.8c-5.2-1.6-11.2-3.5-16.4-5.1
	C953.9,654.1,953,670.1,941.3,678.7z"/>
<path class="st15" d="M849.4,183.1c-5.2,9.3-10.3,19.2-10.4,28.3c0.2,11.4,5.4,19.5,14.3,28.4c5.6-0.4,11.7,0.8,16.3,3.2
	c-10.1-15.5-17.6-28.9-10.5-41.6c5.1-8,9.9-14,10-23.8c-0.2-12.2-4.9-26.2-13.8-33.7c-5.7,1.3-12.2,4.3-17.3,8.5
	C849.3,153.8,856.5,170.1,849.4,183.1z"/>
<path class="st2" d="M469,517.5c-2.4-9.9-14.3-15.3-20.1-4.1c0.1-0.4,0.3-0.8,0.4-1.2c2.6-6.4,9.7-9.6,15.2-4.5
	c-5.7-7.8-17-10.8-22.8-0.8C452.5,486.4,470.9,505.8,469,517.5z"/>
<path class="st2" d="M618.7,702.1c-18.7,0-36.1-4-50.3-10.7c12.8,11.1,32.8,18.3,55.3,18.3c31,0,57.3-13.6,66.5-32.4
	C674.3,692.3,648.2,702.1,618.7,702.1z"/>
<path class="st2" d="M704.3,500.6c-23.4-6-45.6,5.5-55.9,26.7c14.7-15.3,36.1-22.2,58.4-16.5c14.2,3.6,26.6,11.8,36.2,22.8
	C735.2,517.6,721.3,505,704.3,500.6z"/>
<path class="st2" d="M548.1,504.4c-16.9,3.3-32.4,11.3-45,22.4c11.1-16.3,28.9-28.9,49.2-32.9c28-5.4,52.2,7.2,61.4,29.5
	C598.7,507.1,574.7,499.2,548.1,504.4z"/>
<path class="st2" d="M659.8,558.3c-2.3,8.4-10,14.5-19.1,14.5c-3.6,0-6.9-1-9.8-2.6c1.3,0.2,2.6,0.2,3.9,0.2
	C644.9,570.4,653.9,565.7,659.8,558.3z"/>
<path class="st7" d="M659.8,558.3c0,0-6.8,6.3-14.6,9.1c-7.8,2.8-14.3,2.8-14.3,2.8c1.3,0.2,2.6,0.2,3.9,0.2
	C644.9,570.4,653.9,565.7,659.8,558.3z"/>
<path class="st2" d="M710.3,447.8c9.9,7.3,16.7,17.2,20.2,28.2c-0.2-13.9-6.5-27.5-18.3-36.2c-16.4-12-38.3-11.3-54.3,0.3
	C675.2,434.1,694.8,436.3,710.3,447.8z"/>
<path class="st2" d="M540.9,445.7c-12.4,6.8-22,16.6-28.2,27.7c3.1-14.4,12.9-28,27.8-36.1c20.5-11.3,44.5-8.9,59.7,4.3
	C582.4,434.1,560.4,435,540.9,445.7z"/>
<path class="st7" d="M690.2,677.3c-15.9,15.1-51.2,19.6-69.4,20.8c-12.8,0.8-38.2,0.1-52.4-6.6c14.3,6.7,31.6,10.7,50.3,10.7
	C648.2,702.1,674.3,692.3,690.2,677.3z"/>
</svg>
