<?xml version="1.0" encoding="utf-8"?>
<!-- Generator: Adobe Illustrator 22.0.0, SVG Export Plug-In . SVG Version: 6.00 Build 0)  -->
<svg version="1.1" id="Ebene_1" xmlns="http://www.w3.org/2000/svg" xmlns:xlink="http://www.w3.org/1999/xlink" x="0px" y="0px"
	 viewBox="0 0 1191 1191" style="enable-background:new 0 0 1191 1191;" xml:space="preserve">
<style type="text/css">
	.st0{fill-rule:evenodd;clip-rule:evenodd;fill:#EBF5F2;}
	.st1{fill-rule:evenodd;clip-rule:evenodd;fill:#FFFFF5;}
	.st2{fill-rule:evenodd;clip-rule:evenodd;fill:#EFCAA6;}
	.st3{fill-rule:evenodd;clip-rule:evenodd;}
	.st4{fill-rule:evenodd;clip-rule:evenodd;fill:#634E42;}
	.st5{fill-rule:evenodd;clip-rule:evenodd;fill:#73C7D2;}
	.st6{fill-rule:evenodd;clip-rule:evenodd;fill:#D7E1DE;}
	.st7{fill-rule:evenodd;clip-rule:evenodd;fill:#3E3D40;}
	.st8{fill-rule:evenodd;clip-rule:evenodd;fill:#707173;}
	.st9{fill:#CBBB9D;}
	.st10{fill:#E1C47E;}
	.st11{fill:#F5F0DF;}
	.st12{fill-rule:evenodd;clip-rule:evenodd;fill:#FFDEBA;}
	.st13{fill-rule:evenodd;clip-rule:evenodd;fill:url(#SVGID_1_);}
	.st14{opacity:0.1;fill-rule:evenodd;clip-rule:evenodd;}
	.st15{fill-rule:evenodd;clip-rule:evenodd;fill:url(#SVGID_2_);}
	.st16{fill-rule:evenodd;clip-rule:evenodd;fill:#E9845A;}
	.st17{fill-rule:evenodd;clip-rule:evenodd;fill:#D0A486;}
	.st18{opacity:0.3;fill-rule:evenodd;clip-rule:evenodd;fill:#FFFFFF;}
	.st19{fill-rule:evenodd;clip-rule:evenodd;fill:#C5997C;}
	.st20{fill-rule:evenodd;clip-rule:evenodd;fill:url(#SVGID_3_);}
	.st21{opacity:0.4;fill-rule:evenodd;clip-rule:evenodd;fill:#FFFFFF;}
	.st22{fill-rule:evenodd;clip-rule:evenodd;fill:#F1F5F7;}
	.st23{fill-rule:evenodd;clip-rule:evenodd;fill:#DDE1E3;}
	.st24{fill:#D0A486;}
	.st25{fill-rule:evenodd;clip-rule:evenodd;fill:#732706;}
	.st26{fill-rule:evenodd;clip-rule:evenodd;fill:#FFFFFF;}
</style>
<g>
	<polygon class="st0" points="721.2,686.4 802.3,677.6 814.5,717.5 722.3,711 601.3,666.3 630.9,640.6 	"/>
	<polygon class="st1" points="802.3,677.6 721.2,686.4 630.9,640.6 714.5,694 	"/>
	<polygon class="st2" points="666.1,694.1 664.6,671.5 679.6,651.9 686.8,684.2 	"/>
	<g>
		<path class="st3" d="M625.5,940.1c-9.9-3.3-19.7-6.7-29.6-10c-5.2,9.3-10.2,20.6-15.4,29.9c25.5,15.2,57.9,27.7,85.8,30.6
			C667.3,969.5,657.4,955.6,625.5,940.1z"/>
		<path class="st3" d="M375.5,940.5c27.5,22.3,33.9,38.1,28.2,58.4c-26.5-9.2-55.2-28.7-76.5-49.3c7.2-7.9,14.6-17.7,21.8-25.6
			C357.8,929.5,366.6,935,375.5,940.5z"/>
		<path class="st4" d="M340.1,726.8l46.8,125.8l-48.3,80c0,0,7.9,6.8,17.3,6.8c10.1,0.1,16.1-6.6,16.1-6.6l54.5-82.8l-37.7-77.2
			c82.6,35.4,129.6,32.6,203.7-0.8l44.1,76l-45.3,86.4c0,0,7.3,5.4,20,5.5c11.2,0.1,16.1-5.3,16.1-5.3l45.3-89.2
			c0,0-41.3-90.6-41.1-116.6C631.6,727.5,340.1,726.8,340.1,726.8z"/>
	</g>
	<path class="st0" d="M344.7,585l-4.6,141.9c97,23.6,194.2,25.8,291.6,2.1c0.3-36.5,0-54.6,0.3-98.5L344.7,585z"/>
	<path class="st1" d="M386.4,603.4c-1.6-0.6-3.3-1.3-4.9-2c-1.1-0.5-2.2-0.9-3.4-1.4c-2-0.8-4-1.7-6-2.5c-0.8-0.4-1.7-0.7-2.5-1.1
		c-2-0.9-4-1.7-6-2.6c-0.7-0.3-1.4-0.6-2-0.9c-2.5-1.1-4.9-2.2-7.3-3.4c-0.6-0.3-1.1-0.5-1.7-0.8c-2.6-1.2-5.2-2.5-7.8-3.8
		l-4.6,141.9c2.8,0.7,5.6,1.3,8.4,2l39.1-124.9l0.1,0C387.2,603.7,386.8,603.6,386.4,603.4z"/>
	<polygon class="st5" points="511.3,650.6 528.2,621.7 484.2,621.4 504.6,657.4 496.8,753.5 530.9,783.4 553.2,753.9 	"/>
	<path class="st0" d="M560.2,705.3l103.2,0.2c-5.2,13.8-0.6,26.9,12.2,39.9c-38.1-5.2-114.3-15.5-114.3-15.5l-121-44.7l29.6-25.7
		L560.2,705.3z"/>
	<path class="st6" d="M560.2,724.7l-86.5-27.2l87.8,32.4c0,0,27.2,3.7,57.2,7.7C587.8,731.1,560.2,724.7,560.2,724.7z"/>
	<path class="st1" d="M662,710.5c0.3-1.7,0.8-3.4,1.5-5.1l-103.2-0.2l-90.3-45.8l89.9,52.8L662,710.5z"/>
	<path class="st7" d="M913.3,502.1l9.5-31c-3.8-4.5-12.1-9.2-22.2-12.3c-10.2-3.1-19.7-3.8-25.3-2.3l-9.5,31
		c-32.3-4.8-64.4,0.2-92.8,13.2c0,0,0,0,0,0c-1.1,0.5-2.1,1-3.2,1.5c0,0-0.1,0-0.1,0c-7.5,3.6-14.7,7.8-21.6,12.5
		c0,0-0.1,0.1-0.1,0.1c-0.8,0.6-1.7,1.2-2.5,1.8c-0.2,0.1-0.4,0.3-0.6,0.4c-0.8,0.6-1.5,1.1-2.3,1.7c-0.2,0.2-0.5,0.4-0.7,0.6
		c-0.7,0.5-1.4,1.1-2.2,1.7c-0.3,0.2-0.6,0.4-0.8,0.7c-0.7,0.5-1.4,1.1-2.1,1.7c-0.3,0.2-0.6,0.5-0.9,0.7c-0.7,0.6-1.3,1.1-2,1.7
		c-0.3,0.2-0.6,0.5-0.8,0.7c-0.7,0.6-1.3,1.2-2,1.7c-0.3,0.2-0.5,0.5-0.8,0.7c-0.7,0.6-1.3,1.2-2,1.8c-0.1,0.1-0.3,0.3-0.4,0.4
		c-2.2,2.1-4.4,4.3-6.5,6.5c-0.3,0.3-0.6,0.6-0.9,0.9c-0.5,0.6-1,1.1-1.5,1.7c-0.4,0.4-0.7,0.8-1.1,1.2c-0.5,0.5-0.9,1.1-1.4,1.6
		c-0.4,0.4-0.7,0.9-1.1,1.3c-0.4,0.5-0.9,1.1-1.3,1.6c-0.4,0.5-0.8,0.9-1.1,1.4c-0.4,0.5-0.8,1.1-1.3,1.6c-0.4,0.5-0.8,1-1.1,1.5
		c-0.4,0.5-0.8,1-1.2,1.6c-0.4,0.5-0.8,1-1.1,1.5c-0.4,0.5-0.8,1-1.1,1.6c-0.4,0.5-0.8,1.1-1.1,1.6c-0.4,0.5-0.7,1-1.1,1.5
		c-0.4,0.6-0.8,1.2-1.2,1.8c-0.3,0.5-0.6,1-0.9,1.4c-0.5,0.8-1,1.5-1.4,2.3c-0.2,0.3-0.4,0.7-0.6,1c-0.7,1.1-1.3,2.2-2,3.3
		c-0.2,0.4-0.5,0.8-0.7,1.3c-0.4,0.7-0.8,1.4-1.2,2.2c-0.3,0.5-0.5,1-0.8,1.4c-0.4,0.7-0.7,1.4-1.1,2c-0.3,0.5-0.5,1-0.8,1.5
		c-0.3,0.7-0.7,1.3-1,2c-0.3,0.5-0.5,1-0.8,1.6c-0.3,0.7-0.6,1.4-1,2c-0.2,0.5-0.5,1.1-0.7,1.6c-0.3,0.7-0.6,1.4-0.9,2.1
		c-0.2,0.5-0.5,1.1-0.7,1.6c-0.3,0.7-0.6,1.4-0.9,2.2c-0.2,0.5-0.4,1-0.6,1.6c-0.3,0.8-0.6,1.5-0.9,2.3c-0.2,0.5-0.4,1-0.6,1.5
		c-0.3,0.8-0.6,1.7-0.9,2.6c-0.1,0.4-0.3,0.9-0.4,1.3c-0.4,1.3-0.8,2.6-1.2,3.9c-0.4,1.3-0.7,2.5-1.1,3.8c-0.1,0.4-0.2,0.8-0.3,1.2
		c-0.2,0.9-0.5,1.7-0.7,2.6c-0.1,0.4-0.2,0.9-0.3,1.3c-0.2,0.9-0.4,1.7-0.6,2.6c-0.1,0.4-0.2,0.8-0.3,1.3c-0.2,1.1-0.5,2.1-0.7,3.2
		c0,0.2-0.1,0.4-0.1,0.6c-0.2,1.2-0.5,2.5-0.7,3.7c-0.1,0.4-0.1,0.8-0.2,1.2c-0.1,0.9-0.3,1.7-0.4,2.6c-0.1,0.5-0.1,0.9-0.2,1.4
		c-0.1,0.8-0.2,1.6-0.3,2.4c-0.1,0.5-0.1,0.9-0.2,1.4c-0.1,0.9-0.2,1.8-0.3,2.7c0,0.4-0.1,0.7-0.1,1.1c-0.1,1.2-0.2,2.4-0.3,3.7
		c0,0.4-0.1,0.8-0.1,1.2c-0.1,0.8-0.1,1.7-0.1,2.5c0,0.5,0,1-0.1,1.5c0,0.7-0.1,1.5-0.1,2.2c0,0.5,0,1.1,0,1.6c0,0.8,0,1.5,0,2.3
		c0,0.5,0,1,0,1.5c0,1.2,0,2.3,0.1,3.5c0,0.5,0,1,0.1,1.4c0,0.7,0.1,1.5,0.1,2.2c0,0.6,0.1,1.2,0.1,1.7c0,0.6,0.1,1.3,0.1,1.9
		c0,0.6,0.1,1.2,0.1,1.8c0.1,0.6,0.1,1.3,0.2,1.9c0.1,0.6,0.1,1.2,0.2,1.8c0.1,0.7,0.2,1.4,0.2,2.1c0.1,1,0.2,2,0.4,2.9
		c0.1,0.6,0.2,1.2,0.3,1.9c0.1,0.6,0.2,1.3,0.3,1.9c0.1,0.6,0.2,1.1,0.3,1.7c0.1,0.7,0.2,1.3,0.3,2c0.1,0.5,0.2,1.1,0.3,1.6
		c0.1,0.7,0.3,1.3,0.4,2c0.1,0.5,0.2,1,0.3,1.5c0.3,1.3,0.6,2.6,0.9,3.9c0.1,0.4,0.2,0.8,0.3,1.3c0.2,0.7,0.4,1.4,0.5,2.1
		c0.1,0.5,0.2,0.9,0.4,1.4c0.2,0.7,0.4,1.4,0.6,2c0.1,0.5,0.3,0.9,0.4,1.4c0.2,0.7,0.4,1.4,0.6,2c0.1,0.4,0.3,0.8,0.4,1.3
		c0.5,1.7,1.1,3.4,1.7,5.1c0,0,0,0,0,0l0,0c16.9,47.6,55.4,86.9,107.4,102.8c87.3,26.8,179.8-22.3,206.6-109.7
		C1024,620.4,985.8,536.9,913.3,502.1z"/>
	<path class="st3" d="M997.8,597.1c2,23.9-0.4,48.6-7.9,72.9c-27.8,90.8-116.3,146.3-207.4,135.7c3.4,1.3,6.9,2.5,10.5,3.6
		c87.3,26.8,179.8-22.3,206.6-109.7C1010.4,664.7,1009,629.1,997.8,597.1z"/>
	<path class="st8" d="M900.5,458.7c-10.2-3.1-19.7-3.8-25.3-2.3l-9.5,31.1c-79.6-11.8-158,35.9-182.3,115.1
		c-10.8,35.3-9.2,71.5,2.3,103.8c-6.1-28.7-5.2-59.2,4-89.3c24-78.3,96.9-128,174.9-126l-6.5,21l20.5-52.6c4.4,3.4,11,6.7,18.8,9.1
		c10.2,3.1,19.7,3.8,25.3,2.3C918.9,466.6,910.7,461.8,900.5,458.7z"/>
	<path class="st7" d="M889,460.7c1.6,1.9,5.1,3.9,9.4,5.2c4.3,1.3,8.3,1.6,10.7,1c-1.6-1.9-5.1-3.9-9.4-5.2
		C895.4,460.3,891.4,460,889,460.7z"/>
	<g>
		<path class="st9" d="M901.3,464.4l-4-1.2c8.1-26.3,36-41.1,62.3-33.1l-1.2,4C934.3,426.8,908.7,440.4,901.3,464.4z"/>
	</g>
	<path class="st10" d="M1019.6,469.3c-43.3-30.1-60-33.2-48.8-8.9c-11.1-24.2-23.1-12.2-35,35.2c11.9-47.4,9.6-64.2-6.6-49.2
		c16.2-15,1.1-22.7-44.3-22.4c45.4-0.2,60.7-7.6,44.7-21.5c15.9,13.9,18.6-2.9,7.7-49c10.9,46.1,22.6,58.4,34.3,35.9
		c-11.6,22.5,5.1,19.8,49-7.9c-43.9,27.7-51.9,42.6-23.6,43.7C968.6,424,976.3,439.2,1019.6,469.3z"/>
	<path class="st11" d="M964.8,454.6c-5.6-20.8-10-26.2-12.9-15.7c2.9-10.5-4-9.9-20.2,1.7c16.2-11.7,20-17.5,10.9-17.1
		c9-0.4,6.3-6.8-7.9-18.7c14.2,11.9,21,13.7,19.7,5.1c1.3,8.5,6.6,4,15.4-13.3c-8.8,17.3-8.4,24.2,1.2,20.3
		c-9.6,4-3.6,7.6,17.4,10.5c-21-2.9-27.5-0.4-18.9,7.4C960.9,426.9,959.3,433.7,964.8,454.6z"/>
	<g>
		<polygon class="st2" points="647.3,699.1 662.6,758 708.3,772.7 690.2,653.8 		"/>
		<polygon class="st12" points="654.9,705.2 657.6,738.9 647.3,699.1 690.2,653.8 692.1,666 		"/>
	</g>
	<g>
		<g>
			<linearGradient id="SVGID_1_" gradientUnits="userSpaceOnUse" x1="665.6953" y1="288.7954" x2="724.0361" y2="288.7954">
				<stop  offset="0" style="stop-color:#FA9271"/>
				<stop  offset="0.5056" style="stop-color:#ED7C54"/>
				<stop  offset="1" style="stop-color:#B5593B"/>
			</linearGradient>
			<polygon class="st13" points="665.7,233.7 690.5,238.6 724,280.7 706.4,343.9 			"/>
			<polygon class="st14" points="724,280.7 700.8,251.5 714.6,284.6 706.4,343.9 			"/>
			<radialGradient id="SVGID_2_" cx="525.1959" cy="409.5689" r="213.9173" gradientUnits="userSpaceOnUse">
				<stop  offset="0" style="stop-color:#F9E8D8"/>
				<stop  offset="1" style="stop-color:#E5C3A0"/>
			</radialGradient>
			<path class="st15" d="M718.9,374.6c-1.8-7.5-6.5-12.2-12.5-13.4c2.4-85-30.7-156.3-144.3-178.4C443.1,159.7,389,218.5,364.5,311
				c0,0,0,0,0,0c-8.1-10.7-20.8-10.7-28.4,0c-7.6,10.7-7.1,28.1,1,38.8c5,6.6,11.7,9.1,17.8,7.6c-10.8,68.9-10.6,149.6-10.3,227.5
				c93.4,46.2,189.2,60,286.2,55.6c23.7-65.3,57.8-150.1,70.6-229.3c0.7-0.3,1.4-0.7,2-1.1C715,403.3,721.9,387.4,718.9,374.6z"/>
			<polygon class="st16" points="477.7,265 531.7,259.7 525.8,275.9 455.5,294.2 			"/>
			<polygon class="st16" points="640,297.7 593.7,269.4 592,286.6 647.3,333.6 			"/>
			<path class="st17" d="M576.5,428.8c-4.6,9.2-14.9,14.6-25.4,12.6c-4.2-0.8-7.9-2.7-10.8-5.3c1.4,0.5,2.9,0.9,4.5,1.1
				C556.4,439.5,568,436.1,576.5,428.8z"/>
			<path class="st18" d="M576.5,428.8c0,0-9.3,5.8-19,7.3c-9.7,1.5-17.3,0-17.3,0c1.4,0.5,2.9,0.9,4.5,1.1
				C556.4,439.5,568,436.1,576.5,428.8z"/>
			<path class="st19" d="M469.2,560c-0.5,18-1,38.5,10.4,54.5c8.1,11.5,21.3,7.9,31,1.4c1.4-0.9,2.7-1.9,3.9-2.9
				c-0.1-0.4-0.2-0.9-0.3-1.3c-1.4-6.7-2.8-26.9,8.9-26.9c16.7-0.1,2.2,25.4-3,30.1c1,3.5,2.6,6.9,5.2,9.6
				c9.7,10.6,24.2-3.5,30.1-10c9.8-10.8,14.9-21.4,19.1-34.7c0.7,16.2-22.7,60.8-46.9,51.3c-3.3-1.3-5.9-3.7-8-6.5
				c-1.5-2-2.6-4.2-3.5-6.6c-0.8,0.6-1.6,1.1-2.4,1.6c-6,3.8-13.4,7.1-21,6.6c-16.3-1-22.9-19.6-24.5-31.8
				C466.6,582.4,466.2,571.5,469.2,560L469.2,560z M518.9,608.6c3.1-3.5,5.8-7.7,6-12.4c0.5-7.9-3.5-6.8-5.5-0.6
				C518.2,599.7,518.4,604.3,518.9,608.6z"/>
			<linearGradient id="SVGID_3_" gradientUnits="userSpaceOnUse" x1="364.5498" y1="220.1346" x2="767.832" y2="220.1346">
				<stop  offset="0" style="stop-color:#FA9271"/>
				<stop  offset="0.5056" style="stop-color:#ED7C54"/>
				<stop  offset="1" style="stop-color:#B5593B"/>
			</linearGradient>
			<path class="st20" d="M691.3,199.8c9.9-11.3,16.1-27.5,17.5-50.3c-109.6,61.1-261-127.4-314.7,80.1l-22.2,16.3l-7.3,65.1
				l76.5-90.1c113.6-28.7,255.8,92.2,326.8-16.4C745.3,210.2,719.1,206.8,691.3,199.8z"/>
			<path class="st21" d="M394,229.7l-22.2,16.3l-7.3,65.1l13-58.2l22.2-16.3c21.4-82.6,61.3-105.1,108.5-106
				C459.3,124,417.4,139.3,394,229.7z"/>
			<path class="st18" d="M508,218.2c-22.9-2.7-45.4-2.6-66.9,2.8l-76.5,90c0,0,0,0,0,0v0c-8.1-10.7-20.8-10.7-28.4,0
				c-7.6,10.7-7.1,28.1,1,38.8c5,6.6,11.7,9.1,17.8,7.6c-10.8,68.9-10.6,149.6-10.3,227.5c14.2,7,28.5,13.3,42.9,18.9
				C390.1,435.2,407.5,275.5,508,218.2z"/>
			<path class="st17" d="M364.7,338.4c-0.5-12.1-13.1-21-22.4-9.3c0.2-0.4,0.5-0.9,0.8-1.3c4.5-6.8,13.5-9,18.7-1.8
				c-4.9-10.3-17.3-16.4-26.3-6.1C352.5,298.5,369.5,325.2,364.7,338.4z"/>
			<g>
				<g>
					<path class="st22" d="M456.3,511.3l2.5,11.7l1.6-11.7c7.1,0.1,14.2,0.5,21.3,1.2c-17.3-5-32.8-11.9-44.8-20.3l5.7-15.9
						l-9.8,12.8c-22.1-17.7-28.9-41.4-5.3-68.3c80.6,40.5,157.7,61,226.8,46.4c-7.3,24.6-29.1,40-56.8,47.8l-7.5-18.7l1.5,20.2
						c-9.7,2.3-20,3.8-30.5,4.5l-2.2-8.4l-0.7,8.5c-10.1,0.5-20.4,0.3-30.7-0.5c27.8,7.6,51.9,19.6,66.4,34.7
						c-67.4,22.2-160.3,5.9-205.1-33.4C408.6,514.7,432.2,511.3,456.3,511.3z"/>
					<path class="st23" d="M420.2,430.4c2-3.2,4.4-6.4,7.3-9.6c80.6,40.5,157.7,61,226.8,46.4C586.2,481.5,491.3,480.5,420.2,430.4z
						"/>
					<g>
						<path class="st24" d="M396.6,404.7c-35.4,35.2-40.7,66.9-27.7,92.7c-18.3-28.1-15.6-63.4,24.1-102.3l0.1-0.2
							c14.4,11.2,28.5,21.2,42.4,29.8c-12.8-6.3-25.7-13-38.7-20.3L396.6,404.7z"/>
						<path class="st24" d="M610.9,471.9c22.1-2.3,43.9-7.8,65.3-16.1c-1.4,42.6-23.5,71-55.5,87.9c29-16.5,49.2-42.9,51.7-81.1
							C652.5,468.6,632,471.6,610.9,471.9z"/>
					</g>
					<path class="st25" d="M436.9,492.2l5.7-15.9l-9.8,12.8c-22.1-17.7-28.9-41.4-5.3-68.3l0,0c-10.2-5.1-20.5-10.6-30.8-16.4
						l-0.1,0.2c-47.7,47.5-40.8,88.6-8,117.4c0,0,0,0,0,0c20-7.3,43.6-10.7,67.7-10.8l2.5,11.7l1.6-11.7c7.1,0.1,14.2,0.5,21.3,1.2
						C464.4,507.5,448.8,500.6,436.9,492.2z M672.3,462.5c-5.9,1.8-12,3.4-18,4.6c-7.3,24.6-29.1,40-56.8,47.8l-7.5-18.7l1.5,20.2
						c-9.7,2.3-20,3.8-30.5,4.5l-2.2-8.4l-0.7,8.5c-10.1,0.5-20.4,0.3-30.7-0.5c27.8,7.6,51.9,19.6,66.4,34.7c0,0,0,0,0,0
						C636.6,541.3,669.1,511.7,672.3,462.5z"/>
				</g>
			</g>
		</g>
		<path class="st3" d="M499.3,328.3c-18.5-3.6-36.4,8.6-40,27.1c-3.6,18.5,8.6,36.4,27.1,40c18.5,3.6,36.4-8.6,40-27.1
			C530,349.7,517.9,331.8,499.3,328.3z"/>
		<path class="st18" d="M492,388c-16.2-3.1-26.9-18.8-23.7-35.1c1.9-9.8,8.3-17.5,16.7-21.4c-11.3,3-20.5,12.2-22.9,24.4
			c-3.3,17,7.9,33.4,24.9,36.7c12.3,2.4,24.2-2.8,31.2-12.2C511.3,386.7,501.8,389.8,492,388z"/>
		<path class="st26" d="M503.9,368.6c-1.5-0.6-3.2,0.1-3.8,1.6c-0.6,1.5,0.1,3.2,1.6,3.8c1.5,0.6,3.2-0.1,3.8-1.6
			C506.1,371,505.4,369.2,503.9,368.6z"/>
		<path class="st26" d="M494.3,372.3c-2.5-1-5.3,0.2-6.3,2.6c-1,2.5,0.2,5.3,2.6,6.3c2.5,1,5.3-0.2,6.3-2.6
			C498,376.1,496.8,373.3,494.3,372.3z"/>
		<path class="st3" d="M613.5,350.2c-18.5-3.6-36.4,8.6-40,27.1c-3.6,18.5,8.6,36.4,27.1,40c18.5,3.6,36.4-8.6,40-27.1
			C644.2,371.7,632,353.8,613.5,350.2z"/>
		<path class="st26" d="M617.6,390.5c-1.5-0.6-3.2,0.1-3.8,1.6c-0.6,1.5,0.1,3.2,1.6,3.8c1.5,0.6,3.2-0.1,3.8-1.6
			C619.8,392.8,619.1,391.1,617.6,390.5z"/>
		<path class="st26" d="M608,394.2c-2.5-1-5.3,0.2-6.3,2.6c-1,2.5,0.2,5.3,2.6,6.3c2.5,1,5.3-0.2,6.3-2.6
			C611.7,398,610.5,395.2,608,394.2z"/>
		<path class="st18" d="M605.7,409.8c-16.2-3.1-26.9-18.8-23.7-35.1c1.9-9.8,8.3-17.5,16.7-21.4c-11.3,3-20.5,12.2-22.9,24.4
			c-3.3,17,7.9,33.4,24.9,36.7c12.3,2.4,24.2-2.8,31.2-12.2C625,408.6,615.5,411.7,605.7,409.8z"/>
		<path class="st19" d="M484.9,403.1c-9.6-1.8-18.1-6.1-25-11.9c4.6,9,13.2,15.8,23.9,17.9c10.7,2.1,21.2-1.1,28.8-7.7
			C504,404.2,494.5,404.9,484.9,403.1z"/>
		<path class="st19" d="M599.1,425.1c-9.6-1.8-18.1-6.1-25-11.9c4.6,9,13.2,15.8,23.9,17.9c10.7,2.1,21.2-1.1,28.8-7.7
			C618.2,426.1,608.7,426.9,599.1,425.1z"/>
		<path class="st19" d="M615.3,340.9c9.6,1.8,18.1,6.1,25,11.9c-4.6-9-13.2-15.8-23.9-17.9c-10.7-2.1-21.2,1.1-28.8,7.7
			C596.3,339.9,605.7,339.1,615.3,340.9z"/>
		<path class="st19" d="M501.1,319c9.6,1.8,18.1,6.1,25,11.9c-4.6-9-13.2-15.8-23.9-17.9c-10.7-2.1-21.2,1.1-28.8,7.7
			C482.1,317.9,491.6,317.1,501.1,319z"/>
	</g>
</g>
</svg>
