<?xml version="1.0" encoding="utf-8"?>
<!-- Generator: Adobe Illustrator 22.0.0, SVG Export Plug-In . SVG Version: 6.00 Build 0)  -->
<svg version="1.1" id="Ebene_1" xmlns="http://www.w3.org/2000/svg" xmlns:xlink="http://www.w3.org/1999/xlink" x="0px" y="0px"
	 viewBox="0 0 1191 1588" style="enable-background:new 0 0 1191 1588;" xml:space="preserve">
<style type="text/css">
	.st0{fill:#FFFFFF;}
	.st1{fill:#C6C6C6;}
	.st2{fill-rule:evenodd;clip-rule:evenodd;fill:#95A6B1;}
	.st3{fill-rule:evenodd;clip-rule:evenodd;fill:#93C4C6;}
	.st4{fill:#93C4C6;}
	.st5{fill-rule:evenodd;clip-rule:evenodd;}
	.st6{fill-rule:evenodd;clip-rule:evenodd;fill:#567483;}
	.st7{fill-rule:evenodd;clip-rule:evenodd;fill:#EBF5F2;}
	.st8{fill-rule:evenodd;clip-rule:evenodd;fill:#7EB5D0;}
	.st9{fill-rule:evenodd;clip-rule:evenodd;fill:#FFFFF5;}
	.st10{fill-rule:evenodd;clip-rule:evenodd;fill:#EFCAA6;}
	.st11{fill-rule:evenodd;clip-rule:evenodd;fill:#FFDEBA;}
	.st12{opacity:0.6;}
	.st13{fill-rule:evenodd;clip-rule:evenodd;fill:#C6C6C6;}
	.st14{opacity:0.4;fill-rule:evenodd;clip-rule:evenodd;fill:#FFFFFF;}
	.st15{fill-rule:evenodd;clip-rule:evenodd;fill:#F1F5F7;}
	.st16{fill-rule:evenodd;clip-rule:evenodd;fill:#DDE1E3;}
	.st17{fill-rule:evenodd;clip-rule:evenodd;fill:#732706;}
	.st18{fill-rule:evenodd;clip-rule:evenodd;fill:#D7E1DE;}
	.st19{fill:url(#SVGID_1_);}
</style>
<rect class="st0" width="1191" height="1588"/>
<g>
	<path class="st1" d="M627.9,138.5c2-0.6,3.7-1,5.1-1.4c1.4-0.4,2.5-0.7,3.2-0.9c0.7-0.2,1.1-0.3,1.1-0.3l-6.7-6.3
		c-0.1,0-0.5,0.1-1.2,0.3c-0.8,0.2-1.8,0.5-3.3,0.9c-1.4,0.4-3.1,0.9-5.2,1.4c-2,0.6-4.4,1.2-7,2l7,6.3
		C623.6,139.8,625.9,139.1,627.9,138.5z"/>
	<path class="st1" d="M968.7,627.6c0.9,1.6,1.8,3.2,2.5,4.9c0.7,1.6,1.4,3.3,2,4.9l14.7-1.3c-0.6-1.8-1.3-3.6-2.2-5.3
		c-0.8-1.8-1.7-3.5-2.7-5.3c-1-1.8-2.1-3.5-3.3-5.2c-1.2-1.7-2.4-3.4-3.8-5.1l-13.7,3c1.2,1.6,2.4,3.1,3.5,4.7
		C966.7,624.4,967.7,626,968.7,627.6z"/>
	<path class="st1" d="M386.7,447.3c3.1,0.7,6.3,1.3,9.6,2l5.5-7.1c-3.2-0.7-6.4-1.3-9.5-2c-3.1-0.7-6.1-1.3-9.1-1.9
		c-3-0.6-5.9-1.3-8.7-1.9c-2.9-0.6-5.7-1.3-8.5-1.9l-5.9,7c2.8,0.6,5.7,1.3,8.6,1.9c2.9,0.6,5.8,1.3,8.8,1.9
		C380.5,446,383.5,446.6,386.7,447.3z"/>
	<path class="st1" d="M196.5,932c-2.8,1.2-5.6,2.4-8.3,3.7c-2.7,1.2-5.4,2.5-7.9,3.7c-2.6,1.2-5.1,2.5-7.6,3.7l10.3,6.2
		c2.4-1.2,4.8-2.4,7.3-3.6c2.5-1.2,5-2.4,7.6-3.6c2.6-1.2,5.3-2.4,8-3.5c2.7-1.2,5.5-2.3,8.3-3.5l-9.1-6.7
		C202.2,929.5,199.3,930.8,196.5,932z"/>
	<path class="st1" d="M230.7,299.8c1.8-1.4,3.7-2.8,5.7-4.2l-11.6-4.3c-2,1.4-4,2.9-5.9,4.3c-1.9,1.4-3.8,2.9-5.5,4.3
		c-1.8,1.4-3.5,2.9-5.2,4.3c-1.7,1.4-3.3,2.8-4.8,4.2l12.5,3.6c1.5-1.3,3-2.7,4.6-4c1.6-1.4,3.2-2.7,5-4.1
		C227.1,302.5,228.8,301.2,230.7,299.8z"/>
	<path class="st1" d="M260.9,1157.2c-2.8-1.2-5.5-2.3-8.2-3.5c-2.7-1.2-5.3-2.3-7.9-3.4l-9.8,7c2.6,1.2,5.3,2.3,8,3.5
		c2.7,1.2,5.5,2.4,8.3,3.5c2.8,1.2,5.6,2.4,8.5,3.6c2.9,1.2,5.7,2.4,8.6,3.6l9.4-7.2c-2.9-1.2-5.7-2.4-8.5-3.5
		C266.4,1159.5,263.6,1158.4,260.9,1157.2z"/>
	<path class="st1" d="M197,1127.9c-2.5-1.3-5-2.6-7.5-3.8c-2.4-1.3-4.8-2.5-7.2-3.8l-10.9,6.4c2.4,1.3,4.8,2.5,7.3,3.8
		c2.5,1.3,5,2.6,7.6,3.9c2.6,1.3,5.2,2.6,7.9,3.9c2.7,1.3,5.4,2.6,8.2,4l10.3-6.7c-2.7-1.3-5.4-2.6-8.1-3.9
		C202.1,1130.5,199.5,1129.2,197,1127.9z"/>
	<path class="st1" d="M266.1,906.7c-3.1,1-6.1,1.9-9.1,2.9c-3,1-6,1.9-8.9,2.9c-2.9,1-5.8,1.9-8.5,2.9l8,7.1
		c2.7-0.9,5.5-1.9,8.3-2.8c2.8-0.9,5.7-1.9,8.6-2.8c2.9-0.9,5.9-1.9,8.9-2.8c3-0.9,6.1-1.9,9.2-2.8l-7.2-7.4
		C272.3,904.8,269.2,905.7,266.1,906.7z"/>
	<path class="st1" d="M340,886.3c-3.2,0.8-6.4,1.6-9.5,2.4c-3.1,0.8-6.2,1.6-9.2,2.4c-3,0.8-6,1.6-9,2.4l6.6,7.5
		c2.9-0.8,5.8-1.6,8.8-2.3c3-0.8,6-1.6,9.1-2.3c3.1-0.8,6.2-1.6,9.4-2.4c3.2-0.8,6.4-1.6,9.6-2.4l-6.1-7.6
		C346.4,884.7,343.2,885.5,340,886.3z"/>
	<path class="st1" d="M328.5,1184.3c-2.9-1.1-5.7-2.2-8.6-3.3c-2.8-1.1-5.6-2.2-8.4-3.2l-9.1,7.3c2.8,1.1,5.6,2.2,8.4,3.3
		c2.8,1.1,5.7,2.2,8.6,3.3c2.9,1.1,5.8,2.2,8.8,3.3c3,1.1,5.9,2.2,8.9,3.3l8.8-7.4c-3-1.1-5.9-2.2-8.8-3.3
		C334.3,1186.5,331.4,1185.4,328.5,1184.3z"/>
	<path class="st1" d="M268.3,264.4c-2.3,1.2-4.5,2.5-6.7,3.7c-2.2,1.2-4.3,2.5-6.4,3.7c-2.1,1.2-4.2,2.5-6.2,3.7l10.9,4.7
		c2-1.2,4-2.4,6-3.6c2.1-1.2,4.2-2.4,6.3-3.6c2.1-1.2,4.3-2.4,6.5-3.6c2.2-1.2,4.5-2.4,6.7-3.7l-10.3-5.1
		C272.8,261.9,270.5,263.1,268.3,264.4z"/>
	<path class="st1" d="M315.1,430.9c3,0.8,6.1,1.5,9.3,2.3l6.3-6.9c-3.1-0.8-6.1-1.5-9.1-2.3c-3-0.8-5.9-1.5-8.8-2.2
		c-2.9-0.7-5.7-1.5-8.4-2.2c-2.7-0.7-5.4-1.5-8-2.2l-7,6.7c2.7,0.7,5.4,1.5,8.2,2.2c2.8,0.8,5.7,1.5,8.6,2.3
		C309.1,429.4,312.1,430.1,315.1,430.9z"/>
	<path class="st1" d="M246.6,410.9c2.8,1,5.8,2,8.8,3l7.9-6.4c-2.9-1-5.7-1.9-8.4-2.9c-2.7-1-5.4-1.9-7.9-2.9c-2.5-1-5-1.9-7.4-2.9
		c-2.4-1-4.6-1.9-6.8-2.8l-9.4,5.9c2.3,1,4.7,2,7.2,3c2.5,1,5.1,2,7.7,3C241,408.9,243.8,409.9,246.6,410.9z"/>
	<path class="st1" d="M377.2,223.3c2.4-1,4.9-2,7.4-3c2.5-1,5-2,7.5-3c2.5-1,5.1-2,7.6-3l-8.6-5.8c-2.6,1-5.2,2-7.7,3
		c-2.6,1-5.1,2-7.6,3.1c-2.5,1-5,2-7.5,3c-2.5,1-4.9,2-7.3,3l9,5.6C372.4,225.3,374.8,224.3,377.2,223.3z"/>
	<path class="st1" d="M437.8,199.8c2.5-0.9,5.1-1.9,7.7-2.8c2.6-0.9,5.2-1.9,7.8-2.8c2.6-0.9,5.2-1.9,7.9-2.8l-8.1-6
		c-2.6,0.9-5.3,1.9-7.9,2.8c-2.6,0.9-5.3,1.9-7.9,2.8c-2.6,0.9-5.2,1.9-7.8,2.8c-2.6,0.9-5.1,1.9-7.6,2.8l8.3,5.9
		C432.7,201.7,435.3,200.7,437.8,199.8z"/>
	<path class="st1" d="M136.8,964.7c-2.2,1.6-4.3,3.2-6.3,4.8c-2,1.6-4,3.2-5.9,4.8c-1.9,1.6-3.7,3.3-5.4,4.9l13.3,4.2
		c1.6-1.5,3.3-3.1,5.1-4.6c1.8-1.5,3.6-3,5.5-4.5c1.9-1.5,3.9-3,5.9-4.5c2-1.5,4.2-2.9,6.3-4.4l-11.8-5.3
		C141.3,961.5,139,963.1,136.8,964.7z"/>
	<path class="st1" d="M319.3,248.7c2.3-1.1,4.6-2.2,7-3.3c2.4-1.1,4.8-2.2,7.2-3.3c2.4-1.1,4.9-2.2,7.3-3.3l-9.3-5.5
		c-2.5,1.1-5,2.2-7.4,3.3c-2.4,1.1-4.9,2.2-7.3,3.3c-2.4,1.1-4.8,2.2-7.1,3.3c-2.3,1.1-4.6,2.2-6.9,3.3l9.8,5.3
		C314.8,250.9,317,249.8,319.3,248.7z"/>
	<path class="st1" d="M500.3,177.9c2.6-0.9,5.3-1.8,7.9-2.6c2.6-0.9,5.3-1.8,8-2.6c2.7-0.9,5.3-1.7,8-2.6l-7.6-6.1
		c-2.7,0.9-5.4,1.7-8.1,2.6c-2.7,0.9-5.4,1.8-8,2.6c-2.7,0.9-5.3,1.8-8,2.7c-2.6,0.9-5.3,1.8-7.9,2.7l7.9,6
		C495.1,179.6,497.7,178.8,500.3,177.9z"/>
	<path class="st1" d="M564.2,157.3c2.7-0.8,5.4-1.7,8.1-2.5c2.7-0.8,5.4-1.6,8.1-2.5c2.7-0.8,5.4-1.6,8-2.4l-7.2-6.2
		c-2.7,0.8-5.4,1.6-8.1,2.4c-2.7,0.8-5.4,1.6-8.1,2.5c-2.7,0.8-5.4,1.7-8.2,2.5c-2.7,0.8-5.4,1.7-8.1,2.5l7.4,6.1
		C558.8,159,561.5,158.2,564.2,157.3z"/>
	<path class="st1" d="M97.8,1006c-1,1.9-2,3.8-2.9,5.7c-0.9,1.9-1.7,3.8-2.4,5.8c-0.7,1.9-1.4,3.9-1.9,5.8l15.3,1.2
		c0.5-1.8,1.1-3.6,1.8-5.4c0.7-1.8,1.4-3.6,2.2-5.4c0.8-1.8,1.7-3.5,2.7-5.3c1-1.7,2-3.5,3.1-5.2l-14.5-2.7
		C99.9,1002.3,98.8,1004.2,97.8,1006z"/>
	<path class="st1" d="M191.9,343.6c0.6-1.5,1.3-3.1,2.1-4.6c0.8-1.5,1.7-3.1,2.6-4.7c1-1.6,2-3.1,3.2-4.7l-13.5-2.5
		c-1.2,1.7-2.4,3.4-3.4,5.1c-1,1.7-2,3.4-2.9,5.1c-0.9,1.7-1.6,3.4-2.3,5c-0.6,1.7-1.2,3.3-1.6,4.9l14.3,0.9
		C190.8,346.6,191.3,345.1,191.9,343.6z"/>
	<path class="st1" d="M140.3,1095.1c-2.1-1.5-4.1-2.9-6-4.3c-1.9-1.4-3.7-2.8-5.5-4.2l-12.9,5.1c1.8,1.5,3.7,3,5.7,4.5
		c2,1.5,4.1,3,6.3,4.6c2.2,1.5,4.5,3.1,6.8,4.6c2.4,1.6,4.8,3.1,7.4,4.7l11.7-5.9c-2.4-1.5-4.8-3-7.1-4.5
		C144.6,1098.1,142.4,1096.6,140.3,1095.1z"/>
	<path class="st1" d="M194,370.3c-1-1.4-1.9-2.7-2.5-4.1l-14,2c0.8,1.6,1.8,3.2,3,4.8c1.2,1.6,2.5,3.2,4,4.7
		c1.5,1.6,3.2,3.1,5.1,4.7c1.9,1.5,3.9,3.1,6.1,4.6l11.6-4.7c-1.9-1.3-3.7-2.7-5.4-4c-1.6-1.3-3.1-2.7-4.4-4
		C196.1,373,195,371.7,194,370.3z"/>
	<path class="st1" d="M105.2,1059.2c-0.5-1.3-1-2.6-1.3-3.9c-0.3-1.3-0.5-2.5-0.6-3.8c0-0.4-0.1-0.8-0.1-1.3c0-0.4-0.1-0.8-0.1-1.3
		c0-0.4,0-0.8-0.1-1.2c0-0.4,0-0.8,0-1.2l-15.5,0.3c0,0.4,0,0.9,0,1.3c0,0.4,0,0.9,0.1,1.3c0,0.4,0,0.9,0.1,1.3
		c0,0.4,0.1,0.9,0.1,1.3c0.1,1.5,0.4,3,0.8,4.5c0.4,1.5,0.9,3,1.5,4.6c0.6,1.5,1.4,3.1,2.3,4.7c0.9,1.6,1.9,3.2,3.1,4.8l14.5-3.4
		c-1-1.4-1.9-2.8-2.6-4.1C106.5,1061.9,105.8,1060.5,105.2,1059.2z"/>
	<path class="st1" d="M568.8,837.8c-3.2,0.6-6.4,1.3-9.5,1.9c-3.2,0.6-6.4,1.3-9.5,1.9c-3.2,0.6-6.4,1.3-9.5,1.9l5.2,7.8
		c3.2-0.6,6.4-1.3,9.6-1.9c3.2-0.6,6.4-1.3,9.6-1.9c3.2-0.6,6.4-1.3,9.6-1.9c3.2-0.6,6.4-1.3,9.5-1.9l-5.3-7.8
		C575.2,836.6,572,837.2,568.8,837.8z"/>
	<path class="st1" d="M858.5,764.4c-2.6,1-5.3,2-8,3c-2.7,1-5.5,2-8.3,3c-2.8,1-5.6,2-8.5,3l8.2,6.9c3-1,5.9-2,8.8-3.1
		c2.9-1,5.7-2.1,8.5-3.1c2.8-1,5.5-2.1,8.2-3.1c2.7-1,5.3-2.1,7.9-3.1l-9.2-6.6C863.6,762.4,861.1,763.4,858.5,764.4z"/>
	<path class="st1" d="M827.7,536.4c-2.8-0.9-5.7-1.8-8.5-2.7c-2.9-0.9-5.8-1.8-8.8-2.7c-3-0.9-6-1.8-9-2.6l-7,6.8
		c3,0.9,5.9,1.7,8.8,2.6c2.9,0.9,5.8,1.7,8.6,2.6c2.8,0.9,5.6,1.7,8.4,2.6c2.7,0.9,5.5,1.7,8.1,2.6l7.6-6.6
		C833.3,538.2,830.5,537.3,827.7,536.4z"/>
	<path class="st1" d="M791.2,786.9c-2.9,0.8-5.8,1.7-8.7,2.5s-5.9,1.7-9,2.5c-3,0.8-6.1,1.7-9.2,2.5l6.8,7.4
		c3.1-0.8,6.3-1.7,9.3-2.5c3.1-0.8,6.1-1.7,9.1-2.5c3-0.8,6-1.7,8.9-2.5c2.9-0.8,5.8-1.7,8.6-2.5l-7.5-7.2
		C796.9,785.2,794.1,786.1,791.2,786.9z"/>
	<path class="st1" d="M759.7,525.7l6.4-7c-2.8-0.7-5.7-1.5-8.6-2.2c-2.9-0.7-5.9-1.5-8.9-2.3c-3-0.8-6-1.5-9.1-2.3
		c-3.1-0.8-6.2-1.5-9.3-2.3l-6,7.1c3.1,0.7,6.1,1.5,9.2,2.2c3,0.7,6,1.5,9,2.2c3,0.7,5.9,1.5,8.8,2.2
		C754,524.3,756.9,525,759.7,525.7z"/>
	<path class="st1" d="M719.3,805.7c-3,0.7-6,1.4-9.1,2.2c-3.1,0.7-6.2,1.4-9.4,2.2c-3.2,0.7-6.4,1.5-9.6,2.2l5.9,7.6
		c3.3-0.7,6.5-1.5,9.7-2.2c3.2-0.7,6.3-1.5,9.5-2.2c3.1-0.7,6.2-1.5,9.2-2.2c3-0.7,6-1.4,8.9-2.2l-6.3-7.5
		C725.2,804.3,722.3,805,719.3,805.7z"/>
	<path class="st1" d="M958.4,702.3c-1.3,1.6-2.6,3.1-4,4.6c-1.4,1.5-2.9,3.1-4.4,4.6c-1.5,1.5-3.1,3-4.8,4.5l12.9,4.3
		c1.8-1.6,3.5-3.2,5.1-4.8c1.6-1.6,3.2-3.2,4.7-4.9c1.5-1.6,2.9-3.3,4.2-5c1.3-1.7,2.6-3.3,3.8-5l-14-3
		C960.9,699.2,959.7,700.8,958.4,702.3z"/>
	<path class="st1" d="M976.1,657.7c-0.1,1.7-0.2,3.5-0.4,5.2c-0.2,1.7-0.4,3.4-0.8,5.1c-0.3,1.7-0.7,3.4-1.1,5.1
		c-0.4,1.7-1,3.3-1.5,5l14.7,1.7c0.6-1.7,1.1-3.5,1.6-5.3c0.5-1.8,0.9-3.6,1.2-5.4c0.3-1.8,0.6-3.6,0.8-5.5s0.3-3.7,0.4-5.5
		L976.1,657.7z"/>
	<path class="st1" d="M694,1302.9c-3.2-0.9-6.4-1.8-9.5-2.7c-3.2-0.9-6.4-1.8-9.5-2.7l-7.1,8.1c3.2,0.9,6.4,1.8,9.6,2.8
		c3.2,0.9,6.4,1.8,9.6,2.7c3.2,0.9,6.4,1.8,9.6,2.7c3.2,0.9,6.4,1.8,9.5,2.7l7-8.1c-3.1-0.9-6.3-1.8-9.5-2.7
		C700.3,1304.7,697.1,1303.8,694,1302.9z"/>
	<path class="st1" d="M950.4,591.6c-2-1.4-4-2.9-6.2-4.3c-2.1-1.4-4.3-2.8-6.6-4.2c-2.3-1.4-4.6-2.8-7-4.2l-10.8,5.3
		c2.3,1.3,4.5,2.6,6.6,3.9c2.1,1.3,4.2,2.7,6.2,4c2,1.3,3.9,2.7,5.8,4c1.9,1.4,3.7,2.7,5.4,4.1l12.3-4.3
		C954.3,594.5,952.4,593.1,950.4,591.6z"/>
	<path class="st1" d="M893.8,560.7c-2.6-1.1-5.2-2.2-7.8-3.3c-2.7-1.1-5.4-2.2-8.1-3.3c-2.8-1.1-5.6-2.2-8.4-3.3l-8.5,6.3
		c2.8,1,5.5,2.1,8.1,3.2c2.7,1.1,5.3,2.1,7.9,3.2c2.6,1.1,5.1,2.1,7.6,3.2c2.5,1.1,4.9,2.1,7.2,3.2l9.5-5.9
		C898.9,562.9,896.4,561.8,893.8,560.7z"/>
	<path class="st1" d="M916.8,736.7c-2.1,1.3-4.3,2.5-6.5,3.8c-2.2,1.3-4.5,2.5-6.9,3.8c-2.3,1.2-4.8,2.5-7.2,3.7l10.4,6
		c2.6-1.3,5.1-2.6,7.5-3.9c2.5-1.3,4.9-2.6,7.2-3.9c2.3-1.3,4.6-2.7,6.8-4c2.2-1.3,4.4-2.7,6.5-4l-11.6-5.3
		C921,734.1,918.9,735.4,916.8,736.7z"/>
	<path class="st1" d="M618.3,1280.8c-3.1-0.9-6.3-1.9-9.4-2.8c-3.1-0.9-6.2-1.9-9.3-2.8l-7.4,8c3.1,0.9,6.2,1.9,9.3,2.8
		c3.1,0.9,6.3,1.9,9.4,2.8c3.1,0.9,6.3,1.9,9.5,2.8c3.2,0.9,6.3,1.9,9.5,2.8l7.3-8c-3.1-0.9-6.3-1.9-9.4-2.8
		C624.6,1282.7,621.4,1281.7,618.3,1280.8z"/>
	<path class="st1" d="M470.4,1234.4c-3-1-6-2-9-3c-3-1-6-2-8.9-3l-8.1,7.7c3,1,6,2,9,3c3,1,6,2,9.1,3c3,1,6.1,2,9.2,3
		c3.1,1,6.2,2,9.2,3l7.9-7.8c-3.1-1-6.1-2-9.2-3C476.5,1236.4,473.5,1235.4,470.4,1234.4z"/>
	<path class="st1" d="M491.5,853.2c-3.4,0.7-6.6,1.3-9.8,2c-3.2,0.6-6.2,1.3-9.2,1.9c-3,0.6-5.9,1.2-8.7,1.8l5.3,7.8
		c2.8-0.6,5.7-1.2,8.7-1.8c3-0.6,6.1-1.2,9.2-1.9c3.2-0.6,6.4-1.3,9.8-2c3.4-0.7,6.8-1.4,10.4-2.1l-5.2-7.8
		C498.4,851.8,494.9,852.5,491.5,853.2z"/>
	<path class="st1" d="M459.2,462.1c3.2,0.6,6.5,1.3,10,2l5.2-7.2c-3.4-0.7-6.7-1.3-9.9-2c-3.2-0.6-6.3-1.2-9.3-1.8
		c-3-0.6-6-1.2-8.8-1.8c-2.9-0.6-5.6-1.1-8.3-1.7l-5.3,7.2c2.7,0.5,5.5,1.1,8.4,1.7c2.9,0.6,5.8,1.2,8.8,1.8
		C452.8,460.8,456,461.4,459.2,462.1z"/>
	<path class="st1" d="M679.7,506.5c2.9,0.7,5.8,1.3,8.7,1.9l5.7-7.1c-2.9-0.6-5.8-1.3-8.8-2c-3-0.7-6-1.3-9-2c-3-0.7-6.1-1.3-9.2-2
		c-3.1-0.7-6.3-1.3-9.4-2l-5.5,7.2c3.2,0.7,6.3,1.3,9.4,2c3.1,0.7,6.2,1.3,9.2,2C673.7,505.2,676.7,505.9,679.7,506.5z"/>
	<path class="st1" d="M527,475.3c2.6,0.5,5.2,1,7.7,1.5c2.6,0.5,5.2,1,7.8,1.5l5.1-7.2c-2.6-0.5-5.2-1-7.8-1.5
		c-2.6-0.5-5.2-1-7.7-1.5c-2.6-0.5-5.2-1-7.7-1.5c-2.6-0.5-5.1-1-7.7-1.5l-5.7-1.1l-5.1,7.2l5.7,1.1c2.6,0.5,5.1,1,7.7,1.5
		C521.8,474.3,524.4,474.8,527,475.3z"/>
	<path class="st1" d="M415.6,868.9c-3.3,0.7-6.5,1.4-9.6,2.1c-3.2,0.7-6.3,1.4-9.3,2.1c-3.1,0.7-6.1,1.4-9.1,2l5.7,7.7
		c3-0.7,6-1.3,9-2c3-0.7,6.1-1.4,9.3-2c3.1-0.7,6.3-1.4,9.6-2.1c3.2-0.7,6.5-1.4,9.9-2.1l-5.5-7.8
		C422.2,867.5,418.8,868.2,415.6,868.9z"/>
	<path class="st1" d="M645,822.3c-3,0.6-6.1,1.3-9.2,1.9c-3.1,0.7-6.3,1.3-9.6,2c-3.3,0.7-6.6,1.4-10,2.1l5.4,7.8
		c3.4-0.7,6.8-1.4,10.1-2.1c3.3-0.7,6.5-1.3,9.6-2c3.1-0.7,6.2-1.3,9.3-1.9c3-0.6,6-1.3,9-1.9l-5.6-7.7C651,821,648,821.7,645,822.3
		z"/>
	<path class="st1" d="M543.7,1258c-3.1-1-6.2-1.9-9.2-2.9c-3.1-1-6.1-1.9-9.1-2.9l-7.8,7.9c3,1,6.1,1.9,9.2,2.9
		c3.1,1,6.2,1.9,9.3,2.9c3.1,1,6.2,1.9,9.3,2.9c3.1,1,6.2,1.9,9.4,2.9l7.6-7.9c-3.1-1-6.2-1.9-9.3-2.9
		C549.9,1259.9,546.8,1258.9,543.7,1258z"/>
	<path class="st1" d="M398.5,1209.9c-3-1-5.9-2.1-8.8-3.1c-2.9-1-5.8-2.1-8.7-3.1l-8.5,7.5c2.9,1,5.8,2.1,8.7,3.1
		c2.9,1,5.9,2.1,8.9,3.1c3,1.1,6,2.1,9,3.2c3,1.1,6.1,2.1,9.1,3.2l8.3-7.6c-3-1-6-2.1-9-3.1C404.5,1212,401.5,1210.9,398.5,1209.9z"
		/>
	<path class="st1" d="M607.1,491.2c2.9,0.6,5.8,1.2,8.7,1.8l5.3-7.2c-2.9-0.6-5.8-1.2-8.7-1.8c-2.9-0.6-5.9-1.2-9-1.8
		c-3-0.6-6.2-1.2-9.3-1.9c-3.2-0.6-6.4-1.3-9.7-1.9l-5.2,7.2c3.3,0.7,6.5,1.3,9.7,1.9c3.2,0.6,6.3,1.3,9.3,1.9
		C601.1,490,604.1,490.6,607.1,491.2z"/>
</g>
<rect x="225.6" y="67.1" transform="matrix(0.9796 -0.201 0.201 0.9796 -36.0463 50.2049)" class="st2" width="7.1" height="271"/>
<polygon class="st3" points="198.5,70.6 83,128.8 212.1,136.9 "/>
<rect x="836.4" y="524.9" transform="matrix(0.201 -0.9796 0.9796 0.201 258.836 1374.3036)" class="st2" width="271" height="7.1"/>
<polygon class="st3" points="1002.6,396.5 1118.1,454.7 989,462.8 "/>
<rect x="220.7" y="775.7" transform="matrix(0.9877 -0.1563 0.1563 0.9877 -139.6611 46.2493)" class="st2" width="7.1" height="271"/>
<polygon class="st3" points="199.6,777.9 81.6,830.9 210.2,844.8 "/>
<g>
	<polygon class="st4" points="544.5,1446.6 573.8,1462.4 608,1440.2 578.6,1425.2 	"/>
	<polygon class="st4" points="611.6,1404.4 641,1418.8 673,1398.1 643.4,1384.3 	"/>
	<polygon class="st4" points="814.5,1276.5 788.1,1293.1 817.8,1304.3 844.2,1287.2 	"/>
	<polygon class="st4" points="864.8,1244.7 840,1260.4 869.7,1270.7 894.5,1254.6 	"/>
	<polygon class="st4" points="674.2,1364.9 703.9,1378.1 733.7,1358.8 704.1,1346.1 	"/>
	<polygon class="st4" points="733,1327.8 762.7,1340 790.7,1321.9 761,1310.2 	"/>
	<polygon class="st4" points="900.4,1281.4 869.7,1270.7 844.2,1287.2 874.9,1298.3 	"/>
	<polygon class="st4" points="638.5,1455.9 671.6,1433.8 641,1418.8 608,1440.2 	"/>
	<polygon class="st4" points="821.5,1334 848.6,1315.9 817.8,1304.3 790.7,1321.9 	"/>
	<polygon class="st4" points="764.5,1371.9 793.4,1352.6 762.7,1340 733.7,1358.8 	"/>
	<polygon class="st4" points="703.6,1412.5 734.6,1391.8 703.9,1378.1 673,1398.1 	"/>
</g>
<g>
	<path class="st5" d="M1063.4,1448.4c-3.7-5.4-8.1-10.3-12.2-15.4c-5.9,3.1-12.4,7.4-18.3,10.5c8.3,16.8,21.2,34.4,34.9,45.5
		C1075.4,1478.2,1076.1,1466.7,1063.4,1448.4z"/>
	<path class="st5" d="M803.3,1427.5c-13.9,17.5-23.7,21.7-36.6,18.2c5.6-16.7,17.7-35,30.5-48.6c5,4.5,11.3,9,16.3,13.5
		C810.1,1416.3,806.6,1421.9,803.3,1427.5z"/>
	<path class="st6" d="M1046.1,1372.6H864.2l-14.2,45.3l-46.8-14.6c0,0-5.5,3.5-7.3,9.1c-1.9,6.1,1,10.9,1,10.9l67.2,20.1l14.5-47.7
		c44.1,16.5,125.4,19.9,155.7-4.2l33.3,11.5l-24.1,33.5c0,0,1.6,6.3,6.4,9.8c5.2,3.7,10.7,2.5,10.7,2.5l40.2-56.5L1046.1,1372.6z"/>
	<path class="st7" d="M1116.5,1273.7l-9.5-30.9l-46.7,40.2l-14.3-4.2c0-35,0-69.1,0-82.3H864.2v176.1c60.6,14.3,121.2,15.2,181.9,0
		c0-9.9,0-42,0-76.6l18.6,2.7L1116.5,1273.7z"/>
	<polygon class="st8" points="961.5,1295.2 972,1277.1 944.5,1277.1 957.4,1299.5 953,1359.5 974.4,1378 988.1,1359.5 	"/>
	<path class="st9" d="M864.2,1268.5v104c9.7,2.3,19.4,4.2,29.1,5.8v-103.3C883.7,1273.4,874,1271.2,864.2,1268.5z"/>
	<polygon class="st5" points="1019,1015.3 1034.8,1015.3 1060.3,1037.1 1057,1077.8 	"/>
	<path class="st10" d="M1068.3,1095.2c-2-4.4-5.4-6.7-9.2-6.7c-8.6-52.3-37.4-92-109.6-92c-75.6,0-101.7,42.4-105.7,102c0,0,0,0,0,0
		c-6.2-5.6-14-4.1-17.4,3.4c-3.4,7.5-1,18,5.2,23.6c3.8,3.4,8.2,4.2,11.8,2.5c1.6,43.5,11.3,92.9,20.8,140.5
		c62.7,17.2,123,14.2,181.9,0c6.7-42.8,17.5-98.8,15.9-148.8c0.4-0.3,0.7-0.6,1.1-0.9C1069.3,1113.2,1071.7,1102.6,1068.3,1095.2z"
		/>
	<path class="st11" d="M920.6,1024.5c-14.3,1.1-28.1,3.8-40.7,9.7l-36.1,64.2c0,0,0,0,0,0c0,0,0,0,0,0c-6.2-5.6-14-4.1-17.4,3.4
		c-3.4,7.5-1,18,5.2,23.6c3.8,3.4,8.2,4.2,11.8,2.5c1.6,43.5,11.3,92.9,20.8,140.5c9.6,2.6,19.1,4.8,28.5,6.5
		C874.2,1171.4,865.8,1071.6,920.6,1024.5z"/>
	<path class="st5" d="M987.6,1145.3c-1.7,6.2-7.4,10.7-14.1,10.7c-2.6,0-5.1-0.7-7.3-1.9c0.9,0.1,1.9,0.2,2.9,0.2
		C976.6,1154.3,983.2,1150.8,987.6,1145.3z"/>
	<path class="st11" d="M987.6,1145.3c0,0-5,4.6-10.8,6.7c-5.8,2.1-10.6,2.1-10.6,2.1c0.9,0.1,1.9,0.2,2.9,0.2
		C976.6,1154.3,983.2,1150.8,987.6,1145.3z"/>
	<path class="st11" d="M987.6,1145.3c0,0-5,4.6-10.8,6.7c-5.8,2.1-10.6,2.1-10.6,2.1c0.9,0.1,1.9,0.2,2.9,0.2
		C976.6,1154.3,983.2,1150.8,987.6,1145.3z"/>
	<g class="st12">
		<path class="st13" d="M751.9,1408.7c-10.2-18.8-28.2-21.4-48-10.2c0,0,18.6-6.1,31.8-0.1c13.2,6,19.6,18.2,19.6,18.2
			C754.3,1413.7,753.2,1411.1,751.9,1408.7z"/>
		<path class="st13" d="M640.2,1372.5c0,0,18.6-6.1,31.8-0.1c13.2,6,19.6,18.2,19.6,18.2c-1-2.8-2.1-5.4-3.4-7.9
			C678,1364,660,1361.4,640.2,1372.5z"/>
		<path class="st13" d="M569.2,1351.4c0,0,18.6-6.1,31.8-0.1c13.2,6,19.6,18.2,19.6,18.2c-1-2.8-2.1-5.4-3.4-7.9
			C607,1342.9,589,1340.3,569.2,1351.4z"/>
	</g>
	<polygon class="st10" points="1091.1,1239 1095.9,1226.3 1102.5,1238.1 1112.3,1222.9 1145.7,1275.2 1117.1,1275.5 1093.3,1252.5 
		1095,1249.7 	"/>
	<polygon class="st11" points="1112.6,1228.4 1097,1246.7 1112.3,1222.9 1138.6,1264 	"/>
	<path class="st5" d="M1030.6,991.5c4.7-8.1,6.6-18.7,4.7-32.9c-59.8,50.5-175-47-183.2,86.5l-11.6,12.6l3.3,40.7l36.1-64.3
		c66.1-31.1,167.6,26,198.1-48.9C1064.9,991.4,1048.5,992.4,1030.6,991.5z"/>
	<path class="st14" d="M858.9,1045.2c3.2-52.1,22.2-69.5,47.5-74.1c-28.8,2.8-50.8,18.4-54.2,74l-11.6,12.6l3.3,40.7l3.5-40.6
		L858.9,1045.2z"/>
	<path class="st15" d="M925.8,1209l2.8,6.7l-0.4-7.2c4.2-0.8,8.5-1.3,12.8-1.8c-10.9-1-21-3.3-29.1-7l1.6-10.1l-4.4,8.8
		c-15.3-8-22-21.4-11.1-40.2c52.8,14.9,101.2,18.2,140.8,1.5c-1.5,15.5-12.8,27.2-28.4,35.1l-6.6-10.3l3.2,11.9
		c-5.5,2.5-11.5,4.6-17.7,6.2l-2.3-4.8l0.6,5.2c-6,1.5-12.2,2.5-18.4,3.2c17.5,1.3,33.3,5.7,43.7,13.1
		c-37.7,21.1-95.1,22.1-126.4,3.8C897.7,1216.6,911.4,1211.9,925.8,1209z"/>
	<path class="st16" d="M894.9,1164.9c0.8-2.1,1.9-4.3,3.2-6.6c52.8,14.9,101.2,18.2,140.8,1.5
		C1000,1176.2,943.1,1186.6,894.9,1164.9z"/>
	<g>
		<path d="M877.8,1152.3c-17.1,25.1-16.6,44.7-5.8,58.6c-14.2-14.7-16.6-36.1,2.6-63.9l0-0.1c9.9,5,19.5,9.3,28.8,12.9
			c-8.4-2.3-16.9-4.8-25.5-7.6L877.8,1152.3z"/>
		<path d="M1013.6,1167.6c13-3.9,25.3-9.7,37.1-17.2c4.1,25.6-5.8,45.1-23,58.9c15.4-13.2,24.4-31.3,21.5-54.4
			C1038.1,1160.9,1026.2,1165,1013.6,1167.6z"/>
	</g>
	<path class="st17" d="M912,1199.9l1.6-10.1l-4.4,8.8c-15.3-8-22-21.4-11.1-40.2l0,0c-6.7-1.9-13.5-4-20.3-6.2l0,0.1
		c-23,33.9-14.1,57.6,8.8,71.1c0,0,0,0,0,0c11.1-6.7,24.8-11.4,39.2-14.2l2.8,6.7l-0.4-7.2c4.2-0.8,8.5-1.3,12.8-1.8
		C930.2,1205.9,920.1,1203.5,912,1199.9z M1049.2,1155c-3.3,1.8-6.8,3.4-10.2,4.9c-1.5,15.5-12.8,27.2-28.4,35.1l-6.6-10.3l3.2,11.9
		c-5.5,2.5-11.5,4.6-17.7,6.2l-2.3-4.8l0.6,5.2c-6,1.5-12.2,2.5-18.4,3.2c17.5,1.3,33.3,5.7,43.7,13.1c0,0,0,0,0,0
		C1036.9,1206.2,1052.9,1184.7,1049.2,1155z"/>
	<polygon class="st9" points="1094.5,1253.6 1060.4,1283 1046.1,1278.8 1046.1,1282.7 1061.8,1288.6 1095.4,1254.6 	"/>
	<g>
		<path class="st7" d="M950.5,1324.3l-46.3-36.2l-2.8,29.4l44,26.7l0,0c21.6,9.7,42.6,20.4,65.4,28.4c0.5-6.7,10.5-17.8,15.4-28.7
			L950.5,1324.3z"/>
		<path class="st18" d="M947.1,1343.2l-45.7-25.7l44,26.7l0,0c21.6,9.7,42.6,20.4,65.4,28.4c0.1-1.1,0.4-2.4,1-3.8
			C990.3,1361.2,967.3,1352.2,947.1,1343.2z"/>
		<polygon class="st9" points="1026.1,1343.8 950.5,1324.3 904.2,1288.1 949.5,1328.4 		"/>
		<polygon class="st10" points="1002,1369.3 1026.1,1343.8 1053.3,1349.1 1011.1,1404.1 		"/>
		<polygon class="st11" points="1007.6,1368.3 1018.3,1352.1 1002,1369.3 1011.1,1404.1 1015.4,1398.5 		"/>
		<polygon class="st10" points="1024.1,1347.8 1033,1338.4 1047.2,1337.1 1036.4,1352.8 		"/>
	</g>
	
		<radialGradient id="SVGID_1_" cx="653.0537" cy="1518.5664" r="34.2224" gradientTransform="matrix(5.7723 0 0 1 -2849.0505 0)" gradientUnits="userSpaceOnUse">
		<stop  offset="2.358490e-03" style="stop-color:#B3B3B3"/>
		<stop  offset="0.2048" style="stop-color:#CFCFCF"/>
		<stop  offset="0.4363" style="stop-color:#EAEAEA"/>
		<stop  offset="0.6442" style="stop-color:#F9F9F9"/>
		<stop  offset="0.8066" style="stop-color:#FFFFFF"/>
	</radialGradient>
	<ellipse class="st19" cx="920.6" cy="1518.6" rx="197.5" ry="34.2"/>
	<g>
		<path class="st5" d="M847.1,1114.8c-1.7-7.3-10.5-11.2-14.7-3c0.1-0.3,0.2-0.6,0.3-0.9c1.9-4.7,7.1-7,11.2-3.3
			c-4.2-5.7-12.5-7.9-16.7-0.6C835,1092,848.5,1106.3,847.1,1114.8z"/>
		<path class="st5" d="M957,1250.3c-13.7,0-26.5-2.9-36.9-7.9c9.4,8.2,24.1,13.4,40.6,13.4c22.7,0,42-10,48.8-23.8
			C997.7,1243.1,978.6,1250.3,957,1250.3z"/>
		<path class="st5" d="M1019.7,1102.4c-17.2-4.4-33.5,4-41,19.6c10.8-11.2,26.5-16.3,42.8-12.1c10.4,2.7,19.5,8.7,26.5,16.7
			C1042.4,1114.9,1032.2,1105.6,1019.7,1102.4z"/>
		<path class="st5" d="M905.2,1105.2c-12.4,2.4-23.8,8.3-33,16.4c8.2-12,21.2-21.2,36.1-24.1c20.5-4,38.3,5.3,45,21.7
			C942.3,1107.2,924.7,1101.4,905.2,1105.2z"/>
		<path class="st5" d="M1024.2,1063.7c7.2,5.3,12.2,12.6,14.8,20.7c-0.1-10.2-4.8-20.2-13.5-26.6c-12-8.8-28.1-8.3-39.9,0.2
			C998.4,1053.7,1012.7,1055.3,1024.2,1063.7z"/>
		<path class="st5" d="M899.9,1062.2c-9.1,5-16.1,12.2-20.7,20.3c2.3-10.6,9.5-20.5,20.4-26.5c15.1-8.3,32.6-6.5,43.8,3.1
			C930.3,1053.7,914.2,1054.3,899.9,1062.2z"/>
		<path class="st11" d="M1009.4,1232c-11.7,11-37.5,14.4-50.9,15.2c-9.4,0.6-28,0.1-38.5-4.9c10.5,4.9,23.2,7.9,36.9,7.9
			C978.6,1250.3,997.7,1243.1,1009.4,1232z"/>
	</g>
</g>
</svg>
