<?xml version="1.0" encoding="utf-8"?>
<!-- Generator: Adobe Illustrator 22.0.0, SVG Export Plug-In . SVG Version: 6.00 Build 0)  -->
<svg version="1.1" id="Ebene_1" xmlns="http://www.w3.org/2000/svg" xmlns:xlink="http://www.w3.org/1999/xlink" x="0px" y="0px"
	 viewBox="0 0 1191 1191" style="enable-background:new 0 0 1191 1191;" xml:space="preserve">
<style type="text/css">
	.st0{fill:#FFFFFF;}
	.st1{fill:url(#SVGID_1_);}
	.st2{fill-rule:evenodd;clip-rule:evenodd;fill:#EBF5F2;}
	.st3{fill-rule:evenodd;clip-rule:evenodd;fill:#D7E1DE;}
	.st4{fill-rule:evenodd;clip-rule:evenodd;fill:#FFFFF5;}
	.st5{fill-rule:evenodd;clip-rule:evenodd;fill:#EFCAA6;}
	.st6{fill-rule:evenodd;clip-rule:evenodd;}
	.st7{fill-rule:evenodd;clip-rule:evenodd;fill:#567483;}
	.st8{fill-rule:evenodd;clip-rule:evenodd;fill:#7EB5D0;}
	.st9{fill:#EFC981;}
	.st10{opacity:0.7;fill:#D29D46;}
	.st11{opacity:0.6;}
	.st12{opacity:0.6;fill:#FFFFFF;}
	.st13{fill-rule:evenodd;clip-rule:evenodd;fill:#FFDEBA;}
	.st14{opacity:0.4;fill-rule:evenodd;clip-rule:evenodd;fill:#FFFFFF;}
	.st15{fill-rule:evenodd;clip-rule:evenodd;fill:#F1F5F7;}
	.st16{fill-rule:evenodd;clip-rule:evenodd;fill:#DDE1E3;}
	.st17{fill-rule:evenodd;clip-rule:evenodd;fill:#732706;}
</style>
<rect class="st0" width="1191" height="1191"/>
<radialGradient id="SVGID_1_" cx="557.7484" cy="1019.7637" r="55.2967" gradientTransform="matrix(5.7723 0 0 1 -2849.0505 0)" gradientUnits="userSpaceOnUse">
	<stop  offset="2.358490e-03" style="stop-color:#B3B3B3"/>
	<stop  offset="0.2048" style="stop-color:#CFCFCF"/>
	<stop  offset="0.4363" style="stop-color:#EAEAEA"/>
	<stop  offset="0.6442" style="stop-color:#F9F9F9"/>
	<stop  offset="0.8066" style="stop-color:#FFFFFF"/>
</radialGradient>
<ellipse class="st1" cx="370.4" cy="1019.8" rx="319.2" ry="55.3"/>
<path class="st2" d="M572,641.3l67.3-66.3c-0.9,14.7,7.3,25.9,23.4,34.6c-25.5,16-82.4,55-82.4,55L482.1,644l22.6-34.6L572,641.3z"
	/>
<path class="st3" d="M526.1,653.2l54.2,11.3c0,0,27.5-18.8,52.9-35.7c-26.8,15.4-56.2,31.6-56.2,31.6L526.1,653.2z"/>
<polygon class="st4" points="572,641.3 504.7,609.4 504.7,615.9 576,650 639.3,575 "/>
<polygon class="st5" points="656.5,624.6 625.7,580.2 642.3,540.9 699,612.8 "/>
<polygon class="st5" points="631.1,584.6 619.7,568.1 622.2,546.3 642.4,567.6 "/>
<g>
	<path class="st6" d="M503.8,988.2c-10-3.3-20-6.6-30-9.9c-5.2,9.4-10.1,20.9-15.3,30.3c25.9,15.2,58.8,27.6,86.9,30.3
		C546.2,1017.6,536.1,1003.6,503.8,988.2z"/>
	<path class="st6" d="M210.8,988.2c-32.3,15.4-42.4,29.4-41.6,50.7c28.2-2.8,61-15.1,86.9-30.3c-5.2-9.4-10.1-20.9-15.3-30.3
		C230.8,981.6,220.8,984.9,210.8,988.2z"/>
</g>
<path class="st7" d="M212.6,776.4v208.1c0,0,8,6.8,17.5,6.8c10.2,0,16.3-6.8,16.3-6.8V819.4c83.8,35.2,147.2,35.2,221.8,0.9v164.2
	c0,0,7.4,5.4,20.3,5.4c11.3,0,16.2-5.4,16.2-5.4s0-147.2,0-208.1C504.7,775,212.6,776.4,212.6,776.4z"/>
<path class="st2" d="M212.6,493.7v133.8v149c97.4,22.9,194.7,24.4,292.1,0c0-36.6,0-150.7,0-150.7c0-44,0-88,0-132H212.6z"/>
<polygon class="st8" points="368.9,652.1 385.7,623.1 341.5,623.1 362.3,659 355.1,755.4 389.5,785.1 411.6,755.4 "/>
<polygon class="st2" points="142.2,693.9 164.7,773.1 124,790.7 117.7,690.9 212.6,609.4 232.5,638 "/>
<path class="st3" d="M136.5,692.5l20.6,54l-14.9-52.6l54.2-33.6L136.5,692.5z"/>
<path class="st9" d="M1042.7,659.7c70.4-21.4,122.6-98.4,122.6-190.1h-79.5c1-12.6,1.7-25.3,2.1-37.8h-400c0.3,12.6,1,25.2,2.1,37.8
	h-79.5c0,91.7,52.2,168.7,122.6,190.1c31.3,78.3,77.2,137.1,132.9,149.5v163.9h-49v22.4h-24v29.7h190v-29.7h-24v-22.4h-49V809.3
	C965.5,796.9,1011.4,738,1042.7,659.7z M1135.7,500.9c-8.5,53.3-38.6,97.4-78.7,118.5c11.7-37.3,20.3-77.6,25.5-118.5H1135.7z
	 M639.9,500.9h53.3c5.2,40.9,13.8,81.2,25.5,118.5C678.5,598.3,648.5,554.2,639.9,500.9z"/>
<path class="st10" d="M1160.1,469.7c-2.8,74.9-36.8,139.9-86.7,176.6c54.4-31.7,91.9-98.9,91.9-176.6H1160.1z"/>
<g class="st11">
	<path class="st12" d="M610.4,469.7c0,65.1,26.3,122.7,66.7,158.3c-35.9-39.2-58.7-95.6-59.6-158.3H610.4z"/>
	<path class="st12" d="M719.2,431.8h-31.4c4.2,149.9,58.3,309.5,141.4,362C765.9,709.3,725.6,568.4,719.2,431.8z"/>
</g>
<polygon class="st5" points="678.1,609.4 639,548.8 647.6,529.2 709,606 "/>
<polygon class="st13" points="647.6,529.2 639,548.8 678.1,609.4 646.5,551.5 "/>
<path class="st4" d="M212.6,609.4l-94.9,81.6l6.3,99.8l0.7-95.8l87.9-71.8v153.3c5.6,1.3,11.2,2.6,16.8,3.7l29-160.4
	C243.2,617,228,613.6,212.6,609.4z"/>
<g>
	<polygon class="st5" points="113.6,773 164.1,753.9 198.2,779.5 102.7,827.3 	"/>
	<polygon class="st13" points="121.9,775.4 147.7,760.1 113.6,773 102.7,827.3 112.5,822.4 	"/>
	<polygon class="st5" points="158.5,758 177.3,751 197.8,758.7 172.3,773.2 	"/>
</g>
<g>
	<polygon class="st6" points="461.1,202.6 486.5,202.6 527.5,237.7 522.2,303.1 	"/>
	<path class="st5" d="M540.4,331c-3.2-7-8.7-10.7-14.8-10.8c-13.9-84.1-60-147.8-176-147.8c-121.4,0-163.3,68.1-169.7,163.8
		c0,0,0,0,0,0c-10-9-22.5-6.6-27.9,5.4c-5.4,12-1.6,29,8.4,38c6.1,5.5,13.2,6.7,19,4.1c2.6,69.8,18.2,149.2,33.3,225.7
		c100.7,27.6,197.5,22.8,292.1,0c10.8-68.7,28.1-158.6,25.6-239c0.6-0.5,1.2-0.9,1.8-1.5C542,359.9,545.8,342.9,540.4,331z"/>
	<path class="st13" d="M303.1,217.5c-23,1.7-45.2,6.1-65.3,15.5l-58,103.2c0,0,0,0,0,0c0,0,0,0,0,0c-10-9-22.5-6.6-27.9,5.4
		c-5.4,12-1.6,29,8.4,38c6.1,5.5,13.2,6.7,19,4.1c2.6,69.8,18.2,149.2,33.3,225.7c15.4,4.2,30.6,7.6,45.8,10.4
		C228.7,453.4,215.2,293.1,303.1,217.5z"/>
	<path class="st6" d="M185.2,363.1c-2.8-11.8-16.9-18.1-23.8-4.9c0.2-0.5,0.3-0.9,0.5-1.4c3.1-7.5,11.5-11.4,18.1-5.3
		c-6.8-9.2-20.2-12.8-27-1C165.6,326.2,187.4,349.2,185.2,363.1z"/>
	<path class="st6" d="M479.8,164.4c7.5-13,10.6-30.1,7.6-52.8c-96.1,81.1-281-75.4-294.2,138.9l-18.7,20.2l5.3,65.4l58-103.2
		C344,183.1,507,274.8,556,154.5C534.9,164.3,508.5,165.9,479.8,164.4z"/>
	<path class="st14" d="M193.2,250.6l-18.7,20.2l5.3,65.4l2.3-62.3l23-18.5c6.7-108.8,56.2-124.3,115.8-123.7
		C255.9,127.4,200.2,136.5,193.2,250.6z"/>
	<path class="st15" d="M311.5,513.8l4.5,10.8l-0.6-11.5c6.8-1.2,13.7-2.2,20.6-2.8c-17.5-1.6-33.7-5.3-46.7-11.2l2.5-16.3l-7,14.1
		c-24.5-12.8-35.4-34.4-17.8-64.5c84.8,23.9,162.6,29.2,226.2,2.4c-2.4,24.9-20.5,43.7-45.6,56.4l-10.7-16.5l5.2,19.1
		c-8.9,4-18.4,7.3-28.5,10l-3.7-7.6l0.9,8.3c-9.6,2.4-19.5,4.1-29.5,5.2c28.1,2.2,53.4,9.1,70.1,21c-60.5,33.8-152.7,35.5-202.9,6
		C266.4,525.9,288.4,518.3,311.5,513.8z"/>
	<path class="st16" d="M261.9,443c1.3-3.4,3-6.9,5.2-10.6c84.8,23.9,162.6,29.2,226.2,2.4C430.6,461.2,339.4,477.8,261.9,443z"/>
	<g>
		<path d="M234.4,422.6c-27.4,40.4-26.6,71.8-9.4,94.1c-22.8-23.5-26.7-57.9,4.1-102.6l0-0.2c15.9,8.1,31.2,15,46.2,20.8
			c-13.5-3.6-27.1-7.7-40.9-12.3L234.4,422.6z"/>
		<path d="M452.5,447.3c20.8-6.3,40.6-15.6,59.6-27.6c6.6,41.1-9.4,72.5-37,94.6c24.7-21.2,39.2-50.3,34.5-87.4
			C491.8,436.5,472.7,443.1,452.5,447.3z"/>
	</g>
	<path class="st17" d="M289.3,499.1l2.5-16.3l-7,14.1c-24.5-12.8-35.4-34.4-17.8-64.5l0,0c-10.8-3-21.6-6.4-32.6-10l0,0.2
		c-37,54.4-22.7,92.6,14.1,114.1c0,0,0,0,0,0c17.8-10.8,39.8-18.4,62.9-22.9l4.5,10.8l-0.6-11.5c6.8-1.2,13.7-2.2,20.6-2.8
		C318.5,508.7,302.3,505,289.3,499.1z M509.6,427c-5.4,2.9-10.8,5.5-16.4,7.8c-2.4,24.9-20.5,43.7-45.6,56.4l-10.7-16.5l5.2,19.1
		c-8.9,4-18.4,7.3-28.5,10l-3.7-7.6l0.9,8.3c-9.6,2.4-19.5,4.1-29.5,5.2c28.1,2.2,53.4,9.1,70.1,21c0,0,0,0,0,0
		C490,509.2,515.7,474.7,509.6,427z"/>
	<path class="st6" d="M362.7,582c-22.2,0-42.8-4.7-59.7-12.7c15.2,13.2,38.9,21.7,65.6,21.7c36.8,0,67.9-16.1,78.9-38.5
		C428.5,570.3,397.6,582,362.7,582z"/>
	<path class="st6" d="M464.1,343.1c-27.8-7.1-54.1,6.5-66.3,31.7c17.4-18.1,42.8-26.3,69.2-19.6c16.8,4.3,31.5,14,42.9,27
		C500.7,363.2,484.2,348.2,464.1,343.1z"/>
	<path class="st6" d="M279,347.6c-20,3.9-38.4,13.4-53.3,26.5c13.2-19.4,34.3-34.3,58.3-38.9c33.2-6.4,61.9,8.6,72.7,35
		C338.9,350.8,310.5,341.5,279,347.6z"/>
	<path class="st6" d="M411.3,411.5c-2.7,9.9-11.8,17.2-22.6,17.2c-4.3,0-8.2-1.1-11.7-3.1c1.5,0.2,3,0.3,4.6,0.3
		C393.6,425.9,404.4,420.2,411.3,411.5z"/>
	<path class="st13" d="M411.3,411.5c0,0-8,7.4-17.3,10.8c-9.3,3.4-17,3.3-17,3.3c1.5,0.2,3,0.3,4.6,0.3
		C393.6,425.9,404.4,420.2,411.3,411.5z"/>
	<path class="st6" d="M471.2,280.5c11.7,8.6,19.8,20.4,24,33.4c-0.2-16.5-7.7-32.6-21.7-42.9c-19.4-14.3-45.4-13.4-64.4,0.4
		C429.6,264.3,452.8,266.9,471.2,280.5z"/>
	<path class="st6" d="M270.4,278c-14.7,8.1-26.1,19.7-33.4,32.8c3.7-17.1,15.3-33.1,33-42.8c24.3-13.3,52.7-10.5,70.7,5.1
		C319.6,264.3,293.5,265.3,270.4,278z"/>
	<path class="st13" d="M447.4,552.5c-18.9,17.8-60.7,23.3-82.3,24.6c-15.2,0.9-45.2,0.2-62.1-7.8c16.9,8,37.5,12.7,59.7,12.7
		C397.6,582,428.5,570.3,447.4,552.5z"/>
</g>
</svg>
