<?xml version="1.0" encoding="utf-8"?>
<!-- Generator: Adobe Illustrator 22.0.0, SVG Export Plug-In . SVG Version: 6.00 Build 0)  -->
<svg version="1.1" id="Ebene_1" xmlns="http://www.w3.org/2000/svg" xmlns:xlink="http://www.w3.org/1999/xlink" x="0px" y="0px"
	 viewBox="0 0 1191 1191" style="enable-background:new 0 0 1191 1191;" xml:space="preserve">
<style type="text/css">
	.st0{fill:url(#SVGID_1_);}
	.st1{fill-rule:evenodd;clip-rule:evenodd;fill:#EBF5F2;}
	.st2{fill-rule:evenodd;clip-rule:evenodd;fill:#82847D;}
	.st3{fill-rule:evenodd;clip-rule:evenodd;fill:#C2C0B5;}
	.st4{fill-rule:evenodd;clip-rule:evenodd;fill:#93C4C3;}
	.st5{fill-rule:evenodd;clip-rule:evenodd;fill:#FFFFF5;}
	.st6{opacity:0.4;fill-rule:evenodd;clip-rule:evenodd;fill:#FFFFFF;}
	.st7{fill-rule:evenodd;clip-rule:evenodd;fill:#D7E1DE;}
	.st8{opacity:0.1;fill-rule:evenodd;clip-rule:evenodd;}
	.st9{fill-rule:evenodd;clip-rule:evenodd;}
	.st10{fill-rule:evenodd;clip-rule:evenodd;fill:#193540;}
	.st11{opacity:0.5;fill:#FFFFF5;}
	.st12{fill-rule:evenodd;clip-rule:evenodd;fill:#754D33;}
	.st13{fill-rule:evenodd;clip-rule:evenodd;fill:#A0220A;}
	.st14{fill-rule:evenodd;clip-rule:evenodd;fill:#EFCAA6;}
	.st15{fill-rule:evenodd;clip-rule:evenodd;fill:#F1F5F7;}
	.st16{fill-rule:evenodd;clip-rule:evenodd;fill:#DDE1E3;}
	.st17{fill-rule:evenodd;clip-rule:evenodd;fill:#95A6B1;}
	.st18{fill-rule:evenodd;clip-rule:evenodd;fill:#D0A486;}
	.st19{fill-rule:evenodd;clip-rule:evenodd;fill:#FFDEBA;}
	.st20{fill-rule:evenodd;clip-rule:evenodd;fill:#DBB692;}
	.st21{fill-rule:evenodd;clip-rule:evenodd;fill:#C5997C;}
	.st22{fill-rule:evenodd;clip-rule:evenodd;fill:#FFFFFF;}
	.st23{fill:#D0A486;}
	.st24{fill:#732706;}
	.st25{fill:#550900;}
	.st26{fill:#BE8077;}
	.st27{fill:#F1F5F7;}
</style>
<radialGradient id="SVGID_1_" cx="543.2249" cy="595.5" r="595.5" gradientTransform="matrix(1 0 0 1 52.2751 0)" gradientUnits="userSpaceOnUse">
	<stop  offset="0" style="stop-color:#D7ECF1"/>
	<stop  offset="1" style="stop-color:#B5DAE2"/>
</radialGradient>
<rect class="st0" width="1191" height="1191"/>
<path class="st1" d="M272.6,1191h41.6l-43.9-116.6l5.2-127.1L234.3,932l12.3,145C246.5,1077,258.9,1135.9,272.6,1191z"/>
<path class="st1" d="M1043.8,1191h43.6c4.7-63.7,5.8-155.4,5.8-155.4l-16-144.6l-37.5,23l29.7,123.7L1043.8,1191z"/>
<path class="st1" d="M886.8,1191h43.8c17.8-38,35.5-74.2,35.5-74.2l12.3-145l-41.2,15.3l5.2,127.1L886.8,1191z"/>
<path class="st2" d="M727,1191h44.5c15.9-44,33.9-91.1,33.9-91.1l-0.6-145.5l-39.7,18.9l16.4,126.1L727,1191z"/>
<path class="st3" d="M593.4,1191h31.9l-39.3-104.3l3.7-89.5l-29-10.8l8.6,102.1C569.4,1088.5,581.8,1147.8,593.4,1191z"/>
<path class="st4" d="M417.1,1191h47.3l-73.7-139.9l-10.6-126.8l-42.8-10.1l30.2,142.3C367.4,1056.5,393.7,1132.8,417.1,1191z"/>
<path class="st1" d="M144.5,1191l-22.4-153.3l32.2-123.1l-37-23.7l-18.9,144.2c0,0-0.7,92.1,2.7,155.9H144.5z"/>
<polygon class="st5" points="901.6,1170.6 949,1116.5 939.4,1042 942.3,1114.3 "/>
<polygon class="st6" points="745.9,1159.2 788.4,1101.1 772.2,1027.8 781.5,1099.5 "/>
<polygon class="st7" points="270.3,1074.4 273.6,994.2 261.8,1074.4 293.3,1135.4 "/>
<polygon class="st7" points="122.1,1037.7 142.4,960 113.7,1035.9 131.5,1102.2 "/>
<polygon class="st8" points="485,1034.2 498.6,955.1 476.5,1033.1 499.9,1097.7 "/>
<polygon class="st8" points="586.1,1086.7 588.4,1030.2 580.1,1086.7 602.3,1129.6 "/>
<polygon class="st7" points="1069.4,1037.7 1050.7,959.6 1077.8,1036 1058.7,1102 "/>
<polygon class="st8" points="390.7,1051.1 384,971 382.2,1052.1 421,1108.7 "/>
<path class="st5" d="M106.5,1191c-0.9-72.3,0.7-154,0.7-154l14.3-143.5l-4.2-2.7l-18.9,144.2c0,0-0.7,92.1,2.7,155.9H106.5z"/>
<path class="st5" d="M272.6,1191h6.9c-13-59-23.9-114-23.9-114L239,933.8l-4.7-1.8l12.3,145C246.5,1077,258.9,1135.9,272.6,1191z"/>
<path class="st6" d="M417.1,1191h6.3c-23.7-65.3-47-135.6-47-135.6l-34.2-140.1l-4.9-1.2l30.2,142.3
	C367.4,1056.5,393.7,1132.8,417.1,1191z"/>
<path class="st4" d="M521.7,1191L485,1034.2l21.6-125.4l-38.9-20.5l-6.6,145.3c0,0,7.2,94,16.2,157.3H521.7z"/>
<path class="st6" d="M593.4,1191h4.1c-11.2-48.7-21.8-102.5-21.8-102.5l-11.7-100.9l-3.3-1.2l8.6,102.1
	C569.4,1088.5,581.8,1147.8,593.4,1191z"/>
<path class="st8" d="M771.5,1191c15.9-44,33.9-91.1,33.9-91.1l-0.3-70.8l-5.3,71.2c0,0-15.4,46.7-29.6,90.6H771.5z"/>
<path class="st7" d="M930.6,1191c17.8-38,35.5-74.2,35.5-74.2l6-70.5l-11.6,70.5c0,0-15.6,36.2-31.8,74.2H930.6z"/>
<path class="st5" d="M1082,1191h5.5c4.7-63.7,5.8-155.4,5.8-155.4l-16-144.6l-4.3,2.6l11.4,143.7
	C1084.4,1037.3,1084.3,1118.8,1082,1191z"/>
<g>
	<path class="st9" d="M958,624.3c-7.6,5.5-15.1,10.9-22.7,16.4c4.1,8.6,9.7,18.1,13.8,26.7c24.4-10.7,50.3-27.9,66.9-46.7
		C1001.1,609.1,985.8,609.1,958,624.3z"/>
	<path class="st9" d="M828.3,807c30.6-8.4,45.4-5,57.3,9.7c-20.5,14.5-49.6,25.3-75.8,30.2c-2-9.3-5.4-19.8-7.4-29.2
		C811.1,814.2,819.7,810.6,828.3,807z"/>
	<path class="st10" d="M654,721.8L770.1,753l33.3,76.8c0,0,9-2.2,14-9c5.3-7.3,3.6-15.2,3.6-15.2l-32.2-82.8l-75.9-12.6
		c68.7-41.9,91.1-77.7,105.2-149.1l78.4,7.2l39.5,78c0,0,7.8-2.5,14.4-11.7c5.9-8.1,4.5-14.5,4.5-14.5l-41.5-79.4
		c0,0-89.8-13.8-108.7-27.4C803.7,512.5,654,721.8,654,721.8z"/>
</g>
<polygon class="st11" points="962.5,768 930.6,839.9 950.4,753.5 "/>
<polygon class="st11" points="575.5,723.5 587.5,728.9 589.2,783.5 "/>
<polygon class="st11" points="407.2,802.3 375,753 387.5,753.9 "/>
<path class="st1" d="M452,575.9l95.5,69L654,721.8c66.6-57.7,117.9-126.5,150.7-208.6C778.5,494.4,697,435.5,697,435.5
	c-31.4-22.7-62.8-45.4-94.3-68.1L452,575.9z"/>
<polygon class="st12" points="372.4,248.3 385.5,230.2 431.7,219 475.7,256.5 "/>
<polygon class="st13" points="723.6,523.7 696.4,544.4 645.9,546.1 633.8,519.1 611,550.6 647.4,554.4 718.7,572.7 758.7,543.5 "/>
<path class="st14" d="M505,257.9c-6.6-1.4-12.2,0.7-15.4,5c-67.2-33.5-136.5-33.4-196.4,49.4c-62.6,86.7-35.6,151.8,29.4,205.7
	c0,0,0,0,0,0c-11.6,2.5-16.3,12.7-10.5,22.7c5.8,10,19.8,16.1,31.4,13.6c7.1-1.5,11.6-6,12.7-11.5c51.2,34.2,115.9,64,178.4,92.7
	c71.6-57.7,118.2-129.2,150.7-208.6c-43.5-43.2-98.8-101.9-157.5-141.6c0-0.7,0-1.3-0.1-2C526.5,271.7,516.3,260.2,505,257.9z"/>
<path class="st15" d="M373.8,404.2c17.3-23.9,48.7-26.6,70.2-5.9c21.5,20.7,24.9,56.9,7.6,80.8c-17.3,23.9-48.8,26.6-70.2,5.9
	C359.9,464.3,356.5,428.1,373.8,404.2z"/>
<path class="st16" d="M450,465.8c-17.3,23.9-48.8,26.6-70.2,5.9c-8.7-8.4-14.4-19.3-17-30.9c0.3,16.3,6.6,32.7,18.6,44.2
	c21.5,20.7,52.9,18.1,70.2-5.9c10.3-14.2,13.3-32.8,9.4-49.9C461.3,442.2,457.7,455.2,450,465.8z"/>
<path class="st17" d="M443.7,449.1c-5.1,7-14.3,7.8-20.6,1.7c-6.3-6.1-7.3-16.7-2.2-23.7c4.1-5.6,10.8-7.2,16.5-4.5
	c0,0-0.1-0.1-0.1-0.1c-9.7-9.3-23.8-8.1-31.6,2.6c-7.8,10.8-6.2,27,3.4,36.3c9.7,9.3,23.8,8.1,31.6-2.6c2.7-3.8,4.3-8.2,4.8-12.8
	C445,447,444.4,448.1,443.7,449.1z"/>
<path class="st15" d="M457.8,330.5c-11.8,16.3-6.8,37.2,11.2,46.7c18,9.5,42.1,3.9,53.9-12.4c11.8-16.3,6.8-37.2-11.2-46.7
	C493.7,308.7,469.6,314.2,457.8,330.5z"/>
<path class="st16" d="M511.7,318.2c-12.2-6.5-27.3-5.9-39.4,0.2c10.6-3.3,22.5-2.6,32.4,2.6c18,9.5,23,30.4,11.2,46.7
	c-3.8,5.2-8.8,9.3-14.5,12.2c8.5-2.6,16.2-7.7,21.5-15C534.7,348.6,529.7,327.6,511.7,318.2z"/>
<path class="st17" d="M504.8,361.7c-2.3,3.2-7,4.2-10.5,2.4c-3.5-1.8-4.5-5.9-2.2-9.1c2.3-3.2,7-4.2,10.5-2.4
	c0.3,0.1,0.5,0.3,0.8,0.5c-0.8-0.8-1.7-1.6-2.8-2.1c-5.4-2.8-12.5-1.2-16.1,3.7c-3.5,4.9-2,11.1,3.3,13.9c5.4,2.8,12.5,1.2,16-3.7
	c1.2-1.7,1.8-3.6,1.9-5.4C505.6,360.2,505.3,361,504.8,361.7z"/>
<polygon class="st12" points="327.8,410.4 343.5,365.2 354.3,375.9 342.9,439 "/>
<polygon class="st12" points="414.1,292.6 374.3,319.1 387.4,326.9 445.6,300 "/>
<path class="st18" d="M495.5,392.1c5.7,7.1,6.2,17.3,0.6,25c-2.2,3-5.1,5.3-8.2,6.7c0.9-1,1.8-2,2.6-3.1
	C496.7,412.1,498.2,401.5,495.5,392.1z"/>
<path class="st19" d="M495.5,392.1c0,0,1.2,9.6-1.2,17.9c-2.4,8.4-6.4,13.8-6.4,13.8c0.9-1,1.8-2,2.6-3.1
	C496.7,412.1,498.2,401.5,495.5,392.1z"/>
<g>
	<path class="st20" d="M516.5,318.3c-6.2-3.3-13.1-4.8-20.1-4.6c5.3,0.5,10.5,1.9,15.2,4.4c18,9.5,23,30.4,11.2,46.7
		c-7.7,10.7-20.7,16.7-33.9,17c14.7,1.3,30-4.8,38.7-16.8C539.6,348.7,534.5,327.8,516.5,318.3z"/>
	<path class="st20" d="M444,398.3c21.5,20.7,24.9,56.9,7.6,80.8c-17.3,23.9-48.8,26.6-70.2,5.9c-12.1-11.6-18.4-28.1-18.6-44.6
		c-0.7,18.4,6,37.3,19.5,50.3c22.6,21.7,55.6,19,73.8-6.2c18.2-25.1,14.6-63.2-8-84.9c-7.8-7.5-16.8-12.1-26-13.8
		C429.8,387.8,437.4,391.9,444,398.3z"/>
</g>
<path class="st21" d="M560.8,526.6c14.3,7,30.5,15,47.5,11.9c12.2-2.2,14.2-14.1,12.6-24.4c-0.2-1.4-0.5-2.8-0.9-4.2
	c-0.4-0.1-0.8-0.2-1.2-0.3c-5.8-1.4-22.5-7.8-18.2-17.1c6.1-13.4,21.2,7.6,23,13.6c3.2,0.5,6.5,0.4,9.6-0.6
	c12.1-3.8,6.2-20.7,3.1-27.8c-5-11.9-11.7-19.9-20.7-28.2c13.2,5.5,40.3,40.7,23.7,56.6c-2.3,2.2-5.2,3.4-8.1,4
	c-2.1,0.4-4.4,0.5-6.6,0.4c0.2,0.8,0.3,1.7,0.4,2.5c0.8,6.2,0.7,13.4-2.5,19.3c-6.9,12.7-24.1,11-34.6,7.8
	C577.8,537,569,533.3,560.8,526.6L560.8,526.6z M618.2,504.8c-1.7-3.8-4.1-7.5-7.7-9.4c-6.2-3.3-6.8,0.3-2.5,4.1
	C610.8,502.1,614.6,503.7,618.2,504.8z"/>
<path class="st12" d="M354.8,215.2c-5.4-12.1-16-23.1-33.8-32.6c8.3,110.5-198.9,161.8-52.6,281.8l4.8,23.8l49.4,30l-43.7-94.7
	C298,321.8,447.6,252.7,387,155.7C383.1,175.7,370.7,195.5,354.8,215.2z"/>
<path class="st22" d="M412.8,463.9c0.9-1.3,2.7-1.6,4-0.6c1.3,0.9,1.6,2.7,0.6,4c-0.9,1.3-2.7,1.6-4,0.6
	C412.1,467,411.8,465.2,412.8,463.9L412.8,463.9z M415.3,474.3c1.6-2.2,4.7-2.7,6.9-1.1c2.2,1.6,2.7,4.7,1.1,6.9
	c-1.6,2.2-4.7,2.7-6.9,1.1C414.2,479.5,413.7,476.5,415.3,474.3z"/>
<path class="st22" d="M492.2,369.4c0.4-0.5,1.2-0.7,1.7-0.3c0.5,0.4,0.7,1.2,0.3,1.7c-0.4,0.5-1.2,0.7-1.7,0.3
	C491.9,370.7,491.8,369.9,492.2,369.4L492.2,369.4z M493.2,373.8c0.7-0.9,2-1.2,2.9-0.5c0.9,0.7,1.2,2,0.5,2.9
	c-0.7,0.9-2,1.2-2.9,0.5C492.8,376,492.5,374.7,493.2,373.8z"/>
<path class="st19" d="M301.5,368.8c-10.7,17.3-19,35.4-22.6,54.7l43.7,94.7c0,0,0,0,0,0h0c-11.6,2.5-16.3,12.7-10.5,22.7
	c5.8,10,19.8,16.1,31.4,13.6c7.1-1.5,11.6-6,12.7-11.5c51.2,34.2,115.9,64,178.4,92.7c10.9-8.8,21.3-17.9,31-27.3
	C431.6,543.7,310.1,470.5,301.5,368.8z"/>
<path class="st18" d="M344.6,528.1c-9.9-4.1-21.7,2.7-15.8,14.5c-0.3-0.4-0.5-0.7-0.7-1.1c-3.8-6.1-2.2-14.1,5.5-15.7
	c-10.1,0.1-19.6,7.8-14.6,18.8C308.2,523.1,335.9,519.4,344.6,528.1z"/>
<g>
	<path class="st23" d="M415.3,529.7c18.9,39.8,43.7,53.5,68.9,50.3c-28.7,7-57.2-5.6-77.9-50l-0.2-0.1c13.5-8.6,25.9-17.4,37.2-26.4
		c-9,8.8-18.4,17.5-28.2,26.2L415.3,529.7z"/>
	<path class="st23" d="M534.1,371.4c4.6-19.1,6.4-38.7,5.8-59c35,13.6,52.1,40.4,56.7,71.9c-5.2-28.9-21.2-53.5-52.2-66.7
		C543.6,335.9,540.1,353.8,534.1,371.4z"/>
</g>
<path class="st24" d="M544.4,317.6c-0.2,5.5-0.7,10.9-1.4,16.3c-1.3,9.5-3.3,19-6,28.4c0,0,0,0,0,0c0.1,9.9-1,19.9-2.9,29.9l-8.2,0
	c-0.1,0.2-0.2,0.4-0.3,0.6l8,2c-6.5,30.7-21.6,60.7-41.1,82.8l-6.7-3.7l5.5,5c-9.9,11-20.9,19.9-32.3,25.7l-5.6-8.7l3.4,9.8
	c-7.4,3.5-15,5.8-22.6,6.6c-6.1,5.8-12.4,11.5-18.9,17.3l0.2,0.1c20.6,43.4,48.2,55.7,75.7,49c0,0,0,0,0,0c1.8-8.2,4.2-16.2,7-23.9
	l11.8,0.7l-10.8-3.3c18.5-48,55.8-86.6,93.1-99.7c3.8-14.1,6-28.4,6.3-42.2c0,0,0,0,0,0C599.3,370.4,584.3,334.7,544.4,317.6z"/>
<path class="st25" d="M521.6,431.3c-7.6,17.2-17.6,33.2-29.2,46.3l-6.7-3.7l5.5,5c-9,10-18.9,18.2-29.2,24
	c3.2,16.3,11.3,32.4,23.8,45c3.6,3.6,7.4,6.7,11.3,9.4c0.3-0.9,0.6-1.7,0.9-2.6l11.8,0.7l-10.8-3.3c14.4-37.4,40.2-69,68.5-87.4
	c-3.2-5-7-9.7-11.3-14.1C545.7,440.2,533.6,433.7,521.6,431.3z"/>
<path class="st26" d="M534.2,437.3c-4.7,4.3-9.3,9.2-13.6,14.5c10.1-6.3,20.3-10.6,29.3-11.9c-14.4,6.1-30.8,16.2-41.8,29.5
	c-15,18.1-7.7,59.1-2.2,66.3c8.8,11.5,26.4-23.5,52.2-47.1c25.8-23.5,34.5-49.5,25.7-61C575.1,416.2,560,413.8,534.2,437.3z"/>
<g>
	<path class="st27" d="M499.1,552.1l10.8,3.3l-11.8-0.7c-2.9,7.8-5.2,15.8-7,23.9c6.5-1.6,13-4.3,19.4-7.9c0,0,0,0,0,0
		c35.7-20,68.4-68.4,81.7-118.4C554.9,465.5,517.6,504.1,499.1,552.1z"/>
	<path class="st27" d="M437.8,508.8c-1.2,1.2-2.5,2.3-3.7,3.5c7.6-0.8,15.2-3,22.6-6.6l-3.4-9.8l5.6,8.7
		c11.5-5.9,22.4-14.8,32.3-25.7l-5.5-5l6.7,3.7c19.4-22,34.6-52,41.1-82.8l-8-2C507.2,433,476.5,471.6,437.8,508.8z"/>
	<path class="st27" d="M525.8,392.2l8.2,0c2-10,3-20.1,2.9-29.9C534,372.4,530.3,382.4,525.8,392.2z"/>
</g>
<polygon class="st1" points="710.2,337.6 619,264.8 641.4,235.5 727.2,324.2 713.6,456.2 685.4,427 "/>
<path class="st7" d="M727.2,324.2l-50.1-51.7l43.7,54.4l-0.3,61.7L727.2,324.2z"/>
<path class="st5" d="M717.4,336.9L640,281.5l70.2,56.1l-19.8,71.3L717.4,336.9z"/>
<g>
	<polygon class="st1" points="456,684.9 360.2,618.4 338.6,648.1 459.1,705.1 570.6,654.3 534.7,635.6 	"/>
	<polygon class="st5" points="540.8,638.8 534.7,635.6 456,684.9 360.2,618.4 457.9,690.7 	"/>
	<polygon class="st7" points="459.1,697.6 398.1,676.3 459.1,705.1 544.8,666.1 	"/>
</g>
<g>
	<polygon class="st14" points="668.4,257.9 620.1,283.8 582.4,262.6 672.2,201.8 	"/>
	<polygon class="st14" points="625.1,279 607.1,288.6 585.5,283.5 609.3,265.5 	"/>
	<polygon class="st19" points="582.4,262.6 620.1,283.8 668.4,257.9 620.2,275 	"/>
</g>
<polygon class="st14" points="931.6,997.9 907.7,1001.6 885.4,987.6 919,976.7 "/>
<g>
	<polygon class="st14" points="986,991.1 930.7,1012.3 898.7,971.8 975.6,893.3 	"/>
</g>
<polygon class="st19" points="911,974 975.6,893.3 898.7,971.8 921.7,1001 "/>
<polygon class="st14" points="760.5,984.5 737.1,990.4 713.6,978.3 746.2,964.5 "/>
<g>
	<polygon class="st14" points="814.2,973 760.9,999 725.5,961.5 795.2,876.5 	"/>
</g>
<polygon class="st19" points="737.9,962.6 795.2,876.5 725.5,961.5 751,988.5 "/>
<polygon class="st14" points="281.1,958 305,961.8 327.3,947.8 293.6,936.9 "/>
<g>
	<polygon class="st14" points="226.6,951.3 282,972.5 314,932 237,853.5 	"/>
</g>
<polygon class="st19" points="301.6,934.2 237,853.5 314,932 290.9,961.2 "/>
<polygon class="st14" points="157.4,926.3 179.9,935 204.7,926.1 174.1,908.2 "/>
<g>
	<polygon class="st14" points="105.7,908.1 155.2,940.6 195.1,907.9 136.6,814.8 	"/>
</g>
<polygon class="st19" points="182.6,907.3 136.6,814.8 195.1,907.9 166.3,931.4 "/>
<polygon class="st14" points="593.7,1004.7 610.5,1007.3 626.2,997.4 602.5,989.8 "/>
<g>
	<polygon class="st14" points="555.4,999.9 594.3,1014.9 616.9,986.4 562.7,931.1 	"/>
</g>
<polygon class="st19" points="608.2,987.9 562.7,931.1 616.9,986.4 600.6,1006.9 "/>
<polygon class="st14" points="1036.4,925.5 1013.7,933.9 989.1,924.4 1020,907.2 "/>
<g>
	<polygon class="st14" points="1088.5,908.4 1038.3,939.9 999.1,906.4 1059.4,814.5 	"/>
</g>
<polygon class="st19" points="1011.6,906.1 1059.4,814.5 999.1,906.4 1027.4,930.5 "/>
<polygon class="st14" points="383.3,934.7 407.5,934.9 427.4,917.7 392.5,911.9 "/>
<g>
	<polygon class="st14" points="332.1,934.3 389.6,948.4 416.3,904.3 330.2,836 	"/>
</g>
<polygon class="st19" points="404.3,908 330.2,836 416.3,904.3 397,936.1 "/>
<g>
	<polygon class="st14" points="356,671.5 390.9,629.2 377.5,588.1 300.2,664.2 	"/>
	<polygon class="st14" points="385.1,633.2 398.1,617.4 397.4,595.2 375.1,615.1 	"/>
	<polygon class="st19" points="377.5,588.1 390.9,629.2 356,671.5 382.2,627.6 	"/>
</g>
<path class="st5" d="M534.7,635.6L654,721.8c6.3-5.4,12.4-10.9,18.4-16.6l-106.6-97C555.9,617.7,545.6,626.8,534.7,635.6z"/>
<path class="st6" d="M482.7,1191c-7.2-72.6-12.7-156.1-12.7-156.1l2.1-144.2l-4.4-2.3l-6.6,145.3c0,0,7.2,94,16.2,157.3H482.7z"/>
<polygon class="st14" points="507.1,919.7 530.4,926 554.1,914.4 521.8,900 "/>
<g>
	<polygon class="st14" points="457.6,906.5 509.7,934.6 546.7,898.7 480.5,810.9 	"/>
</g>
<polygon class="st19" points="534.2,899.2 480.5,810.9 546.7,898.7 520,924.6 "/>
<path class="st1" d="M614.4,1191c22.6-58.6,47.8-135.6,47.8-135.6l28-142.8l-42.7,10.7l-8.7,126.9L567.5,1191H614.4z"/>
<polygon class="st7" points="638.9,1050.3 644.3,970.1 647.3,1051.2 609.4,1108.4 "/>
<path class="st5" d="M614.4,1191c22.6-58.6,47.8-135.6,47.8-135.6l28-142.8l-4.9,1.2l-32.1,140.6c0,0-22.3,70.8-45.1,136.6H614.4z"
	/>
<polygon class="st14" points="640.9,933.4 616.7,934.5 596.1,918.1 630.7,911 "/>
<g>
	<polygon class="st14" points="695.7,932.6 638.4,947.6 611,903.9 696.1,834.3 	"/>
</g>
<polygon class="st19" points="623,907.4 696.1,834.3 611,903.9 630.7,935.5 "/>
<path class="st11" d="M1000.7,555c0-0.9-0.1-1.7-0.1-2.6c-2.2-29.4-27.8-51.4-57.2-49.2c-3.1,0.2-6.1,0.7-9,1.4
	C964.8,506.7,990.8,526.8,1000.7,555z"/>
<path class="st11" d="M1020,515.2c0-0.6,0-1.3-0.1-1.9c-1.6-21.3-20.1-37.2-41.4-35.6c-2.2,0.2-4.4,0.5-6.5,1
	C994,480.3,1012.8,494.8,1020,515.2z"/>
<path class="st11" d="M194.7,367.7c-0.6,0.6-1.2,1.3-1.8,1.9c-19.2,22.3-16.7,56,5.7,75.2c2.3,2,4.8,3.8,7.4,5.3
	C186,427.2,181.9,394.6,194.7,367.7z"/>
<path class="st11" d="M153,382.1c-0.4,0.5-0.9,0.9-1.3,1.4c-13.9,16.2-12.1,40.6,4.1,54.5c1.7,1.5,3.5,2.7,5.3,3.8
	C146.7,425.2,143.7,401.6,153,382.1z"/>
</svg>
