<?xml version="1.0" encoding="utf-8"?>
<!-- Generator: Adobe Illustrator 22.0.0, SVG Export Plug-In . SVG Version: 6.00 Build 0)  -->
<svg version="1.1" id="Ebene_1" xmlns="http://www.w3.org/2000/svg" xmlns:xlink="http://www.w3.org/1999/xlink" x="0px" y="0px"
	 viewBox="0 0 1191 1191" style="enable-background:new 0 0 1191 1191;" xml:space="preserve">
<style type="text/css">
	.st0{fill-rule:evenodd;clip-rule:evenodd;fill:#FFFFFF;}
	.st1{fill:url(#SVGID_1_);}
	.st2{fill-rule:evenodd;clip-rule:evenodd;fill:#F9E8D8;}
	.st3{fill-rule:evenodd;clip-rule:evenodd;fill:#EBF5F2;}
	.st4{fill-rule:evenodd;clip-rule:evenodd;fill:#FFFFF5;}
	.st5{fill-rule:evenodd;clip-rule:evenodd;fill:#EFCAA6;}
	.st6{opacity:0.4;fill-rule:evenodd;clip-rule:evenodd;fill:#DBB692;}
	.st7{fill-rule:evenodd;clip-rule:evenodd;fill:#FFDEBA;}
	.st8{opacity:0.5;fill-rule:evenodd;clip-rule:evenodd;fill:#DBB692;}
	.st9{fill-rule:evenodd;clip-rule:evenodd;}
	.st10{fill-rule:evenodd;clip-rule:evenodd;fill:#567483;}
	.st11{fill-rule:evenodd;clip-rule:evenodd;fill:#7EB5D0;}
	.st12{opacity:0.4;fill-rule:evenodd;clip-rule:evenodd;fill:#FFFFFF;}
	.st13{fill-rule:evenodd;clip-rule:evenodd;fill:#D7E1DE;}
	.st14{fill:#732706;}
	.st15{fill:#550900;}
	.st16{fill:#BE8077;}
	.st17{fill:#F1F5F7;}
</style>
<rect class="st0" width="1191" height="1191"/>
<radialGradient id="SVGID_1_" cx="614.4653" cy="1041.6924" r="55.2967" gradientTransform="matrix(5.7723 0 0 1 -2849.0505 0)" gradientUnits="userSpaceOnUse">
	<stop  offset="2.358490e-03" style="stop-color:#B3B3B3"/>
	<stop  offset="0.2048" style="stop-color:#CFCFCF"/>
	<stop  offset="0.4363" style="stop-color:#EAEAEA"/>
	<stop  offset="0.6442" style="stop-color:#F9F9F9"/>
	<stop  offset="0.8066" style="stop-color:#FFFFFF"/>
</radialGradient>
<ellipse class="st1" cx="697.8" cy="1041.7" rx="319.2" ry="55.3"/>
<path class="st2" d="M447,285.8c-19.6,21.4-34.1,46.3-42.4,72.7c15.5-12.2,31.4-29.9,45.3-51.2c3.5-5.4,6.7-10.8,9.7-16.1
	c1.6-11.3,0.1-20.6-3.5-28.4C455.4,272.2,452.3,280.2,447,285.8z"/>
<path class="st3" d="M450.2,632.4l-90.5-50.1c-2.2,14.6-12.6,23.8-30.1,29c35.9,14,107.6,42.1,107.6,42.1l127.7,19.8l-13.4-36.9
	L450.2,632.4z"/>
<polygon class="st4" points="554.2,643.7 551.6,636.3 450.2,632.4 359.8,582.3 450,635.9 "/>
<path class="st5" d="M426.3,500.6c-45.5-69.4-30.3-155,23.7-213.9c16.6-17.4,11-57.9-18.5-94.5c-29.2-36.6-82.3-36.9-105.7,2.5
	c-37,60.9-51.6,126.7-45.2,189.7c-50.6,0.7-100.4,4-144.1,10.4c-24.2,4.7-33.9,30.2-35.8,55.2c-1.6,25,13.6,44.4,41.5,45.3
	c35.9,1.6,73,5.1,110.8,10.6c-5.8,15-2.8,27.8,8.2,34.2c61.3,37.1,75,94.9,30.3,147.5c-12,15.7-19,35.6-8,45.3
	c10.8,9.7,59.2,5.3,78.9,5.2C475.4,737.2,492.8,602.1,426.3,500.6z"/>
<path class="st6" d="M426.3,500.6c-18.3-28-26.8-58.5-26.9-88.9c-2.8,34.2,2.4,69.4,17.3,102.7c30.7,68.9,34.4,147,12.2,200.9
	C478.9,672.4,476.3,577,426.3,500.6z"/>
<path class="st5" d="M380.4,703.6c-1.2-32.3-27.1-58.9-48.9-59.4c-49-3.8-95.4-3.6-138.2-0.2c-19.1,2.4-31.5,21-34.2,40.3
	c-2.5,19.3,8.4,35.2,30,37.3c46.9,5.2,95.9,14.6,145.9,28.7C357.7,756.4,381.8,736,380.4,703.6z"/>
<path class="st7" d="M439.5,217c7.7,9.6,13.9,19.5,18.5,29.2c-3.1-16.7-11.8-35.8-26.4-53.9c-29.2-36.6-82.3-36.9-105.7,2.5
	c-40.3,66.3-54,138.4-43,206.3c-3.3-60.6,12.2-123.2,47.6-181.5C354.6,178.9,409.3,179.3,439.5,217z"/>
<path class="st5" d="M377.7,644.4c-1.5-38.1-32-69.6-57.7-70.1c-57.9-4.5-112.6-4.3-163.1-0.2c-22.5,2.9-37.1,24.8-40.4,47.6
	c-2.9,22.8,9.9,41.5,35.4,44.1c55.4,6.1,113.2,17.2,172.2,33.8C350.9,706.7,379.3,682.6,377.7,644.4z"/>
<path class="st8" d="M371.3,675.7c-0.4,0.7-0.7,1.4-1.1,2.1c-0.1,0.2-0.2,0.4-0.3,0.6c-0.4,0.7-0.8,1.3-1.2,2
	c-0.1,0.2-0.2,0.3-0.3,0.5c-0.4,0.6-0.7,1.1-1.1,1.6c-0.1,0.2-0.2,0.3-0.3,0.5c-0.4,0.6-0.9,1.2-1.4,1.7c-0.2,0.2-0.3,0.4-0.5,0.6
	c-0.5,0.6-0.9,1.1-1.4,1.6c-0.1,0.2-0.3,0.3-0.4,0.5c-0.4,0.4-0.8,0.9-1.3,1.3c-0.1,0.1-0.3,0.3-0.4,0.4c-0.5,0.5-1,1-1.5,1.4
	c-0.2,0.2-0.4,0.3-0.6,0.5c-0.5,0.4-1.1,0.9-1.6,1.3c-0.2,0.1-0.4,0.3-0.5,0.4c-0.5,0.3-0.9,0.7-1.4,1c-0.2,0.1-0.3,0.2-0.5,0.3
	c0,0,0,0,0,0c0,0,0,0,0,0c-9.3,6.2-20.3,8.4-31.1,5.5c-49.3-13.9-97.7-23.9-144.6-30.4c0,0-0.1,0-0.1,0c1.4,0.2,2.8,0.5,4.2,0.7
	c45,8.1,91.3,19.7,138.4,35.2c10.3,3.2,21.1,1.4,30.2-4.5c0,0,0,0,0,0c0,0,0,0,0,0c0.2-0.1,0.3-0.2,0.5-0.3c0.5-0.3,0.9-0.6,1.4-1
	c0.2-0.1,0.4-0.3,0.5-0.4c0.5-0.4,1.1-0.8,1.6-1.2c0.2-0.2,0.4-0.3,0.6-0.5c0.5-0.4,1-0.9,1.5-1.4c0.1-0.1,0.3-0.3,0.4-0.4
	c0.4-0.4,0.9-0.8,1.3-1.3c0.1-0.1,0.3-0.3,0.4-0.4c0.5-0.5,1-1,1.4-1.6c0.2-0.2,0.3-0.4,0.5-0.5c0.5-0.6,0.9-1.1,1.4-1.7
	c0.1-0.2,0.2-0.3,0.3-0.5c0.4-0.5,0.8-1.1,1.2-1.6c0.1-0.1,0.2-0.3,0.3-0.4c0.4-0.6,0.8-1.3,1.2-2c0.1-0.2,0.2-0.4,0.3-0.6
	c0.4-0.7,0.8-1.4,1.2-2.1c0.1-0.2,0.2-0.3,0.2-0.5c0.3-0.7,0.7-1.3,1-2c0.1-0.1,0.1-0.2,0.2-0.4c0.4-0.8,0.7-1.5,1-2.3
	c0.1-0.2,0.2-0.4,0.2-0.6c0.2-0.6,0.5-1.2,0.7-1.8C371.4,675.4,371.3,675.6,371.3,675.7z"/>
<path class="st5" d="M360.7,595c5.6-41.1-21.1-80.6-48.5-86c-61.1-15.7-119.7-25.9-174.6-31.1c-24.6-1.2-44.5,19.5-52.2,43.3
	c-7.5,23.9,2.7,46.3,29.6,53.9c58.1,17,118,39.8,178,68.8C320.2,656.6,355.2,636.2,360.7,595z"/>
<g>
	<path class="st9" d="M843.2,1015.8c-10-3.3-20-6.6-30-10c-5.2,9.5-10.1,20.9-15.4,30.4c25.9,15.2,58.8,27.6,87.1,30.4
		C885.7,1045.2,875.5,1031.2,843.2,1015.8z"/>
	<path class="st9" d="M549.7,1015.8c-32.4,15.5-42.5,29.5-41.7,50.8c28.2-2.8,61.1-15.2,87.1-30.4c-5.2-9.5-10.1-20.9-15.4-30.4
		C569.7,1009.2,559.7,1012.5,549.7,1015.8z"/>
</g>
<path class="st10" d="M551.6,803.6v208.4c0,0,8,6.8,17.5,6.8c10.2,0,16.3-6.8,16.3-6.8V846.8c83.9,35.2,147.4,35.2,222.1,0.9v164.5
	c0,0,7.5,5.4,20.3,5.4c11.4,0,16.3-5.4,16.3-5.4s0-147.4,0-208.4C844.1,802.2,551.6,803.6,551.6,803.6z"/>
<path class="st3" d="M551.6,520.5v134v149.2c97.5,23,195,24.4,292.5,0c0-36.7,0-151,0-151c0-44.1,0-88.1,0-132.2H551.6z"/>
<polygon class="st9" points="800.5,229 825.9,229 866.9,264.1 861.7,329.6 "/>
<polygon class="st11" points="708.1,679.2 724.9,650.1 680.7,650.1 701.5,686.1 694.3,782.6 728.7,812.3 750.9,782.6 "/>
<path class="st5" d="M879.9,357.5c-3.2-7-8.8-10.7-14.9-10.8c-13.9-84.2-60.1-148-176.3-148c-121.6,0-163.6,68.3-170,164.1
	c0,0,0,0,0,0c-10-9-22.5-6.6-27.9,5.4c-5.4,12-1.6,29,8.4,38c6.1,5.5,13.2,6.7,19,4.1c2.6,69.9,18.2,149.4,33.4,226.1
	c100.9,27.6,197.8,22.9,292.5,0c10.8-68.8,28.2-158.9,25.6-239.3c0.6-0.5,1.2-0.9,1.8-1.5C881.5,386.5,885.3,369.5,879.9,357.5z"/>
<path class="st9" d="M819.2,190.7c7.6-13,10.6-30.1,7.6-52.9C730.5,219,545.3,62.3,532.1,277l-18.7,20.3l5.3,65.5l58.1-103.3
	c106.4-50,269.6,41.8,318.7-78.7C874.4,190.5,847.9,192.2,819.2,190.7z"/>
<path class="st12" d="M532.1,277l-18.7,20.3l5.3,65.5l-0.4-61.1l24-22.4c6.2-100.7,49.2-120.9,102.5-122.1
	C586.4,155.7,538.6,171.7,532.1,277z"/>
<path class="st7" d="M642.2,243.8c-23.1,1.7-45.3,6.1-65.4,15.6l-58.1,103.3c0,0,0,0,0,0l0,0c-10-9-22.5-6.6-27.9,5.4
	c-5.4,12-1.6,29,8.4,38c6.1,5.5,13.2,6.7,19,4.1c2.6,69.9,18.2,149.4,33.4,226.1c15.4,4.2,30.7,7.7,45.9,10.4
	C567.7,480.2,554.2,319.5,642.2,243.8z"/>
<path class="st3" d="M900,689.7l-42.8,84.4c13.7-5.4,26.9-0.9,40.1,11.8c7.5-29.2,27.4-95.4,27.4-95.4l-80.6-54.2l-26.2,32.1
	L900,689.7z"/>
<path class="st13" d="M907.1,688.4l-48.1-9.4l41,10.6l-24.3,48L907.1,688.4z"/>
<path class="st4" d="M844.1,636.3l72.4,54.2c0,0-11.5,66.2-19.1,95.4c7.5-29.2,27.4-95.4,27.4-95.4L844.1,636.3z"/>
<g>
	<g>
		<path d="M572.7,455.1c-24.1,43.8-20.2,75.8-0.4,96.9c-25.6-21.8-32.9-56.5-5.8-105.1l0-0.2c17,6.7,33.3,12.3,49.1,16.7
			c-14.1-2.4-28.4-5.2-42.9-8.5L572.7,455.1z"/>
		<path d="M797.7,459.2c20.6-8.5,39.9-19.9,58.2-33.9c10.7,41.3-2.5,74.9-28.5,100.1c23.2-24,35.1-55.1,26.7-92.5
			C836.8,444.3,817.9,452.9,797.7,459.2z"/>
	</g>
	<path class="st14" d="M854.1,432.8c-5.2,3.4-10.5,6.6-16,9.6c-9.6,5.2-19.7,9.6-30.2,13.4c0,0,0,0,0,0c-9,6.6-19,12.4-29.5,17.3
		l-5.4-7.6c-0.3,0.1-0.5,0.1-0.8,0.1l3.5,8.7c-32.6,14.5-70.4,20.5-103.6,17.2l-1.1-8.6l-1,8.4c-16.7-1.8-32.2-6-45.2-12.6l4.3-10.9
		l-6.7,9.6c-8.2-4.5-15.3-10-21.1-16.5c-9.4-1.8-18.9-3.8-28.5-5.9l0,0.2c-26.3,47.8-19.3,81.5,5.3,102.4c0,0,0,0,0,0
		c8.7-3.8,17.7-6.9,26.7-9.5l7.2,11.4l-4.2-12.2c56.6-14.9,117-6.2,153.9,19.4c15.5-5.9,30.2-13.4,43.1-22.3c0,0,0,0,0,0
		C842,518.7,864.8,481,854.1,432.8z"/>
	<path class="st15" d="M734.2,487.5c-20.9,4.5-42.3,5.8-62.1,3.9l-1.1-8.6l-1,8.4c-15.2-1.7-29.3-5.3-41.6-10.9
		c-13,13.8-22.4,32-25.6,51.9c-0.9,5.7-1.3,11.3-1.1,16.6c1-0.3,2-0.6,3-0.9l7.2,11.4l-4.2-12.2c44-11.6,90.4-8.9,126.1,4.9
		c2.5-6.3,4.3-13,5.4-19.8C742,515.7,739.9,500.2,734.2,487.5z"/>
	<path class="st16" d="M737,503.2c-7.1-1.5-14.7-2.4-22.4-2.9c12.5,5.2,23.3,11.6,30.5,19.1c-15.2-9.2-35.4-17.6-55-18.9
		c-26.6-1.7-59.6,32.3-62.5,42.1c-4.7,15.8,39.2,8.7,78.1,16.8c38.9,8.1,68.5-1.2,73.3-16.9C783.6,526.7,775.8,511.3,737,503.2z"/>
	<g>
		<path class="st17" d="M607.8,547.2l4.2,12.2l-7.2-11.4c-9.1,2.5-18,5.7-26.7,9.5c5.8,4.9,12.6,9.2,20.2,12.7c0,0,0,0,0,0
			c42.2,19.6,108.6,17.5,163.5-3.6C724.8,541,664.4,532.3,607.8,547.2z"/>
		<path class="st17" d="M607,461.9c-1.9-0.3-3.8-0.7-5.7-1.1c5.8,6.5,12.9,12,21.1,16.5l6.7-9.6l-4.3,10.9
			c13.1,6.6,28.5,10.8,45.2,12.6l1-8.4l1.1,8.6c33.2,3.2,71-2.8,103.6-17.2l-3.5-8.7C723,475.4,667,472.8,607,461.9z"/>
		<path class="st17" d="M772.9,465.4l5.4,7.6c10.5-4.9,20.5-10.6,29.5-17.3C796.7,459.8,785,462.9,772.9,465.4z"/>
	</g>
</g>
<polygon class="st5" points="907.1,776.7 862.7,745.8 823.3,762.3 904.4,832.2 "/>
<polygon class="st7" points="898.4,777 877.1,755.8 907.1,776.7 904.4,832.2 896.1,825 "/>
<polygon class="st5" points="867.1,751.2 850.6,739.7 828.8,742.2 850.1,762.5 "/>
<path class="st5" d="M370.5,503.5c4.3-41.3-23.8-79.8-51.4-84.3c-61.6-13.7-120.5-21.8-175.5-25.2c-24.7-0.4-43.8,21-50.7,45
	c-6.7,24.1,4.3,46.2,31.4,52.9c58.7,15.1,119.2,35.8,180.2,62.8C332.1,566.4,366.4,544.8,370.5,503.5z"/>
<path class="st4" d="M551.6,636.3v167.3c9.2,2.2,18.3,4.1,27.5,5.9l18.4-162.8C582.2,644,566.9,640.5,551.6,636.3z"/>
<path class="st8" d="M351.1,545c-0.2,0.2-0.4,0.4-0.6,0.5c-0.6,0.5-1.2,1-1.8,1.5c-0.2,0.1-0.4,0.3-0.5,0.4c-0.5,0.4-1,0.8-1.6,1.2
	c-0.2,0.1-0.4,0.3-0.5,0.4c-0.6,0.4-1.2,0.9-1.9,1.3c-0.2,0.1-0.5,0.3-0.7,0.4c-0.6,0.4-1.3,0.8-1.9,1.1c-0.2,0.1-0.4,0.2-0.6,0.4
	c-0.5,0.3-1.1,0.6-1.6,0.9c-0.2,0.1-0.4,0.2-0.6,0.3l0,0c0,0,0,0,0,0c-10.9,5.3-23.2,6-34.4,1.2c-50.9-22.5-101.6-40.7-151.1-54.9
	c0,0,0,0,0,0c-4-1.2-8-2.3-12-3.4c-1.3-0.3-2.5-0.7-3.8-1c-1.4-0.4-2.8-0.8-4.2-1.1c-3.1-0.8-6.1-1.6-9.1-2.4
	c-5.3-1.3-10-3.2-14.1-5.6c-1.4,1-2.7,2-4,3.1c4.9,3.7,10.9,6.5,18.1,8.3c3,0.8,6.1,1.6,9.1,2.4c1.4,0.4,2.8,0.7,4.2,1.1
	c1.3,0.3,2.5,0.7,3.8,1c4,1.1,8,2.2,12,3.4c0,0,0,0,0,0c49.5,14.2,100.1,32.4,151.1,54.9c11.2,4.8,23.4,4.1,34.4-1.2c0,0,0,0,0,0
	l0,0c0.2-0.1,0.4-0.2,0.6-0.3c0.6-0.3,1.1-0.6,1.6-0.9c0.2-0.1,0.4-0.2,0.6-0.4c0.6-0.4,1.3-0.7,1.9-1.1c0.2-0.1,0.5-0.3,0.7-0.4
	c0.6-0.4,1.3-0.8,1.9-1.3c0.2-0.1,0.4-0.3,0.5-0.4c0.5-0.4,1-0.8,1.6-1.2c0.2-0.1,0.4-0.3,0.5-0.4c0.6-0.5,1.2-1,1.8-1.5
	c0.2-0.2,0.4-0.4,0.6-0.5c0.6-0.5,1.2-1.1,1.7-1.7c0.2-0.2,0.3-0.3,0.5-0.5c0.1-0.1,0.3-0.3,0.4-0.5c-0.6-1.3-1.2-2.6-1.8-3.9
	C351.6,544.5,351.4,544.7,351.1,545z"/>
<path class="st8" d="M292.9,643.9c-37.5-18.1-74.9-33.8-111.9-47.2C218.6,611,256.8,628,295,647.9c19.6,9.9,43.4-0.2,55.6-24.4
	C336.9,644.7,312.9,653.2,292.9,643.9z"/>
<g>
	<path class="st9" d="M250.1,683.6c-9,6-14.9,16.2-14.9,27.7c0,8.7,3.3,16.6,8.8,22.5c-3.9-6.2-6.2-13.5-6.2-21.4
		C237.9,701.1,242.6,690.9,250.1,683.6z"/>
	<path class="st9" d="M258.5,688.4c-9,6-14.9,16.2-14.9,27.7c0,8.7,3.3,16.6,8.8,22.5c-3.9-6.2-6.2-13.5-6.2-21.4
		C246.3,706,251,695.7,258.5,688.4z"/>
	<path class="st9" d="M174.5,472c0-19.3,8-36.8,20.9-49.2C180,433,170,450.3,170,470.1c0,14.8,5.7,28.3,15,38.4
		C178.3,497.9,174.5,485.4,174.5,472z"/>
	<path class="st9" d="M199.3,516.8c-6.7-10.6-10.5-23.1-10.5-36.5c0-19.3,8-36.8,20.9-49.2c-15.3,10.2-25.3,27.6-25.3,47.3
		C184.4,493.2,190,506.7,199.3,516.8z"/>
	<path class="st9" d="M178.9,570.8c0,13.1,5,25.1,13.3,34.1c-5.9-9.4-9.3-20.5-9.3-32.3c0-17.1,7.1-32.6,18.5-43.7
		C187.8,537.9,178.9,553.3,178.9,570.8z"/>
	<path class="st9" d="M191.6,578.2c0,13.1,5,25.1,13.3,34.1c-5.9-9.4-9.3-20.5-9.3-32.3c0-17.1,7.1-32.6,18.5-43.7
		C200.6,545.3,191.6,560.7,191.6,578.2z"/>
	<path class="st9" d="M185.2,612.3c-8.5,8-13,19.9-10.9,32.2c1.6,9.3,6.5,17.1,13.4,22.5c-5.3-5.9-9-13.3-10.4-21.7
		C175.3,633.2,178.5,621.4,185.2,612.3z"/>
	<path class="st9" d="M195.1,616c-8.5,8-13,19.9-10.9,32.2c1.6,9.3,6.5,17.1,13.4,22.5c-5.3-5.9-9-13.3-10.4-21.7
		C185.2,636.9,188.3,625.1,195.1,616z"/>
</g>
<path class="st6" d="M380.4,703.6c-0.4-10.7-3.6-20.8-8.4-29.6c3.9-8.4,6.1-18.4,5.6-29.7c-0.7-17.7-7.7-33.9-17.5-46.3
	c0.2-1,0.3-2,0.5-3.1c2.5-18.2-1.4-36-8.8-50.7c9.7-9.4,16.9-23.3,18.6-40.8c4.3-41.3-23.8-79.8-51.4-84.3
	c-49.2-10.9-96.8-18.3-141.9-22.6c42,6.2,85.7,15.1,130.7,26.9c28.5,5.8,56.2,47.1,50.2,89.9c-2.1,15.2-8.1,27.7-16.2,36.9
	c-0.4,0.2-0.8,0.5-1.2,0.8c0.1,0.1,0.1,0.3,0.2,0.4c-0.7,0.7-1.3,1.4-2,2.1c0.8-0.4,1.6-0.8,2.4-1.2c6.8,15.4,10,33.8,6.7,52.2
	c-2.9,17-10.6,30.4-20.6,39.4c12-5.3,22.5-15.9,28.6-30.8c7.1,12.1,11.7,26.6,11.7,41.9c0.1,15.9-4.8,29.2-12.3,39
	c3.8-2.6,7.4-5.8,10.4-9.7c3.9,8.6,6.2,18.2,6.2,28.3c0.1,13.5-4,24.8-10.4,33.1C373,738,381.2,722.9,380.4,703.6z"/>
<path class="st7" d="M193.1,721.3c-21.6-3.2-32-20.1-29-40.1c0.8-4.7,2.1-9.2,3.8-13.6c3.8,0.5,7.7,1,11.6,1.5
	c-3.8-0.7-7.6-1.4-11.4-2c0.1-0.2,0.1-0.3,0.2-0.5c-1.2-0.1-2.3-0.3-3.5-0.4c-0.1,0.1-0.1,0.2-0.2,0.3c-2.7-0.5-5.4-0.9-8.1-1.3
	c-25.5-3.7-37.8-23.7-34.2-47.4c2.2-13.4,8.1-26.3,16.8-35.3c1.5,0.5,3.1,1,4.6,1.5c-8-3-15.9-5.8-23.8-8.5
	c-26.6-8.8-36-32.6-27.6-57.2c4.2-11.9,11.1-22.9,20-30.8c0,0,0,0,0,0c3.5,1.8,7.5,3.3,11.9,4.4c9.7,2.5,19.4,5.1,29.2,7.9
	c-8.1-2.7-16.1-5.3-24.1-7.7c-26.9-7.9-37-31.3-29.6-56.2c5.2-16.7,15.9-31.9,29.8-39.7c-17.8,6-31.1,23.5-36.7,42.8
	c-5.3,19.4,0.7,37.4,17.3,47.2c-11.4,8-20.2,20.9-24.8,35c-7.5,23.9,2.7,46.3,29.6,53.9c7.6,2.2,15.2,4.6,22.8,7
	c-11.6,9-19.1,24-21.3,39.6c-2.9,22.8,9.9,41.5,35.4,44.1c4.1,0.5,8.3,1,12.4,1.5c-2.6,5.4-4.4,11.2-5.2,17.2
	c-2.5,19.3,8.4,35.2,30,37.3c7.7,0.9,15.5,1.8,23.4,2.9C206,723.4,199.5,722.3,193.1,721.3z"/>
<path class="st9" d="M701.1,608.2c-22.2,0-42.8-4.7-59.7-12.7c15.2,13.2,38.9,21.7,65.6,21.7c36.8,0,67.9-16.1,78.9-38.5
	C767,596.6,736.1,608.2,701.1,608.2z"/>
<path class="st9" d="M802.6,369.3c-27.8-7.1-54.1,6.5-66.3,31.7c17.4-18.1,42.8-26.3,69.2-19.6c16.8,4.3,31.5,14,42.9,27
	C839.2,389.4,822.7,374.5,802.6,369.3z"/>
<path class="st9" d="M617.4,373.8c-20,3.9-38.4,13.4-53.3,26.5c13.2-19.4,34.3-34.3,58.3-38.9c33.2-6.4,61.9,8.6,72.7,35
	C677.4,377.1,649,367.7,617.4,373.8z"/>
<path class="st9" d="M749.8,437.7c-2.7,9.9-11.8,17.2-22.6,17.2c-4.3,0-8.2-1.1-11.7-3.1c1.5,0.2,3,0.3,4.6,0.3
	C732.1,452.1,742.8,446.5,749.8,437.7z"/>
<path class="st7" d="M749.8,437.7c0,0-8,7.4-17.3,10.8c-9.3,3.4-17,3.3-17,3.3c1.5,0.2,3,0.3,4.6,0.3
	C732.1,452.1,742.8,446.5,749.8,437.7z"/>
<path class="st9" d="M809.7,306.7c11.7,8.6,19.8,20.4,24,33.4c-0.2-16.5-7.7-32.6-21.7-42.9c-19.4-14.3-45.4-13.4-64.4,0.4
	C768,290.5,791.2,293.1,809.7,306.7z"/>
<path class="st9" d="M608.9,304.2c-14.7,8.1-26.1,19.7-33.4,32.8c3.7-17.1,15.3-33.1,33-42.8c24.3-13.3,52.7-10.5,70.7,5.1
	C658.1,290.5,632,291.6,608.9,304.2z"/>
<path class="st7" d="M785.9,578.7c-18.9,17.8-60.7,23.3-82.3,24.6c-15.2,0.9-45.2,0.2-62.1-7.8c16.9,8,37.5,12.7,59.7,12.7
	C736.1,608.2,767,596.6,785.9,578.7z"/>
<path class="st9" d="M523.7,389.3c-2.8-11.8-16.9-18.1-23.8-4.9c0.2-0.5,0.3-0.9,0.5-1.4c3.1-7.5,11.5-11.4,18.1-5.3
	c-6.8-9.2-20.2-12.8-27-1C504,352.4,525.9,375.5,523.7,389.3z"/>
</svg>
