<?xml version="1.0" encoding="utf-8"?>
<!-- Generator: Adobe Illustrator 22.0.0, SVG Export Plug-In . SVG Version: 6.00 Build 0)  -->
<svg version="1.1" id="Layer_1" xmlns="http://www.w3.org/2000/svg" xmlns:xlink="http://www.w3.org/1999/xlink" x="0px" y="0px"
	 viewBox="0 0 1191 1191" style="enable-background:new 0 0 1191 1191;" xml:space="preserve">
<style type="text/css">
	.st0{fill:url(#SVGID_1_);}
	.st1{fill-rule:evenodd;clip-rule:evenodd;fill:#EFCAA6;}
	.st2{fill-rule:evenodd;clip-rule:evenodd;}
	.st3{fill-rule:evenodd;clip-rule:evenodd;fill:#193540;}
	.st4{fill-rule:evenodd;clip-rule:evenodd;fill:#EBF5F2;}
	.st5{fill-rule:evenodd;clip-rule:evenodd;fill:#754D33;}
	.st6{fill-rule:evenodd;clip-rule:evenodd;fill:#A0220A;}
	.st7{fill-rule:evenodd;clip-rule:evenodd;fill:#FFDEBA;}
	.st8{fill-rule:evenodd;clip-rule:evenodd;fill:#F1F5F7;}
	.st9{fill-rule:evenodd;clip-rule:evenodd;fill:#DDE1E3;}
	.st10{fill-rule:evenodd;clip-rule:evenodd;fill:#95A6B1;}
	.st11{fill-rule:evenodd;clip-rule:evenodd;fill:#D0A486;}
	.st12{fill-rule:evenodd;clip-rule:evenodd;fill:#DBB692;}
	.st13{fill-rule:evenodd;clip-rule:evenodd;fill:#C5997C;}
	.st14{fill:#D0A486;}
	.st15{fill-rule:evenodd;clip-rule:evenodd;fill:#732706;}
	.st16{fill-rule:evenodd;clip-rule:evenodd;fill:#FFFFFF;}
	.st17{fill-rule:evenodd;clip-rule:evenodd;fill:#FFFFF5;}
	.st18{fill:#656868;}
	.st19{fill-rule:evenodd;clip-rule:evenodd;fill:#85CEE9;}
	.st20{opacity:0.1;fill:#FFFFFF;}
	.st21{opacity:0.5;fill:#FFFFF5;}
</style>
<radialGradient id="SVGID_1_" cx="543.2249" cy="595.5" r="595.5" gradientTransform="matrix(1 0 0 1 52.2751 0)" gradientUnits="userSpaceOnUse">
	<stop  offset="0" style="stop-color:#D7ECF1"/>
	<stop  offset="1" style="stop-color:#B5DAE2"/>
</radialGradient>
<rect class="st0" width="1191" height="1191"/>
<polygon class="st1" points="385.1,533.6 406.2,465.7 453.2,469.6 406.3,554.6 "/>
<g>
	<path class="st2" d="M880.6,1054.1c-10.7-2.6-21.3-5.2-32-7.8c-4.6,10.2-8.7,22.5-13.3,32.8c28.2,13.6,63.3,23.6,92.8,24.1
		C927.1,1081,915.4,1067.4,880.6,1054.1z"/>
	<path class="st2" d="M574.4,1052.8c-33.6,16.1-44.2,30.6-43.4,52.8c29.4-2.9,63.6-15.8,90.5-31.6c-5.4-9.8-10.5-21.7-16-31.6
		C595.2,1045.9,584.8,1049.4,574.4,1052.8z"/>
</g>
<path class="st3" d="M576.3,829.4V1049c0,0,8.3,7.1,18.2,7.1c10.6,0,16.9-7.1,16.9-7.1V877.1c87.2,36.6,153.2,36.6,230.9,0.9v171
	c0,0,7.8,5.7,21.1,5.7c11.8,0,16.9-5.7,16.9-5.7s0-158,0-219.5C779.1,854.8,677.7,853.3,576.3,829.4z"/>
<path class="st4" d="M924.1,715.8L924.1,715.8l-43.7-34.5c0-47.8,0-95.6,0-143.5H576.3v125.9l-95.4-38.8l-0.2,0.2l-68.8-79.3
	c-7.1,13.2-20.3,18.4-38.8,17.2c29.4,25.8,58.8,51.6,88.2,77.5h0l0,0l115.1,63.1v128.7c101.4,23.9,202.8,25.4,304.1,0
	c0-36,0-71.9,0-107.9l16.7,10.3l71.7,102.7c13.7-13.4,24.7-34.7,34.5-39.2C978.7,768.5,950.8,743,924.1,715.8z"/>
<polygon class="st1" points="846.3,294.4 837.7,275.3 816.9,265.9 825,295.4 "/>
<polygon class="st5" points="835.1,234.8 861.5,234.8 904.2,271.3 898.7,339.4 "/>
<polygon class="st6" points="739.1,702.8 756.5,672.6 710.6,672.6 732.2,710 724.7,810.3 760.5,841.3 783.6,810.3 "/>
<path class="st1" d="M917.6,368.4c-3.3-7.3-9.1-11.1-15.5-11.2c-14.4-87.5-62.5-153.9-183.3-153.9c-126.4,0-170.1,71-176.7,170.6
	c0,0,0,0,0,0c-10.4-9.4-23.4-6.9-29,5.6c-5.6,12.5-1.7,30.2,8.7,39.5c6.4,5.7,13.8,7,19.8,4.3c2.7,72.7,18.9,155.3,34.7,235
	c104.9,28.7,205.6,23.8,304.1,0c11.2-71.6,29.3-165.2,26.6-248.8c0.6-0.5,1.3-1,1.9-1.5C919.4,398.6,923.3,380.9,917.6,368.4z"/>
<path class="st7" d="M670.6,250.3c-24,1.8-47,6.3-68,16.2l-60.4,107.4c0,0,0,0,0,0c0,0,0,0,0,0c-10.4-9.4-23.4-6.9-29,5.6
	c-5.6,12.5-1.7,30.2,8.7,39.5c6.4,5.7,13.8,7,19.8,4.3c2.7,72.7,18.9,155.3,34.7,235c16,4.4,31.9,8,47.7,10.8
	C593.1,495.9,579.1,329,670.6,250.3z"/>
<path class="st8" d="M686.7,344c34.9,0,59.2,28.3,54.3,63.2c-4.9,34.9-37.3,63.2-72.2,63.2c-34.9,0-59.2-28.3-54.3-63.2
	C619.5,372.3,651.8,344,686.7,344z"/>
<path class="st9" d="M680.4,459.7c-34.9,0-59.2-28.3-54.3-63.2c2-14.1,8.5-27.2,17.8-37.7c-15.5,11.6-26.7,29-29.5,48.4
	c-4.9,34.9,19.4,63.2,54.3,63.2c20.8,0,40.6-10,54.3-25.5C710.8,454.1,695.9,459.7,680.4,459.7z"/>
<path class="st10" d="M683.2,426.8c-10.2,0-17.4-8.3-15.9-18.5c1.5-10.2,10.9-18.5,21.2-18.5c8.2,0,14.4,5.3,15.8,12.7
	c0-0.1,0-0.1,0-0.2c2.2-15.7-8.7-28.4-24.4-28.4c-15.7,0-30.2,12.7-32.4,28.4c-2.2,15.7,8.7,28.4,24.4,28.4c5.5,0,10.8-1.6,15.6-4.3
	C686,426.6,684.6,426.8,683.2,426.8z"/>
<path class="st8" d="M815.4,373.5c-23.8,0-40.3,19.3-37,43.1c3.4,23.8,25.4,43.1,49.2,43.1c23.8,0,40.4-19.3,37-43.1
	C861.2,392.8,839.2,373.5,815.4,373.5z"/>
<path class="st9" d="M864.6,416.6c-2.3-16.2-13.2-30.3-27.5-37.7c10.5,7.9,18.1,19.7,19.9,32.9c3.4,23.8-13.2,43.1-37,43.1
	c-7.6,0-15-2-21.7-5.4c8.4,6.4,18.7,10.2,29.3,10.2C851.4,459.7,867.9,440.4,864.6,416.6z"/>
<path class="st10" d="M815.1,423.2c-4.6,0-8.9-3.8-9.6-8.4c-0.7-4.6,2.6-8.4,7.2-8.4c4.6,0,8.9,3.7,9.6,8.4c0.1,0.4,0.1,0.7,0.1,1.1
	c0.3-1.3,0.3-2.7,0.1-4.1c-1-7.1-7.6-12.8-14.6-12.8c-7.1,0-12,5.7-11,12.8c1,7.1,7.6,12.8,14.6,12.8c2.5,0,4.7-0.7,6.5-1.9
	C817.1,423.1,816.1,423.2,815.1,423.2z"/>
<polygon class="st5" points="648.9,304.2 703.1,288 700.3,305.8 631.9,338.5 "/>
<polygon class="st5" points="821.5,305.4 768.5,285.6 770.1,303.6 836.2,340.7 "/>
<path class="st11" d="M547.8,401.9c-2.9-12.3-17.6-18.9-24.8-5.1c0.2-0.5,0.3-1,0.5-1.4c3.3-7.8,12-11.9,18.8-5.6
	c-7.1-9.6-21-13.4-28.1-1C527.3,363.4,550.1,387.4,547.8,401.9z"/>
<path class="st11" d="M782.6,452.3c-2.8,10.3-12.3,17.9-23.5,17.9c-4.4,0-8.6-1.2-12.2-3.2c1.6,0.2,3.2,0.3,4.8,0.3
	C764.2,467.2,775.4,461.4,782.6,452.3z"/>
<path class="st7" d="M782.6,452.3c0,0-8.3,7.7-18,11.3c-9.6,3.5-17.7,3.4-17.7,3.4c1.6,0.2,3.2,0.3,4.8,0.3
	C764.2,467.2,775.4,461.4,782.6,452.3z"/>
<g>
	<path class="st12" d="M867.7,421.3c-1.2-8.2-4.5-15.9-9.5-22.4c3.2,5.4,5.4,11.4,6.3,17.6c3.4,23.8-13.2,43.1-37,43.1
		c-15.6,0-30.4-8.3-39.7-20.7c8.9,15,25.4,25.4,42.9,25.4C854.5,464.4,871.1,445.1,867.7,421.3z"/>
	<path class="st12" d="M741,407.2c-4.9,34.9-37.3,63.2-72.2,63.2c-34.9,0-59.2-28.3-54.3-63.2c2.8-19.6,14.2-37.1,29.8-48.7
		c-18.1,12.1-31.5,31.5-34.6,53.5c-5.2,36.7,20.3,66.4,57,66.4c36.7,0,70.6-29.7,75.8-66.4c1.8-12.6-0.1-24.4-4.8-34.5
		C741.2,386.3,742.5,396.4,741,407.2z"/>
</g>
<path class="st13" d="M698.9,607.9c3.1,18.5,6.7,39.6,21.5,53.7c10.6,10.1,23.4,3.9,32-4.8c1.2-1.2,2.3-2.5,3.4-3.8
	c-0.2-0.4-0.4-0.9-0.6-1.3c-2.7-6.5-8.2-27,3.8-29.3c17.1-3.4,7.3,25.6,2.9,31.4c1.7,3.4,4.1,6.5,7.2,8.8c12.1,9,24.1-8.4,28.8-16.2
	c7.9-13,10.9-24.9,12.7-39.3c3.9,16.5-11.1,66.8-37.8,61.9c-3.7-0.7-6.8-2.6-9.4-5c-1.9-1.7-3.5-3.8-4.9-6c-0.7,0.7-1.4,1.5-2.1,2.2
	c-5.3,5.1-12.3,9.9-20.2,10.9c-16.9,2.2-27.3-15.5-31.4-27.7C700.7,631.4,698.1,620.4,698.9,607.9L698.9,607.9z M759.4,647.8
	c2.5-4.2,4.4-9.1,3.7-13.9c-1.1-8.2-5-6.3-5.7,0.4C756.9,638.9,758.1,643.5,759.4,647.8z"/>
<path class="st5" d="M854.6,195c7.9-13.5,11-31.3,7.9-55c-100.1,84.4-292.6-78.5-306.3,144.7l-19.4,21.1l5.5,68.1l60.4-107.4
	c110.6-52,280.3,43.5,331.3-81.8C912,194.8,884.5,196.5,854.6,195z"/>
<path class="st8" d="M679.3,558.8L684,570l-0.7-12c7.1-1.3,14.3-2.3,21.5-3c-18.2-1.6-35.1-5.5-48.6-11.6l2.6-16.9l-7.3,14.7
	C626,527.8,614.7,505.4,633,474c88.3,24.9,169.3,30.4,235.5,2.5c-2.5,26-21.3,45.5-47.5,58.8l-11.1-17.2l5.4,19.9
	c-9.2,4.2-19.2,7.6-29.6,10.4l-3.8-7.9l1,8.7c-10,2.5-20.3,4.3-30.7,5.4c29.3,2.2,55.6,9.5,73,21.9c-63,35.2-159,36.9-211.3,6.3
	C632.3,571.5,655.2,563.5,679.3,558.8z"/>
<path class="st9" d="M627.6,485c1.4-3.5,3.2-7.2,5.4-11c88.3,24.9,169.3,30.4,235.5,2.5C803.3,504,708.3,521.3,627.6,485z"/>
<g>
	<path class="st14" d="M599,463.9c-28.6,42-27.7,74.7-9.8,98c-23.8-24.5-27.8-60.3,4.3-106.8l0-0.2c16.5,8.4,32.5,15.6,48.1,21.6
		c-14-3.8-28.2-8-42.6-12.8L599,463.9z"/>
	<path class="st14" d="M826.1,489.6c21.7-6.6,42.3-16.3,62.1-28.7c6.9,42.8-9.7,75.5-38.5,98.5c25.8-22.1,40.8-52.4,35.9-91
		C867,478.3,847.1,485.2,826.1,489.6z"/>
</g>
<path class="st15" d="M656.2,543.5l2.6-16.9l-7.3,14.7C626,527.8,614.7,505.4,633,474l0,0c-11.2-3.2-22.5-6.6-33.9-10.4l0,0.2
	c-38.5,56.7-23.6,96.4,14.7,118.8c0,0,0,0,0,0c18.6-11.2,41.5-19.1,65.5-23.8L684,570l-0.7-12c7.1-1.3,14.3-2.3,21.5-3
	C686.6,553.5,669.8,549.6,656.2,543.5z M885.6,468.4c-5.6,3-11.3,5.7-17.1,8.1c-2.5,26-21.3,45.5-47.5,58.8l-11.1-17.2l5.4,19.9
	c-9.2,4.2-19.2,7.6-29.6,10.4l-3.8-7.9l1,8.7c-10,2.5-20.3,4.3-30.7,5.4c29.3,2.2,55.6,9.5,73,21.9c0,0,0,0,0,0
	C865.2,554,891.9,518.1,885.6,468.4z"/>
<path class="st16" d="M651.7,418c1.9,0,3.4,1.5,3.4,3.4c0,1.9-1.5,3.4-3.4,3.4c-1.9,0-3.4-1.5-3.4-3.4
	C648.4,419.5,649.9,418,651.7,418L651.7,418z M643.6,427.6c3.2,0,5.8,2.6,5.8,5.8c0,3.2-2.6,5.8-5.8,5.8c-3.2,0-5.8-2.6-5.8-5.8
	C637.8,430.2,640.4,427.6,643.6,427.6z"/>
<path class="st16" d="M797.4,415.9c0.8,0,1.4,0.6,1.4,1.4c0,0.8-0.6,1.4-1.4,1.4c-0.8,0-1.4-0.6-1.4-1.4
	C796,416.5,796.6,415.9,797.4,415.9L797.4,415.9z M793.9,420c1.4,0,2.5,1.1,2.5,2.5c0,1.4-1.1,2.5-2.5,2.5c-1.4,0-2.5-1.1-2.5-2.5
	C791.5,421.1,792.6,420,793.9,420z"/>
<polygon class="st1" points="993.6,786.9 968.8,837.4 992,875.3 1051,781 "/>
<polygon class="st1" points="1051,781 993.6,786.9 968.8,837.4 970.1,839.4 964.5,850.8 970.5,872.8 981.2,857.5 992,875.3 "/>
<g>
	<path class="st17" d="M576.3,663.7l-95.4-38.8l-0.2,0.2l-66.8-77l-0.2,0.1l64.2,84l98.4,34.8v165.3c10.5,2.5,21.1,4.7,31.6,6.7
		l9.1-171.1c-13.5-2.6-27-5.8-40.7-9.5V663.7z"/>
	<path class="st17" d="M924.1,715.8L924.1,715.8l-43.7-34.5v1.2l43.1,36.5c22.2,22.6,45.7,48.6,67.1,73.9l2.9-6l0.1,0
		C971.5,761.9,947.4,739.5,924.1,715.8z"/>
</g>
<polygon class="st7" points="995.3,795.8 976.9,821 993.6,786.9 1051,781 1045,790.7 "/>
<path class="st18" d="M456.8,317.5c-5.2-8-13.1-13.4-22.4-15.4l-217-46.4c-1.9-0.4-3.7-0.6-5.6-0.7c-17.5-0.9-32.9,10.9-36.5,28
	l-71.8,336.2c-4.1,19.1,8.2,38,27.3,42.1l217,46.4c1.8,0.4,3.7,0.6,5.6,0.7c17.5,0.9,32.9-10.9,36.5-28l71.8-336.2
	C463.7,335,461.9,325.5,456.8,317.5z"/>
<path class="st19" d="M374,677.1c-2.2,10.4-12.5,17.1-22.9,14.8l-217-46.4c-10.4-2.2-17.1-12.5-14.8-22.9l71.8-336.2
	c2.2-10.4,12.5-17.1,22.9-14.8L431,318c10.4,2.2,17.1,12.5,14.8,22.9L374,677.1z"/>
<path class="st20" d="M138.6,532.1l272-26.6l11.1-51.9l-276.6,48L138.6,532.1z M157.2,445.4l-8.2,38.2l278.4-56.4l15.9-74.5
	L157.2,445.4z"/>
<polygon class="st1" points="177.9,390.4 167.6,488.5 102.6,495.8 143.4,367.5 "/>
<polygon class="st7" points="146.8,385.3 177.9,390.4 143.4,367.5 102.6,495.8 109.9,495 "/>
<polygon class="st21" points="324.1,35.3 302.8,208.7 354.3,34.2 "/>
<polygon class="st21" points="136.5,97.2 108.7,117.4 171.8,224.3 "/>
<polygon class="st21" points="453.2,263.3 515.4,162.1 498.3,143 "/>
</svg>
