<?xml version="1.0" encoding="utf-8"?>
<!-- Generator: Adobe Illustrator 22.0.0, SVG Export Plug-In . SVG Version: 6.00 Build 0)  -->
<svg version="1.1" id="Ebene_1" xmlns="http://www.w3.org/2000/svg" xmlns:xlink="http://www.w3.org/1999/xlink" x="0px" y="0px"
	 viewBox="0 0 1191 1191" style="enable-background:new 0 0 1191 1191;" xml:space="preserve">
<style type="text/css">
	.st0{fill:#FFFFFF;}
	.st1{fill:url(#SVGID_1_);}
	.st2{fill:#D9DADB;}
	.st3{fill-rule:evenodd;clip-rule:evenodd;fill:#EBF5F2;}
	.st4{fill-rule:evenodd;clip-rule:evenodd;}
	.st5{fill-rule:evenodd;clip-rule:evenodd;fill:#567483;}
	.st6{fill-rule:evenodd;clip-rule:evenodd;fill:#7EB5D0;}
	.st7{fill-rule:evenodd;clip-rule:evenodd;fill:#D7E1DE;}
	.st8{fill-rule:evenodd;clip-rule:evenodd;fill:#FFFFF5;}
	.st9{fill-rule:evenodd;clip-rule:evenodd;fill:#EFCAA6;}
	.st10{fill-rule:evenodd;clip-rule:evenodd;fill:#FFDEBA;}
	.st11{opacity:0.4;fill-rule:evenodd;clip-rule:evenodd;fill:#FFFFFF;}
	.st12{fill-rule:evenodd;clip-rule:evenodd;fill:#F1F5F7;}
	.st13{fill-rule:evenodd;clip-rule:evenodd;fill:#DDE1E3;}
	.st14{fill-rule:evenodd;clip-rule:evenodd;fill:#732706;}
</style>
<rect class="st0" width="1191" height="1191"/>
<radialGradient id="SVGID_1_" cx="596.6393" cy="1136.6689" r="50.0468" gradientTransform="matrix(5.7723 0 0 1 -2849.0505 0)" gradientUnits="userSpaceOnUse">
	<stop  offset="2.358490e-03" style="stop-color:#B3B3B3"/>
	<stop  offset="0.2048" style="stop-color:#CFCFCF"/>
	<stop  offset="0.4363" style="stop-color:#EAEAEA"/>
	<stop  offset="0.6442" style="stop-color:#F9F9F9"/>
	<stop  offset="0.8066" style="stop-color:#FFFFFF"/>
</radialGradient>
<ellipse class="st1" cx="594.9" cy="1136.7" rx="288.9" ry="50"/>
<path class="st2" d="M1131.6,433.7l-60.7-182l5.5-3l-38.7-114.1l-179.4,26.9l39.5,31.2l-38,4.3l42.7,48.6l50.2-9.5l59.8,47.2
	l5.8-3.2c4.9,12.4,8.7,23.7,9.9,31.4c1.7,11.1-2.2,28.9-8.7,48.5c-14.6-26.7-45.5-44.3-80.4-42.4c-22.1,1.2-41.9,10-56.3,23.5
	c-21.2-14-47.6-21.6-75.9-20.1c-38.2,2.1-71.4,20.4-91.7,47.2c6.7-42.9,12.8-90.3,11.4-134c0.5-0.4,0.9-0.7,1.4-1.1
	c7.9-7.1,10.8-20.4,6.6-29.9c-2.5-5.5-6.9-8.4-11.7-8.5c-0.8-4.6-1.6-9-2.6-13.4l0,0l4.1-51.4l-23.9-20.4c20-6.9,36.2-20.2,46.3-45
	c-16.6,7.7-37.3,9-59.9,7.8c5.9-10.2,8.3-23.7,5.9-41.5c-75.6,63.8-221-59.3-231.3,109.3l-14.7,15.9l4.1,51.4l0,0c0,0,0,0,0,0
	c0,0,0,0,0,0c-7.9-7.1-17.7-5.2-21.9,4.2c-4.2,9.4-1.3,22.8,6.6,29.9c4.8,4.3,10.4,5.3,14.9,3.2c1.3,35.9,7,75,14.1,114.6
	c-20.5-21.8-50.3-36.4-84.1-38.2c-28.3-1.5-54.7,6.1-75.9,20.1c-14.4-13.5-34.2-22.3-56.3-23.5c-34.9-1.9-65.8,15.7-80.4,42.4
	c-6.5-19.6-10.5-37.4-8.7-48.5c1.2-7.7,5-19,9.9-31.4l5.8,3.2l59.8-47.2l50.2,9.5l42.7-48.6l-38-4.3l39.5-31.2l-179.4-26.9
	l-38.7,114.1l5.5,3l-60.7,182c0,0,166,151,282.6,131.2c49.4,82.5,91.9,167,127.3,253c84.7-13.2,170.9-13.2,255.6,0
	c35.4-86,77.9-170.5,127.3-253C965.6,584.7,1131.6,433.7,1131.6,433.7z"/>
<g>
	<polygon class="st3" points="378.7,802.8 416.2,753.5 393.6,751.5 360.4,808.1 476.8,846 471,813.6 	"/>
	<g>
		<path class="st4" d="M712,1127.8c-8.3-2.7-16.5-5.5-24.8-8.2c-4.3,7.8-8.4,17.3-12.7,25.1c21.4,12.6,48.6,22.8,72,25.1
			C747.1,1152.2,738.7,1140.6,712,1127.8z"/>
		<path class="st4" d="M469.4,1127.8c-26.7,12.8-35.1,24.3-34.5,42c23.3-2.3,50.5-12.5,72-25.1c-4.3-7.8-8.4-17.3-12.7-25.1
			C486,1122.4,477.7,1125.1,469.4,1127.8z"/>
	</g>
	<path class="st5" d="M471,952.5v172.3c0,0,6.6,5.6,14.5,5.6c8.4,0,13.5-5.6,13.5-5.6V988.1c69.4,29.1,121.8,29.1,183.6,0.7v135.9
		c0,0,6.2,4.5,16.8,4.5c9.4,0,13.4-4.5,13.4-4.5s0-121.8,0-172.3C712.7,951.3,471,952.5,471,952.5z"/>
	<path class="st3" d="M471,718.5v110.7v123.3c80.6,19,161.2,20.2,241.8,0c0-30.3,0-124.8,0-124.8c0-36.4,0-72.8,0-109.3H471z"/>
	<polygon class="st6" points="600.3,849.6 614.2,825.6 577.7,825.6 594.8,855.3 588.9,935.1 617.4,959.7 635.7,935.1 	"/>
	<polygon class="st3" points="805,802.8 767.4,753.5 790.1,751.5 823.3,808.1 706.9,846 712.7,813.6 	"/>
	<path class="st7" d="M823.3,808.1l-16.1-27.4l11.9,26.2l-46,17.6L823.3,808.1z"/>
	<path class="st8" d="M810.5,804.4l-24.6-26.7l19.1,25.1l-34.9,4.1L810.5,804.4z"/>
	<path class="st8" d="M471,814.2v138.3c7.6,1.8,15.1,3.4,22.7,4.9l15.2-134.6C496.3,820.6,483.7,817.7,471,814.2z"/>
	<polygon class="st9" points="777.8,772.7 802.7,768.7 794.1,720.4 740.9,715.2 	"/>
	<polygon class="st9" points="781.2,736.8 737.4,727 745.9,747.8 772.5,751.7 	"/>
	<polygon class="st10" points="794.1,720.4 740.9,715.2 777.8,772.7 753,724.1 	"/>
	<polygon class="st8" points="398.4,776.9 374,805.3 471.6,817.4 471,813.6 378.7,802.8 	"/>
	<path class="st7" d="M410.6,824.5l-46-17.6l11.9-26.2l-16.1,27.4L410.6,824.5z"/>
	<polygon class="st9" points="405.9,772.7 381,768.7 389.5,720.4 442.7,715.2 	"/>
	<polygon class="st9" points="402.5,736.8 446.3,727 437.8,747.8 411.1,751.7 	"/>
	<polygon class="st10" points="389.5,720.4 442.7,715.2 405.9,772.7 430.7,724.1 	"/>
</g>
<g>
	<polygon class="st4" points="676.7,476.9 697.7,476.9 731.6,505.9 727.2,560.1 	"/>
	<path class="st9" d="M742.3,583.1c-2.6-5.8-7.2-8.9-12.3-8.9c-11.5-69.6-49.7-122.4-145.7-122.4c-100.5,0-135.2,56.4-140.5,135.6
		c0,0,0,0,0,0c-8.3-7.4-18.6-5.5-23.1,4.5c-4.5,9.9-1.4,24,6.9,31.4c5.1,4.6,10.9,5.6,15.7,3.4c2.1,57.8,15,123.5,27.6,186.8
		c83.4,22.8,163.5,18.9,241.8,0c8.9-56.9,23.3-131.3,21.2-197.8c0.5-0.4,1-0.8,1.5-1.2C743.6,607.1,746.7,593.1,742.3,583.1z"/>
	<path class="st10" d="M545.9,489.2c-19.1,1.4-37.4,5-54.1,12.9l-48,85.4c0,0,0,0,0,0c0,0,0,0,0,0c-8.3-7.4-18.6-5.5-23.1,4.5
		c-4.5,9.9-1.4,24,6.9,31.4c5.1,4.6,10.9,5.6,15.7,3.4c2.1,57.8,15,123.5,27.6,186.8c12.7,3.5,25.3,6.3,37.9,8.6
		C484.3,684.5,473.1,551.8,545.9,489.2z"/>
	<path class="st4" d="M448.2,609.7c-2.3-9.8-14-15-19.7-4.1c0.1-0.4,0.3-0.8,0.4-1.2c2.6-6.2,9.5-9.4,15-4.4
		c-5.6-7.6-16.7-10.6-22.4-0.8C432,579.2,450.1,598.3,448.2,609.7z"/>
	<path class="st4" d="M692.1,445.3c6.2-10.7,8.8-24.9,6.3-43.7c-79.5,67.1-232.6-62.4-243.5,115l-15.5,16.7l4.4,54.2l48-85.4
		c87.9-41.4,222.8,34.6,263.4-65C737.8,445.2,715.9,446.5,692.1,445.3z"/>
	<path class="st11" d="M454.9,516.6l-15.5,16.7l4.4,54.2l1.9-51.5l19-15.3c5.5-90.1,46.5-102.9,95.9-102.4
		C506.8,414.7,460.7,422.1,454.9,516.6z"/>
	<path class="st12" d="M552.8,734.5l3.8,8.9l-0.5-9.5c5.6-1,11.4-1.8,17.1-2.4c-14.5-1.3-27.9-4.4-38.7-9.2l2.1-13.5l-5.8,11.7
		c-20.3-10.6-29.3-28.4-14.7-53.4c70.2,19.8,134.6,24.2,187.2,2c-2,20.6-17,36.2-37.8,46.7l-8.8-13.7l4.3,15.8
		c-7.3,3.3-15.3,6.1-23.6,8.2l-3-6.3l0.8,6.9c-7.9,2-16.2,3.4-24.4,4.3c23.3,1.8,44.2,7.6,58,17.4c-50.1,28-126.4,29.4-168,5
		C515.5,744.5,533.7,738.2,552.8,734.5z"/>
	<path class="st13" d="M511.7,675.9c1.1-2.8,2.5-5.7,4.3-8.8c70.2,19.8,134.6,24.2,187.2,2C651.4,690.9,575.9,704.7,511.7,675.9z"/>
	<g>
		<path d="M489,659c-22.7,33.4-22,59.4-7.8,77.9c-18.9-19.5-22.1-47.9,3.4-84.9l0-0.2c13.1,6.7,25.9,12.4,38.2,17.2
			c-11.1-3-22.4-6.4-33.9-10.1L489,659z"/>
		<path d="M669.5,679.5c17.2-5.2,33.6-12.9,49.4-22.8c5.5,34-7.8,60-30.6,78.3c20.5-17.6,32.5-41.6,28.6-72.3
			C702.1,670.5,686.2,676,669.5,679.5z"/>
	</g>
	<path class="st14" d="M534.5,722.3l2.1-13.5l-5.8,11.7c-20.3-10.6-29.3-28.4-14.7-53.4l0,0c-8.9-2.5-17.9-5.3-27-8.3l0,0.2
		c-30.6,45-18.8,76.6,11.7,94.5c0,0,0,0,0,0c14.8-8.9,33-15.2,52.1-18.9l3.8,8.9l-0.5-9.5c5.6-1,11.4-1.8,17.1-2.4
		C558.6,730.3,545.2,727.2,534.5,722.3z M716.8,662.6c-4.4,2.4-9,4.5-13.6,6.5c-2,20.6-17,36.2-37.8,46.7l-8.8-13.7l4.3,15.8
		c-7.3,3.3-15.3,6.1-23.6,8.2l-3-6.3l0.8,6.9c-7.9,2-16.2,3.4-24.4,4.3c23.3,1.8,44.2,7.6,58,17.4c0,0,0,0,0,0
		C700.6,730.7,721.8,702.1,716.8,662.6z"/>
	<path class="st4" d="M595.2,790.9c-18.4,0-35.4-3.9-49.4-10.5c12.6,10.9,32.2,17.9,54.3,17.9c30.4,0,56.2-13.3,65.3-31.8
		C649.7,781.3,624.1,790.9,595.2,790.9z"/>
	<path class="st4" d="M679.1,593.2c-23-5.9-44.8,5.4-54.9,26.2c14.4-15,35.4-21.8,57.3-16.2c13.9,3.6,26.1,11.6,35.5,22.4
		C709.4,609.8,695.8,597.4,679.1,593.2z"/>
	<path class="st4" d="M525.9,596.9c-16.6,3.2-31.8,11.1-44.2,22c10.9-16,28.4-28.4,48.3-32.2c27.5-5.3,51.3,7.1,60.2,29
		C575.5,599.6,552,591.8,525.9,596.9z"/>
	<path class="st4" d="M635.4,649.8c-2.3,8.2-9.8,14.3-18.7,14.3c-3.5,0-6.8-0.9-9.7-2.6c1.2,0.1,2.5,0.2,3.8,0.2
		C620.8,661.7,629.7,657,635.4,649.8z"/>
	<path class="st10" d="M635.4,649.8c0,0-6.6,6.2-14.3,8.9c-7.7,2.8-14.1,2.7-14.1,2.7c1.2,0.1,2.5,0.2,3.8,0.2
		C620.8,661.7,629.7,657,635.4,649.8z"/>
	<path class="st4" d="M685,541.3c9.7,7.1,16.4,16.9,19.8,27.6c-0.2-13.7-6.4-27-18-35.5c-16-11.8-37.6-11.1-53.3,0.3
		C650.5,527.9,669.8,530.1,685,541.3z"/>
	<path class="st4" d="M518.8,539.3c-12.2,6.7-21.6,16.3-27.7,27.2c3.1-14.1,12.7-27.4,27.3-35.5c20.1-11.1,43.6-8.7,58.6,4.2
		C559.5,527.9,538,528.8,518.8,539.3z"/>
	<path class="st10" d="M665.3,766.5c-15.6,14.8-50.2,19.3-68.1,20.4c-12.6,0.8-37.4,0.1-51.4-6.5c14,6.6,31,10.5,49.4,10.5
		C624.1,790.9,649.7,781.3,665.3,766.5z"/>
</g>
</svg>
