<?xml version="1.0" encoding="utf-8"?>
<!-- Generator: Adobe Illustrator 22.0.0, SVG Export Plug-In . SVG Version: 6.00 Build 0)  -->
<svg version="1.1" id="Ebene_1" xmlns="http://www.w3.org/2000/svg" xmlns:xlink="http://www.w3.org/1999/xlink" x="0px" y="0px"
	 viewBox="0 0 1191 1191" style="enable-background:new 0 0 1191 1191;" xml:space="preserve">
<style type="text/css">
	.st0{fill:url(#SVGID_1_);}
	.st1{fill-rule:evenodd;clip-rule:evenodd;fill:#EFCAA6;}
	.st2{fill-rule:evenodd;clip-rule:evenodd;fill:#EBF5F2;}
	.st3{fill-rule:evenodd;clip-rule:evenodd;fill:#FFFFF5;}
	.st4{fill-rule:evenodd;clip-rule:evenodd;}
	.st5{fill-rule:evenodd;clip-rule:evenodd;fill:#634E42;}
	.st6{fill-rule:evenodd;clip-rule:evenodd;fill:#73C7D2;}
	.st7{fill-rule:evenodd;clip-rule:evenodd;fill:#D7E1DE;}
	.st8{fill-rule:evenodd;clip-rule:evenodd;fill:#F6F6F6;}
	.st9{fill-rule:evenodd;clip-rule:evenodd;fill:#FFDEBA;}
	.st10{fill:#7891B6;}
	.st11{fill-rule:evenodd;clip-rule:evenodd;fill:#EDEDED;}
	.st12{fill-rule:evenodd;clip-rule:evenodd;fill:#7891B6;}
	.st13{fill-rule:evenodd;clip-rule:evenodd;fill:url(#SVGID_2_);}
	.st14{opacity:0.1;fill-rule:evenodd;clip-rule:evenodd;}
	.st15{fill-rule:evenodd;clip-rule:evenodd;fill:url(#SVGID_3_);}
	.st16{fill-rule:evenodd;clip-rule:evenodd;fill:#E9845A;}
	.st17{fill-rule:evenodd;clip-rule:evenodd;fill:#C5997C;}
	.st18{opacity:0.3;fill-rule:evenodd;clip-rule:evenodd;fill:#FFFFFF;}
	.st19{fill-rule:evenodd;clip-rule:evenodd;fill:url(#SVGID_4_);}
	.st20{opacity:0.4;fill-rule:evenodd;clip-rule:evenodd;fill:#FFFFFF;}
	.st21{fill-rule:evenodd;clip-rule:evenodd;fill:#D0A486;}
	.st22{fill:#D0A486;}
	.st23{fill:#732706;}
	.st24{fill:#550900;}
	.st25{fill:#BE8077;}
	.st26{fill:#F1F5F7;}
	.st27{fill-rule:evenodd;clip-rule:evenodd;fill:#FFFFFF;}
</style>
<linearGradient id="SVGID_1_" gradientUnits="userSpaceOnUse" x1="474.1875" y1="329.4703" x2="893.8821" y2="866.6548">
	<stop  offset="0" style="stop-color:#A1D1DC"/>
	<stop  offset="0.5" style="stop-color:#6CBBCB"/>
	<stop  offset="1" style="stop-color:#00A6BB"/>
</linearGradient>
<path class="st0" d="M158.2,679.2c76.1,198.6,394.3,361.9,592.9,285.8c198.6-76.1,358.9-493,282.8-691.7
	C957.8,74.7,82.1,480.6,158.2,679.2z"/>
<polygon class="st1" points="991.2,517.1 997.6,549.9 984.5,559.3 967.1,509.8 "/>
<polygon class="st1" points="334.3,566.6 355,566.5 372,581.3 342.2,586.1 "/>
<polygon class="st2" points="907.1,664.1 996.1,566.1 1027.7,593.5 921.1,684.4 796.1,667 807.6,629.6 "/>
<polygon class="st3" points="911.9,672.5 996.1,566.1 907.1,664.1 807.6,629.6 805.1,637.8 "/>
<g>
	<path class="st4" d="M806.7,1008.4c-10-3.3-20-6.6-30-9.9c-5.2,9.4-10.1,20.9-15.3,30.3c25.9,15.2,58.8,27.6,86.9,30.3
		C849.1,1037.8,839,1023.9,806.7,1008.4z"/>
	<path class="st4" d="M513.7,1008.4c-32.3,15.4-42.4,29.4-41.6,50.7c28.2-2.8,61-15.1,86.9-30.3c-5.2-9.4-10.1-20.9-15.3-30.3
		C533.7,1001.8,523.7,1005.1,513.7,1008.4z"/>
</g>
<path class="st5" d="M515.5,796.6v208.1c0,0,8,6.8,17.5,6.8c10.2,0,16.3-6.8,16.3-6.8V839.7c83.8,35.2,147.2,35.2,221.8,0.9v164.2
	c0,0,7.4,5.4,20.3,5.4c11.3,0,16.2-5.4,16.2-5.4s0-147.2,0-208.1C807.6,795.2,515.5,796.6,515.5,796.6z"/>
<path class="st2" d="M515.5,513.9v133.8v149c97.4,22.9,194.7,24.4,292.1,0c0-36.6,0-150.7,0-150.7c0-44,0-88,0-132H515.5z"/>
<polygon class="st6" points="671.8,672.3 688.6,643.3 644.4,643.3 665.2,679.3 658.1,775.6 692.4,805.3 714.5,775.6 "/>
<polygon class="st2" points="416,664.1 327,566.1 295.5,593.5 402,684.4 527,667 515.5,629.6 "/>
<path class="st7" d="M917.4,679.2l-55.9-3.1l59.6,8.3l106.6-90.9L917.4,679.2z"/>
<polygon class="st7" points="403.4,679.8 295.5,593.5 402,684.4 480.1,673.5 "/>
<path class="st3" d="M515.5,629.6L416,664.1l-89.1-98l88,106.4l100.5-33.7v157.8c9.1,2.2,18.3,4.1,27.4,5.9L561.3,640
	C546.1,637.2,530.9,633.8,515.5,629.6z"/>
<polygon class="st8" points="136.2,599.4 170.4,963.8 500.2,931.9 466.1,567.4 "/>
<polygon class="st1" points="986.6,612.8 976.2,558.1 1008.3,528.1 1039.8,633.5 "/>
<polygon class="st9" points="986.6,612.8 976.2,558.1 1008.3,528.1 983.2,563.5 "/>
<polygon class="st1" points="285.2,561.2 340.8,560.7 364.6,597.6 255.3,609.8 "/>
<polygon class="st9" points="292.4,566.5 322.8,560.9 285.2,561.2 255.3,609.8 266.6,608.5 "/>
<g>
	<path class="st10" d="M321.5,727.7c-9.3-17.3-15.3-36-18-55.5c-1.7-11.9-13-20.2-25.7-18.9c-6.6,0.6-12.7,4.1-16.8,9.5
		c-3.9,5.1-5.6,11.4-4.7,17.6c2.3,16.7,6.6,33,12.9,48.6l-66.3,8.7c-13.1,1.7-22.4,13.8-20.7,26.9c0.9,7.1,5.1,13.4,11.1,17.2
		c-2.9,4.7-4.1,10.2-3.4,15.7c1,7.7,5.8,14.6,12.7,18.2c-1.6,3.8-2.1,8-1.6,12.2c1.1,8.6,6.9,16,14.9,19.2
		c-1.3,3.6-1.8,7.5-1.3,11.4c1.7,13.1,13.8,22.4,26.9,20.7l80-10.5c10.4-1.4,34.7-13,32.8-28.4l52.1-6.9L321.5,727.7z"/>
	<path class="st11" d="M395.7,829l-79.1-98.1c-9.7-18.1-16.1-37.6-18.9-57.9c-1.2-8.6-9.5-15-19.4-14c-9.9,1-17.7,10.3-16.3,20.5
		c2.6,18.7,7.8,36.9,15.5,54.1l-73.8,9.7c-10,1.3-17,10.5-15.7,20.5c1.1,8.3,7.5,14.5,15.4,15.6c-5.4,3.8-8.5,10.3-7.6,17.3
		c1.1,8.4,7.7,14.7,15.7,15.7c-3.5,3.8-5.3,9.1-4.6,14.6c1.2,9.3,9.2,16,18.3,15.8c-3.5,3.8-5.4,9.2-4.7,14.7
		c1.3,10,10.5,17,20.5,15.7l80-10.5c10-1.3,29.2-12.1,27.9-22.1c-0.3-1.9-0.8-3.8-1.6-5.4L395.7,829z"/>
	<path class="st12" d="M430.3,716.1l-80.2,10.5c-13,1.7-22.1,13.6-20.4,26.6l12.7,96.9c1.7,13,13.6,22.1,26.6,20.4l63.6-8.4
		c13-1.7,22.1-13.6,20.4-26.6l3.8-99C455.1,723.5,443.2,714.4,430.3,716.1z"/>
	<path class="st11" d="M389.6,829.3c-3.5,0.5-6,3.7-5.5,7.2c0.5,3.5,3.7,6,7.2,5.5c3.5-0.5,6-3.7,5.5-7.2
		C396.3,831.3,393.1,828.9,389.6,829.3z"/>
</g>
<g>
	<linearGradient id="SVGID_2_" gradientUnits="userSpaceOnUse" x1="764.0488" y1="273.1045" x2="830.4004" y2="273.1045">
		<stop  offset="0" style="stop-color:#FA9271"/>
		<stop  offset="0.5056" style="stop-color:#ED7C54"/>
		<stop  offset="1" style="stop-color:#B5593B"/>
	</linearGradient>
	<polygon class="st13" points="764,222.9 789.4,222.9 830.4,257.9 825.1,323.4 	"/>
	<polygon class="st14" points="804,235.3 819.7,261.1 825.1,323.4 830.4,257.9 	"/>
	<radialGradient id="SVGID_3_" cx="649.0585" cy="420.5554" r="212.9033" gradientUnits="userSpaceOnUse">
		<stop  offset="0" style="stop-color:#F9E8D8"/>
		<stop  offset="1" style="stop-color:#E5C3A0"/>
	</radialGradient>
	<path class="st15" d="M843.3,351.2c-3.2-7-8.7-10.7-14.8-10.8c-13.9-84.1-60-147.8-176-147.8c-121.4,0-163.3,68.1-169.7,163.8
		c0,0,0,0,0,0c-10-9-22.5-6.6-27.9,5.4c-5.4,12-1.6,29,8.4,38c6.1,5.5,13.2,6.7,19,4.1c2.6,69.8,18.2,149.2,33.3,225.7
		c100.7,27.6,197.5,22.8,292.1,0c10.8-68.7,28.1-158.6,25.6-239c0.6-0.5,1.2-0.9,1.8-1.5C844.9,380.2,848.7,363.2,843.3,351.2z"/>
	<polygon class="st16" points="585.2,289.6 637.2,274 634.5,291.1 568.9,322.5 	"/>
	<polygon class="st16" points="751,290.7 700.1,271.7 701.6,288.9 765,324.6 	"/>
	<path class="st17" d="M713.6,431.7c-2.7,9.9-11.8,17.2-22.6,17.2c-4.2,0-8.2-1.1-11.7-3.1c1.5,0.2,3,0.3,4.6,0.3
		C696,446.1,706.7,440.5,713.6,431.7z"/>
	<path class="st18" d="M713.6,431.7c0,0-8,7.4-17.3,10.8c-9.3,3.4-17,3.3-17,3.3c1.5,0.2,3,0.3,4.6,0.3
		C696,446.1,706.7,440.5,713.6,431.7z"/>
	<path class="st17" d="M633.2,581.2c3,17.8,6.4,38,20.6,51.6c10.2,9.7,22.4,3.7,30.8-4.6c1.2-1.2,2.2-2.4,3.3-3.6
		c-0.2-0.4-0.4-0.8-0.5-1.2c-2.6-6.3-7.8-25.9,3.6-28.2c16.4-3.2,7.1,24.5,2.8,30.2c1.7,3.3,3.9,6.2,6.9,8.5
		c11.6,8.6,23.1-8.1,27.7-15.6c7.6-12.5,10.5-23.9,12.2-37.8c3.7,15.8-10.6,64.1-36.3,59.4c-3.5-0.6-6.6-2.5-9.1-4.8
		c-1.8-1.7-3.4-3.7-4.7-5.8c-0.7,0.7-1.4,1.4-2.1,2.1c-5.1,4.9-11.9,9.5-19.4,10.5c-16.2,2.1-26.2-14.9-30.2-26.6
		C634.9,603.7,632.5,593.2,633.2,581.2L633.2,581.2z M691.4,619.5c2.4-4.1,4.2-8.7,3.6-13.4c-1-7.9-4.8-6-5.5,0.4
		C689,610.9,690,615.4,691.4,619.5z"/>
	<linearGradient id="SVGID_4_" gradientUnits="userSpaceOnUse" x1="477.4414" y1="244.147" x2="858.9131" y2="244.147">
		<stop  offset="0" style="stop-color:#FA9271"/>
		<stop  offset="0.5056" style="stop-color:#ED7C54"/>
		<stop  offset="1" style="stop-color:#B5593B"/>
	</linearGradient>
	<path class="st19" d="M782.7,184.6c7.5-13,10.6-30.1,7.6-52.8c-96.1,81.1-281-75.4-294.2,138.9L477.4,291l5.3,65.4l58-103.2
		c106.2-50,269.2,41.8,318.2-78.5C837.9,184.5,811.4,186.1,782.7,184.6z"/>
	<path class="st20" d="M508.2,273.1c5.1-82.6,35.2-112.1,75.3-121.1c-46.4,4.5-81.9,29.3-87.4,118.8L477.4,291l5.3,65.4l1.5-61.8
		L508.2,273.1z"/>
	<path class="st18" d="M606,237.7c-23,1.7-45.2,6.1-65.3,15.5l-58,103.2c0,0,0,0,0,0l0,0c-10-9-22.5-6.6-27.9,5.4
		c-5.4,12-1.6,29,8.4,38c6.1,5.5,13.2,6.7,19,4.1c2.6,69.8,18.2,149.2,33.3,225.7c15.3,4.2,30.6,7.6,45.8,10.4
		C531.6,473.7,518.1,313.3,606,237.7z"/>
	<path class="st21" d="M488.1,383.3c-2.8-11.8-16.9-18.1-23.8-4.9c0.2-0.5,0.3-0.9,0.5-1.4c3.1-7.5,11.5-11.4,18.1-5.3
		c-6.8-9.2-20.2-12.8-27-1C468.5,346.4,490.3,369.5,488.1,383.3z"/>
	<g>
		<g>
			<path class="st22" d="M537.7,441.8c-24,43.8-20.2,75.7-0.4,96.8c-25.5-21.8-32.8-56.4-5.8-104.9l0-0.2
				c16.9,6.7,33.3,12.3,49.1,16.7c-14.1-2.4-28.4-5.2-42.9-8.5L537.7,441.8z"/>
			<path class="st22" d="M762.2,445.8c20.6-8.5,39.9-19.9,58.1-33.9c10.7,41.2-2.5,74.8-28.5,100c23.1-24,35.1-55,26.7-92.4
				C801.3,431,782.4,439.6,762.2,445.8z"/>
		</g>
		<path class="st23" d="M818.5,419.6c-5.2,3.4-10.5,6.6-16,9.5c-9.6,5.2-19.7,9.6-30.1,13.3c0,0,0,0,0,0c-9,6.6-19,12.4-29.5,17.2
			l-5.4-7.6c-0.3,0.1-0.5,0.1-0.8,0.1l3.5,8.7c-32.6,14.4-70.2,20.4-103.4,17.2l-1.1-8.6l-0.9,8.4c-16.7-1.8-32.1-6-45.2-12.6
			l4.3-10.9l-6.7,9.6c-8.2-4.5-15.3-9.9-21.1-16.5c-9.4-1.8-18.9-3.8-28.5-5.9l0,0.2c-26.2,47.7-19.3,81.4,5.3,102.2c0,0,0,0,0,0
			c8.7-3.8,17.6-6.9,26.7-9.5l7.2,11.4l-4.2-12.2c56.5-14.9,116.8-6.2,153.6,19.4c15.5-5.9,30.1-13.4,43-22.3c0,0,0,0,0,0
			C806.5,505.2,829.3,467.6,818.5,419.6z"/>
		<path class="st24" d="M698.9,474.2c-20.9,4.5-42.3,5.8-62,3.9l-1.1-8.6l-0.9,8.4c-15.1-1.7-29.3-5.3-41.5-10.9
			c-12.9,13.8-22.4,31.9-25.5,51.8c-0.9,5.7-1.3,11.3-1.1,16.6c1-0.3,2-0.6,3-0.9l7.2,11.4l-4.2-12.2c44-11.6,90.2-8.9,125.9,4.9
			c2.5-6.3,4.3-12.9,5.4-19.8C706.7,502.2,704.6,486.8,698.9,474.2z"/>
		<path class="st25" d="M701.6,489.8c-7.1-1.5-14.7-2.4-22.3-2.8c12.5,5.1,23.2,11.6,30.4,19.1c-15.1-9.2-35.3-17.6-55-18.9
			c-26.6-1.7-59.5,32.3-62.4,42c-4.7,15.7,39.2,8.7,78,16.7c38.8,8.1,68.4-1.2,73.2-16.9C748.2,513.3,740.5,497.9,701.6,489.8z"/>
		<g>
			<path class="st26" d="M572.7,533.8l4.2,12.2l-7.2-11.4c-9.1,2.5-18,5.7-26.7,9.5c5.8,4.9,12.6,9.1,20.2,12.7c0,0,0,0,0,0
				c42.1,19.6,108.4,17.4,163.2-3.6C689.5,527.5,629.2,518.9,572.7,533.8z"/>
			<path class="st26" d="M571.9,448.6c-1.9-0.3-3.8-0.7-5.7-1.1c5.8,6.5,12.9,12,21.1,16.5l6.7-9.6l-4.3,10.9
				c13,6.6,28.5,10.8,45.2,12.6l0.9-8.4l1.1,8.6c33.2,3.2,70.9-2.8,103.4-17.2l-3.5-8.7C687.7,462,631.8,459.5,571.9,448.6z"/>
			<path class="st26" d="M737.5,452.1l5.4,7.6c10.5-4.9,20.4-10.6,29.5-17.2C761.2,446.4,749.6,449.6,737.5,452.1z"/>
		</g>
	</g>
	<circle class="st4" cx="618.9" cy="382.4" r="34.2"/>
	<path class="st18" d="M623,408.3c-16.5,0-29.9-13.4-29.9-29.9c0-9.9,4.8-18.7,12.3-24.2c-10.6,5-17.8,15.8-17.8,28.3
		c0,17.3,14,31.4,31.4,31.4c12.5,0,23.3-7.3,28.3-17.8C641.7,403.4,632.9,408.3,623,408.3z"/>
	<path class="st27" d="M631,387.1c-1.6-0.3-3.1,0.7-3.5,2.3c-0.3,1.6,0.7,3.1,2.3,3.5c1.6,0.3,3.1-0.7,3.5-2.3
		C633.6,388.9,632.6,387.4,631,387.1z"/>
	<path class="st27" d="M622.3,392.5c-2.6-0.5-5.2,1.2-5.7,3.8c-0.5,2.6,1.2,5.2,3.8,5.7c2.6,0.5,5.2-1.2,5.7-3.8
		C626.6,395.5,624.9,393,622.3,392.5z"/>
	<path class="st4" d="M735.2,348.3c-18.9,0-34.2,15.3-34.2,34.2s15.3,34.2,34.2,34.2s34.2-15.3,34.2-34.2S754,348.3,735.2,348.3z"/>
	<path class="st27" d="M746.8,387.1c-1.6-0.3-3.1,0.7-3.5,2.3c-0.3,1.6,0.7,3.1,2.3,3.5c1.6,0.3,3.1-0.7,3.5-2.3
		C749.4,388.9,748.4,387.4,746.8,387.1z"/>
	<path class="st27" d="M738.1,392.5c-2.6-0.5-5.2,1.2-5.7,3.8c-0.5,2.6,1.2,5.2,3.8,5.7c2.6,0.5,5.2-1.2,5.7-3.8
		C742.4,395.5,740.7,393,738.1,392.5z"/>
	<path class="st18" d="M738.8,408.3c-16.5,0-29.9-13.4-29.9-29.9c0-9.9,4.8-18.7,12.3-24.2c-10.6,5-17.8,15.8-17.8,28.3
		c0,17.3,14,31.4,31.4,31.4c12.5,0,23.3-7.3,28.3-17.8C757.5,403.4,748.7,408.3,738.8,408.3z"/>
	<path class="st17" d="M618.9,424.5c-9.7,0-18.9-2.5-26.8-7c6.3,7.9,15.9,13,26.8,13s20.6-5.1,26.8-13
		C637.8,421.9,628.6,424.5,618.9,424.5z"/>
	<path class="st17" d="M735.2,424.5c-9.7,0-18.9-2.5-26.8-7c6.3,7.9,15.9,13,26.8,13c10.9,0,20.6-5.1,26.8-13
		C754.1,421.9,744.9,424.5,735.2,424.5z"/>
	<path class="st17" d="M735.2,338.8c9.7,0,18.9,2.5,26.8,7c-6.3-7.9-15.9-13-26.8-13c-10.9,0-20.6,5.1-26.8,13
		C716.3,341.3,725.4,338.8,735.2,338.8z"/>
	<path class="st17" d="M618.9,338.8c9.7,0,18.9,2.5,26.8,7c-6.3-7.9-15.9-13-26.8-13s-20.6,5.1-26.8,13
		C600,341.3,609.2,338.8,618.9,338.8z"/>
</g>
</svg>
