<?xml version="1.0" encoding="utf-8"?>
<!-- Generator: Adobe Illustrator 22.0.0, SVG Export Plug-In . SVG Version: 6.00 Build 0)  -->
<svg version="1.1" id="Ebene_1" xmlns="http://www.w3.org/2000/svg" xmlns:xlink="http://www.w3.org/1999/xlink" x="0px" y="0px"
	 viewBox="0 0 1191 1588" style="enable-background:new 0 0 1191 1588;" xml:space="preserve">
<style type="text/css">
	.st0{fill:url(#SVGID_1_);}
	.st1{fill-rule:evenodd;clip-rule:evenodd;fill:#EBF5F2;}
	.st2{fill-rule:evenodd;clip-rule:evenodd;fill:#193540;}
	.st3{fill-rule:evenodd;clip-rule:evenodd;fill:#754D33;}
	.st4{fill-rule:evenodd;clip-rule:evenodd;fill:#A0220A;}
	.st5{fill-rule:evenodd;clip-rule:evenodd;fill:#EFCAA6;}
	.st6{fill-rule:evenodd;clip-rule:evenodd;fill:#F1F5F7;}
	.st7{fill-rule:evenodd;clip-rule:evenodd;fill:#DDE1E3;}
	.st8{fill-rule:evenodd;clip-rule:evenodd;fill:#95A6B1;}
	.st9{fill-rule:evenodd;clip-rule:evenodd;fill:#D0A486;}
	.st10{fill-rule:evenodd;clip-rule:evenodd;fill:#FFDEBA;}
	.st11{fill-rule:evenodd;clip-rule:evenodd;fill:#DBB692;}
	.st12{fill-rule:evenodd;clip-rule:evenodd;fill:#C5997C;}
	.st13{opacity:0.4;fill-rule:evenodd;clip-rule:evenodd;fill:#FFFFFF;}
	.st14{fill-rule:evenodd;clip-rule:evenodd;fill:#FFFFFF;}
	.st15{fill-rule:evenodd;clip-rule:evenodd;fill:#FFFFF5;}
	.st16{fill:#FFFFFF;}
</style>
<radialGradient id="SVGID_1_" cx="543.2249" cy="794.3303" r="595.5074" gradientTransform="matrix(1 0 0 1.3333 52.2751 -265.0806)" gradientUnits="userSpaceOnUse">
	<stop  offset="0" style="stop-color:#D7ECF1"/>
	<stop  offset="1" style="stop-color:#B5DAE2"/>
</radialGradient>
<rect class="st0" width="1191" height="1588"/>
<polygon class="st1" points="178.6,1588 149.3,1501.8 203.3,1445.8 181.6,1398.4 119,1503 136.7,1588 "/>
<path class="st2" d="M559.9,1588c-3.3-20.1-6.4-38.4-8.7-52.7c-0.2-1.4-245.3,40.3-317.6,52.7H559.9z"/>
<path class="st1" d="M213.1,1588h143.2c66.5-8,131.5-25.2,194.8-52.7c-7-42.3-28.9-174.2-28.9-174.2
	c-8.4-50.8-16.9-101.7-25.3-152.5l-337.4,56.1l25.7,154.6L213.1,1588z"/>
<polygon class="st3" points="390.7,880.8 420,875.9 474.1,908.5 480.6,985.1 "/>
<polygon class="st4" points="370.4,1417.8 384.2,1381.1 333.2,1389.5 364.1,1427 374.3,1539.7 419.7,1567.5 439.6,1528.9 "/>
<path class="st5" d="M506.9,1013.8c-5-7.5-12.2-10.7-19.2-9.6c-32.2-94.5-97.7-159.2-231.7-137C115.7,890.5,80.3,977.3,91.3,1089.1
	c0,0,0,0,0,0c-13.3-8.5-27.3-3.3-31.2,11.6c-3.9,14.9,3.7,33.8,17,42.3c8.2,5.2,16.5,5.2,22.7,1.1c16.4,80.1,49.6,168.9,81.8,254.4
	c121.6,12.5,232.5-11.5,337.4-56.1c-0.7-81.5,2-188.6-16.3-281c0.6-0.6,1.2-1.3,1.8-2C514.4,1047,515.4,1026.6,506.9,1013.8z"/>
<path class="st6" d="M246.1,1029.3c38.7-6.4,70.9,20.5,71.9,60.1c1,39.6-29.7,77-68.4,83.4c-38.7,6.4-70.9-20.5-71.9-60.1
	C176.8,1073.1,207.4,1035.7,246.1,1029.3z"/>
<path class="st7" d="M260.5,1158.8c-38.7,6.4-70.9-20.5-71.9-60.1c-0.4-16,4.4-31.7,12.8-45.1c-15,15.7-24.3,37.1-23.8,59.2
	c1,39.6,33.1,66.6,71.9,60.1c23.1-3.8,43.2-18.6,55.6-38.3C293.2,1147,277.7,1155.9,260.5,1158.8z"/>
<path class="st8" d="M277.5,1105.8c-11.4,1.9-20.8-6-21.1-17.6c-0.3-11.6,8.7-22.6,20.1-24.5c9.1-1.5,16.9,3.2,19.9,11.1
	c0-0.1,0-0.2,0-0.2c-0.4-17.8-14.9-29.9-32.3-27c-17.4,2.9-31.2,19.7-30.7,37.5c0.4,17.8,14.9,29.9,32.3,27c6.1-1,11.7-3.7,16.5-7.6
	C280.6,1105,279.1,1105.5,277.5,1105.8z"/>
<path class="st6" d="M394.3,1038.3c-26.4,4.4-41.2,28.8-33.1,54.6c8.1,25.8,36.1,43.1,62.5,38.7c26.4-4.4,41.2-28.8,33.1-54.6
	C448.7,1051.3,420.7,1033.9,394.3,1038.3z"/>
<path class="st7" d="M456.9,1077.1c-5.5-17.5-20.3-31.2-37.4-36.7c13.1,6.8,23.7,18.5,28.2,32.8c8.1,25.8-6.7,50.2-33.1,54.6
	c-8.4,1.4-17,0.6-25.1-2c10.5,5.5,22.6,7.9,34.3,5.9C450.2,1127.3,465,1102.8,456.9,1077.1z"/>
<path class="st8" d="M417,1080.4c-5.1,0.9-10.6-2.5-12.1-7.5c-1.6-5,1.3-9.8,6.4-10.6c5.1-0.9,10.6,2.5,12.1,7.5
	c0.1,0.4,0.2,0.8,0.3,1.2c0.1-1.5-0.1-3-0.6-4.6c-2.4-7.7-10.8-12.8-18.6-11.5c-7.9,1.3-12.3,8.6-9.8,16.3
	c2.4,7.7,10.8,12.8,18.6,11.5c2.7-0.5,5.1-1.6,6.8-3.3C419.1,1079.8,418.1,1080.2,417,1080.4z"/>
<polygon class="st3" points="196.8,992.2 254,964.2 254.2,984.4 184.4,1033.3 "/>
<polygon class="st3" points="388.6,961.6 326.2,949.4 331.3,969.1 411.4,998.1 "/>
<path class="st9" d="M372.5,1131.7c-1.2,12-10.3,22.2-22.8,24.2c-4.9,0.8-9.7,0.3-14.1-1.4c1.8-0.1,3.6-0.3,5.4-0.6
	C354.9,1151.8,366.2,1143.2,372.5,1131.7z"/>
<path class="st10" d="M372.5,1131.7c0,0-7.8,10.1-17.9,15.8c-10,5.7-19,7.1-19,7.1c1.8-0.1,3.6-0.3,5.4-0.6
	C354.9,1151.8,366.2,1143.2,372.5,1131.7z"/>
<g>
	<path class="st11" d="M461.3,1081.8c-2.8-8.9-8-16.8-14.6-23.1c4.5,5.4,8.1,11.6,10.2,18.4c8.1,25.8-6.7,50.2-33.1,54.6
		c-17.3,2.9-35.3-3.6-47.9-15.6c12.6,15,32.9,23.5,52.3,20.3C454.6,1132,469.4,1107.5,461.3,1081.8z"/>
	<path class="st11" d="M318,1089.4c1,39.6-29.7,77-68.4,83.4c-38.7,6.4-70.9-20.5-71.9-60.1c-0.5-22.3,8.9-43.8,24.1-59.5
		c-17.9,16.8-29.2,40.8-28.6,65.7c1,41.6,34.8,69.9,75.5,63.2c40.7-6.8,72.9-46,71.9-87.6c-0.3-14.3-4.6-27.1-11.6-37.4
		C314.4,1066.2,317.7,1077.2,318,1089.4z"/>
</g>
<path class="st12" d="M308.3,1319.9c6.9,20,14.7,42.7,33.7,55.7c13.6,9.3,26.6,0,34.7-11.2c1.1-1.6,2.1-3.2,3.1-4.8
	c-0.3-0.4-0.6-0.9-0.9-1.3c-4.2-6.8-14-28.4-1.2-33.2c18.3-6.9,12.9,27,9,34.3c2.6,3.4,5.7,6.5,9.6,8.5c15,7.7,25.2-13.8,29-23.3
	c6.4-15.9,7.5-29.7,6.8-46c7.4,17.6,0,76.2-30.6,75.7c-4.2-0.1-8.1-1.7-11.4-3.9c-2.4-1.6-4.6-3.6-6.6-5.8c-0.6,1-1.3,1.9-2,2.8
	c-5,6.6-11.9,13.3-20.4,15.9c-18.3,5.5-33.1-12.1-40-25C314.6,1345.6,309.7,1333.9,308.3,1319.9L308.3,1319.9z M382.9,1353
	c1.9-5.1,3.2-10.9,1.6-16.1c-2.7-8.9-6.7-6.1-6.3,1.5C378.4,1343.5,380.5,1348.5,382.9,1353z"/>
<path class="st3" d="M404.9,833c6.2-16.4,6.5-36.8-1.4-62.4c-95.5,112.1-339.2-33.2-313.2,217l-17.7,26.9l18.6,74.6l47.2-130.3
	c113.1-78.1,319-3.4,352.5-151.8C468.6,822.3,438.4,829.2,404.9,833z"/>
<path class="st13" d="M90.3,987.6l-17.7,26.9l18.6,74.6l-6.3-72.6l21-29c-10.5-101.4,39.9-142.4,102.1-161
	C135.3,834.7,76.9,858.5,90.3,987.6z"/>
<path class="st14" d="M234.4,1090.9c2.1-0.3,4,1.1,4.4,3.1c0.3,2.1-1.1,4-3.1,4.4c-2.1,0.3-4-1.1-4.4-3.1
	C230.9,1093.2,232.3,1091.2,234.4,1090.9L234.4,1090.9z M227.1,1103c3.6-0.6,6.9,1.8,7.5,5.4c0.6,3.6-1.8,6.9-5.4,7.5
	c-3.6,0.6-6.9-1.8-7.5-5.4C221.1,1106.9,223.5,1103.6,227.1,1103z"/>
<path class="st14" d="M397.8,1075.8c0.9-0.1,1.7,0.4,1.9,1.3c0.1,0.9-0.5,1.7-1.3,1.9c-0.9,0.1-1.7-0.4-1.9-1.3
	C396.4,1076.8,397,1075.9,397.8,1075.8L397.8,1075.8z M394.7,1081c1.5-0.3,3,0.8,3.2,2.3c0.3,1.5-0.8,3-2.3,3.2
	c-1.5,0.3-3-0.8-3.2-2.3C392.2,1082.7,393.2,1081.2,394.7,1081z"/>
<path class="st10" d="M211,928.3c-26.3,6.4-51,15.7-72.5,30.5l-47.2,130.3c0,0,0,0,0,0l0,0c-13.3-8.5-27.3-3.3-31.2,11.6
	c-3.9,14.9,3.7,33.8,17,42.3c8.2,5.2,16.5,5.2,22.7,1.1c16.4,80.1,49.6,168.9,81.8,254.4c18.5,1.9,36.8,3,54.9,3.2
	C170.3,1215.2,123.9,1032.5,211,928.3z"/>
<path class="st9" d="M102.7,1119.1c-5.5-13.1-23-17.7-28.5-1.1c0.1-0.6,0.2-1.1,0.3-1.7c2.2-9.3,11.1-15.4,19.9-9.6
	c-9.6-9.3-25.8-11-31.4,4.1C72.9,1080.3,102.6,1102.7,102.7,1119.1z"/>
<path class="st15" d="M213.1,1588h33.1l-9.7-186.4c-18.1-0.3-36.4-1.3-54.9-3.2L119,1503l17.7,85h4.7l-14.7-85.5l57.4-89.5
	L213.1,1588z"/>
<g>
	<path class="st10" d="M203.6,1232.6c88.6,59.1,231.4,26.6,286.6-58.7C431.7,1245.2,324.9,1268.4,203.6,1232.6z"/>
	<path class="st9" d="M490.1,1173.8c-98.6,74.3-185.6,75.2-286.6,58.7C324.9,1268.4,431.7,1245.2,490.1,1173.8z"/>
</g>
<polygon class="st5" points="503,1264.8 444.9,1274 465.3,1247.3 514.9,1249 "/>
<polygon class="st10" points="465.3,1247.3 444.9,1274 503,1264.8 454.7,1267.3 "/>
<polygon class="st5" points="517.2,1228.1 507.1,1264.5 427.3,1257.3 465.3,1196 "/>
<polygon class="st10" points="465.3,1196 427.3,1257.3 507.1,1264.5 440,1250 "/>
<path class="st1" d="M601.8,1299l-114.3-30c0,0,2.7-17.2,4.8-21.3c8-15.5,25.3-21.8,25.3-21.8l123.8,66.8l-131.1,101.8l9-52.2
	L601.8,1299z"/>
<g>
	<path class="st16" d="M1191,0H0v508.5C159.1,647.7,367.5,732,595.5,732c47.2,0,93.6-3.6,138.8-10.6c5.7,40.2,40.2,71.1,81.9,71.1
		c45.7,0,82.8-37,82.8-82.8c0-9.9-1.7-19.4-4.9-28.2c110.3-38.5,210.8-97.8,296.9-173.1V0z"/>
	<path class="st16" d="M739.3,797c-28,0-50.8,22.7-50.8,50.8c0,28,22.7,50.8,50.8,50.8c28,0,50.8-22.7,50.8-50.8
		C790,819.7,767.3,797,739.3,797z"/>
	<path class="st16" d="M642.2,868.5c-19.2,0-34.8,15.6-34.8,34.8c0,19.2,15.6,34.8,34.8,34.8c19.2,0,34.8-15.6,34.8-34.8
		C677,884.1,661.4,868.5,642.2,868.5z"/>
</g>
</svg>
