<?xml version="1.0" encoding="utf-8"?>
<!-- Generator: Adobe Illustrator 22.0.0, SVG Export Plug-In . SVG Version: 6.00 Build 0)  -->
<svg version="1.1" id="Ebene_1" xmlns="http://www.w3.org/2000/svg" xmlns:xlink="http://www.w3.org/1999/xlink" x="0px" y="0px"
	 viewBox="0 0 1191 1191" style="enable-background:new 0 0 1191 1191;" xml:space="preserve">
<style type="text/css">
	.st0{fill-rule:evenodd;clip-rule:evenodd;fill:#FFFFFF;}
	.st1{fill:url(#SVGID_1_);}
	.st2{fill-rule:evenodd;clip-rule:evenodd;}
	.st3{fill-rule:evenodd;clip-rule:evenodd;fill:#634E42;}
	.st4{fill-rule:evenodd;clip-rule:evenodd;fill:#EBF5F2;}
	.st5{fill-rule:evenodd;clip-rule:evenodd;fill:#73C7D2;}
	.st6{fill-rule:evenodd;clip-rule:evenodd;fill:#D7E1DE;}
	.st7{fill-rule:evenodd;clip-rule:evenodd;fill:#FFFFF5;}
	.st8{fill-rule:evenodd;clip-rule:evenodd;fill:#EFCAA6;}
	.st9{fill-rule:evenodd;clip-rule:evenodd;fill:#FFDEBA;}
	.st10{fill:#3C3C3B;}
	.st11{fill:#EBF5F2;}
	.st12{opacity:0.1;}
	.st13{fill:#D7E1DE;}
	.st14{fill:#636362;}
	.st15{fill-rule:evenodd;clip-rule:evenodd;fill:#754D33;}
	.st16{opacity:0.1;fill-rule:evenodd;clip-rule:evenodd;}
	.st17{fill-rule:evenodd;clip-rule:evenodd;fill:url(#SVGID_2_);}
	.st18{fill-rule:evenodd;clip-rule:evenodd;fill:#C5997C;}
	.st19{opacity:0.3;fill-rule:evenodd;clip-rule:evenodd;fill:#FFFFFF;}
	.st20{opacity:0.4;fill-rule:evenodd;clip-rule:evenodd;fill:#FFFFFF;}
	.st21{fill-rule:evenodd;clip-rule:evenodd;fill:#D0A486;}
	.st22{fill:#D0A486;}
	.st23{fill:#732706;}
	.st24{fill:#550900;}
	.st25{fill:#BE8077;}
	.st26{fill:#F1F5F7;}
</style>
<rect x="0" class="st0" width="1191" height="1191"/>
<linearGradient id="SVGID_1_" gradientUnits="userSpaceOnUse" x1="469.1289" y1="337.4693" x2="888.8234" y2="874.6538">
	<stop  offset="0" style="stop-color:#A1D1DC"/>
	<stop  offset="0.5" style="stop-color:#6CBBCB"/>
	<stop  offset="1" style="stop-color:#00A6BB"/>
</linearGradient>
<path class="st1" d="M153.1,687.2C229.3,885.8,547.4,1049.1,746,973c198.6-76.1,358.9-493,282.8-691.7
	C952.7,82.7,77,488.6,153.1,687.2z"/>
<g>
	<path class="st2" d="M460.7,982.3c-10-3.3-20-6.6-30-9.9c-5.2,9.4-10.1,20.9-15.3,30.3c25.9,15.2,58.8,27.6,86.9,30.3
		C503.1,1011.7,493,997.7,460.7,982.3z"/>
	<path class="st2" d="M167.7,982.3c-32.3,15.4-42.4,29.4-41.6,50.7c28.2-2.8,61-15.1,86.9-30.3c-5.2-9.4-10.1-20.9-15.3-30.3
		C187.7,975.6,177.7,978.9,167.7,982.3z"/>
</g>
<path class="st3" d="M169.5,770.4v208.1c0,0,8,6.8,17.5,6.8c10.2,0,16.3-6.8,16.3-6.8V813.5c83.8,35.2,147.2,35.2,221.8,0.9v164.2
	c0,0,7.4,5.4,20.3,5.4c11.3,0,16.2-5.4,16.2-5.4s0-147.2,0-208.1C461.6,769,169.5,770.4,169.5,770.4z"/>
<path class="st4" d="M169.5,487.7v133.8v149c97.4,22.9,194.7,24.4,292.1,0c0-36.6,0-150.7,0-150.7c0-44,0-88,0-132H169.5z"/>
<polygon class="st5" points="325.8,646.2 342.6,617.2 298.5,617.2 319.2,653.1 312.1,749.4 346.4,779.1 368.6,749.4 "/>
<path class="st4" d="M529.9,651.4l37.3-86.8c4.7,14,16.6,21.2,34.7,23.2c-17.6,24.5-55.6,82-55.6,82l-93.2-27.1l7.9-40.6
	L529.9,651.4z"/>
<path class="st6" d="M543,664.7l-89.8-22l93.2,27.1c0,0,38-57.5,55.6-82C584.3,612.2,543,664.7,543,664.7z"/>
<polygon class="st7" points="567.2,564.6 529.9,651.4 461,602.1 533.1,658.2 "/>
<path class="st7" d="M169.5,603.4v167c9.1,2.2,18.3,4.1,27.4,5.9l18.3-162.5C200.1,611,184.9,607.6,169.5,603.4z"/>
<polygon class="st8" points="576.6,577.7 557.1,582.4 537.7,572.2 564.9,561 "/>
<polygon class="st4" points="305.2,716.2 433.3,682.6 444.8,722.7 305.9,740.9 210.6,658.2 240.6,633 "/>
<polygon class="st6" points="307.4,736.1 225.5,671.1 305.9,740.9 411.6,727.1 "/>
<polygon class="st7" points="433.3,682.6 305.2,716.2 240.6,633 302.3,723.1 "/>
<g>
	<polygon class="st8" points="446.5,669.3 500.5,663.7 503.8,678.2 444,687.8 	"/>
	<polygon class="st8" points="462.7,683.8 438.3,681.2 431.9,726 465.4,733.8 	"/>
	<polygon class="st8" points="446.8,672.4 418.4,677.9 431.9,726 448.1,728.4 	"/>
	<polygon class="st8" points="418.4,677.9 443.4,656.4 466.5,664.3 424.5,684.9 	"/>
	<polygon class="st9" points="466.5,664.3 443.4,656.4 418.4,677.9 444,658.9 	"/>
</g>
<path class="st10" d="M1127.4,739.7c-1-44.4-11.3-86.2-29.1-123.5c-17.5-36.8-42-69.1-71.7-95.3c-29.1-25.8-63.1-45.7-100.1-58.4
	c-36.3-12.4-75.5-17.9-116-15.1c-39.8,2.7-77.2,13.2-110.9,29.6c-33.3,16.2-63.1,38.3-88.2,64.8c-24.9,26.3-45.3,57.2-59.7,91
	c-14.5,33.9-23.1,71-24.5,110.1c-1.4,39.4,4.7,77.3,17.1,112.2c12.5,35.4,31.6,67.9,55.8,96c24.6,28.5,54.8,52.5,89,70
	c34.9,17.9,74.1,29.1,116.2,31.7c42.8,2.6,84.4-3.9,122.8-18.3c38.9-14.5,74.2-36.9,104.1-65.5c30.1-28.8,54.3-63.6,70.9-102.7
	C1119.7,827.5,1128.4,784.5,1127.4,739.7z"/>
<g>
	<path class="st11" d="M1064.7,747.7c0,0,0-0.1,0-0.1s0-0.1,0-0.1c0,0,0-0.1,0-0.1c0,0,0-0.1,0-0.1c0,0,0-0.1,0-0.1v0
		c0,0,0-0.1,0-0.1c0,0,0-0.1,0-0.1l0,0c0,0,0-0.1,0-0.1c0,0,0-0.1,0-0.1c0,0,0-0.1,0-0.1c0,0,0-0.1,0-0.1c0,0,0-0.1,0-0.1
		c0,0,0-0.1,0-0.1v0c0,0,0-0.1,0-0.1c0,0,0-0.1,0-0.1s0-0.1,0-0.1c0,0,0-0.1,0-0.1c0,0,0-0.1,0-0.1c0,0,0-0.1,0-0.1c0,0,0-0.1,0-0.1
		c0,0,0-0.1,0-0.1c0,0,0-0.1,0-0.1c0,0,0-0.1,0-0.1c0,0,0-0.1,0-0.1c0,0,0-0.1,0-0.1c0,0,0-0.1,0-0.1c0,0,0-0.1,0-0.1
		c0,0,0-0.1,0-0.1c0,0,0,0,0-0.1c0,0,0,0,0-0.1c0,0,0,0,0-0.1c0,0,0,0,0-0.1c0-0.1,0-0.1,0-0.2c0-0.1,0-0.1,0-0.2c0-0.1,0-0.1,0-0.2
		c0-0.1,0-0.1,0-0.2c-0.6-36.5-8.9-71-23.2-101.8c-14.1-30.5-34.1-57.4-58.3-79.3c-23.9-21.7-51.8-38.5-82.4-49.4
		c-30.1-10.7-62.7-15.6-96.5-13.7c-33.3,1.9-64.6,10.4-92.9,23.9c-28,13.4-53.1,31.8-74.3,54c-21,22.1-38.2,47.9-50.3,76.4
		c-12.1,28.5-19.3,59.7-20.3,92.6c0,0.1,0,0.1,0,0.2c0,0.1,0,0.1,0,0.2c0,0.1,0,0.1,0,0.2c0,0.1,0,0.1,0,0.2c0,0,0,0,0,0.1
		c0,0,0,0,0,0.1c0,0,0,0,0,0.1c0,0,0,0,0,0.1c0,0,0,0.1,0,0.1c0,0,0,0.1,0,0.1c0,0,0,0.1,0,0.1c0,0,0,0.1,0,0.1c0,0,0,0,0,0.1
		c0,0,0,0,0,0.1c0,0,0,0,0,0.1c0,0,0,0,0,0.1c0,0,0,0.1,0,0.1c0,0,0,0.1,0,0.1c0,0,0,0.1,0,0.1c0,0,0,0.1,0,0.1c0,0,0,0.1,0,0.1
		c0,0,0,0.1,0,0.1c0,0,0,0.1,0,0.1c0,0,0,0.1,0,0.1c0,0,0,0.1,0,0.1c0,0,0,0.1,0,0.1c0,0,0,0.1,0,0.1c0,0,0,0.1,0,0.1
		c0,0,0,0.1,0,0.1c0,0,0,0.1,0,0.1c0,0,0,0,0,0c0,0,0,0,0,0c0,0,0,0.1,0,0.1c0,0,0,0.1,0,0.1c0,0,0,0.1,0,0.1c0,0,0,0.1,0,0.1
		c0,0,0,0.1,0,0.1c0,0,0,0.1,0,0.1c0,0,0,0,0,0c0,0,0,0.1,0,0.1c0,0,0,0.1,0,0.1c0,0,0,0.1,0,0.1c0,0,0,0.1,0,0.1c0,0,0,0.1,0,0.1
		c0,0,0,0.1,0,0.1c0,0,0,0.1,0,0.1c0,0.1,0,0.3,0,0.4c0,0.1,0,0.3,0,0.4c0,0.1,0,0.3,0,0.4c0,0.1,0,0.3,0,0.4c0,0,0,0,0,0
		c0,0,0,0,0,0c0,0,0,0,0,0s0,0,0,0c0,0,0,0.1,0,0.1c0,0,0,0.1,0,0.1c0,0,0,0.1,0,0.1c0,0,0,0.1,0,0.1c0,0,0,0,0,0c0,0,0,0,0,0
		c0,0,0,0,0,0c0,0,0,0,0,0c0,0,0,0.1,0,0.1c0,0,0,0,0,0c0,0,0,0.1,0,0.1c0,0,0,0.1,0,0.1c0,0,0,0.1,0,0.1c0,0,0,0,0,0c0,0,0,0,0,0
		s0,0,0,0c0,0,0,0,0,0c0,0,0,0.1,0,0.1c0,0.1,0,0.1,0,0.2c0,0,0,0.1,0,0.1c0,0,0,0.1,0,0.1c0,0,0,0,0,0c0,0,0,0,0,0c0,0,0,0,0,0
		c0,0,0,0,0,0c0,1.8,0,3.7,0.1,5.5c0,0.6,0,1.2,0.1,1.8c0,1.2,0.1,2.4,0.1,3.7c0,0.7,0.1,1.4,0.1,2.1c0.1,1.2,0.1,2.3,0.2,3.5
		c0,0.7,0.1,1.3,0.1,2c0,0.2,0,0.4,0,0.6c0.1,1.3,0.2,2.5,0.3,3.8c0.1,0.7,0.1,1.4,0.2,2.1c0.1,1.3,0.3,2.7,0.4,4
		c0.1,0.8,0.2,1.6,0.3,2.4c0.1,1,0.2,1.9,0.4,2.9c0.1,0.9,0.2,1.7,0.4,2.6c0,0.3,0.1,0.7,0.1,1c0.1,0.5,0.2,1.1,0.3,1.6
		c0.1,0.9,0.3,1.8,0.4,2.7c0.1,0.9,0.3,1.7,0.5,2.6c0.3,1.7,0.6,3.4,1,5c0.1,0.7,0.3,1.4,0.4,2.2c0.2,1,0.4,2,0.7,3
		c0.1,0.4,0.2,0.9,0.3,1.3c0.1,0.3,0.1,0.5,0.2,0.7c0.2,1,0.5,2,0.7,3c0.2,0.6,0.3,1.3,0.5,1.9c0.3,1,0.5,2.1,0.8,3.1
		c0.1,0.5,0.3,0.9,0.4,1.4c0.6,2.2,1.2,4.4,1.9,6.5c0.1,0.4,0.2,0.8,0.3,1.2c0,0,0,0,0,0c1.8,5.8,3.8,11.6,6,17.2
		c11.2,28.6,27.5,54.8,47.9,77.3c20.7,22.7,45.7,41.7,74,55.4c28.7,13.9,60.7,22.5,94.8,24.2c34.7,1.7,68.2-3.8,99.2-15.4
		c31.3-11.7,59.9-29.6,84.2-52.3c24.4-22.8,44.4-50.5,58.5-81.4c11.2-24.8,18.6-51.6,21.5-79.7c0,0,0,0,0,0c0,0,0,0,0,0
		c0.2-1.7,0.3-3.5,0.5-5.3c0,0,0,0,0,0c0.1-1.7,0.3-3.4,0.4-5.1c0-0.1,0-0.2,0-0.3c0.1-1.6,0.2-3.2,0.2-4.8c0-0.3,0-0.6,0-0.9
		c0.1-1.6,0.1-3.2,0.1-4.9c0,0,0,0,0,0c0,0,0,0,0,0c0,0,0,0,0,0c0,0,0,0,0,0c0-0.1,0-0.1,0-0.2c0-0.1,0-0.1,0-0.2c0-0.1,0-0.1,0-0.2
		c0-0.1,0-0.1,0-0.2c0,0,0,0,0,0c0,0,0,0,0,0c0,0,0,0,0,0c0,0,0,0,0,0c0-0.1,0-0.1,0-0.2c0-0.1,0-0.1,0-0.2c0-0.1,0-0.1,0-0.2
		c0-0.1,0-0.1,0-0.2c0,0,0,0,0,0c0,0,0,0,0,0c0,0,0,0,0,0c0,0,0,0,0,0c0,0,0-0.1,0-0.1c0-0.1,0-0.1,0-0.2c0,0,0-0.1,0-0.2
		c0,0,0-0.1,0-0.2c0,0,0,0,0,0c0,0,0,0,0,0c0,0,0,0,0,0c0,0,0,0,0,0c0-0.1,0-0.3,0-0.5c0-0.2,0-0.3,0-0.5c0-0.2,0-0.3,0-0.5
		c0-0.2,0-0.3,0-0.5c0,0,0-0.1,0-0.1c0,0,0-0.1,0-0.1s0-0.1,0-0.1c0,0,0-0.1,0-0.1c0,0,0-0.1,0-0.1l0,0c0,0,0-0.1,0-0.1
		C1064.7,747.9,1064.7,747.8,1064.7,747.7L1064.7,747.7C1064.7,747.8,1064.7,747.7,1064.7,747.7z"/>
</g>
<path class="st12" d="M931.4,655.8c-2,0.6-4.3,1.3-6.8,1.9c-2.5,0.6-5.2,1.2-8.1,1.7c-2.9,0.5-5.9,0.9-9,1.1c-3,0.3-6.1,0.5-9,0.6
	c-2.9,0.1-5.7,0.2-8.1,0.3c-2.5,0.2-4.6,0.4-6.2,0.8c-1.6,0.4-2.8,1.1-3.2,2c-0.6,1.3-0.9,2.7-0.9,4.2c0,1.5,0.3,3.1,0.8,4.8
	c0.5,1.7,1.2,3.4,2.1,5.2c0.8,1.8,1.8,3.6,2.8,5.4l-73.3,54.2l-6.9,5.1l1.6,0.6l-2,5l4.5,6.4l9.2-6.8l74.2-54.7
	c1.3,1.4,2.7,2.8,4.1,4.1c1.4,1.3,2.7,2.5,4.1,3.5c1.3,1,2.7,1.8,4,2.4c1.3,0.6,2.6,0.9,3.8,0.9c0.2,0,0.3,0,0.5,0
	c0.2,0,0.3,0,0.5-0.1s0.3-0.1,0.5-0.1c0.2,0,0.3-0.1,0.5-0.1c1.6-0.5,2.8-1.6,3.8-3.2c1-1.5,1.8-3.5,2.5-5.7
	c0.7-2.2,1.4-4.7,2.2-7.4c0.8-2.6,1.7-5.4,2.9-8.2c1.1-2.9,2.3-5.7,3.6-8.3c1.3-2.6,2.6-5,4-7.2c1.3-2.2,2.6-4.2,3.8-5.9
	c1.2-1.7,2.2-3.2,3.1-4.4C935.1,654.6,933.4,655.2,931.4,655.8z"/>
<path class="st12" d="M805.6,743.2l-10.1-3.9l-108.6-42c0.5-2,1.1-4.1,1.5-6.1c0.4-2,0.7-3.9,0.8-5.6c0.1-1.7,0-3.3-0.3-4.6
	c-0.3-1.3-0.9-2.4-1.9-3.2c-0.3-0.2-0.6-0.5-0.9-0.6s-0.7-0.3-1-0.4c-0.4-0.1-0.7-0.2-1.1-0.2c-0.4,0-0.8-0.1-1.2-0.1
	c-1.2,0-2.6,0.3-4.1,0.7c-1.5,0.4-3.1,0.9-4.7,1.4c-1.7,0.6-3.5,1.2-5.3,1.7c-1.9,0.6-3.8,1.1-5.8,1.5c-1.7,0.4-3.4,0.8-5.1,1.1
	c-1.7,0.3-3.3,0.5-4.8,0.7c-1.6,0.2-3.1,0.3-4.5,0.4c-1.5,0.1-2.8,0.1-4.1,0.2c-0.8,0-1.6,0-2.3,0c-0.7,0-1.4,0-2.1,0
	c-0.7,0-1.3,0-1.9,0c-0.6,0-1.1,0-1.6,0c1,0.9,2.2,1.9,3.6,3.2c1.4,1.3,2.9,2.7,4.5,4.3c1.6,1.6,3.3,3.5,4.9,5.5
	c1.7,2,3.3,4.2,4.9,6.5c1.6,2.2,3.1,4.4,4.4,6.7c1.4,2.2,2.7,4.4,3.9,6.2c1.2,1.9,2.4,3.5,3.4,4.6c1.1,1.1,2.1,1.8,3,1.8
	c0,0,0,0,0.1,0c0,0,0,0,0.1,0c0,0,0,0,0.1,0c0,0,0,0,0.1,0c1.3-0.2,2.6-0.7,3.8-1.6c1.2-0.8,2.3-1.9,3.4-3.2
	c1.1-1.3,2.1-2.8,3.1-4.4c1-1.6,2-3.4,3-5.2l107.7,42.1l12.5,4.9l2.5-6.4l2-5L805.6,743.2z"/>
<path class="st10" d="M929.1,650.4c-2,0.6-4.3,1.3-6.8,1.9c-2.5,0.6-5.2,1.2-8.1,1.7c-2.9,0.5-5.9,0.9-9,1.1c-3,0.3-6.1,0.5-9,0.6
	c-2.9,0.1-5.7,0.2-8.1,0.3c-2.5,0.2-4.6,0.4-6.2,0.8c-1.6,0.4-2.8,1.1-3.2,2c-0.6,1.3-0.9,2.7-0.9,4.3c0,1.5,0.3,3.1,0.8,4.8
	c0.5,1.7,1.2,3.4,2.1,5.2c0.8,1.8,1.8,3.6,2.9,5.4l-73.3,54.2l-6.9,5.1l4.1,12l9.2-6.8l74.2-54.7c1.3,1.4,2.7,2.8,4.1,4.1
	c1.4,1.3,2.7,2.5,4.1,3.5c1.3,1,2.7,1.8,4,2.4c1.3,0.6,2.6,0.9,3.8,0.9c0.2,0,0.3,0,0.5,0c0.2,0,0.3,0,0.5-0.1
	c0.2,0,0.3-0.1,0.5-0.1c0.2,0,0.3-0.1,0.5-0.1c1.6-0.5,2.8-1.6,3.8-3.2c1-1.5,1.8-3.5,2.5-5.7c0.7-2.2,1.4-4.7,2.2-7.4
	c0.8-2.6,1.7-5.4,2.9-8.2c1.1-2.9,2.3-5.7,3.6-8.3c1.3-2.6,2.6-5,4-7.2c1.3-2.2,2.6-4.2,3.8-5.9c1.2-1.7,2.2-3.2,3.1-4.4
	C932.9,649.2,931.1,649.8,929.1,650.4z"/>
<path class="st10" d="M803.3,737.9l-10.1-3.9l-108.6-42c0.5-2,1.1-4.1,1.5-6.1c0.4-2,0.7-3.9,0.8-5.6c0.1-1.7,0-3.3-0.3-4.6
	c-0.3-1.3-0.9-2.4-1.9-3.2c-0.3-0.2-0.6-0.5-0.9-0.6c-0.3-0.2-0.7-0.3-1-0.4c-0.4-0.1-0.7-0.2-1.1-0.2c-0.4,0-0.8-0.1-1.2-0.1
	c-1.2,0-2.6,0.3-4.1,0.7c-1.5,0.4-3.1,0.9-4.7,1.4c-1.7,0.6-3.5,1.2-5.3,1.7c-1.9,0.6-3.8,1.1-5.8,1.5c-1.7,0.4-3.4,0.8-5,1.1
	c-1.7,0.3-3.3,0.5-4.8,0.7c-1.6,0.2-3.1,0.3-4.5,0.4c-1.5,0.1-2.8,0.1-4.1,0.2c-0.8,0-1.6,0-2.3,0c-0.7,0-1.4,0-2.1,0
	c-0.7,0-1.3,0-1.9,0c-0.6,0-1.1,0-1.6,0c1,0.9,2.2,1.9,3.6,3.2c1.4,1.3,2.9,2.7,4.5,4.3c1.6,1.6,3.3,3.5,4.9,5.5
	c1.7,2,3.3,4.2,4.9,6.5c1.6,2.2,3.1,4.4,4.4,6.7c1.4,2.2,2.7,4.4,3.9,6.2c1.2,1.9,2.4,3.5,3.4,4.6c1.1,1.1,2.1,1.8,3,1.8
	c0,0,0,0,0.1,0c0,0,0,0,0.1,0c0,0,0,0,0.1,0c0,0,0,0,0.1,0c1.3-0.2,2.6-0.7,3.8-1.6c1.2-0.8,2.3-1.9,3.4-3.2
	c1.1-1.3,2.1-2.8,3.1-4.4c1-1.6,2-3.4,3-5.2L787.9,745l12.5,4.9l2.5-6.4l2-5L803.3,737.9z"/>
<g>
	<path class="st13" d="M661.3,636.5c-0.3-0.1-0.7-0.1-1-0.2c-0.4,0-0.7,0-1.1,0c-0.7,0-1.4,0.1-2,0.3c-0.6,0.2-1.2,0.4-1.8,0.8
		c-0.6,0.3-1.1,0.7-1.6,1.2c-0.5,0.5-0.9,1.1-1.3,1.7c-0.3,0.6-0.6,1.2-0.9,1.8c-0.3,0.6-0.5,1.3-0.7,1.9c-0.2,0.7-0.3,1.4-0.4,2.1
		c-0.1,0.7-0.2,1.5-0.2,2.2c0,0,0,0.1,0,0.1c0,0,0,0.1,0,0.1c0,0,0,0.1,0,0.1c0,0,0,0.1,0,0.1c1-1,2.1-2,3.1-3c1-1,2.1-2,3.2-2.9
		c1.1-1,2.1-1.9,3.2-2.9c1.1-0.9,2.2-1.9,3.3-2.8c-0.3-0.2-0.6-0.3-0.9-0.4C661.9,636.7,661.6,636.6,661.3,636.5z"/>
	<path class="st13" d="M1064.7,747.7c0,0,0-0.1,0-0.1s0-0.1,0-0.1c0,0,0-0.1,0-0.1c0,0,0-0.1,0-0.1c0,0,0-0.1,0-0.1c0,0,0-0.1,0-0.1
		c0,0,0-0.1,0-0.1c0,0,0-0.1,0-0.1c0,0,0-0.1,0-0.1c0,0,0-0.1,0-0.1c0,0,0-0.1,0-0.1c0,0,0-0.1,0-0.1c0,0,0-0.1,0-0.1
		c0,0,0-0.1,0-0.1c0,0,0-0.1,0-0.1s0-0.1,0-0.1c0,0,0-0.1,0-0.1c0,0,0-0.1,0-0.1c0,0,0-0.1,0-0.1c0,0,0-0.1,0-0.1c0,0,0-0.1,0-0.1
		c0,0,0-0.1,0-0.1c0,0,0-0.1,0-0.1c0,0,0-0.1,0-0.1c0,0,0-0.1,0-0.1c0,0,0-0.1,0-0.1c0,0,0-0.1,0-0.1c0,0,0-0.1,0-0.1c0,0,0,0,0-0.1
		c0,0,0,0,0-0.1c0,0,0,0,0-0.1c0,0,0,0,0-0.1c0-0.1,0-0.1,0-0.2c0-0.1,0-0.1,0-0.2c0-0.1,0-0.1,0-0.2c0-0.1,0-0.1,0-0.2
		c-0.6-36.5-8.9-71-23.2-101.8c-14.1-30.5-34.1-57.4-58.3-79.3c-23.9-21.7-51.8-38.5-82.4-49.4c-30.1-10.7-62.7-15.6-96.5-13.7
		c-33.3,1.9-64.6,10.4-92.9,23.9c-28,13.4-53.1,31.8-74.3,54c-21,22.1-38.2,47.9-50.3,76.4c-12.1,28.5-19.3,59.7-20.3,92.6
		c0,0.1,0,0.1,0,0.2c0,0.1,0,0.1,0,0.2c0,0.1,0,0.1,0,0.2c0,0.1,0,0.1,0,0.2c0,0,0,0,0,0.1c0,0,0,0,0,0.1c0,0,0,0,0,0.1
		c0,0,0,0,0,0.1c0,0,0,0.1,0,0.1c0,0,0,0.1,0,0.1c0,0,0,0.1,0,0.1c0,0,0,0.1,0,0.1c0,0,0,0,0,0.1c0,0,0,0,0,0.1c0,0,0,0,0,0.1
		c0,0,0,0,0,0.1c0,0,0,0.1,0,0.1c0,0,0,0.1,0,0.1c0,0,0,0.1,0,0.1c0,0,0,0.1,0,0.1c0,0,0,0.1,0,0.1c0,0,0,0.1,0,0.1c0,0,0,0.1,0,0.1
		c0,0,0,0.1,0,0.1c0,0,0,0.1,0,0.1c0,0,0,0.1,0,0.1c0,0,0,0.1,0,0.1c0,0,0,0.1,0,0.1c0,0,0,0.1,0,0.1c0,0,0,0.1,0,0.1
		c0,0,0,0.1,0,0.1c0,0,0,0.1,0,0.1c0,0,0,0.1,0,0.1c0,0,0,0.1,0,0.1c0,0,0,0.1,0,0.1c0,0,0,0.1,0,0.1c0,0,0,0.1,0,0.1
		c0,0,0,0.1,0,0.1c0,0,0,0.1,0,0.1c0,0,0,0.1,0,0.1c0,0,0,0.1,0,0.1c0,0,0,0.1,0,0.1c0,0,0,0.1,0,0.1c0,0,0,0.1,0,0.1
		c0,0.1,0,0.3,0,0.4c0,0.1,0,0.3,0,0.4c0,0.1,0,0.3,0,0.4c0,0.1,0,0.3,0,0.4c0,0,0,0,0,0c0,0,0,0,0,0c0,0,0,0,0,0s0,0,0,0
		c0,0,0,0.1,0,0.1c0,0,0,0.1,0,0.1c0,0,0,0.1,0,0.1c0,0,0,0.1,0,0.1c0,0,0,0,0,0c0,0,0,0,0,0c0,0,0,0,0,0c0,0,0,0,0,0
		c0,0,0,0.1,0,0.1c0,0,0,0.1,0,0.1c0,0,0,0.1,0,0.1c0,0,0,0.1,0,0.1c0,0,0,0,0,0c0,0,0,0,0,0s0,0,0,0c0,0,0,0,0,0c0,0.1,0,0.1,0,0.1
		s0,0.1,0,0.1c0,0,0,0.1,0,0.1c0,0,0,0.1,0,0.1c0,0,0,0,0,0c0,0,0,0,0,0c0,0,0,0,0,0c0,0,0,0,0,0c0,6.4,0.2,12.8,0.7,19.1
		c0.5,6.3,1.2,12.6,2.1,18.8c0.9,6.2,2.1,12.3,3.5,18.4c1.4,6.1,3,12,4.8,17.9c0-1.1,0-2.2-0.1-3.3c0-1.1,0-2.2,0-3.3
		c0-1.1,0-2.2,0-3.3c0-1.1,0-2.2,0.1-3.3c0.2-5.7,0.5-11.4,1.1-17c0.6-5.6,1.3-11.2,2.2-16.6c0.9-5.5,2-10.9,3.3-16.2
		c1.3-5.3,2.7-10.6,4.3-15.8c-0.6-0.7-1-1.5-1.4-2.3s-0.7-1.6-1-2.5c-0.3-0.9-0.5-1.8-0.6-2.7c-0.1-0.9-0.2-1.9-0.1-2.9
		c0-1.1,0.2-2.2,0.4-3.2c0.2-1,0.5-2,0.9-3c0.4-0.9,0.9-1.9,1.4-2.7c0.6-0.9,1.2-1.7,2-2.5c0.6-0.7,1.2-1.2,1.9-1.8
		c0.7-0.5,1.3-1,2-1.4c0.7-0.4,1.4-0.7,2.2-1c0.7-0.3,1.5-0.5,2.3-0.6c2.8-6.3,5.8-12.4,9.1-18.3c3.3-6,6.8-11.8,10.6-17.4
		c3.8-5.6,7.8-11.1,12-16.4c4.2-5.3,8.7-10.4,13.3-15.3c-0.2-0.5-0.4-1.1-0.6-1.6c-0.2-0.6-0.3-1.1-0.4-1.7
		c-0.1-0.6-0.2-1.2-0.2-1.8c0-0.6-0.1-1.3,0-1.9c0-1.4,0.2-2.7,0.4-4c0.2-1.3,0.5-2.5,0.9-3.7c0.4-1.2,0.9-2.4,1.4-3.5
		c0.6-1.1,1.2-2.2,2-3.2c0.8-1.1,1.7-2.1,2.6-3c0.9-0.9,1.9-1.6,3-2.2c1.1-0.6,2.2-1,3.4-1.3c1.2-0.3,2.5-0.5,3.8-0.5
		c1.1,0,2.1,0,3.1,0.2c1,0.2,1.9,0.4,2.8,0.8c0.9,0.4,1.7,0.8,2.5,1.4c0.8,0.6,1.5,1.2,2.2,2c9.2-7.1,18.9-13.6,29.2-19.3
		c10.3-5.7,21-10.7,32.2-14.9c11.2-4.2,22.8-7.5,34.8-10c12-2.5,24.5-4,37.2-4.5c16.4-0.7,32.5,0.4,48.2,3
		c15.8,2.7,31.1,6.9,45.7,12.6c14.8,5.8,28.9,13,42.1,21.6c13.3,8.6,25.8,18.6,37.2,29.8l-0.1-1.1c1-1.2,1.9-2.4,2.7-3.5
		c0.8-1.1,1.6-2.1,2.4-3c0.7-0.9,1.4-1.8,2-2.6c0.6-0.8,1.2-1.5,1.7-2.1c0.5-0.6,0.9-1.2,1.3-1.7c0.4-0.5,0.7-0.9,1-1.3
		c0.3-0.4,0.5-0.6,0.7-0.9c0.2-0.2,0.3-0.4,0.3-0.4c1.4-1.8,2.5-3.6,3.5-5.2c1-1.6,1.9-3.1,2.5-4.5c0.7-1.4,1.2-2.6,1.5-3.7
		c0.3-1.1,0.5-2.1,0.5-3c0-0.1,0-0.2,0-0.4c0-0.1,0-0.2-0.1-0.4c0-0.1-0.1-0.2-0.1-0.4c0-0.1-0.1-0.2-0.1-0.4
		c-0.8,0.1-1.6,0.4-2.3,0.8c-0.8,0.4-1.5,1-2.2,1.7c-0.7,0.7-1.4,1.6-2.1,2.6c-0.7,1-1.4,2.2-2,3.5l-8.7-4.1c0.5-0.9,1-1.7,1.5-2.5
		c0.5-0.8,1.1-1.6,1.8-2.3c0.6-0.7,1.3-1.5,2.1-2.2s1.5-1.4,2.3-2c0.9-0.7,1.8-1.3,2.7-1.9c0.9-0.5,1.8-1,2.7-1.4
		c0.9-0.4,1.8-0.7,2.7-0.9c0.9-0.2,1.8-0.3,2.7-0.3c0.7,0,1.4,0,2,0.1c0.6,0.1,1.2,0.3,1.8,0.5c0.5,0.2,1.1,0.5,1.5,0.9
		c0.5,0.4,0.9,0.8,1.3,1.2c0.3,0.4,0.6,0.9,0.9,1.4c0.3,0.5,0.5,1,0.6,1.6c0.2,0.6,0.3,1.2,0.4,1.8c0.1,0.6,0.1,1.3,0.1,2.1
		c0,1.2-0.1,2.5-0.3,3.8c-0.2,1.3-0.6,2.6-1.1,3.9c-0.5,1.3-1.1,2.7-1.8,4.1c-0.7,1.4-1.6,2.8-2.6,4.2c-0.1,0.2-0.3,0.4-0.5,0.7
		c-0.2,0.3-0.5,0.6-0.8,1c-0.3,0.4-0.6,0.8-1,1.3c-0.4,0.5-0.8,1-1.3,1.6c-0.5,0.6-1,1.2-1.5,1.8c-0.5,0.7-1.1,1.4-1.8,2.1
		c-0.6,0.8-1.3,1.6-2,2.4c-0.7,0.9-1.5,1.8-2.3,2.7c1.4,0.1,3,0.2,4.7,0.3c1.7,0.1,3.6,0.2,5.7,0.4c2.1,0.2,4.3,0.3,6.6,0.5
		c2.4,0.2,4.9,0.4,7.6,0.6l-1,9.3c-1.9-0.1-3.7-0.3-5.4-0.4s-3.5-0.3-5.1-0.4c-1.7-0.1-3.3-0.2-4.8-0.3c-1.6-0.1-3-0.2-4.5-0.3
		c-1-0.1-1.9-0.1-2.8-0.1c-0.9,0-1.8-0.1-2.8-0.1c-0.9,0-1.8-0.1-2.7-0.1c-0.9,0-1.7,0-2.6-0.1c4.8,5,9.4,10.2,13.7,15.6
		c4.4,5.4,8.5,11.1,12.4,16.9c3.9,5.8,7.6,11.9,11,18.1c3.4,6.2,6.6,12.6,9.5,19.1c0.5,0,1,0.1,1.5,0.1c0.5,0,1,0.1,1.4,0.1
		c0.5,0,0.9,0,1.4,0.1c0.4,0,0.9,0,1.3,0.1c0.7,0,1.4,0.1,2,0.1c0.6,0,1.2,0,1.8,0c0.6,0,1.1,0,1.7,0c0.5,0,1,0,1.5,0
		c-0.3,0.5-0.7,1-1.1,1.6c-0.4,0.6-0.9,1.2-1.4,1.8c-0.5,0.7-1,1.4-1.6,2.1c-0.6,0.7-1.2,1.5-1.8,2.3c-0.2,0.2-0.3,0.4-0.5,0.6
		c-0.2,0.2-0.3,0.4-0.5,0.7s-0.4,0.4-0.5,0.7c-0.2,0.2-0.4,0.5-0.6,0.7c2.5,6.5,4.7,13.2,6.7,19.9c2,6.8,3.6,13.7,5,20.7
		c1.4,7,2.4,14.2,3.2,21.5c0.8,7.3,1.2,14.6,1.3,22.1c0,1.2,0,2.5,0,3.7c0,1.2,0,2.5,0,3.7c0,1.2,0,2.4-0.1,3.7
		c0,1.2-0.1,2.4-0.1,3.7c2.3-6.5,4.4-13,6.2-19.7c1.8-6.7,3.4-13.4,4.6-20.3c1.3-6.9,2.3-13.8,3-20.8c0.7-7,1.1-14.1,1.3-21.3
		c0,0,0,0,0,0c0,0,0,0,0,0c0,0,0,0,0,0c0,0,0,0,0,0c0-0.1,0-0.1,0-0.2c0-0.1,0-0.1,0-0.2c0-0.1,0-0.1,0-0.2c0-0.1,0-0.1,0-0.2
		c0,0,0,0,0,0c0,0,0,0,0,0c0,0,0,0,0,0c0,0,0,0,0,0c0-0.1,0-0.1,0-0.2c0-0.1,0-0.1,0-0.2c0-0.1,0-0.1,0-0.2c0-0.1,0-0.1,0-0.2
		c0,0,0,0,0,0c0,0,0,0,0,0c0,0,0,0,0,0c0,0,0,0,0,0c0,0,0-0.1,0-0.2c0,0,0-0.1,0-0.2c0,0,0-0.1,0-0.2c0,0,0-0.1,0-0.2c0,0,0,0,0,0
		c0,0,0,0,0,0c0,0,0,0,0,0c0,0,0,0,0,0c0-0.2,0-0.3,0-0.5c0-0.2,0-0.3,0-0.5c0-0.2,0-0.3,0-0.5c0-0.2,0-0.3,0-0.5c0,0,0-0.1,0-0.1
		c0,0,0-0.1,0-0.1s0-0.1,0-0.1c0,0,0-0.1,0-0.1c0,0,0-0.1,0-0.1c0,0,0-0.1,0-0.1C1064.7,747.9,1064.7,747.8,1064.7,747.7
		C1064.7,747.8,1064.7,747.7,1064.7,747.7z M635.3,664.7c-0.2,0-0.5,0-0.8,0c-0.3,0-0.6,0-0.9,0c-0.3,0-0.6,0-1,0c-0.3,0-0.7,0-1,0
		c-0.4,0-0.7,0-1.1,0c-0.4,0-0.8,0-1.3,0c-0.4,0-0.9,0-1.4,0c-0.5,0-1,0-1.5,0c-0.5,0-1,0-1.5,0c-0.5,0-0.9,0-1.4,0
		c-0.4,0-0.9,0-1.3,0c-0.4,0-0.8,0-1.2,0c-0.4,0-0.7,0-1.1,0c-0.3,0-0.7,0-1,0c-0.3,0-0.6,0-0.9,0c-0.3,0-0.5,0-0.8,0
		c-0.4,0-0.9,0-1.3,0c-0.4,0-0.9,0-1.3,0.1c-0.4,0-0.9,0.1-1.3,0.1c-0.4,0-0.9,0.1-1.3,0.1c-0.4,0.1-0.9,0.1-1.3,0.2
		c-0.4,0.1-0.9,0.1-1.4,0.2c-0.5,0.1-0.9,0.2-1.4,0.2c-0.5,0.1-0.9,0.2-1.4,0.3l-1.3-8.6c1.2-0.3,2.3-0.5,3.3-0.7
		c1-0.2,1.9-0.4,2.7-0.5c0.8-0.1,1.5-0.2,2.1-0.3c0.6-0.1,1.1-0.1,1.5-0.1c0.1,0,0.2,0,0.3,0c0.1,0,0.2,0,0.3,0c0.1,0,0.2,0,0.3,0
		c0.1,0,0.2,0,0.2,0c0.1,0,0.2,0,0.2,0c0.1,0,0.2,0,0.2,0c0.1,0,0.2,0,0.2,0c0.1,0,0.2,0,0.3,0c0.1-2,0.1-3.9,0.3-5.8
		c0.1-1.9,0.2-3.8,0.4-5.6c0.2-1.8,0.3-3.7,0.5-5.4c0.2-1.8,0.4-3.5,0.7-5.3c-0.6,0.2-1.2,0.3-1.9,0.5c-0.7,0.1-1.4,0.3-2.1,0.3
		c-0.7,0.1-1.5,0.2-2.4,0.2c-0.8,0.1-1.7,0.1-2.6,0.1c-0.1,0-0.2,0-0.2,0c-0.1,0-0.2,0-0.2,0c-0.1,0-0.2,0-0.2,0c-0.1,0-0.2,0-0.2,0
		l0.2-8.6c1,0,2.1-0.1,3.4-0.3c1.3-0.2,2.7-0.4,4.3-0.8c1.6-0.3,3.4-0.7,5.3-1.2c1.9-0.5,4-1,6.2-1.7c-0.2,1.6-0.5,3.2-0.7,4.8
		c-0.2,1.6-0.4,3.1-0.6,4.6c-0.2,1.5-0.4,2.9-0.5,4.3c-0.2,1.4-0.3,2.8-0.4,4.1c-0.1,1.3-0.2,2.6-0.3,3.9c-0.1,1.3-0.2,2.5-0.3,3.7
		c-0.1,1.2-0.1,2.4-0.2,3.6c0,1.2-0.1,2.3-0.1,3.4l0,1.7c0.6,0,1.2,0,1.9,0.1c0.7,0,1.5,0,2.3,0c0.8,0,1.8,0,2.8,0
		c1,0,2.1,0,3.2-0.1L635.3,664.7z M703,587.7c-0.2,0-0.5,0-0.8,0c-0.3,0-0.6,0-0.9,0c-0.3,0-0.6,0-1,0s-0.7,0-1.1,0
		c-0.4,0-0.8,0-1.2,0c-0.4,0-0.8,0-1.3,0c-0.4,0-0.9,0-1.4,0c-0.5,0-1,0-1.5,0c-0.5,0-1,0-1.5,0c-0.5,0-1,0-1.4,0
		c-0.4,0-0.9,0-1.3,0c-0.4,0-0.8,0-1.2,0c-0.4,0-0.7,0-1.1,0c-0.3,0-0.7,0-1,0s-0.6,0-0.9,0c-0.3,0-0.5,0-0.8,0
		c-0.5,0-0.9,0-1.4,0.1c-0.5,0-0.9,0.1-1.4,0.1c-0.5,0-0.9,0.1-1.4,0.1c-0.5,0.1-0.9,0.1-1.4,0.2c-0.5,0.1-0.9,0.1-1.4,0.2
		c-0.5,0.1-0.9,0.2-1.4,0.2c-0.5,0.1-0.9,0.2-1.4,0.3c-0.5,0.1-0.9,0.2-1.4,0.3l-1.4-8.6c1.2-0.3,2.4-0.5,3.4-0.7
		c1-0.2,1.9-0.4,2.8-0.5c0.8-0.1,1.5-0.3,2.1-0.3c0.6-0.1,1.1-0.1,1.5-0.1c0.1,0,0.2,0,0.3,0c0.1,0,0.2,0,0.3,0c0.1,0,0.2,0,0.3,0
		c0.1,0,0.2,0,0.2,0c0.1,0,0.2,0,0.2,0c0.1,0,0.2,0,0.2,0c0.1,0,0.2,0,0.3,0c0.1,0,0.2,0,0.3,0c0.1-2,0.1-3.9,0.2-5.8
		c0.1-1.9,0.2-3.8,0.4-5.6c0.1-1.8,0.3-3.7,0.5-5.4c0.2-1.8,0.4-3.5,0.7-5.3c-0.6,0.2-1.2,0.3-1.9,0.5c-0.7,0.1-1.4,0.3-2.2,0.4
		c-0.8,0.1-1.6,0.2-2.4,0.3s-1.7,0.1-2.7,0.2c-0.1,0-0.2,0-0.2,0s-0.2,0-0.2,0c-0.1,0-0.2,0-0.2,0c-0.1,0-0.2,0-0.2,0l0.2-8.6
		c1,0,2.2-0.2,3.5-0.4c1.3-0.2,2.8-0.5,4.4-0.9c1.6-0.4,3.4-0.8,5.4-1.3c1.9-0.5,4-1.1,6.3-1.8c-0.2,1.6-0.4,3.2-0.6,4.8
		c-0.2,1.6-0.4,3.1-0.6,4.6c-0.2,1.5-0.3,2.9-0.5,4.3c-0.2,1.4-0.3,2.8-0.4,4.1c-0.1,1.3-0.2,2.6-0.3,3.9c-0.1,1.3-0.2,2.5-0.2,3.7
		c-0.1,1.2-0.1,2.4-0.2,3.6c0,1.2-0.1,2.3-0.1,3.4l0,1.7c0.6,0,1.2,0,1.9,0c0.7,0,1.5,0,2.4,0c0.9,0,1.8,0,2.8-0.1
		c1,0,2.1-0.1,3.3-0.1L703,587.7z M738.1,586.3c-0.3,0-0.5,0-0.8,0c-0.3,0-0.6,0-0.9,0c-0.3,0-0.6,0-1,0c-0.3,0-0.7,0-1.1,0
		c-0.4,0-0.8,0-1.2,0c-0.4,0-0.9,0-1.3,0c-0.5,0-0.9,0-1.4,0c-0.5,0-1,0-1.5,0c-0.5,0-1,0-1.5,0c-0.5,0-1,0-1.4,0
		c-0.5,0-0.9,0-1.3,0c-0.4,0-0.8,0-1.2,0c-0.4,0-0.8,0-1.1,0c-0.3,0-0.7,0-1,0c-0.3,0-0.6,0-0.9,0s-0.6,0-0.8,0
		c-0.5,0-0.9,0-1.4,0.1c-0.5,0-0.9,0.1-1.4,0.1c-0.5,0-0.9,0.1-1.4,0.1c-0.5,0.1-0.9,0.1-1.4,0.2c-0.5,0.1-0.9,0.1-1.4,0.2
		c-0.5,0.1-0.9,0.2-1.4,0.2c-0.5,0.1-0.9,0.2-1.4,0.3c-0.5,0.1-0.9,0.2-1.4,0.3l-1.4-8.6c1.3-0.3,2.4-0.5,3.4-0.7
		c1-0.2,2-0.4,2.8-0.5c0.8-0.1,1.5-0.3,2.2-0.3c0.6-0.1,1.1-0.1,1.5-0.1c0.1,0,0.2,0,0.3,0c0.1,0,0.2,0,0.3,0c0.1,0,0.2,0,0.3,0
		c0.1,0,0.2,0,0.3,0c0.1,0,0.2,0,0.2,0c0.1,0,0.2,0,0.2,0c0.1,0,0.2,0,0.3,0c0.1,0,0.2,0,0.3,0c0-2,0.1-3.9,0.2-5.8
		c0.1-1.9,0.2-3.8,0.4-5.7c0.1-1.9,0.3-3.7,0.5-5.5c0.2-1.8,0.4-3.6,0.7-5.3c-0.6,0.2-1.2,0.3-1.9,0.5c-0.7,0.1-1.4,0.3-2.2,0.4
		c-0.8,0.1-1.6,0.2-2.5,0.3c-0.9,0.1-1.8,0.1-2.7,0.2c-0.1,0-0.2,0-0.2,0c-0.1,0-0.2,0-0.2,0c-0.1,0-0.2,0-0.2,0c-0.1,0-0.2,0-0.2,0
		l0.2-8.7c1-0.1,2.2-0.2,3.6-0.4c1.3-0.2,2.8-0.5,4.5-0.9c1.7-0.4,3.5-0.8,5.4-1.3c2-0.5,4.1-1.1,6.4-1.8c-0.2,1.7-0.4,3.3-0.6,4.8
		c-0.2,1.6-0.4,3.1-0.6,4.6c-0.2,1.5-0.3,3-0.5,4.4c-0.1,1.4-0.3,2.8-0.4,4.1c-0.1,1.3-0.2,2.7-0.3,3.9c-0.1,1.3-0.2,2.5-0.2,3.8
		c-0.1,1.2-0.1,2.4-0.1,3.6c0,1.2-0.1,2.3-0.1,3.4l0,1.8c0.6,0,1.2,0,2,0c0.7,0,1.5,0,2.4,0c0.9,0,1.8,0,2.9-0.1
		c1,0,2.1-0.1,3.3-0.1L738.1,586.3z M802,555.7c-0.3,0-0.5,0-0.8,0c-0.3,0-0.6,0-0.9,0c-0.3,0-0.7,0-1,0c-0.4,0-0.7,0-1.1,0
		c-0.4,0-0.8,0-1.2,0c-0.4,0-0.9,0-1.3,0c-0.5,0-0.9,0-1.5,0c-0.5,0-1,0-1.6,0c-0.5,0-1.1,0-1.6,0c-0.5,0-1,0-1.5,0
		c-0.5,0-0.9,0-1.3,0c-0.4,0-0.8,0-1.2,0c-0.4,0-0.8,0-1.1,0c-0.4,0-0.7,0-1,0c-0.3,0-0.6,0-0.9,0c-0.3,0-0.6,0-0.8,0
		c-0.5,0-0.9,0-1.4,0.1c-0.5,0-1,0.1-1.4,0.1c-0.5,0-1,0.1-1.4,0.2c-0.5,0.1-0.9,0.1-1.4,0.2c-0.5,0.1-1,0.1-1.4,0.2
		c-0.5,0.1-1,0.2-1.4,0.3c-0.5,0.1-1,0.2-1.4,0.3c-0.5,0.1-1,0.2-1.5,0.3l-1.5-8.7c1.3-0.3,2.5-0.5,3.5-0.8c1.1-0.2,2-0.4,2.9-0.6
		c0.8-0.2,1.6-0.3,2.2-0.4c0.6-0.1,1.1-0.1,1.6-0.2c0.1,0,0.2,0,0.3,0c0.1,0,0.2,0,0.3,0c0.1,0,0.2,0,0.3,0c0.1,0,0.2,0,0.3,0
		c0.1,0,0.2,0,0.3,0c0.1,0,0.2,0,0.3,0c0.1,0,0.2,0,0.3,0c0.1,0,0.2,0,0.3,0c0-2,0.1-3.9,0.2-5.9c0.1-1.9,0.2-3.8,0.3-5.7
		c0.1-1.9,0.3-3.7,0.5-5.5c0.2-1.8,0.4-3.6,0.6-5.4c-0.6,0.2-1.3,0.4-2,0.5c-0.7,0.2-1.5,0.3-2.3,0.4c-0.8,0.1-1.6,0.2-2.5,0.3
		c-0.9,0.1-1.8,0.2-2.8,0.2c-0.1,0-0.1,0-0.2,0c-0.1,0-0.1,0-0.2,0c-0.1,0-0.2,0-0.2,0c-0.1,0-0.2,0-0.2,0l0.1-8.8
		c1.1-0.1,2.3-0.2,3.7-0.4c1.4-0.2,2.9-0.5,4.6-0.9c1.7-0.4,3.6-0.8,5.6-1.4c2-0.5,4.2-1.2,6.6-1.9c-0.2,1.7-0.4,3.3-0.6,4.9
		c-0.2,1.6-0.4,3.1-0.5,4.7c-0.2,1.5-0.3,3-0.5,4.4c-0.1,1.4-0.3,2.8-0.4,4.2c-0.1,1.4-0.2,2.7-0.3,4c-0.1,1.3-0.2,2.6-0.2,3.8
		c-0.1,1.2-0.1,2.5-0.1,3.6c0,1.2,0,2.3,0,3.5l0,1.8c0.6,0,1.3,0,2,0c0.7,0,1.6,0,2.5,0c0.9,0,1.9-0.1,2.9-0.1
		c1.1,0,2.2-0.1,3.4-0.1L802,555.7z M839,555.1c-1.7-0.1-3.4-0.2-5-0.3c-1.6-0.1-3.2-0.2-4.7-0.2c-1.5-0.1-3-0.1-4.4-0.2
		c-1.4-0.1-2.8-0.1-4.1-0.1c-1.3,0-2.6-0.1-3.9-0.1c-1.3,0-2.5,0-3.7,0c-1.2,0-2.4,0-3.6,0c-1.2,0-2.3,0-3.4,0.1l-0.4-6.2
		c0.9-1.2,1.8-2.3,2.6-3.3c0.8-1,1.5-2,2.2-2.9c0.7-0.9,1.3-1.7,1.9-2.5c0.6-0.8,1.1-1.4,1.6-2.1c0.5-0.6,0.9-1.2,1.3-1.6
		c0.4-0.5,0.7-0.9,0.9-1.2c0.3-0.3,0.5-0.6,0.6-0.8c0.2-0.2,0.3-0.3,0.3-0.4c1.3-1.8,2.4-3.4,3.4-5c1-1.5,1.8-3,2.4-4.3
		c0.6-1.3,1.1-2.5,1.4-3.6c0.3-1.1,0.5-2,0.5-2.9c0-0.1,0-0.2,0-0.3c0-0.1,0-0.2,0-0.3c0-0.1,0-0.2-0.1-0.3c0-0.1-0.1-0.2-0.1-0.3
		c-0.7,0.1-1.4,0.4-2.2,0.8c-0.7,0.4-1.4,1-2.1,1.7c-0.7,0.7-1.4,1.5-2,2.5c-0.7,1-1.3,2.1-1.9,3.4l-7.9-3.7
		c0.4-0.8,0.9-1.6,1.4-2.4c0.5-0.8,1.1-1.5,1.7-2.2c0.6-0.7,1.2-1.4,1.9-2.1c0.7-0.7,1.4-1.3,2.2-1.9c0.8-0.7,1.7-1.3,2.5-1.8
		c0.8-0.5,1.7-1,2.5-1.3c0.8-0.4,1.7-0.7,2.5-0.9c0.8-0.2,1.7-0.3,2.5-0.4c0.7,0,1.3,0,1.9,0.1c0.6,0.1,1.1,0.2,1.6,0.4
		c0.5,0.2,1,0.5,1.4,0.8c0.4,0.3,0.8,0.7,1.1,1.2c0.3,0.4,0.6,0.8,0.8,1.3c0.2,0.5,0.4,1,0.6,1.5c0.1,0.5,0.3,1.1,0.3,1.7
		c0.1,0.6,0.1,1.3,0.1,1.9c0,1.2-0.1,2.4-0.4,3.6c-0.2,1.2-0.6,2.5-1.1,3.7c-0.5,1.3-1,2.6-1.7,3.9c-0.7,1.3-1.5,2.7-2.4,4
		c-0.1,0.2-0.3,0.4-0.5,0.7c-0.2,0.3-0.5,0.6-0.7,1c-0.3,0.4-0.6,0.8-1,1.2c-0.4,0.5-0.8,1-1.2,1.5c-0.4,0.5-0.9,1.1-1.4,1.8
		c-0.5,0.6-1.1,1.3-1.7,2.1c-0.6,0.7-1.2,1.5-1.9,2.3c-0.7,0.8-1.4,1.7-2.1,2.6c1.3,0,2.7,0.1,4.3,0.2c1.6,0.1,3.3,0.2,5.2,0.3
		c1.9,0.1,3.9,0.2,6.1,0.4c2.2,0.1,4.5,0.3,7,0.5L839,555.1z M928.5,578.6c-0.3,0-0.6,0-1,0c-0.3,0-0.7,0-1.1,0c-0.4,0-0.8,0-1.2,0
		c-0.4,0-0.8,0-1.3,0c-0.5,0-0.9,0-1.4,0c-0.5,0-1,0-1.5,0c-0.5,0-1.1,0-1.7,0c-0.6,0-1.1,0-1.7,0c-0.5,0-1,0-1.5,0
		c-0.5,0-1,0-1.4,0c-0.5,0-0.9,0-1.3,0c-0.4,0-0.8,0-1.2,0c-0.4,0-0.7,0-1.1,0c-0.3,0-0.7,0-1,0c-0.3,0-0.6,0-0.9,0
		c-0.5,0-1,0-1.5,0.1c-0.5,0-1,0.1-1.5,0.1c-0.5,0-1,0.1-1.5,0.1c-0.5,0.1-1,0.1-1.5,0.2c-0.5,0.1-1,0.1-1.5,0.2
		c-0.5,0.1-1,0.2-1.5,0.3c-0.5,0.1-1,0.2-1.5,0.3c-0.5,0.1-1,0.2-1.5,0.3l-1.7-9c1.4-0.3,2.6-0.6,3.7-0.8c1.1-0.2,2.1-0.4,3-0.6
		c0.9-0.2,1.7-0.3,2.3-0.4c0.7-0.1,1.2-0.1,1.6-0.2c0.1,0,0.2,0,0.3,0c0.1,0,0.2,0,0.3,0c0.1,0,0.2,0,0.3,0c0.1,0,0.2,0,0.3,0
		c0.1,0,0.2,0,0.3,0c0.1,0,0.2,0,0.3,0c0.1,0,0.2,0,0.3,0c0.1,0,0.2,0,0.3,0c0-2,0-4.1,0.1-6.1c0.1-2,0.2-4,0.3-5.9
		c0.1-1.9,0.3-3.8,0.4-5.7c0.2-1.9,0.4-3.7,0.6-5.5c-0.7,0.2-1.3,0.4-2.1,0.5c-0.7,0.2-1.5,0.3-2.4,0.4c-0.8,0.1-1.7,0.2-2.7,0.3
		c-0.9,0.1-1.9,0.1-2.9,0.2c-0.1,0-0.2,0-0.3,0c-0.1,0-0.2,0-0.3,0c-0.1,0-0.2,0-0.3,0c-0.1,0-0.2,0-0.3,0l0-9.1
		c1.1-0.1,2.4-0.2,3.9-0.4c1.5-0.2,3.1-0.5,4.9-0.9c1.8-0.4,3.8-0.8,5.9-1.4c2.1-0.5,4.4-1.2,6.9-1.9c-0.2,1.7-0.4,3.4-0.6,5
		c-0.2,1.6-0.4,3.2-0.5,4.8c-0.2,1.6-0.3,3.1-0.4,4.6c-0.1,1.5-0.3,2.9-0.4,4.3c-0.1,1.4-0.2,2.8-0.3,4.1c-0.1,1.3-0.1,2.7-0.2,3.9
		c0,1.3-0.1,2.5-0.1,3.8c0,1.2,0,2.4,0,3.6l0,1.8c0.6,0,1.3,0,2.1,0c0.8,0,1.7,0,2.6,0c1,0,2,0,3.1-0.1c1.1,0,2.3-0.1,3.6-0.1l0,8.7
		C929.1,578.6,928.8,578.6,928.5,578.6z"/>
</g>
<path class="st14" d="M1118.2,743.6c-0.9-43.7-11.1-84.8-28.4-121.5c-17.1-36.2-41.2-68-70.3-93.9c-28.6-25.4-61.9-45.1-98.3-57.6
	c-35.7-12.3-74.2-17.7-114-15.1c-19.7,1.3-38.8,4.6-57.1,9.5c-18.2,4.9-35.6,11.5-52.2,19.5c-16.5,8-32,17.5-46.6,28.2
	c-14.5,10.7-28,22.7-40.3,35.7c12.1-11.9,25.3-22.8,39.3-32.6c14.1-9.8,29-18.4,44.8-25.7c15.8-7.3,32.4-13.3,49.7-17.7
	c17.4-4.5,35.5-7.4,54.1-8.6c39.7-2.6,78.1,2.9,113.7,15.3c36.2,12.6,69.5,32.3,97.9,57.8c29,25.9,52.9,57.8,70,94
	c17.3,36.7,27.3,77.8,28.2,121.5c0.4,21.9-1.5,43.4-5.5,64.2c-4,20.8-10.2,40.9-18.3,60.1c-8.1,19.1-18.1,37.2-29.7,54.1
	c-11.6,16.8-24.9,32.4-39.5,46.5c16-14.2,30.6-30,43.4-47.3c12.8-17.4,23.8-36.1,32.7-56.1c8.9-19.9,15.8-41,20.3-62.8
	C1116.6,789.2,1118.7,766.6,1118.2,743.6z"/>
<g>
	<path class="st10" d="M817.3,968c-0.4-1.1-0.9-2.1-1.5-3c-0.6-1-1.3-1.9-2.1-2.8c-0.8-0.9-1.6-1.7-2.5-2.4
		c-0.9-0.7-1.8-1.3-2.8-1.8c-1-0.5-2-0.9-3-1.1c-1.1-0.3-2.2-0.4-3.3-0.5c-0.6,0-1.2,0-1.8,0.1c-0.6,0.1-1.1,0.2-1.7,0.4
		c-0.5,0.2-1,0.4-1.5,0.7c-0.5,0.3-1,0.6-1.4,1c0.7-2.1,1.6-4.1,2.7-6.2c1.1-2.1,2.3-4.2,3.8-6.3c1.4-2.1,3-4.2,4.8-6.4
		c1.8-2.1,3.7-4.3,5.9-6.5l-6.5-6.9c-1.6,1.6-3.1,3.1-4.5,4.8s-2.8,3.3-4,5c-1.3,1.7-2.4,3.5-3.5,5.2c-1.1,1.8-2.1,3.6-3,5.5
		c-1,2.1-1.9,4.1-2.7,6.2c-0.8,2.1-1.4,4.1-2,6.2c-0.5,2.1-0.9,4.2-1.2,6.2c-0.3,2.1-0.4,4.2-0.4,6.3c0,1.4,0.1,2.7,0.2,4
		c0.2,1.3,0.4,2.5,0.8,3.6c0.4,1.2,0.8,2.2,1.4,3.3c0.5,1,1.2,2,1.9,2.9c0.8,1,1.6,1.9,2.5,2.7c0.9,0.8,1.9,1.5,2.9,2
		c1,0.5,2.1,1,3.3,1.3c1.1,0.3,2.4,0.5,3.6,0.5c1.2,0.1,2.3,0,3.4-0.2c1.1-0.2,2.1-0.5,3.1-0.8c1-0.4,1.9-0.9,2.8-1.5
		c0.9-0.6,1.8-1.4,2.6-2.2c0.8-0.8,1.6-1.7,2.2-2.6c0.6-0.9,1.2-1.9,1.6-2.9c0.4-1,0.7-2.1,1-3.2c0.2-1.1,0.3-2.3,0.3-3.6
		c0-1.2-0.1-2.4-0.3-3.5C818,970.2,817.7,969.1,817.3,968z M809.8,975.5c0,0.3-0.1,0.5-0.1,0.8c-0.1,0.3-0.1,0.5-0.2,0.8
		c-0.1,0.3-0.2,0.5-0.3,0.8c-0.1,0.2-0.2,0.5-0.3,0.7c-0.1,0.2-0.3,0.5-0.4,0.7c-0.1,0.2-0.3,0.4-0.5,0.6c-0.2,0.2-0.3,0.4-0.5,0.6
		c-0.2,0.2-0.4,0.4-0.6,0.5c-0.2,0.2-0.4,0.3-0.6,0.5c-0.2,0.1-0.4,0.3-0.6,0.4c-0.2,0.1-0.5,0.2-0.7,0.3c-0.2,0.1-0.5,0.2-0.7,0.3
		c-0.2,0.1-0.5,0.1-0.7,0.2c-0.2,0-0.5,0.1-0.8,0.1c-0.3,0-0.5,0-0.8,0c-0.3,0-0.6,0-0.8-0.1c-0.3,0-0.5-0.1-0.8-0.2
		c-0.3-0.1-0.5-0.2-0.8-0.3c-0.3-0.1-0.5-0.2-0.8-0.3c-0.2-0.1-0.5-0.3-0.7-0.4c-0.2-0.1-0.5-0.3-0.7-0.5c-0.2-0.2-0.4-0.3-0.6-0.5
		c-0.2-0.2-0.4-0.4-0.6-0.6c-0.2-0.2-0.4-0.4-0.5-0.6c-0.2-0.2-0.3-0.4-0.5-0.7c-0.1-0.2-0.3-0.5-0.4-0.7c-0.1-0.3-0.2-0.5-0.3-0.8
		c-0.1-0.3-0.2-0.5-0.3-0.8c-0.1-0.3-0.1-0.6-0.2-0.8c-0.1-0.3-0.1-0.6-0.1-0.9c0-0.3,0-0.6,0-0.9c0-0.6,0.1-1.1,0.2-1.7
		c0.1-0.5,0.2-1,0.4-1.5c0.2-0.5,0.4-0.9,0.7-1.3c0.3-0.4,0.6-0.8,1-1.2c0.4-0.4,0.8-0.7,1.2-1c0.4-0.3,0.9-0.5,1.4-0.7
		c0.5-0.2,1-0.3,1.5-0.4c0.5-0.1,1.1-0.1,1.6-0.1c0.3,0,0.6,0,0.8,0.1c0.3,0,0.5,0.1,0.8,0.2c0.3,0.1,0.5,0.1,0.8,0.2
		s0.5,0.2,0.7,0.3c0.2,0.1,0.5,0.3,0.7,0.4c0.2,0.1,0.4,0.3,0.7,0.5c0.2,0.2,0.4,0.3,0.6,0.5c0.2,0.2,0.4,0.4,0.6,0.6
		c0.2,0.2,0.4,0.4,0.5,0.6c0.2,0.2,0.3,0.4,0.5,0.7c0.1,0.2,0.3,0.5,0.4,0.7c0.1,0.2,0.2,0.5,0.3,0.8c0.1,0.3,0.2,0.5,0.3,0.8
		c0.1,0.3,0.1,0.5,0.2,0.8c0,0.3,0.1,0.6,0.1,0.8c0,0.3,0,0.6,0,0.9C809.8,975,809.8,975.3,809.8,975.5z"/>
	<path class="st10" d="M610,761.6c0.8-1.6,1.5-3.3,2.2-5c0.6-1.7,1.2-3.4,1.6-5.1c0.4-1.7,0.8-3.5,1-5.3c0.2-1.8,0.4-3.6,0.4-5.4
		c0-1.2,0-2.4-0.2-3.6c-0.1-1.1-0.4-2.2-0.7-3.3c-0.3-1-0.7-2-1.2-3c-0.5-1-1-1.9-1.6-2.7c-0.7-0.9-1.4-1.7-2.2-2.3
		c-0.8-0.7-1.7-1.2-2.6-1.6c-0.9-0.4-1.9-0.8-2.9-1c-1-0.2-2.1-0.3-3.3-0.3c-0.2,0-0.4,0-0.6,0c-0.2,0-0.4,0-0.6,0
		c-0.2,0-0.4,0-0.6,0.1c-0.2,0-0.4,0.1-0.6,0.1c-0.8,0.1-1.6,0.3-2.3,0.6c-0.7,0.3-1.5,0.6-2.2,1c-0.7,0.4-1.4,0.9-2,1.4
		c-0.7,0.5-1.3,1.1-1.9,1.8c-0.8,0.8-1.4,1.6-2,2.5c-0.6,0.9-1.1,1.8-1.4,2.7c-0.4,1-0.7,1.9-0.9,3c-0.2,1-0.3,2.1-0.4,3.2
		c0,1,0,1.9,0.1,2.9c0.1,0.9,0.3,1.8,0.6,2.7c0.3,0.9,0.6,1.7,1,2.5s0.9,1.6,1.4,2.3c0.1,0.1,0.1,0.2,0.2,0.2
		c0.1,0.1,0.1,0.2,0.2,0.2c0.1,0.1,0.1,0.2,0.2,0.2s0.1,0.2,0.2,0.2c0.7,0.8,1.4,1.5,2.2,2.1c0.8,0.6,1.6,1.1,2.5,1.5
		c0.9,0.4,1.8,0.7,2.7,0.9c1,0.2,2,0.3,3,0.3c0.5,0,1,0,1.5-0.1c0.5-0.1,1-0.2,1.4-0.4c0.5-0.2,0.9-0.4,1.4-0.6
		c0.4-0.2,0.9-0.5,1.3-0.8c-0.6,1.4-1.3,2.9-2.2,4.4c-0.9,1.5-1.9,3.1-3,4.7c-1.1,1.6-2.4,3.2-3.8,4.9c-1.4,1.7-3,3.4-4.7,5.2
		l5.7,6.2c1.4-1.5,2.8-2.9,4-4.3c1.2-1.4,2.4-2.9,3.5-4.3c1.1-1.4,2.1-2.9,2.9-4.3C608.5,764.4,609.3,763,610,761.6z M607.2,740
		c0,0.2-0.1,0.5-0.1,0.7c-0.1,0.2-0.1,0.5-0.2,0.7c-0.1,0.2-0.2,0.5-0.3,0.7c-0.1,0.2-0.2,0.4-0.3,0.7c-0.1,0.2-0.2,0.4-0.4,0.6
		c-0.1,0.2-0.3,0.4-0.4,0.6c-0.2,0.2-0.3,0.4-0.5,0.5c-0.2,0.2-0.3,0.3-0.5,0.5c-0.2,0.2-0.4,0.3-0.6,0.4c-0.2,0.1-0.4,0.3-0.6,0.4
		c-0.2,0.1-0.4,0.2-0.6,0.3c-0.2,0.1-0.4,0.2-0.7,0.3c-0.2,0.1-0.5,0.1-0.7,0.2c-0.2,0-0.5,0.1-0.7,0.1c-0.2,0-0.5,0-0.7,0
		c-0.3,0-0.5,0-0.7,0c-0.2,0-0.5-0.1-0.7-0.1c-0.2-0.1-0.5-0.1-0.7-0.2c-0.2-0.1-0.4-0.2-0.6-0.3c-0.2-0.1-0.4-0.2-0.6-0.3
		c-0.2-0.1-0.4-0.3-0.6-0.4c-0.2-0.1-0.4-0.3-0.5-0.4c-0.2-0.2-0.3-0.3-0.5-0.5c-0.2-0.2-0.3-0.4-0.4-0.6c-0.1-0.2-0.3-0.4-0.4-0.6
		c-0.1-0.2-0.2-0.4-0.3-0.7c-0.1-0.2-0.2-0.5-0.3-0.7c-0.1-0.2-0.2-0.5-0.2-0.7c-0.1-0.2-0.1-0.5-0.1-0.8c0-0.3-0.1-0.5-0.1-0.8
		c0-0.3,0-0.5,0-0.8c0-0.2,0-0.5,0.1-0.7c0-0.2,0.1-0.5,0.1-0.7c0.1-0.2,0.1-0.5,0.2-0.7c0.1-0.2,0.2-0.5,0.3-0.7
		c0.1-0.2,0.2-0.5,0.3-0.7c0.1-0.2,0.2-0.4,0.4-0.6c0.1-0.2,0.3-0.4,0.4-0.6c0.1-0.2,0.3-0.4,0.4-0.5c0.2-0.2,0.3-0.3,0.5-0.5
		c0.2-0.2,0.3-0.3,0.5-0.4c0.2-0.1,0.4-0.3,0.6-0.4c0.2-0.1,0.4-0.2,0.6-0.3c0.2-0.1,0.4-0.2,0.6-0.3c0.2-0.1,0.4-0.1,0.7-0.2
		c0.2-0.1,0.5-0.1,0.7-0.1c0.2,0,0.5,0,0.7,0c0.3,0,0.5,0,0.7,0c0.2,0,0.5,0.1,0.7,0.1c0.2,0.1,0.5,0.1,0.7,0.2
		c0.2,0.1,0.5,0.2,0.7,0.3c0.2,0.1,0.4,0.2,0.6,0.3c0.2,0.1,0.4,0.3,0.6,0.4c0.2,0.1,0.4,0.3,0.6,0.5c0.2,0.2,0.4,0.3,0.5,0.5
		c0.2,0.2,0.3,0.4,0.5,0.6c0.1,0.2,0.3,0.4,0.4,0.6c0.1,0.2,0.2,0.4,0.4,0.7c0.1,0.2,0.2,0.5,0.3,0.7c0.1,0.2,0.2,0.5,0.2,0.7
		c0.1,0.2,0.1,0.5,0.2,0.8c0,0.3,0.1,0.5,0.1,0.8c0,0.3,0,0.5,0,0.8C607.3,739.5,607.3,739.8,607.2,740z"/>
	<path class="st10" d="M641.6,847.5c-0.6-1.3-1.4-2.4-2.4-3.4c-1-1-2.1-1.9-3.4-2.6c0.9-0.5,1.7-1.1,2.4-1.8
		c0.7-0.7,1.3-1.5,1.7-2.3c0.5-0.9,0.8-1.8,1.1-2.8c0.2-1,0.4-2.1,0.4-3.3c0-1.1,0-2.2-0.2-3.2c-0.1-1-0.4-2-0.7-2.9
		c-0.3-0.9-0.7-1.8-1.1-2.6c-0.5-0.8-1-1.6-1.6-2.3c-0.6-0.7-1.3-1.4-2-1.9c-0.7-0.5-1.5-1-2.3-1.4c-0.8-0.4-1.7-0.6-2.6-0.8
		c-0.9-0.2-1.9-0.3-2.9-0.3c-1.1,0-2.1,0.1-3.2,0.2c-1,0.2-2,0.4-3,0.8c-1,0.3-1.9,0.8-2.8,1.3c-0.9,0.5-1.8,1.1-2.6,1.9
		c-0.9,0.8-1.7,1.6-2.4,2.4c-0.7,0.8-1.3,1.7-1.8,2.6c-0.5,0.9-0.8,1.9-1.1,2.9c-0.3,1-0.4,2.1-0.4,3.2c0,1.2,0.1,2.3,0.3,3.4
		c0.3,1.1,0.7,2.1,1.2,3c0.5,0.9,1.2,1.8,2.1,2.6c0.8,0.8,1.8,1.5,2.9,2.1c-0.4,0.2-0.7,0.4-1.1,0.6c-0.3,0.2-0.7,0.5-1,0.7
		c-0.3,0.3-0.6,0.5-0.9,0.8c-0.3,0.3-0.6,0.6-0.9,0.9c-0.3,0.3-0.6,0.6-0.8,1c-0.3,0.3-0.5,0.7-0.8,1c-0.2,0.3-0.5,0.7-0.7,1.1
		c-0.2,0.4-0.4,0.7-0.6,1.1c-0.2,0.4-0.4,0.8-0.6,1.2c-0.2,0.4-0.4,0.8-0.5,1.2c-0.2,0.4-0.3,0.8-0.4,1.2c-0.1,0.4-0.3,0.8-0.4,1.3
		c-0.1,0.4-0.2,0.9-0.3,1.3c-0.1,0.4-0.2,0.9-0.2,1.3c-0.1,0.4-0.1,0.9-0.2,1.3c0,0.4-0.1,0.9-0.1,1.3c0,1.2,0,2.4,0.2,3.4
		c0.2,1.1,0.5,2.1,0.9,3.1c0.4,1,0.9,1.9,1.6,2.8c0.6,0.9,1.4,1.7,2.2,2.4c0.8,0.7,1.6,1.3,2.5,1.8c0.9,0.5,1.8,1,2.8,1.3
		c1,0.4,2,0.6,3.1,0.8c1.1,0.2,2.2,0.3,3.4,0.3c1.4,0,2.7,0,3.9-0.2c1.2-0.2,2.4-0.5,3.6-0.9c1.1-0.4,2.2-1,3.2-1.6
		c1-0.7,2-1.4,2.9-2.3c0.9-0.9,1.7-1.8,2.4-2.8c0.7-1,1.3-2.1,1.8-3.2c0.5-1.2,0.8-2.4,1.1-3.7c0.3-1.3,0.4-2.7,0.4-4.1
		c0-1.8-0.1-3.4-0.4-4.9C642.7,850.2,642.3,848.8,641.6,847.5z M619,829.3c0.1-0.4,0.4-0.8,0.6-1.2c0.3-0.4,0.6-0.8,1-1.1
		c0.4-0.3,0.9-0.7,1.4-1c0.5-0.3,0.9-0.5,1.4-0.7c0.5-0.2,0.9-0.4,1.4-0.5c0.5-0.1,0.9-0.2,1.4-0.3c0.5-0.1,1-0.1,1.4-0.1
		c1,0,1.8,0.1,2.5,0.4c0.7,0.2,1.3,0.6,1.8,1.1c0.5,0.5,0.8,1.1,1,1.8c0.2,0.7,0.3,1.6,0.3,2.5c0,0.5-0.1,1-0.2,1.5
		c-0.1,0.5-0.3,0.9-0.5,1.3c-0.2,0.4-0.5,0.8-0.8,1.2c-0.3,0.4-0.7,0.7-1.2,1.1c-0.4,0.3-0.7,0.5-1.1,0.7c-0.4,0.2-0.8,0.4-1.3,0.5
		c-0.4,0.1-0.9,0.2-1.4,0.3c-0.5,0.1-1,0.1-1.6,0.1c-0.5,0-0.9,0-1.3-0.1c-0.4-0.1-0.8-0.2-1.2-0.3c-0.4-0.1-0.8-0.3-1.1-0.5
		c-0.3-0.2-0.7-0.4-1-0.7c-0.3-0.3-0.6-0.6-0.8-0.9c-0.2-0.3-0.4-0.7-0.6-1.1c-0.2-0.4-0.3-0.8-0.3-1.2c-0.1-0.4-0.1-0.9-0.1-1.4
		C618.8,830.1,618.9,829.7,619,829.3z M635.2,858c-0.2,0.7-0.4,1.4-0.7,2.1c-0.3,0.7-0.6,1.3-1.1,1.9c-0.4,0.6-0.9,1.2-1.5,1.7
		c-0.6,0.5-1.1,0.9-1.8,1.3c-0.6,0.4-1.2,0.7-1.9,0.9c-0.7,0.2-1.3,0.4-2,0.5c-0.7,0.1-1.4,0.2-2.2,0.1c-0.6,0-1.1-0.1-1.7-0.2
		c-0.5-0.1-1-0.2-1.5-0.4c-0.5-0.2-0.9-0.4-1.3-0.6c-0.4-0.2-0.8-0.5-1.1-0.8c-0.4-0.3-0.7-0.7-1-1.1c-0.3-0.4-0.5-0.8-0.7-1.3
		c-0.2-0.5-0.3-0.9-0.4-1.4c-0.1-0.5-0.1-1-0.1-1.6c0-0.7,0.1-1.5,0.3-2.2c0.2-0.7,0.4-1.4,0.7-2.1c0.3-0.7,0.6-1.4,1-2.1
		c0.4-0.7,0.9-1.4,1.4-2c0.5-0.7,1.1-1.3,1.7-1.8c0.6-0.5,1.2-0.9,1.8-1.3c0.6-0.3,1.2-0.6,1.9-0.8c0.6-0.2,1.3-0.2,2-0.2
		c0.5,0,1,0.1,1.5,0.2c0.5,0.1,1,0.3,1.5,0.6c0.5,0.3,0.9,0.6,1.4,0.9c0.5,0.4,0.9,0.8,1.3,1.3c0.4,0.5,0.8,1,1.2,1.5
		c0.3,0.5,0.6,1,0.8,1.5c0.2,0.5,0.4,1,0.5,1.6c0.1,0.5,0.1,1.1,0.1,1.6C635.5,856.5,635.4,857.3,635.2,858z"/>
	<path class="st10" d="M706.9,909.3c-1.5-0.1-2.9-0.1-4.3-0.2c-1.4-0.1-2.7-0.1-3.9-0.2c-1.2-0.1-2.4-0.1-3.5-0.2
		c-1.1,0-2.2-0.1-3.2-0.1c-1,0-2-0.1-2.9-0.1c-0.9,0-1.8-0.1-2.6-0.1c-0.8,0-1.6-0.1-2.3-0.1l-4-0.1l-0.2,9.3l6.2,0.3
		c0.4,0,1,0,1.8,0c0.8,0,1.8,0,3.1,0.1c1.2,0,2.7,0,4.4,0.1c1.7,0,3.6,0,5.7,0.1c-0.7,0.8-1.3,1.7-1.9,2.5c-0.6,0.8-1.2,1.7-1.8,2.5
		c-0.6,0.8-1.1,1.6-1.7,2.5c-0.5,0.8-1,1.6-1.5,2.4c-0.5,0.8-1,1.6-1.4,2.4c-0.4,0.8-0.9,1.6-1.3,2.4c-0.4,0.8-0.8,1.6-1.1,2.4
		c-0.4,0.8-0.7,1.6-1,2.4c-0.7,1.6-1.2,3.3-1.7,5c-0.5,1.7-0.9,3.6-1.3,5.5c-0.3,1.9-0.6,3.9-0.8,5.9c-0.2,2-0.3,4.2-0.4,6.3
		l8.6,0.4c0-2.3,0.2-4.5,0.5-6.7c0.3-2.2,0.6-4.3,1.1-6.3c0.5-2.1,1.1-4,1.8-6c0.7-1.9,1.5-3.8,2.5-5.6c0.3-0.7,0.7-1.4,1.1-2.1
		c0.4-0.7,0.8-1.5,1.3-2.2c0.5-0.8,1-1.5,1.5-2.3c0.5-0.8,1.1-1.6,1.7-2.5c0.6-0.8,1.2-1.7,1.9-2.6c0.7-0.9,1.4-1.8,2.1-2.7
		c0.7-0.9,1.5-1.9,2.3-2.9c0.8-1,1.7-2,2.5-3.1l-2.5-6C709.9,909.5,708.4,909.4,706.9,909.3z"/>
	<path class="st10" d="M998.9,869.9c0.1-1,0.1-2,0.2-3c0.1-1,0.1-1.9,0.2-2.9c0-0.9,0.1-1.8,0.1-2.7c0-0.9,0.1-1.7,0.1-2.6
		c0-0.8,0.1-1.7,0.1-2.5c0-0.8,0.1-1.6,0.1-2.4c0-0.8,0-1.5,0.1-2.2c0-0.7,0-1.4,0-2.1l-10-0.4c0,1.4-0.1,3-0.1,4.6
		c0,1.6-0.1,3.3-0.2,5.1c-0.1,1.8-0.1,3.7-0.2,5.7c-0.1,2-0.2,4.1-0.3,6.2c-0.5,0-1.1,0-1.6,0c-0.5,0-1,0-1.5,0c-0.5,0-0.9,0-1.4,0
		c-0.5,0-0.9,0-1.3,0c-0.4,0-0.8,0-1.2,0c-0.4,0-0.8,0-1.1,0c-0.4,0-0.7,0-1,0c-0.3,0-0.6,0-0.9,0c2.3-3.7,4.3-7.5,6.1-11.2
		c1.8-3.8,3.3-7.6,4.6-11.5c1.3-3.9,2.4-7.7,3.2-11.7c0.8-3.9,1.4-7.9,1.7-11.9l-9.9-1c-0.1,1.1-0.2,2.3-0.3,3.4
		c-0.1,1.1-0.3,2.2-0.4,3.3c-0.2,1.1-0.4,2.2-0.6,3.3c-0.2,1.1-0.4,2.2-0.7,3.2c-0.2,1.1-0.5,2.1-0.8,3.2c-0.3,1.1-0.6,2.1-0.9,3.1
		c-0.3,1-0.7,2.1-1,3.1c-0.4,1-0.7,2-1.1,3.1c-0.7,1.8-1.5,3.7-2.4,5.5c-0.9,1.9-1.9,3.8-2.9,5.7c-1.1,1.9-2.2,3.9-3.4,5.8
		c-1.2,2-2.5,4-3.9,6l3,7c0.8,0,1.6,0.1,2.4,0.1c0.8,0,1.6,0.1,2.4,0.1c0.8,0,1.6,0.1,2.4,0.1c0.8,0,1.6,0.1,2.4,0.1
		c0.8,0,1.6,0.1,2.4,0.1c0.8,0,1.6,0.1,2.5,0.1c0.8,0,1.6,0,2.5,0.1c0.8,0,1.7,0,2.5,0.1l-0.3,10.4l9.7-0.3l0.4-10.7l8.4-0.9
		l-1.7-9.8L998.9,869.9z"/>
	<path class="st10" d="M674.5,639.3c-0.3-1.1-0.7-2.2-1.2-3.3c-0.5-1.1-1.1-2.1-1.8-3c-0.1-0.1-0.2-0.3-0.3-0.4
		c-0.1-0.1-0.2-0.3-0.3-0.4c-0.1-0.1-0.2-0.3-0.3-0.4c-0.1-0.1-0.2-0.2-0.3-0.4c-0.7-0.8-1.4-1.4-2.2-2c-0.8-0.6-1.6-1-2.5-1.4
		c-0.9-0.4-1.8-0.6-2.8-0.8c-1-0.2-2-0.2-3.1-0.2c-1.3,0-2.6,0.2-3.8,0.5c-1.2,0.3-2.3,0.8-3.4,1.3c-1.1,0.6-2.1,1.3-3,2.2
		c-0.9,0.9-1.8,1.8-2.6,3c-0.7,1-1.4,2.1-2,3.2c-0.6,1.1-1,2.3-1.4,3.5c-0.4,1.2-0.7,2.5-0.9,3.7c-0.2,1.3-0.3,2.6-0.4,4
		c0,0.7,0,1.3,0,1.9c0,0.6,0.1,1.2,0.2,1.8c0.1,0.6,0.3,1.2,0.4,1.7c0.2,0.6,0.4,1.1,0.6,1.6c0.2,0.4,0.4,0.9,0.6,1.3
		s0.5,0.8,0.8,1.2c0.3,0.4,0.6,0.8,0.9,1.1c0.3,0.4,0.7,0.7,1,1.1c0.8,0.8,1.7,1.4,2.6,2c0.9,0.6,1.8,1,2.8,1.4c1,0.4,2,0.6,3.1,0.8
		c1.1,0.2,2.2,0.2,3.4,0.2c1.2,0,2.4-0.2,3.5-0.4s2.2-0.6,3.2-1c1-0.4,1.9-1,2.8-1.6c0.9-0.6,1.7-1.4,2.5-2.2c0.8-0.8,1.4-1.7,2-2.7
		c0.6-0.9,1.1-2,1.5-3c0.4-1.1,0.7-2.2,0.9-3.4c0.2-1.2,0.3-2.4,0.4-3.7c0-1.3,0-2.6-0.2-3.9C675.1,641.7,674.9,640.5,674.5,639.3z
		 M667.2,648c-0.1,0.7-0.3,1.3-0.5,1.9c-0.2,0.6-0.5,1.2-0.8,1.7c-0.3,0.5-0.7,1-1.2,1.5c-0.4,0.5-0.9,0.9-1.4,1.2
		c-0.5,0.4-1,0.7-1.6,0.9c-0.6,0.2-1.2,0.4-1.8,0.6c-0.6,0.1-1.3,0.2-2,0.2c-0.6,0-1.1,0-1.6-0.1c-0.5-0.1-1-0.2-1.4-0.4
		c-0.5-0.2-0.9-0.4-1.3-0.6c-0.4-0.3-0.8-0.5-1.1-0.9c-0.3-0.3-0.6-0.7-0.9-1.1c-0.2-0.4-0.5-0.8-0.6-1.2c-0.2-0.4-0.3-0.9-0.4-1.4
		c-0.1-0.5-0.1-1-0.1-1.6c0,0,0-0.1,0-0.1c0,0,0-0.1,0-0.1c0,0,0-0.1,0-0.1c0,0,0-0.1,0-0.1c0-0.8,0.1-1.5,0.2-2.2
		c0.1-0.7,0.2-1.4,0.4-2.1c0.2-0.7,0.4-1.3,0.7-1.9c0.3-0.6,0.6-1.2,0.9-1.8c0.4-0.6,0.9-1.2,1.3-1.7c0.5-0.5,1-0.9,1.6-1.2
		c0.6-0.3,1.2-0.6,1.8-0.8c0.6-0.2,1.3-0.3,2-0.3c0.4,0,0.7,0,1.1,0c0.4,0,0.7,0.1,1,0.2c0.3,0.1,0.6,0.2,0.9,0.3
		c0.3,0.1,0.6,0.3,0.9,0.4c0.2,0.1,0.4,0.2,0.6,0.4s0.4,0.3,0.6,0.5c0.2,0.2,0.4,0.3,0.5,0.5c0.2,0.2,0.3,0.4,0.5,0.6
		c0.4,0.4,0.7,0.9,0.9,1.4c0.3,0.5,0.5,1,0.7,1.6c0.2,0.6,0.3,1.2,0.4,1.8c0.1,0.6,0.1,1.3,0.1,1.9
		C667.4,646.6,667.3,647.3,667.2,648z"/>
	<path class="st10" d="M904.8,930.6c0.1-0.8,0.3-1.5,0.4-2.3c0.1-0.8,0.2-1.5,0.3-2.3l1.9,0.1c0.1,0,0.2,0,0.3,0c0.1,0,0.2,0,0.4,0
		c0.1,0,0.2,0,0.4,0c0.1,0,0.3,0,0.4,0c0.5,0,1.1,0,1.7,0.1c0.6,0,1.3,0.1,1.9,0.1c0.7,0,1.4,0.1,2.2,0.2c0.8,0.1,1.6,0.1,2.4,0.2
		c0.5,0,1.1,0.1,1.6,0.1c0.5,0,1,0.1,1.4,0.1c0.5,0,0.9,0.1,1.3,0.1c0.4,0,0.8,0.1,1.2,0.1c0.4,0,0.8,0.1,1.1,0.1c0.4,0,0.7,0,1,0.1
		c0.3,0,0.6,0,0.9,0c0.3,0,0.6,0,0.8,0l0-10l-6-0.2l-4.2-0.1c-0.2,0-0.4,0-0.6,0c-0.2,0-0.4,0-0.6,0c-0.2,0-0.4,0-0.6,0
		c-0.2,0-0.4,0-0.6,0c-0.2,0-0.4,0-0.6,0c-0.2,0-0.4,0-0.6,0c-0.2,0-0.4,0-0.6,0c-0.2,0-0.4,0-0.7,0c-0.2,0-0.4,0-0.7,0
		s-0.4,0-0.7,0c-0.2,0-0.4,0-0.6,0c-0.2,0-0.4,0-0.6,0c-0.2,0-0.4,0-0.6,0c-0.2,0-0.4,0-0.6,0c-0.2,0-0.4,0-0.6,0
		c-0.2,0-0.4,0-0.6,0l-4.1-0.1l-6-0.2c0.1,2,0,3.9-0.2,5.9c-0.2,2-0.4,4-0.8,6c-0.4,2-0.9,4-1.5,6c-0.6,2-1.3,4-2.2,6.1l4.9,5.7
		c0.8-0.3,1.6-0.6,2.4-0.8c0.8-0.2,1.6-0.4,2.4-0.6c0.8-0.1,1.6-0.3,2.3-0.3c0.8-0.1,1.6-0.1,2.3,0c1.8,0.1,3.3,0.3,4.7,0.8
		c1.3,0.5,2.5,1.1,3.4,2c0.9,0.9,1.6,1.9,2,3.2c0.5,1.3,0.7,2.8,0.7,4.4c0,0.3,0,0.6,0,0.9c0,0.3-0.1,0.6-0.1,0.8
		c-0.1,0.3-0.1,0.5-0.2,0.8c-0.1,0.3-0.2,0.5-0.3,0.8c-0.1,0.2-0.2,0.5-0.4,0.7c-0.1,0.2-0.3,0.4-0.4,0.7c-0.2,0.2-0.3,0.4-0.5,0.6
		c-0.2,0.2-0.4,0.4-0.6,0.5c-0.2,0.2-0.4,0.3-0.6,0.5c-0.2,0.2-0.4,0.3-0.7,0.4c-0.2,0.1-0.5,0.2-0.7,0.4c-0.3,0.1-0.5,0.2-0.8,0.3
		c-0.3,0.1-0.5,0.2-0.8,0.2c-0.3,0.1-0.6,0.1-0.8,0.2c-0.3,0-0.6,0.1-0.9,0.1c-0.3,0-0.6,0-0.9,0c-1,0-2-0.2-3-0.6
		c-1-0.4-1.9-0.9-2.7-1.5c-0.9-0.7-1.7-1.5-2.5-2.5c-0.8-1-1.5-2.1-2.2-3.4l-8,5.8c1.6,1.8,3.2,3.5,4.7,4.8c1.6,1.4,3.1,2.6,4.7,3.5
		c1.6,1,3.1,1.7,4.6,2.2c1.5,0.5,3.1,0.8,4.6,0.9c1.1,0,2.3,0,3.4-0.2c1.1-0.2,2.2-0.5,3.2-0.9c1.1-0.4,2.1-1,3.1-1.6
		c1-0.7,2-1.4,3-2.3c1-0.9,1.8-1.8,2.5-2.7c0.7-0.9,1.3-1.9,1.8-3c0.5-1,0.8-2.1,1.1-3.2c0.2-1.1,0.4-2.2,0.3-3.4
		c0-1.3-0.1-2.5-0.4-3.7c-0.2-1.2-0.6-2.4-1.1-3.5c-0.5-1.1-1.1-2.2-1.8-3.3c-0.7-1-1.5-2.1-2.5-3c-0.9-1-1.9-1.8-2.9-2.6
		c-1-0.7-2-1.4-3.1-1.9c-1.1-0.5-2.2-0.9-3.4-1.2c-1.2-0.3-2.4-0.4-3.6-0.5c-0.3,0-0.7,0-1,0c-0.3,0-0.7,0-1,0.1
		c-0.3,0-0.7,0.1-1,0.1c-0.3,0.1-0.7,0.1-1,0.2c0.2-0.8,0.4-1.6,0.6-2.4C904.5,932.1,904.7,931.4,904.8,930.6z"/>
	<path class="st10" d="M786.9,555.8c0.4,0,0.8,0,1.2,0c0.4,0,0.9,0,1.3,0c0.5,0,1,0,1.5,0c0.5,0,1,0,1.6,0c0.5,0,1.1,0,1.6,0
		c0.5,0,1,0,1.5,0c0.5,0,0.9,0,1.3,0c0.4,0,0.8,0,1.2,0c0.4,0,0.8,0,1.1,0c0.4,0,0.7,0,1,0c0.3,0,0.6,0,0.9,0c0.3,0,0.6,0,0.8,0
		l0.1-8.4c-1.2,0.1-2.4,0.1-3.4,0.1c-1.1,0-2,0.1-2.9,0.1c-0.9,0-1.7,0-2.5,0c-0.7,0-1.4,0-2,0l0-1.8c0-1.1,0-2.3,0-3.5
		c0-1.2,0.1-2.4,0.1-3.6c0.1-1.2,0.1-2.5,0.2-3.8c0.1-1.3,0.2-2.6,0.3-4c0.1-1.4,0.2-2.8,0.4-4.2c0.1-1.4,0.3-2.9,0.5-4.4
		c0.2-1.5,0.4-3.1,0.5-4.7c0.2-1.6,0.4-3.2,0.6-4.9c-2.3,0.7-4.5,1.3-6.6,1.9c-2,0.5-3.9,1-5.6,1.4c-1.7,0.4-3.2,0.7-4.6,0.9
		c-1.4,0.2-2.6,0.4-3.7,0.4l-0.1,8.8c0.1,0,0.2,0,0.2,0c0.1,0,0.2,0,0.2,0c0.1,0,0.2,0,0.2,0c0.1,0,0.1,0,0.2,0
		c1-0.1,1.9-0.1,2.8-0.2c0.9-0.1,1.7-0.2,2.5-0.3c0.8-0.1,1.6-0.3,2.3-0.4c0.7-0.2,1.4-0.3,2-0.5c-0.2,1.8-0.4,3.5-0.6,5.4
		c-0.2,1.8-0.3,3.7-0.5,5.5c-0.1,1.9-0.2,3.8-0.3,5.7c-0.1,1.9-0.1,3.9-0.2,5.9c-0.1,0-0.2,0-0.3,0c-0.1,0-0.2,0-0.3,0
		c-0.1,0-0.2,0-0.3,0c-0.1,0-0.2,0-0.3,0c-0.1,0-0.2,0-0.3,0c-0.1,0-0.2,0-0.3,0c-0.1,0-0.2,0-0.3,0c-0.1,0-0.2,0-0.3,0
		c-0.4,0-0.9,0.1-1.6,0.2c-0.6,0.1-1.4,0.2-2.2,0.4c-0.8,0.2-1.8,0.3-2.9,0.6c-1.1,0.2-2.2,0.5-3.5,0.8l1.5,8.7
		c0.5-0.1,1-0.2,1.5-0.3c0.5-0.1,1-0.2,1.4-0.3c0.5-0.1,1-0.2,1.4-0.3c0.5-0.1,1-0.1,1.4-0.2c0.5-0.1,0.9-0.1,1.4-0.2
		c0.5-0.1,1-0.1,1.4-0.2c0.5,0,1-0.1,1.4-0.1c0.5,0,1-0.1,1.4-0.1c0.3,0,0.5,0,0.8,0c0.3,0,0.6,0,0.9,0c0.3,0,0.7,0,1,0
		C786.1,555.8,786.5,555.8,786.9,555.8z"/>
	<path class="st10" d="M827,545.5c-1.9-0.1-3.6-0.2-5.2-0.3c-1.6-0.1-3-0.1-4.3-0.2c0.7-0.9,1.5-1.8,2.1-2.6
		c0.7-0.8,1.3-1.6,1.9-2.3c0.6-0.7,1.1-1.4,1.7-2.1c0.5-0.6,1-1.2,1.4-1.8c0.4-0.5,0.8-1,1.2-1.5c0.4-0.5,0.7-0.9,1-1.2
		c0.3-0.4,0.5-0.7,0.7-1c0.2-0.3,0.4-0.5,0.5-0.7c0.9-1.4,1.7-2.7,2.4-4c0.7-1.3,1.3-2.6,1.7-3.9c0.5-1.3,0.8-2.5,1.1-3.7
		c0.2-1.2,0.4-2.4,0.4-3.6c0-0.7,0-1.3-0.1-1.9c-0.1-0.6-0.2-1.2-0.3-1.7c-0.1-0.5-0.3-1-0.6-1.5c-0.2-0.5-0.5-0.9-0.8-1.3
		c-0.3-0.4-0.7-0.8-1.1-1.2c-0.4-0.3-0.9-0.6-1.4-0.8c-0.5-0.2-1-0.3-1.6-0.4c-0.6-0.1-1.2-0.1-1.9-0.1c-0.8,0-1.6,0.2-2.5,0.4
		c-0.8,0.2-1.7,0.5-2.5,0.9c-0.8,0.4-1.7,0.8-2.5,1.3c-0.8,0.5-1.7,1.1-2.5,1.8c-0.8,0.6-1.5,1.3-2.2,1.9c-0.7,0.7-1.3,1.4-1.9,2.1
		c-0.6,0.7-1.2,1.5-1.7,2.2c-0.5,0.8-1,1.6-1.4,2.4l7.9,3.7c0.6-1.3,1.3-2.4,1.9-3.4c0.7-1,1.3-1.8,2-2.5c0.7-0.7,1.4-1.3,2.1-1.7
		c0.7-0.4,1.4-0.7,2.2-0.8c0,0.1,0.1,0.2,0.1,0.3c0,0.1,0.1,0.2,0.1,0.3c0,0.1,0,0.2,0,0.3c0,0.1,0,0.2,0,0.3c0,0.8-0.2,1.8-0.5,2.9
		c-0.3,1.1-0.8,2.3-1.4,3.6c-0.6,1.3-1.4,2.7-2.4,4.3c-1,1.5-2.1,3.2-3.4,5c-0.1,0.1-0.2,0.2-0.3,0.4c-0.2,0.2-0.4,0.5-0.6,0.8
		c-0.3,0.3-0.6,0.8-0.9,1.2c-0.4,0.5-0.8,1-1.3,1.6c-0.5,0.6-1,1.3-1.6,2.1c-0.6,0.8-1.2,1.6-1.9,2.5c-0.7,0.9-1.4,1.9-2.2,2.9
		c-0.8,1-1.6,2.1-2.6,3.3l0.4,6.2c1.1,0,2.2,0,3.4-0.1c1.2,0,2.3,0,3.6,0c1.2,0,2.5,0,3.7,0c1.3,0,2.6,0.1,3.9,0.1
		c1.3,0,2.7,0.1,4.1,0.1c1.4,0.1,2.9,0.1,4.4,0.2c1.5,0.1,3.1,0.2,4.7,0.2c1.6,0.1,3.3,0.2,5,0.3l1.1-8.8c-2.5-0.2-4.8-0.3-7-0.5
		C830.9,545.7,828.8,545.6,827,545.5z"/>
	<path class="st10" d="M1040.1,725.3c-0.5,0-1.1,0-1.7,0c-0.6,0-1.2,0-1.8,0c-0.6,0-1.3,0-2-0.1c-0.4,0-0.8,0-1.3-0.1
		c-0.4,0-0.9,0-1.4-0.1c-0.5,0-0.9,0-1.4-0.1c-0.5,0-1-0.1-1.5-0.1c-0.3,0-0.7,0-1-0.1c-0.3,0-0.7,0-1.1-0.1c-0.4,0-0.7,0-1.1-0.1
		c-0.4,0-0.7,0-1.1-0.1c-1-0.1-1.9-0.1-2.8-0.2c-0.9-0.1-1.7-0.1-2.6-0.2c-0.8,0-1.6-0.1-2.4-0.1c-0.8,0-1.5-0.1-2.2-0.1
		c-0.7,0-1.3-0.1-2-0.1c-0.6,0-1.2,0-1.8-0.1c-0.6,0-1.1,0-1.6,0c-0.5,0-1,0-1.5,0l0.1,9.6c1.2,0,2.4,0,3.6,0c1.2,0,2.4,0.1,3.7,0.1
		c1.3,0.1,2.5,0.1,3.8,0.2c1.3,0.1,2.6,0.2,4,0.3c-1.3,1.4-2.5,2.9-3.7,4.3c-1.2,1.4-2.3,2.8-3.4,4.2c-1.1,1.4-2.1,2.7-3,4.1
		c-0.9,1.3-1.8,2.7-2.6,4l3.7,5.4c1-0.3,1.9-0.6,2.7-0.8c0.9-0.2,1.7-0.4,2.4-0.6c0.8-0.1,1.4-0.3,2.1-0.3c0.6-0.1,1.2-0.1,1.8-0.1
		c0.6,0,1.2,0.1,1.6,0.2c0.5,0.2,0.9,0.4,1.2,0.8c0.3,0.3,0.6,0.8,0.7,1.3c0.2,0.5,0.2,1.1,0.3,1.8c0,0.9-0.1,1.7-0.3,2.5
		c-0.2,0.8-0.6,1.6-1,2.4c-0.5,0.8-1,1.5-1.7,2.3c-0.7,0.7-1.5,1.4-2.4,2.1c-0.4,0.3-0.7,0.5-1.1,0.8c-0.4,0.3-0.8,0.5-1.2,0.7
		c-0.4,0.2-0.8,0.5-1.2,0.7c-0.4,0.2-0.8,0.5-1.2,0.7c-0.4,0.2-0.9,0.4-1.3,0.6c-0.4,0.2-0.9,0.4-1.4,0.6c-0.5,0.2-0.9,0.4-1.4,0.5
		c-0.5,0.2-1,0.3-1.5,0.5l3.2,9c3.7-1.2,7-2.5,9.8-4.1c2.8-1.5,5.1-3.2,7-5.1c1.9-1.9,3.2-3.9,4.2-6.1c0.9-2.2,1.4-4.6,1.3-7.1
		c0-0.8-0.1-1.6-0.2-2.4c-0.1-0.8-0.3-1.6-0.6-2.3c-0.3-0.8-0.6-1.5-0.9-2.2c-0.4-0.7-0.8-1.5-1.3-2.2c-0.5-0.7-1-1.4-1.6-2
		c-0.6-0.6-1.2-1.1-1.9-1.6c-0.7-0.4-1.4-0.8-2.1-1.1c-0.7-0.3-1.5-0.5-2.3-0.7c0.7-0.8,1.4-1.7,2.1-2.5c0.7-0.8,1.3-1.6,2-2.3
		c0.6-0.8,1.3-1.5,1.8-2.2c0.6-0.7,1.2-1.4,1.7-2.1c0.2-0.2,0.4-0.5,0.6-0.7c0.2-0.2,0.4-0.4,0.5-0.7s0.3-0.4,0.5-0.7
		c0.2-0.2,0.3-0.4,0.5-0.6c0.6-0.8,1.2-1.6,1.8-2.3c0.6-0.7,1.1-1.4,1.6-2.1c0.5-0.7,0.9-1.3,1.4-1.8c0.4-0.6,0.8-1.1,1.1-1.6
		C1041.2,725.4,1040.7,725.4,1040.1,725.3z"/>
	<path class="st10" d="M1014.1,647.7c-2.7-0.2-5.2-0.4-7.6-0.6c-2.4-0.2-4.6-0.4-6.6-0.5c-2-0.2-3.9-0.3-5.7-0.4
		c-1.7-0.1-3.3-0.2-4.7-0.3c0.8-1,1.6-1.9,2.3-2.7c0.7-0.9,1.4-1.7,2-2.4c0.6-0.8,1.2-1.5,1.8-2.1c0.5-0.7,1.1-1.3,1.5-1.8
		c0.5-0.6,0.9-1.1,1.3-1.6c0.4-0.5,0.7-0.9,1-1.3c0.3-0.4,0.6-0.7,0.8-1c0.2-0.3,0.4-0.5,0.5-0.7c1-1.4,1.8-2.8,2.6-4.2
		c0.7-1.4,1.3-2.7,1.8-4.1c0.5-1.3,0.8-2.7,1.1-3.9c0.2-1.3,0.3-2.6,0.3-3.8c0-0.7-0.1-1.4-0.1-2.1c-0.1-0.6-0.2-1.3-0.4-1.8
		c-0.2-0.6-0.4-1.1-0.6-1.6c-0.3-0.5-0.5-1-0.9-1.4c-0.4-0.5-0.8-0.9-1.3-1.2c-0.5-0.4-1-0.6-1.5-0.9c-0.5-0.2-1.1-0.4-1.8-0.5
		c-0.6-0.1-1.3-0.1-2-0.1c-0.9,0-1.8,0.1-2.7,0.3c-0.9,0.2-1.8,0.5-2.7,0.9c-0.9,0.4-1.8,0.8-2.7,1.4c-0.9,0.5-1.8,1.2-2.7,1.9
		c-0.8,0.6-1.6,1.3-2.3,2s-1.4,1.4-2.1,2.2c-0.6,0.7-1.2,1.5-1.8,2.3c-0.5,0.8-1.1,1.6-1.5,2.5l8.7,4.1c0.7-1.3,1.3-2.5,2-3.5
		c0.7-1,1.4-1.9,2.1-2.6c0.7-0.7,1.5-1.3,2.2-1.7c0.8-0.4,1.5-0.7,2.3-0.8c0,0.1,0.1,0.2,0.1,0.4c0,0.1,0.1,0.2,0.1,0.4
		c0,0.1,0,0.2,0.1,0.4c0,0.1,0,0.2,0,0.4c0,0.9-0.2,1.9-0.5,3c-0.3,1.1-0.8,2.4-1.5,3.7c-0.7,1.4-1.5,2.9-2.5,4.5
		c-1,1.6-2.2,3.3-3.5,5.2c-0.1,0.1-0.2,0.2-0.3,0.4c-0.2,0.2-0.4,0.5-0.7,0.9c-0.3,0.4-0.6,0.8-1,1.3c-0.4,0.5-0.8,1.1-1.3,1.7
		c-0.5,0.6-1.1,1.4-1.7,2.1c-0.6,0.8-1.3,1.6-2,2.6c-0.7,0.9-1.5,1.9-2.4,3c-0.8,1.1-1.8,2.2-2.7,3.5l0.1,1.1l0.5,5.5
		c0.4,0,0.8,0,1.2,0c0.4,0,0.8,0,1.2,0c0.4,0,0.8,0,1.3,0c0.4,0,0.9,0,1.3,0c0.8,0,1.7,0,2.6,0.1c0.9,0,1.8,0.1,2.7,0.1
		c0.9,0,1.8,0.1,2.8,0.1c0.9,0,1.9,0.1,2.8,0.1c1.4,0.1,2.9,0.2,4.5,0.3c1.6,0.1,3.2,0.2,4.8,0.3c1.7,0.1,3.4,0.2,5.1,0.4
		s3.6,0.3,5.4,0.4L1014.1,647.7z"/>
	<path class="st10" d="M925.7,570c-1.1,0-2.2,0.1-3.1,0.1c-1,0-1.8,0-2.6,0c-0.8,0-1.5,0-2.1,0l0-1.8c0-1.2,0-2.4,0-3.6
		c0-1.2,0-2.5,0.1-3.8c0-1.3,0.1-2.6,0.2-3.9c0.1-1.3,0.2-2.7,0.3-4.1c0.1-1.4,0.2-2.8,0.4-4.3c0.1-1.5,0.3-3,0.4-4.6
		c0.2-1.6,0.3-3.2,0.5-4.8c0.2-1.6,0.4-3.3,0.6-5c-2.5,0.7-4.8,1.3-6.9,1.9c-2.1,0.5-4.1,1-5.9,1.4c-1.8,0.4-3.4,0.7-4.9,0.9
		c-1.5,0.2-2.7,0.4-3.9,0.4l0,9.1c0.1,0,0.2,0,0.3,0c0.1,0,0.2,0,0.3,0c0.1,0,0.2,0,0.3,0c0.1,0,0.2,0,0.3,0c1,0,2-0.1,2.9-0.2
		c0.9-0.1,1.8-0.2,2.7-0.3c0.8-0.1,1.6-0.3,2.4-0.4c0.7-0.2,1.4-0.3,2.1-0.5c-0.2,1.8-0.4,3.7-0.6,5.5c-0.2,1.9-0.3,3.8-0.4,5.7
		c-0.1,1.9-0.2,3.9-0.3,5.9c-0.1,2-0.1,4-0.1,6.1c-0.1,0-0.2,0-0.3,0c-0.1,0-0.2,0-0.3,0c-0.1,0-0.2,0-0.3,0c-0.1,0-0.2,0-0.3,0
		c-0.1,0-0.2,0-0.3,0c-0.1,0-0.2,0-0.3,0c-0.1,0-0.2,0-0.3,0c-0.1,0-0.2,0-0.3,0c-0.4,0-1,0.1-1.6,0.2c-0.7,0.1-1.4,0.2-2.3,0.4
		c-0.9,0.2-1.9,0.3-3,0.6c-1.1,0.2-2.4,0.5-3.7,0.8l1.7,9c0.5-0.1,1-0.2,1.5-0.3c0.5-0.1,1-0.2,1.5-0.3c0.5-0.1,1-0.2,1.5-0.3
		c0.5-0.1,1-0.2,1.5-0.2c0.5-0.1,1-0.1,1.5-0.2c0.5-0.1,1-0.1,1.5-0.1c0.5,0,1-0.1,1.5-0.1c0.5,0,1-0.1,1.5-0.1c0.3,0,0.6,0,0.9,0
		c0.3,0,0.6,0,1,0c0.3,0,0.7,0,1.1,0c0.4,0,0.8,0,1.2,0c0.4,0,0.9,0,1.3,0c0.5,0,0.9,0,1.4,0c0.5,0,1,0,1.5,0c0.5,0,1.1,0,1.7,0
		c0.6,0,1.1,0,1.7,0c0.5,0,1,0,1.5,0c0.5,0,1,0,1.4,0c0.5,0,0.9,0,1.3,0c0.4,0,0.8,0,1.2,0c0.4,0,0.7,0,1.1,0c0.3,0,0.7,0,1,0
		c0.3,0,0.6,0,0.9,0l0-8.7C928,570,926.8,570,925.7,570z"/>
	<path class="st10" d="M608.1,665.6c0.5-0.1,0.9-0.2,1.4-0.2c0.5-0.1,0.9-0.1,1.4-0.2c0.5-0.1,0.9-0.1,1.3-0.2
		c0.4-0.1,0.9-0.1,1.3-0.1c0.4,0,0.9-0.1,1.3-0.1c0.4,0,0.9-0.1,1.3-0.1c0.4,0,0.9,0,1.3,0c0.2,0,0.5,0,0.8,0c0.3,0,0.6,0,0.9,0
		c0.3,0,0.6,0,1,0c0.3,0,0.7,0,1.1,0c0.4,0,0.8,0,1.2,0c0.4,0,0.8,0,1.3,0c0.4,0,0.9,0,1.4,0c0.5,0,1,0,1.5,0c0.5,0,1,0,1.5,0
		c0.5,0,0.9,0,1.4,0c0.4,0,0.9,0,1.3,0c0.4,0,0.8,0,1.1,0c0.4,0,0.7,0,1,0c0.3,0,0.7,0,1,0c0.3,0,0.6,0,0.9,0c0.3,0,0.5,0,0.8,0
		l0.2-8.3c-1.1,0-2.2,0.1-3.2,0.1c-1,0-1.9,0-2.8,0c-0.8,0-1.6,0-2.3,0c-0.7,0-1.3,0-1.9-0.1l0-1.7c0-1.1,0-2.2,0.1-3.4
		c0-1.2,0.1-2.4,0.2-3.6c0.1-1.2,0.2-2.5,0.3-3.7c0.1-1.3,0.2-2.6,0.3-3.9c0.1-1.3,0.3-2.7,0.4-4.1c0.2-1.4,0.3-2.9,0.5-4.3
		c0.2-1.5,0.4-3,0.6-4.6c0.2-1.6,0.4-3.2,0.7-4.8c-2.2,0.6-4.3,1.2-6.2,1.7c-1.9,0.5-3.7,0.9-5.3,1.2c-1.6,0.3-3,0.6-4.3,0.8
		c-1.3,0.2-2.4,0.3-3.4,0.3l-0.2,8.6c0.1,0,0.2,0,0.2,0c0.1,0,0.2,0,0.2,0c0.1,0,0.2,0,0.2,0c0.1,0,0.2,0,0.2,0
		c0.9,0,1.8-0.1,2.6-0.1c0.8-0.1,1.6-0.1,2.4-0.2c0.7-0.1,1.5-0.2,2.1-0.3c0.7-0.1,1.3-0.3,1.9-0.5c-0.2,1.7-0.5,3.5-0.7,5.3
		c-0.2,1.8-0.4,3.6-0.5,5.4c-0.2,1.8-0.3,3.7-0.4,5.6c-0.1,1.9-0.2,3.8-0.3,5.8c-0.1,0-0.2,0-0.3,0c-0.1,0-0.2,0-0.2,0
		c-0.1,0-0.2,0-0.2,0c-0.1,0-0.2,0-0.2,0c-0.1,0-0.2,0-0.2,0c-0.1,0-0.2,0-0.3,0c-0.1,0-0.2,0-0.3,0c-0.1,0-0.2,0-0.3,0
		c-0.4,0-0.9,0.1-1.5,0.1c-0.6,0.1-1.3,0.2-2.1,0.3c-0.8,0.1-1.7,0.3-2.7,0.5c-1,0.2-2.1,0.4-3.3,0.7l1.3,8.6
		C607.2,665.7,607.6,665.6,608.1,665.6z"/>
	<path class="st10" d="M682.1,588c0.5,0,0.9-0.1,1.4-0.1c0.5,0,0.9-0.1,1.4-0.1c0.2,0,0.5,0,0.8,0c0.3,0,0.6,0,0.9,0s0.6,0,1,0
		c0.3,0,0.7,0,1.1,0c0.4,0,0.8,0,1.2,0c0.4,0,0.8,0,1.3,0c0.4,0,0.9,0,1.4,0c0.5,0,1,0,1.5,0c0.5,0,1,0,1.5,0c0.5,0,0.9,0,1.4,0
		c0.4,0,0.9,0,1.3,0c0.4,0,0.8,0,1.2,0c0.4,0,0.7,0,1.1,0s0.7,0,1,0c0.3,0,0.6,0,0.9,0c0.3,0,0.5,0,0.8,0l0.1-8.3
		c-1.2,0-2.3,0.1-3.3,0.1c-1,0-2,0.1-2.8,0.1c-0.9,0-1.7,0-2.4,0c-0.7,0-1.4,0-1.9,0l0-1.7c0-1.1,0-2.2,0.1-3.4
		c0-1.2,0.1-2.4,0.2-3.6c0.1-1.2,0.1-2.5,0.2-3.7c0.1-1.3,0.2-2.6,0.3-3.9c0.1-1.3,0.3-2.7,0.4-4.1c0.2-1.4,0.3-2.9,0.5-4.3
		c0.2-1.5,0.4-3,0.6-4.6c0.2-1.6,0.4-3.2,0.6-4.8c-2.3,0.7-4.4,1.3-6.3,1.8c-1.9,0.5-3.7,1-5.4,1.3c-1.6,0.4-3.1,0.6-4.4,0.9
		c-1.3,0.2-2.5,0.3-3.5,0.4l-0.2,8.6c0.1,0,0.2,0,0.2,0c0.1,0,0.2,0,0.2,0c0.1,0,0.2,0,0.2,0s0.2,0,0.2,0c0.9,0,1.8-0.1,2.7-0.2
		s1.7-0.2,2.4-0.3c0.8-0.1,1.5-0.2,2.2-0.4c0.7-0.1,1.3-0.3,1.9-0.5c-0.2,1.7-0.5,3.5-0.7,5.3c-0.2,1.8-0.4,3.6-0.5,5.4
		c-0.1,1.8-0.3,3.7-0.4,5.6c-0.1,1.9-0.2,3.8-0.2,5.8c-0.1,0-0.2,0-0.3,0c-0.1,0-0.2,0-0.3,0c-0.1,0-0.2,0-0.2,0c-0.1,0-0.2,0-0.2,0
		c-0.1,0-0.2,0-0.2,0c-0.1,0-0.2,0-0.3,0c-0.1,0-0.2,0-0.3,0c-0.1,0-0.2,0-0.3,0c-0.4,0-0.9,0.1-1.5,0.1c-0.6,0.1-1.3,0.2-2.1,0.3
		c-0.8,0.1-1.7,0.3-2.8,0.5c-1,0.2-2.1,0.5-3.4,0.7l1.4,8.6c0.5-0.1,0.9-0.2,1.4-0.3c0.5-0.1,0.9-0.2,1.4-0.3
		c0.5-0.1,0.9-0.2,1.4-0.2c0.5-0.1,0.9-0.1,1.4-0.2c0.5-0.1,0.9-0.1,1.4-0.2C681.1,588,681.6,588,682.1,588z"/>
	<path class="st10" d="M732,578.1c-0.9,0-1.7,0-2.4,0c-0.7,0-1.4,0-2,0l0-1.8c0-1.1,0-2.3,0.1-3.4c0-1.2,0.1-2.4,0.1-3.6
		c0.1-1.2,0.1-2.5,0.2-3.8c0.1-1.3,0.2-2.6,0.3-3.9c0.1-1.3,0.3-2.7,0.4-4.1c0.1-1.4,0.3-2.9,0.5-4.4c0.2-1.5,0.4-3,0.6-4.6
		c0.2-1.6,0.4-3.2,0.6-4.8c-2.3,0.7-4.4,1.3-6.4,1.8c-2,0.5-3.8,1-5.4,1.3c-1.7,0.4-3.2,0.7-4.5,0.9c-1.3,0.2-2.5,0.3-3.6,0.4
		l-0.2,8.7c0.1,0,0.2,0,0.2,0c0.1,0,0.2,0,0.2,0c0.1,0,0.2,0,0.2,0c0.1,0,0.2,0,0.2,0c0.9,0,1.9-0.1,2.7-0.2
		c0.9-0.1,1.7-0.2,2.5-0.3c0.8-0.1,1.5-0.2,2.2-0.4c0.7-0.1,1.3-0.3,1.9-0.5c-0.2,1.7-0.5,3.5-0.7,5.3c-0.2,1.8-0.4,3.6-0.5,5.5
		c-0.1,1.9-0.3,3.7-0.4,5.7c-0.1,1.9-0.2,3.9-0.2,5.8c-0.1,0-0.2,0-0.3,0c-0.1,0-0.2,0-0.3,0c-0.1,0-0.2,0-0.2,0c-0.1,0-0.2,0-0.2,0
		c-0.1,0-0.2,0-0.3,0c-0.1,0-0.2,0-0.3,0c-0.1,0-0.2,0-0.3,0c-0.1,0-0.2,0-0.3,0c-0.4,0-0.9,0.1-1.5,0.1c-0.6,0.1-1.3,0.2-2.2,0.3
		c-0.8,0.1-1.8,0.3-2.8,0.5c-1,0.2-2.2,0.5-3.4,0.7l1.4,8.6c0.5-0.1,0.9-0.2,1.4-0.3c0.5-0.1,0.9-0.2,1.4-0.3
		c0.5-0.1,0.9-0.2,1.4-0.2c0.5-0.1,0.9-0.1,1.4-0.2c0.5-0.1,0.9-0.1,1.4-0.2c0.5-0.1,0.9-0.1,1.4-0.1c0.5,0,0.9-0.1,1.4-0.1
		c0.5,0,0.9-0.1,1.4-0.1c0.3,0,0.5,0,0.8,0s0.6,0,0.9,0c0.3,0,0.6,0,1,0c0.3,0,0.7,0,1.1,0c0.4,0,0.8,0,1.2,0c0.4,0,0.9,0,1.3,0
		c0.5,0,0.9,0,1.4,0c0.5,0,1,0,1.5,0c0.5,0,1,0,1.5,0c0.5,0,1,0,1.4,0c0.5,0,0.9,0,1.3,0c0.4,0,0.8,0,1.2,0c0.4,0,0.7,0,1.1,0
		c0.3,0,0.7,0,1,0c0.3,0,0.6,0,0.9,0c0.3,0,0.6,0,0.8,0l0.1-8.3c-1.2,0-2.3,0.1-3.3,0.1C733.8,578.1,732.9,578.1,732,578.1z"/>
</g>
<path class="st10" d="M801.3,729.8c-7.8,0-14.2,6.5-14.2,14.5c0,8,6.4,14.5,14.2,14.5s14.2-6.5,14.2-14.5
	C815.5,736.3,809.2,729.8,801.3,729.8z"/>
<polygon class="st8" points="622.4,562.7 572.1,582.4 537.7,557.1 632.7,508.3 "/>
<polygon class="st9" points="537.7,557.1 572.1,582.4 622.4,562.7 572,574.2 "/>
<g>
	<polygon class="st15" points="418.1,195.8 443.5,195.8 484.5,230.9 479.2,296.3 	"/>
	<polygon class="st16" points="458,208.2 473.8,234.1 479.2,296.3 484.5,230.9 	"/>
	<radialGradient id="SVGID_2_" cx="303.1415" cy="393.4773" r="212.9033" gradientUnits="userSpaceOnUse">
		<stop  offset="0" style="stop-color:#F9E8D8"/>
		<stop  offset="1" style="stop-color:#E5C3A0"/>
	</radialGradient>
	<path class="st17" d="M497.4,324.1c-3.2-7-8.7-10.7-14.8-10.8c-13.9-84.1-60-147.8-176-147.8c-121.4,0-163.3,68.1-169.7,163.8
		c0,0,0,0,0,0c-10-9-22.5-6.6-27.9,5.4c-5.4,12-1.6,29,8.4,38c6.1,5.5,13.2,6.7,19,4.1c2.6,69.8,18.2,149.2,33.3,225.7
		c100.7,27.6,197.5,22.8,292.1,0c10.8-68.7,28.1-158.6,25.6-239c0.6-0.5,1.2-0.9,1.8-1.5C499,353.1,502.8,336.1,497.4,324.1z"/>
	<polygon class="st15" points="239.3,262.5 291.3,246.9 288.6,264 223,295.4 	"/>
	<polygon class="st15" points="405.1,263.6 354.2,244.6 355.7,261.8 419.1,297.5 	"/>
	<path class="st18" d="M367.7,404.6c-2.7,9.9-11.8,17.2-22.6,17.2c-4.2,0-8.2-1.1-11.7-3.1c1.5,0.2,3,0.3,4.6,0.3
		C350,419,360.8,413.4,367.7,404.6z"/>
	<path class="st19" d="M367.7,404.6c0,0-8,7.4-17.3,10.8c-9.3,3.4-17,3.3-17,3.3c1.5,0.2,3,0.3,4.6,0.3
		C350,419,360.8,413.4,367.7,404.6z"/>
	<path class="st18" d="M287.3,554.1c3,17.8,6.4,38,20.6,51.6c10.2,9.7,22.4,3.7,30.8-4.6c1.2-1.2,2.2-2.4,3.3-3.6
		c-0.2-0.4-0.4-0.8-0.5-1.2c-2.6-6.3-7.8-25.9,3.6-28.2c16.4-3.2,7.1,24.5,2.8,30.2c1.7,3.3,3.9,6.2,6.9,8.5
		c11.6,8.6,23.1-8.1,27.7-15.6c7.6-12.5,10.5-23.9,12.2-37.8c3.7,15.8-10.6,64.1-36.3,59.4c-3.5-0.6-6.6-2.5-9.1-4.8
		c-1.8-1.7-3.4-3.7-4.7-5.8c-0.7,0.7-1.4,1.4-2.1,2.1c-5.1,4.9-11.9,9.5-19.4,10.5c-16.2,2.1-26.2-14.9-30.2-26.6
		C289,576.7,286.5,566.1,287.3,554.1L287.3,554.1z M345.5,592.4c2.4-4.1,4.2-8.7,3.6-13.4c-1-7.9-4.8-6-5.5,0.4
		C343.1,583.8,344.1,588.3,345.5,592.4z"/>
	<path class="st15" d="M436.8,157.6c7.5-13,10.6-30.1,7.6-52.8c-96.1,81.1-281-75.4-294.2,138.9l-18.7,20.2l5.3,65.4l58-103.2
		C301,176.2,464,267.9,513,147.6C491.9,157.4,465.5,159,436.8,157.6z"/>
	<path class="st20" d="M162.3,246c5.1-82.6,35.2-112.1,75.3-121.1c-46.4,4.5-81.9,29.3-87.4,118.8l-18.7,20.2l5.3,65.4l1.5-61.8
		L162.3,246z"/>
	<path class="st19" d="M260.1,210.6c-23,1.7-45.2,6.1-65.3,15.5l-58,103.2c0,0,0,0,0,0l0,0c-10-9-22.5-6.6-27.9,5.4
		c-5.4,12-1.6,29,8.4,38c6.1,5.5,13.2,6.7,19,4.1c2.6,69.8,18.2,149.2,33.3,225.7c15.3,4.2,30.6,7.6,45.8,10.4
		C185.7,446.6,172.2,286.2,260.1,210.6z"/>
	<path class="st21" d="M142.2,356.2c-2.8-11.8-16.9-18.1-23.8-4.9c0.2-0.5,0.3-0.9,0.5-1.4c3.1-7.5,11.5-11.4,18.1-5.3
		c-6.8-9.2-20.2-12.8-27-1C122.6,319.3,144.4,342.4,142.2,356.2z"/>
	<g>
		<g>
			<path class="st22" d="M191.8,414.7c-24,43.8-20.2,75.7-0.4,96.8c-25.5-21.8-32.8-56.4-5.8-104.9l0-0.2
				c16.9,6.7,33.3,12.3,49.1,16.7c-14.1-2.4-28.4-5.2-42.9-8.5L191.8,414.7z"/>
			<path class="st22" d="M416.3,418.7c20.6-8.5,39.9-19.9,58.1-33.9c10.7,41.2-2.5,74.8-28.5,100c23.1-24,35.1-55,26.7-92.4
				C455.3,403.9,436.5,412.5,416.3,418.7z"/>
		</g>
		<path class="st23" d="M472.6,392.5c-5.2,3.4-10.5,6.6-16,9.5c-9.6,5.2-19.7,9.6-30.1,13.3c0,0,0,0,0,0c-9,6.6-19,12.4-29.5,17.2
			l-5.4-7.6c-0.3,0.1-0.5,0.1-0.8,0.1l3.5,8.7c-32.6,14.4-70.2,20.4-103.4,17.2l-1.1-8.6l-0.9,8.4c-16.7-1.8-32.1-6-45.2-12.6
			l4.3-10.9l-6.7,9.6c-8.2-4.5-15.3-9.9-21.1-16.5c-9.4-1.8-18.9-3.8-28.5-5.9l0,0.2c-26.2,47.7-19.3,81.4,5.3,102.2c0,0,0,0,0,0
			c8.7-3.8,17.6-6.9,26.7-9.5l7.2,11.4l-4.2-12.2c56.5-14.9,116.8-6.2,153.6,19.4c15.5-5.9,30.1-13.4,43-22.3c0,0,0,0,0,0
			C460.6,478.1,483.4,440.5,472.6,392.5z"/>
		<path class="st24" d="M353,447.1c-20.9,4.5-42.3,5.8-62,3.9l-1.1-8.6l-0.9,8.4c-15.1-1.7-29.3-5.3-41.5-10.9
			c-12.9,13.8-22.4,31.9-25.5,51.8c-0.9,5.7-1.3,11.3-1.1,16.6c1-0.3,2-0.6,3-0.9l7.2,11.4l-4.2-12.2c44-11.6,90.2-8.9,125.9,4.9
			c2.5-6.3,4.3-12.9,5.4-19.8C360.8,475.2,358.7,459.8,353,447.1z"/>
		<path class="st25" d="M355.7,462.7c-7.1-1.5-14.7-2.4-22.3-2.8c12.5,5.1,23.2,11.6,30.4,19.1c-15.1-9.2-35.3-17.6-55-18.9
			c-26.6-1.7-59.5,32.3-62.4,42c-4.7,15.7,39.2,8.7,78,16.7c38.8,8.1,68.4-1.2,73.2-16.9C402.3,486.2,394.5,470.8,355.7,462.7z"/>
		<g>
			<path class="st26" d="M226.8,506.7l4.2,12.2l-7.2-11.4c-9.1,2.5-18,5.7-26.7,9.5c5.8,4.9,12.6,9.1,20.2,12.7c0,0,0,0,0,0
				c42.1,19.6,108.4,17.4,163.2-3.6C343.6,500.4,283.3,491.8,226.8,506.7z"/>
			<path class="st26" d="M225.9,421.5c-1.9-0.3-3.8-0.7-5.7-1.1c5.8,6.5,12.9,12,21.1,16.5l6.7-9.6l-4.3,10.9
				c13,6.6,28.5,10.8,45.2,12.6l0.9-8.4l1.1,8.6c33.2,3.2,70.9-2.8,103.4-17.2l-3.5-8.7C341.7,434.9,285.9,432.4,225.9,421.5z"/>
			<path class="st26" d="M391.6,425l5.4,7.6c10.5-4.9,20.4-10.6,29.5-17.2C415.3,419.4,403.7,422.5,391.6,425z"/>
		</g>
	</g>
	<circle class="st2" cx="273" cy="355.3" r="34.2"/>
	<path class="st19" d="M277.1,381.2c-16.5,0-29.9-13.4-29.9-29.9c0-9.9,4.8-18.7,12.3-24.2c-10.6,5-17.8,15.8-17.8,28.3
		c0,17.3,14,31.4,31.4,31.4c12.5,0,23.3-7.3,28.3-17.8C295.8,376.4,287,381.2,277.1,381.2z"/>
	<path class="st0" d="M285.1,360c-1.6-0.3-3.1,0.7-3.5,2.3c-0.3,1.6,0.7,3.1,2.3,3.5c1.6,0.3,3.1-0.7,3.5-2.3
		C287.7,361.8,286.7,360.3,285.1,360z"/>
	<path class="st0" d="M276.4,365.4c-2.6-0.5-5.2,1.2-5.7,3.8c-0.5,2.6,1.2,5.2,3.8,5.7c2.6,0.5,5.2-1.2,5.7-3.8
		C280.7,368.5,279,365.9,276.4,365.4z"/>
	<path class="st2" d="M389.3,321.2c-18.9,0-34.2,15.3-34.2,34.2s15.3,34.2,34.2,34.2c18.9,0,34.2-15.3,34.2-34.2
		S408.1,321.2,389.3,321.2z"/>
	<path class="st0" d="M400.9,360c-1.6-0.3-3.1,0.7-3.5,2.3c-0.3,1.6,0.7,3.1,2.3,3.5c1.6,0.3,3.1-0.7,3.5-2.3
		C403.5,361.8,402.5,360.3,400.9,360z"/>
	<path class="st0" d="M392.2,365.4c-2.6-0.5-5.2,1.2-5.7,3.8c-0.5,2.6,1.2,5.2,3.8,5.7c2.6,0.5,5.2-1.2,5.7-3.8
		C396.5,368.5,394.8,365.9,392.2,365.4z"/>
	<path class="st19" d="M392.8,381.2c-16.5,0-29.9-13.4-29.9-29.9c0-9.9,4.8-18.7,12.3-24.2c-10.6,5-17.8,15.8-17.8,28.3
		c0,17.3,14,31.4,31.4,31.4c12.5,0,23.3-7.3,28.3-17.8C411.6,376.4,402.8,381.2,392.8,381.2z"/>
	<path class="st18" d="M273,397.4c-9.7,0-18.9-2.5-26.8-7c6.3,7.9,15.9,13,26.8,13c10.9,0,20.6-5.1,26.8-13
		C291.9,394.8,282.7,397.4,273,397.4z"/>
	<path class="st18" d="M389.3,397.4c-9.7,0-18.9-2.5-26.8-7c6.3,7.9,15.9,13,26.8,13c10.9,0,20.6-5.1,26.8-13
		C408.2,394.8,399,397.4,389.3,397.4z"/>
	<path class="st18" d="M389.3,311.7c9.7,0,18.9,2.5,26.8,7c-6.3-7.9-15.9-13-26.8-13c-10.9,0-20.6,5.1-26.8,13
		C370.4,314.3,379.5,311.7,389.3,311.7z"/>
	<path class="st18" d="M273,311.7c9.7,0,18.9,2.5,26.8,7c-6.3-7.9-15.9-13-26.8-13c-10.9,0-20.6,5.1-26.8,13
		C254.1,314.3,263.2,311.7,273,311.7z"/>
</g>
</svg>
