<?xml version="1.0" encoding="utf-8"?>
<!-- Generator: Adobe Illustrator 22.0.0, SVG Export Plug-In . SVG Version: 6.00 Build 0)  -->
<svg version="1.1" id="Ebene_1" xmlns="http://www.w3.org/2000/svg" xmlns:xlink="http://www.w3.org/1999/xlink" x="0px" y="0px"
	 viewBox="0 0 1191 1191" style="enable-background:new 0 0 1191 1191;" xml:space="preserve">
<style type="text/css">
	.st0{fill-rule:evenodd;clip-rule:evenodd;fill:#EBF5F2;}
	.st1{fill-rule:evenodd;clip-rule:evenodd;fill:#FFFFF5;}
	.st2{fill-rule:evenodd;clip-rule:evenodd;fill:#D7E1DE;}
	.st3{fill-rule:evenodd;clip-rule:evenodd;fill:#EFCAA6;}
	.st4{fill-rule:evenodd;clip-rule:evenodd;}
	.st5{fill-rule:evenodd;clip-rule:evenodd;fill:#634E42;}
	.st6{fill-rule:evenodd;clip-rule:evenodd;fill:#754D33;}
	.st7{fill-rule:evenodd;clip-rule:evenodd;fill:#73C7D2;}
	.st8{fill-rule:evenodd;clip-rule:evenodd;fill:url(#SVGID_1_);}
	.st9{opacity:0.3;fill-rule:evenodd;clip-rule:evenodd;fill:#FFFFFF;}
	.st10{fill-rule:evenodd;clip-rule:evenodd;fill:#D0A486;}
	.st11{fill-rule:evenodd;clip-rule:evenodd;fill:#C5997C;}
	.st12{fill-rule:evenodd;clip-rule:evenodd;fill:#FFDEBA;}
	.st13{fill-rule:evenodd;clip-rule:evenodd;fill:url(#SVGID_2_);}
	.st14{opacity:0.4;fill-rule:evenodd;clip-rule:evenodd;fill:#FFFFFF;}
	.st15{fill-rule:evenodd;clip-rule:evenodd;fill:#E9845A;}
	.st16{fill-rule:evenodd;clip-rule:evenodd;fill:url(#SVGID_3_);}
	.st17{opacity:0.1;fill-rule:evenodd;clip-rule:evenodd;}
	.st18{fill-rule:evenodd;clip-rule:evenodd;fill:#FFFFFF;}
</style>
<path class="st0" d="M771.1,691.3l-56,76.1c14.4-3,26.7,3.5,37.6,18.2c12.2-27.6,42.6-89.4,42.6-89.4l-70.5-66.7l-31,27.3
	L771.1,691.3z"/>
<path class="st1" d="M724.7,629.6l65.6,66.2c0,0-25.5,62.4-37.7,89.9c12.2-27.6,42.6-89.4,42.6-89.4L724.7,629.6z"/>
<path class="st2" d="M775.3,690.2l-37.8-13.8l33.5,14.9l-24.9,33.8L775.3,690.2z"/>
<polygon class="st3" points="419.8,754.4 426.1,735.4 445,724.3 440.1,753.2 "/>
<path class="st0" d="M385,691.3l56,76.1c-14.4-3-26.7,3.5-37.6,18.2c-12.2-27.6-42.6-89.4-42.6-89.4l70.5-66.7l31,27.3L385,691.3z"
	/>
<path class="st2" d="M382,690.3l22.8,27.9L385,691.3l29.9-13.3L382,690.3z"/>
<path class="st1" d="M437,634.6l-5.7-5l-70.5,66.7c0,0,30.4,61.9,42.6,89.4c-12.2-27.6-34.1-88.6-34.1-88.6L437,634.6z"/>
<polygon class="st3" points="734.1,754.4 727.8,735.4 708.9,724.3 713.8,753.2 "/>
<g>
	<path class="st4" d="M433.6,1008.4c10-3.3,20-6.6,30-9.9c5.2,9.4,10.1,20.9,15.3,30.3c-25.9,15.2-58.8,27.6-86.9,30.3
		C391.2,1037.8,401.3,1023.9,433.6,1008.4z"/>
	<path class="st4" d="M726.6,1008.4c32.3,15.4,42.4,29.4,41.6,50.7c-28.2-2.8-61-15.1-86.9-30.3c5.2-9.4,10.1-20.9,15.3-30.3
		C706.6,1001.8,716.6,1005.1,726.6,1008.4z"/>
</g>
<path class="st5" d="M724.7,796.6v208.1c0,0-8,6.8-17.5,6.8c-10.2,0-16.3-6.8-16.3-6.8V839.7c-83.8,35.2-147.2,35.2-221.8,0.9v164.2
	c0,0-7.4,5.4-20.3,5.4c-11.3,0-16.2-5.4-16.2-5.4s0-147.2,0-208.1C432.7,795.2,724.7,796.6,724.7,796.6z"/>
<path class="st0" d="M724.7,513.9v133.8v149c-97.4,22.9-194.7,24.4-292.1,0c0-36.6,0-150.7,0-150.7c0-44,0-88,0-132H724.7z"/>
<polygon class="st6" points="476.2,222.9 450.9,222.9 409.9,257.9 415.2,323.4 "/>
<polygon class="st7" points="553.1,672.3 569.9,643.3 525.7,643.3 546.5,679.3 539.3,775.6 573.7,805.3 595.8,775.6 "/>
<radialGradient id="SVGID_1_" cx="591.2184" cy="420.5564" r="212.9032" gradientUnits="userSpaceOnUse">
	<stop  offset="0" style="stop-color:#F9E8D8"/>
	<stop  offset="1" style="stop-color:#E5C3A0"/>
</radialGradient>
<path class="st8" d="M397,351.2c3.2-7,8.7-10.7,14.8-10.8c13.9-84.1,60-147.8,176-147.8c121.4,0,163.3,68.1,169.7,163.8c0,0,0,0,0,0
	c10-9,22.5-6.6,27.9,5.4c5.4,12,1.6,29-8.4,38c-6.1,5.5-13.2,6.7-19,4.1c-2.6,69.8-18.2,149.2-33.3,225.7
	c-100.7,27.6-197.5,22.8-292.1,0c-10.8-68.7-28.1-158.6-25.6-239c-0.6-0.5-1.2-0.9-1.8-1.5C395.3,380.2,391.6,363.2,397,351.2z"/>
<path class="st9" d="M536.2,197.6c-78.6,16.5-112.7,72.6-124.3,142.8c-6.1,0.1-11.7,3.8-14.8,10.8c-5.4,12-1.6,29,8.4,38
	c0.6,0.5,1.2,1,1.8,1.5c-2.6,80.4,14.8,170.2,25.6,239c16.8,4.1,33.7,7.5,50.7,10.4C440.4,431.7,503.8,291.1,536.2,197.6z"/>
<path class="st10" d="M526.7,431.7c2.7,9.9,11.8,17.2,22.6,17.2c4.2,0,8.2-1.1,11.7-3.1c-1.5,0.2-3,0.3-4.6,0.3
	C544.3,446.1,533.6,440.5,526.7,431.7z"/>
<path class="st9" d="M526.7,431.7c0,0,8,7.4,17.3,10.8c9.3,3.4,17,3.3,17,3.3c-1.5,0.2-3,0.3-4.6,0.3
	C544.3,446.1,533.6,440.5,526.7,431.7z"/>
<path class="st11" d="M618.4,568.7c0.8,12-1.7,22.6-5.5,34c-4,11.8-14,28.7-30.2,26.6c-7.6-1-14.3-5.6-19.4-10.5
	c-0.7-0.7-1.4-1.4-2.1-2.1c-1.3,2.1-2.9,4.1-4.7,5.8c-2.5,2.3-5.5,4.2-9.1,4.8c-25.7,4.7-40.1-43.6-36.3-59.4
	c1.7,13.9,4.6,25.3,12.2,37.8c4.6,7.5,16.1,24.2,27.7,15.6c3-2.2,5.2-5.2,6.9-8.5c-4.3-5.6-13.6-33.4,2.8-30.2
	c11.5,2.3,6.3,21.9,3.6,28.2c-0.2,0.4-0.4,0.8-0.5,1.2c1,1.3,2.1,2.5,3.3,3.6c8.3,8.3,20.6,14.3,30.8,4.6
	C612,606.7,615.4,586.5,618.4,568.7L618.4,568.7z M562.2,594.1c-0.7-6.5-4.5-8.3-5.5-0.4c-0.6,4.7,1.2,9.3,3.6,13.4
	C561.6,602.9,562.7,598.5,562.2,594.1z"/>
<path class="st10" d="M660.2,543.5c-51-49.5-148.5-45.4-195,3.9C512.1,507.7,584.9,505.4,660.2,543.5z"/>
<path class="st9" d="M465.2,547.4c73.7-36.8,130.8-26.9,195-3.9C584.9,505.4,512.1,507.7,465.2,547.4z"/>
<path class="st10" d="M752.2,383.3c2.8-11.8,16.9-18.1,23.8-4.9c-0.2-0.5-0.3-0.9-0.5-1.4c-3.1-7.5-11.5-11.4-18.1-5.3
	c6.8-9.2,20.2-12.8,27-1C771.8,346.4,750,369.5,752.2,383.3z"/>
<path class="st1" d="M432.7,629.6v167c9.1,2.2,18.3,4.1,27.4,5.9l23.2-162.6C466.4,637.1,449.5,633.6,432.7,629.6z"/>
<path class="st6" d="M457.5,184.6c-7.5-13-10.6-30.1-7.6-52.8c96.1,81.1,281-75.4,294.2,138.9l18.7,20.2l-5.3,65.4l-58-103.2
	c-106.2-50-269.2,41.8-318.2-78.5C402.4,184.5,428.8,186.1,457.5,184.6z"/>
<polygon class="st3" points="757.3,797.5 740.3,746.3 699,736 722,840.1 "/>
<polygon class="st12" points="740.3,746.3 699,736 722,840.1 708.2,746.6 "/>
<polygon class="st3" points="396.5,797.5 413.5,746.3 454.8,736 431.9,840.1 "/>
<polygon class="st12" points="413.5,746.3 454.8,736 431.9,840.1 445.7,746.6 "/>
<g>
	
		<linearGradient id="SVGID_2_" gradientUnits="userSpaceOnUse" x1="2568.668" y1="273.1045" x2="2635.0195" y2="273.1045" gradientTransform="matrix(-1 0 0 1 3044.8945 0)">
		<stop  offset="0" style="stop-color:#FA9271"/>
		<stop  offset="0.5056" style="stop-color:#ED7C54"/>
		<stop  offset="1" style="stop-color:#B5593B"/>
	</linearGradient>
	<polygon class="st13" points="476.2,222.9 450.9,222.9 409.9,257.9 415.2,323.4 	"/>
	<polygon class="st14" points="436.3,235.3 420.6,261.1 415.2,323.4 409.9,257.9 	"/>
	<polygon class="st15" points="655.1,289.6 603.1,274 605.7,291.1 671.4,322.5 	"/>
	<polygon class="st15" points="489.3,290.7 540.2,271.7 538.6,288.9 475.2,324.6 	"/>
	
		<linearGradient id="SVGID_3_" gradientUnits="userSpaceOnUse" x1="2282.0603" y1="244.147" x2="2663.5322" y2="244.147" gradientTransform="matrix(-1 0 0 1 3044.8945 0)">
		<stop  offset="0" style="stop-color:#FA9271"/>
		<stop  offset="0.5056" style="stop-color:#ED7C54"/>
		<stop  offset="1" style="stop-color:#B5593B"/>
	</linearGradient>
	<path class="st16" d="M457.5,184.6c-7.5-13-10.6-30.1-7.6-52.8c96.1,81.1,281-75.4,294.2,138.9l18.7,20.2l-5.3,65.4l-58-103.2
		c-106.2-50-269.2,41.8-318.2-78.5C402.4,184.5,428.8,186.1,457.5,184.6z"/>
	<path class="st17" d="M732.1,273.1C727,190.5,696.9,161,656.8,152c46.4,4.5,81.9,29.3,87.4,118.8l18.7,20.2l-5.3,65.4l-1.5-61.8
		L732.1,273.1z"/>
	<path class="st10" d="M752.2,383.3c2.8-11.8,16.9-18.1,23.8-4.9c-0.2-0.5-0.3-0.9-0.5-1.4c-3.1-7.5-11.5-11.4-18.1-5.3
		c6.8-9.2,20.2-12.8,27-1C771.8,346.4,750,369.5,752.2,383.3z"/>
	<path class="st4" d="M621.4,348.3c18.9,0,34.2,15.3,34.2,34.2s-15.3,34.2-34.2,34.2c-18.9,0-34.2-15.3-34.2-34.2
		S602.5,348.3,621.4,348.3z"/>
	<path class="st9" d="M617.3,408.3c16.5,0,29.9-13.4,29.9-29.9c0-9.9-4.8-18.7-12.3-24.2c10.6,5,17.8,15.8,17.8,28.3
		c0,17.3-14,31.4-31.4,31.4c-12.5,0-23.3-7.3-28.3-17.8C598.6,403.4,607.4,408.3,617.3,408.3z"/>
	<path class="st18" d="M621.4,387.1c-1.6-0.3-3.1,0.7-3.5,2.3c-0.3,1.6,0.7,3.1,2.3,3.5c1.6,0.3,3.1-0.7,3.5-2.3
		C624,388.9,623,387.4,621.4,387.1z"/>
	<path class="st18" d="M612.7,392.5c-2.6-0.5-5.2,1.2-5.7,3.8c-0.5,2.6,1.2,5.2,3.8,5.7c2.6,0.5,5.2-1.2,5.7-3.8
		C617,395.5,615.3,393,612.7,392.5z"/>
	<path class="st4" d="M505.1,348.3c18.9,0,34.2,15.3,34.2,34.2s-15.3,34.2-34.2,34.2c-18.9,0-34.2-15.3-34.2-34.2
		S486.2,348.3,505.1,348.3z"/>
	<path class="st18" d="M505.6,387.1c-1.6-0.3-3.1,0.7-3.5,2.3c-0.3,1.6,0.7,3.1,2.3,3.5c1.6,0.3,3.1-0.7,3.5-2.3
		C508.2,388.9,507.2,387.4,505.6,387.1z"/>
	<path class="st18" d="M496.9,392.5c-2.6-0.5-5.2,1.2-5.7,3.8c-0.5,2.6,1.2,5.2,3.8,5.7c2.6,0.5,5.2-1.2,5.7-3.8
		C501.2,395.5,499.5,393,496.9,392.5z"/>
	<path class="st9" d="M501.5,408.3c16.5,0,29.9-13.4,29.9-29.9c0-9.9-4.8-18.7-12.3-24.2c10.6,5,17.8,15.8,17.8,28.3
		c0,17.3-14,31.4-31.4,31.4c-12.5,0-23.3-7.3-28.3-17.8C482.8,403.4,491.6,408.3,501.5,408.3z"/>
	<path class="st11" d="M621.4,424.5c9.7,0,18.9-2.5,26.8-7c-6.3,7.9-15.9,13-26.8,13s-20.6-5.1-26.8-13
		C602.5,421.9,611.6,424.5,621.4,424.5z"/>
	<path class="st11" d="M505.1,424.5c9.7,0,18.9-2.5,26.8-7c-6.3,7.9-15.9,13-26.8,13s-20.6-5.1-26.8-13
		C486.2,421.9,495.3,424.5,505.1,424.5z"/>
	<path class="st11" d="M505.1,338.8c-9.7,0-18.9,2.5-26.8,7c6.3-7.9,15.9-13,26.8-13s20.6,5.1,26.8,13
		C524,341.3,514.8,338.8,505.1,338.8z"/>
	<path class="st11" d="M621.4,338.8c-9.7,0-18.9,2.5-26.8,7c6.3-7.9,15.9-13,26.8-13s20.6,5.1,26.8,13
		C640.3,341.3,631.1,338.8,621.4,338.8z"/>
</g>
</svg>
